<?xml version="1.0" encoding="UTF-8" standalone="no"?>
<!-- Generator: Adobe Illustrator 14.0.0, SVG Export Plug-In  -->

<svg
   xmlns:dc="http://purl.org/dc/elements/1.1/"
   xmlns:cc="http://creativecommons.org/ns#"
   xmlns:rdf="http://www.w3.org/1999/02/22-rdf-syntax-ns#"
   xmlns:svg="http://www.w3.org/2000/svg"
   xmlns="http://www.w3.org/2000/svg"
   xmlns:xlink="http://www.w3.org/1999/xlink"
   xmlns:sodipodi="http://sodipodi.sourceforge.net/DTD/sodipodi-0.dtd"
   xmlns:inkscape="http://www.inkscape.org/namespaces/inkscape"
   version="1.1"
   x="0px"
   y="0px"
   width="90"
   height="90"
   viewBox="-0.424 -0.244 90 90"
   enable-background="new -0.424 -0.244 758 171"
   xml:space="preserve"
   id="svg2"
   inkscape:version="0.91 r13725"
   sodipodi:docname="bubuntu.svg"><metadata
     id="metadata24"><rdf:RDF><cc:Work
         rdf:about=""><dc:format>image/svg+xml</dc:format><dc:type
           rdf:resource="http://purl.org/dc/dcmitype/StillImage" /><dc:title /></cc:Work></rdf:RDF></metadata><defs
     id="defs22" /><sodipodi:namedview
     pagecolor="#ffffff"
     bordercolor="#666666"
     borderopacity="1"
     objecttolerance="10"
     gridtolerance="10"
     guidetolerance="10"
     inkscape:pageopacity="0"
     inkscape:pageshadow="2"
     inkscape:window-width="1260"
     inkscape:window-height="962"
     id="namedview20"
     showgrid="false"
     inkscape:zoom="8"
     inkscape:cx="73.387729"
     inkscape:cy="45.24181"
     inkscape:window-x="10"
     inkscape:window-y="52"
     inkscape:window-maximized="0"
     inkscape:current-layer="g3414"
     inkscape:object-nodes="true"
     inkscape:snap-smooth-nodes="true"><inkscape:grid
       type="xygrid"
       id="grid4152" /></sodipodi:namedview><circle
     cx="44.576"
     cy="44.756001"
     r="45"
     id="circle4"
     style="fill:#404552;fill-opacity:1" /><g
     id="g4413"
     style="opacity:0.23299997"
     transform="matrix(0.94375138,0,0,0.94375138,-84.322148,0.70159333)"><g
       transform="matrix(0.3515625,0,0,0.3515625,91.58062,1.6800979)"
       id="g3414"><path
         style="fill:#ffffff"
         inkscape:connector-curvature="0"
         id="budgie"
         d="m 168,154 c -14.784,0 -27.327,10.913 -31,25 -1.1005,2.868 -1.8854,4.0332 -3,6 -1.4507,2.5283 -3.58,5.7384 -7.5796,8.6305 -3.5417,1.996 -5.7642,2.5916 -10.42,2.3695 -3.2045,-0.48252 -3.9754,-0.99933 -6,-2 -3.139,-2.5679 -3.6167,-3.4154 -6,-8 0.34022,4.8952 0.0467,6.3083 2,15 5.1954,16.95 23.426,31 45,31 15.992,0 30.554,-6.7124 38.895,-16.957 3.0503,-3.7466 5.3472,-6.7027 7.5789,-11.87 2.0305,-4.701 2.5248,-10.791 2.5263,-16.174 0.005,-18.276 -14.327,-33 -32,-33 z" /><use
         xlink:href="#budgie"
         transform="matrix(-0.5,0.86603,-0.86603,-0.5,302.85,81.149)"
         height="100%"
         width="100%"
         y="0"
         x="0"
         id="use3406" /><use
         xlink:href="#budgie"
         transform="matrix(-0.5,-0.86603,0.86603,-0.5,81.149,302.85)"
         height="100%"
         width="100%"
         y="0"
         x="0"
         id="use3408" /></g></g><path
     style="opacity:0.757;fill:#ffffff;fill-opacity:1;fill-rule:nonzero;stroke:none;stroke-width:0.5;stroke-linejoin:round;stroke-miterlimit:4;stroke-dasharray:none;stroke-opacity:1"
     d="M 45 19 A 26 26 0 0 0 33.791016 21.585938 L 37.798828 28.527344 A 18 18 0 0 1 45 27 A 18 18 0 0 1 62.867188 43 L 70.898438 43 A 26 26 0 0 0 63.082031 26.371094 A 8 8 0 0 1 56 25.927734 A 8 8 0 0 1 52.070312 20.005859 A 26 26 0 0 0 45 19 z M 30.314453 23.5625 A 26 26 0 0 0 19.816406 38.625 A 8 8 0 0 1 23 45 A 8 8 0 0 1 19.826172 51.373047 A 26 26 0 0 0 30.326172 66.414062 L 34.333984 59.474609 A 18 18 0 0 1 27 45 A 18 18 0 0 1 34.333984 30.525391 L 30.314453 23.5625 z M 62.878906 47 A 18 18 0 0 1 45 63 A 18 18 0 0 1 37.792969 61.482422 L 33.789062 68.417969 A 26 26 0 0 0 45 71 A 26 26 0 0 0 52.074219 69.992188 A 8 8 0 0 1 56 64.072266 A 8 8 0 0 1 63.091797 63.628906 A 26 26 0 0 0 70.916016 47 L 62.878906 47 z "
     transform="translate(-0.42399999,-0.244)"
     id="circle4222" /><circle
     style="opacity:0.757;fill:#ffffff;fill-opacity:1;fill-rule:nonzero;stroke:none;stroke-width:0.5;stroke-linejoin:round;stroke-miterlimit:4;stroke-dasharray:none;stroke-opacity:1"
     id="circle4269"
     cx="14.576"
     cy="44.756001"
     r="6" /><circle
     r="6"
     cy="-60.972324"
     cx="-13.544826"
     id="circle4329"
     style="opacity:0.757;fill:#ffffff;fill-opacity:1;fill-rule:nonzero;stroke:none;stroke-width:0.5;stroke-linejoin:round;stroke-miterlimit:4;stroke-dasharray:none;stroke-opacity:1"
     transform="matrix(-0.5,0.8660254,-0.8660254,-0.5,0,0)" /><circle
     style="opacity:0.757;fill:#ffffff;fill-opacity:1;fill-rule:nonzero;stroke:none;stroke-width:0.5;stroke-linejoin:round;stroke-miterlimit:4;stroke-dasharray:none;stroke-opacity:1"
     id="circle4347"
     cx="-91.064491"
     cy="16.216324"
     r="6"
     transform="matrix(-0.5,-0.8660254,0.8660254,-0.5,0,0)" /></svg>