<?xml version="1.0" encoding="UTF-8" standalone="no"?>
<svg xmlns:rdf="http://www.w3.org/1999/02/22-rdf-syntax-ns#" xmlns="http://www.w3.org/2000/svg" height="540" width="960" version="1.1" xmlns:cc="http://creativecommons.org/ns#" xmlns:dc="http://purl.org/dc/elements/1.1/" viewBox="0 0 960 540">
 <title>budgie-remix Google+ Community Cover</title>
 <metadata>
  <rdf:RDF>
   <cc:Work rdf:about="">
    <dc:format>image/svg+xml</dc:format>
    <dc:type rdf:resource="http://purl.org/dc/dcmitype/StillImage"/>
    <dc:title>budgie-remix Google+ Community Cover</dc:title>
    <dc:creator>
     <cc:Agent>
      <dc:title>HEXcube</dc:title>
     </cc:Agent>
    </dc:creator>
    <cc:license rdf:resource="http://creativecommons.org/licenses/by-sa/4.0/"/>
    <dc:source>Budgie Logo by Yuri Henrique</dc:source>
   </cc:Work>
  </rdf:RDF>
 </metadata>
 <rect height="540" width="960" y="0" x="0" fill="#383c4a"/>
 <path fill="#fff" d="m480 120a150 150 0 0 0 -150 150 150 150 0 0 0 150 150 150 150 0 0 0 150 -150 150 150 0 0 0 -150 -150zm42.141 22.562c4.2188 0.0492 7.9219 0.60703 12.258 1.3207 18.059 2.9719 36.409 16.197 47.531 35.469 15.012 26 11.648 57.342-5.4844 74.884-8.6015 8.8125-11.168 9.293-16.794 13.078 3.832-6.0352 5.0156-8.3672 5.0039-13.371 0-3.1406-0.9961-5.707-1.5586-7.1602-2.1797-5.543-6.0469-7.8633-10.57-10.541-5.5547-3.2894-11.977-4.2997-16.008-4.2914-3.1289 0.008-4.746 0.0175-8.8593 1.0582-19.523 4.9266-40.828-2.7409-51.117-20.558l0.0109 0.002c-12.305-21.3-4.5703-48.792 17.309-61.417 6.4453-3.7184 14.004-7.2844 21.047-8.0859 1.9336-0.22031 3.7031-0.33867 5.3789-0.37735 0.6328-0.0156 1.2422-0.0187 1.8516-0.0109zm-115.46 50.307c3.8883 0.0492 7.7238 0.53789 11.435 1.4848 11.934 3.0469 13.638 5.0356 19.734 8.0086-7.1484-0.29766-9.7628-0.15359-14.092 2.3531-2.7164 1.5738-4.4461 3.7125-5.4128 4.9253-3.7172 4.6617-3.7922 9.1747-3.8508 14.427-0.0714 6.4547 2.2641 12.517 4.2903 16.002 1.5703 2.7188 2.3847 4.1016 5.3461 7.1484 14.028 14.438 18.039 36.727 7.7519 54.55v-0.0109c-12.297 21.305-39.972 28.347-61.845 15.716-6.443-3.7148-13.309-8.4844-17.523-14.18-4.6325-6.2578-6.5731-11.074-8.9356-17.344-6.4598-17.133-4.1789-39.633 6.9481-58.9 12.667-21.938 35.162-34.448 56.153-34.178zm124.87 102.91c24.586 0 44.531 20.45 44.531 45.703-0.016 7.4414-0.7031 15.773-3.5274 22.266-3.1054 7.1484-6.3046 11.227-10.547 16.406-11.602 14.168-32.227 23.438-54.48 23.438-30.023 0-55.488-18.575-62.114-42.188-3.3281-11.859-2.4562-14.32-2.9297-21.094 3.3164 6.3398 4.7508 8.5312 9.0867 11.027 2.7188 1.5703 5.4375 1.9922 6.9727 2.2266 5.8945 0.89062 9.832-1.3008 14.414-3.8789 5.625-3.1641 9.7031-8.2148 11.719-11.719 1.5586-2.7188 2.3555-4.1133 3.5156-8.2031 5.4844-19.372 22.781-33.984 43.359-33.984z"/>
</svg>
