<?xml version="1.0" standalone="no"?>
<!DOCTYPE svg PUBLIC "-//W3C//DTD SVG 20010904//EN"
 "http://www.w3.org/TR/2001/REC-SVG-20010904/DTD/svg10.dtd">
<svg version="1.0" xmlns="http://www.w3.org/2000/svg"
 width="196.000000pt" height="196.000000pt" viewBox="0 0 196.000000 196.000000"
 preserveAspectRatio="xMidYMid meet">
<metadata>
Created by potrace 1.13, written by Peter Selinger 2001-2015
</metadata>
<g transform="translate(0.000000,196.000000) scale(0.100000,-0.100000)"
fill="#000000" stroke="none">
<path d="M790 1946 c-304 -64 -555 -257 -690 -531 -77 -157 -95 -238 -95 -435
0 -197 18 -278 95 -435 96 -194 251 -349 445 -445 157 -77 238 -95 435 -95
197 0 278 18 435 95 194 96 349 251 445 445 77 157 95 238 95 435 0 197 -18
278 -95 435 -123 249 -359 444 -625 516 -102 27 -346 35 -445 15z m545 -520
c81 -21 141 -51 189 -96 45 -42 106 -146 106 -182 0 -33 19 -56 50 -63 38 -8
38 -16 0 -37 -25 -14 -30 -23 -30 -55 -1 -97 -46 -233 -111 -334 -55 -86 -207
-187 -349 -231 -65 -20 -95 -23 -220 -22 -128 0 -154 3 -222 26 -116 38 -204
92 -283 172 -79 80 -128 163 -150 257 -15 65 -18 210 -6 264 l7 30 16 -35 c31
-70 123 -130 198 -130 79 0 125 37 265 211 157 197 225 237 400 238 50 1 113
-5 140 -13z"/>
</g>
</svg>
