<?xml version="1.0" encoding="UTF-8" standalone="no"?>
<svg xmlns:rdf="http://www.w3.org/1999/02/22-rdf-syntax-ns#" xmlns="http://www.w3.org/2000/svg" height="128" width="128" version="1.1" xmlns:cc="http://creativecommons.org/ns#" xmlns:dc="http://purl.org/dc/elements/1.1/" viewBox="0 0 128 128">
 <title>Budgie Logo</title>
 <metadata>
  <rdf:RDF>
   <cc:Work rdf:about="">
    <dc:format>image/svg+xml</dc:format>
    <dc:type rdf:resource="http://purl.org/dc/dcmitype/StillImage"/>
    <dc:title>Budgie Logo</dc:title>
    <dc:creator>
     <cc:Agent>
      <dc:title>Yuri Henrique</dc:title>
     </cc:Agent>
    </dc:creator>
    <dc:contributor>
     <cc:Agent>
      <dc:title>HEXcube</dc:title>
     </cc:Agent>
    </dc:contributor>
    <dc:description>Official logo for the Budgie desktop environment</dc:description>
    <cc:license rdf:resource="http://creativecommons.org/licenses/by-sa/4.0/"/>
   </cc:Work>
  </rdf:RDF>
 </metadata>
 <circle cy="64" cx="64" r="64" fill="#404552"/>
 <path d="m63 38c6.0449-4.1192 10-5 17-5 15 0 28 13 28 28 0 10-4 20-10 27s-20 15-33 15c-11 0-16-1-27-8-6.5-4.5-12-11-15-18-1.912-5.098-3.007-10.607-3-16 0.0041-3.0696 0.63726-6.0981 1-9 2 6 5 8 9 10 5 2 11 1 15-3 9-9 10.045-15.119 18-21z" fill="#fff"/>
 <circle cy="52" cx="88" r="5" fill="#404552"/>
 <circle cy="50" cx="90" r="2" fill="#fff"/>
 <path d="m50 65c2-3 5-4 8-4 4 0 8 3 8 9 0 5-5 9-11 9-5 0-11-1-21-5 8-1 9-2 11-3 3-2 3-3 5-6z" fill="#5294e2"/>
 <path fill="#5294e2" d="m115 61-6 3c0.3-2 0.3-4 0-6z"/>
</svg>
