<svg xmlns:rdf="http://www.w3.org/1999/02/22-rdf-syntax-ns#" xmlns="http://www.w3.org/2000/svg" height="256" width="256" version="1.1" xmlns:cc="http://creativecommons.org/ns#" xmlns:xlink="http://www.w3.org/1999/xlink" viewBox="0 0 256 256" xmlns:dc="http://purl.org/dc/elements/1.1/">
 <title>Budgie Logo</title>
 <metadata>
  <rdf:RDF>
   <cc:Work rdf:about="">
    <dc:format>image/svg+xml</dc:format>
    <dc:type rdf:resource="http://purl.org/dc/dcmitype/StillImage"/>
    <dc:title>Budgie Logo</dc:title>
    <dc:creator>
     <cc:Agent>
      <dc:title>Yuri Henrique</dc:title>
     </cc:Agent>
    </dc:creator>
    <dc:contributor>
     <cc:Agent>
      <dc:title>HEXcube</dc:title>
     </cc:Agent>
    </dc:contributor>
    <dc:description>Official logo for the Budgie desktop environment</dc:description>
    <cc:license rdf:resource="http://creativecommons.org/licenses/by-sa/4.0/"/>
   </cc:Work>
  </rdf:RDF>
 </metadata>
 <circle cy="128" cx="128" r="128" fill="#404552"/>
 <path d="m126 76c11.2-8 25-9 38-8 14.4 1.7 28.6 7.2 38 18 6.5 7 10.7 16.7 12 26l1 11c1.7 18.6-7 38-19 52-11.6 13.7-26.7 21.5-44 26-25 6.4-53.8 3-76-11-13-9-24.5-22.3-31-38-5.2-15.7-5.6-31.3-3-47 2.6 9 10 16.4 19 19s20.3 1.3 27-5c14.2-13.3 22.3-32.6 38-43z" fill="#fff"/>
 <path fill="#5294e2" d="m226 116l-11 7-1-11zm-126 15c3-4.6 10-8 14-8 11.8 0 18 6.6 18 17s-11.6 18-22 18c-14.4 0-26.3-4-42-8 11.8-1.3 23-5.6 30-16z"/>
 <circle cy="103" cx="177" r="9" fill="#404552"/>
 <circle cy="99" cx="181" r="3" fill="#fff"/>
</svg>
