<svg xmlns="http://www.w3.org/2000/svg" height="16" width="16" viewBox="0 0 16 16">
 <g fill="#bebebe">
  <path d="m8 0a8 8 0 0 0 -8 8 8 8 0 0 0 8 8 8 8 0 0 0 8 -8 8 8 0 0 0 -8 -8zm2 4.125c1.875 0 3.5 1.625 3.5 3.5l0.75 0.375-0.826 0.4121c-0.158 0.9728-0.582 1.8979-1.174 2.5879-0.75 0.875-2.5 1.875-4.125 1.875-1.375 0-2-0.125-3.375-1-0.8125-0.563-1.5-1.375-1.875-2.25-0.239-0.6372-0.3759-1.3259-0.375-2 0.0005-0.3837 0.0797-0.7623 0.125-1.125 0.25 0.75 0.625 1 1.125 1.25 0.625 0.25 1.375 0.125 1.875-0.375 1.125-1.125 1.2556-1.8899 2.25-2.625 0.7556-0.5149 1.25-0.625 2.125-0.625z"/>
  <circle cx="11" cy="7" r="0.5"/>
  <path d="m6.5 8.75c0.25-0.375 0.625-0.5 1-0.5 0.5 0 1 0.375 1 1.125 0 0.625-0.625 1.125-1.375 1.125-0.625 0-1.375-0.125-2.625-0.625 1-0.125 1.125-0.25 1.375-0.375 0.375-0.25 0.375-0.375 0.625-0.75z"/>
 </g>
</svg>
