<?xml version="1.0" encoding="UTF-8" standalone="no"?>
<svg xmlns:rdf="http://www.w3.org/1999/02/22-rdf-syntax-ns#" xmlns="http://www.w3.org/2000/svg" height="16" width="16" version="1.1" xmlns:cc="http://creativecommons.org/ns#" xmlns:dc="http://purl.org/dc/elements/1.1/" viewBox="0 0 16 16">
 <metadata>
  <rdf:RDF>
   <cc:Work rdf:about="">
    <dc:format>image/svg+xml</dc:format>
    <dc:type rdf:resource="http://purl.org/dc/dcmitype/StillImage"/>
    <dc:title/>
   </cc:Work>
  </rdf:RDF>
 </metadata>
 <path fill="#bebebe" d="m8 0a8 8 0 0 0 -8 8 8 8 0 0 0 8 8 8 8 0 0 0 8 -8 8 8 0 0 0 -8 -8zm2 4.125c1.83 0 3.411 1.5498 3.486 3.3672l1.014 0.5078-1.088 0.5449c-0.174 0.9243-0.597 1.7961-1.162 2.4551-0.75 0.875-2.5 1.875-4.125 1.875-1.375 0-2-0.125-3.375-1-0.8125-0.563-1.5-1.375-1.875-2.25-0.239-0.6372-0.3759-1.3259-0.375-2 0.0005-0.3837 0.0797-0.7623 0.125-1.125 0.25 0.75 0.625 1 1.125 1.25 0.625 0.25 1.375 0.125 1.875-0.375 1.125-1.125 1.2556-1.8899 2.25-2.625 0.7556-0.5149 1.25-0.625 2.125-0.625z"/>
</svg>
