<?xml version="1.0" encoding="UTF-8" standalone="no"?>
<svg xmlns:rdf="http://www.w3.org/1999/02/22-rdf-syntax-ns#" xmlns="http://www.w3.org/2000/svg" height="22" width="22" version="1.1" xmlns:cc="http://creativecommons.org/ns#" xmlns:dc="http://purl.org/dc/elements/1.1/" viewBox="0 0 22 22">
 <title>Budgie Logo Monochrome Light</title>
 <metadata>
  <rdf:RDF>
   <cc:Work rdf:about="">
    <dc:format>image/svg+xml</dc:format>
    <dc:type rdf:resource="http://purl.org/dc/dcmitype/StillImage"/>
    <dc:title>Budgie Logo Monochrome Light</dc:title>
    <dc:creator>
     <cc:Agent>
      <dc:title>Yuri Henrique and HEXcube</dc:title>
     </cc:Agent>
    </dc:creator>
    <dc:description>Monochrome version of Budgie desktop&apos;s logo</dc:description>
    <cc:license rdf:resource="http://creativecommons.org/licenses/by-sa/4.0/"/>
   </cc:Work>
  </rdf:RDF>
 </metadata>
 <g fill="#fff">
  <path d="m11 0a11 11 0 0 0 -11 11 11 11 0 0 0 11 11 11 11 0 0 0 11 -11 11 11 0 0 0 -11 -11zm2.75 5.6719c2.422 0 4.539 1.9718 4.787 4.3481l0.963 0.48-0.961 0.48c-0.117 1.549-0.764 3.058-1.695 4.145-1.032 1.203-3.438 2.578-5.672 2.578-1.8908 0-2.7501-0.172-4.6408-1.375-1.1169-0.773-2.0622-1.891-2.5779-3.094-0.3286-0.876-0.5168-1.823-0.5156-2.75 0.0007-0.5272 0.1095-1.0477 0.1719-1.5465 0.3437 1.0313 0.8594 1.3745 1.5468 1.7185 0.8594 0.344 1.8907 0.172 2.5782-0.515 1.5468-1.5473 1.7265-2.599 3.0936-3.6098 1.039-0.7079 1.719-0.8593 2.922-0.8593z"/>
  <circle cy="9" cx="15" r="1"/>
  <path d="m9.25 11.5c0.4346-0.408 0.7344-0.5 1.25-0.5 0.6875 0 1.5 0.39062 1.5 1.4219 0 0.859-0.671 1.578-2 1.578-0.8594 0-1.7812-0.312-3.5-1 1.375-0.17187 1.4115-0.36128 1.7-0.5 0.49353-0.3106 0.59175-0.57028 1.05-1z"/>
 </g>
</svg>
