<?xml version="1.0" encoding="UTF-8" standalone="no"?>
<!-- Created with Inkscape (http://www.inkscape.org/) -->

<svg
   xmlns:osb="http://www.openswatchbook.org/uri/2009/osb"
   xmlns:dc="http://purl.org/dc/elements/1.1/"
   xmlns:cc="http://creativecommons.org/ns#"
   xmlns:rdf="http://www.w3.org/1999/02/22-rdf-syntax-ns#"
   xmlns:svg="http://www.w3.org/2000/svg"
   xmlns="http://www.w3.org/2000/svg"
   xmlns:xlink="http://www.w3.org/1999/xlink"
   xmlns:sodipodi="http://sodipodi.sourceforge.net/DTD/sodipodi-0.dtd"
   xmlns:inkscape="http://www.inkscape.org/namespaces/inkscape"
   height="7.5in"
   width="9in"
   viewBox="0 0 810.00001 675.00006"
   id="svg2"
   version="1.1"
   inkscape:version="0.91 r13725"
   sodipodi:docname="ubuBudgieLogotype.svg"
   inkscape:export-filename="/home/lloyd/Computer/aaGraphics/ubuBudgieLogotype.png"
   inkscape:export-xdpi="90"
   inkscape:export-ydpi="90">
  <defs
     id="defs8">
    <linearGradient
       id="Black-7"
       osb:paint="solid"
       gradientTransform="translate(17.049441,27.322217)">
      <stop
         style="stop-color:#000000;stop-opacity:1;"
         offset="0"
         id="stop3867" />
    </linearGradient>
    <linearGradient
       id="White-6"
       osb:paint="solid"
       gradientTransform="matrix(1.4539163,0,0,1.3860061,-1823.1867,-1365.5409)">
      <stop
         style="stop-color:#ffffff;stop-opacity:0.90045249;"
         offset="0"
         id="stop3861" />
    </linearGradient>
    <linearGradient
       id="linearGradient3853"
       osb:paint="solid">
      <stop
         style="stop-color:#f5f6f7;stop-opacity:1;"
         offset="0"
         id="stop3855" />
    </linearGradient>
    <linearGradient
       id="linearGradient3847"
       osb:paint="solid">
      <stop
         style="stop-color:#d3dae3;stop-opacity:1;"
         offset="0"
         id="stop3849" />
    </linearGradient>
    <linearGradient
       id="linearGradient3841"
       osb:paint="solid">
      <stop
         style="stop-color:#5c616c;stop-opacity:1;"
         offset="0"
         id="stop3843" />
    </linearGradient>
    <linearGradient
       id="linearGradient3835"
       osb:paint="solid">
      <stop
         style="stop-color:#404552;stop-opacity:1;"
         offset="0"
         id="stop3837" />
    </linearGradient>
    <linearGradient
       id="linearGradient3829"
       osb:paint="solid"
       gradientTransform="matrix(0.21904037,0,0,1.2462162,5210.6131,8925.9297)">
      <stop
         style="stop-color:#383c4a;stop-opacity:1;"
         offset="0"
         id="stop3831" />
    </linearGradient>
    <linearGradient
       id="linearGradient3823"
       osb:paint="solid">
      <stop
         style="stop-color:#f04a50;stop-opacity:1;"
         offset="0"
         id="stop3825" />
    </linearGradient>
    <linearGradient
       id="linearGradient3817"
       osb:paint="solid">
      <stop
         style="stop-color:#fc4138;stop-opacity:1;"
         offset="0"
         id="stop3819" />
    </linearGradient>
    <linearGradient
       id="linearGradient3811"
       osb:paint="solid">
      <stop
         style="stop-color:#73d216;stop-opacity:1;"
         offset="0"
         id="stop3813" />
    </linearGradient>
    <linearGradient
       id="linearGradient3805"
       osb:paint="solid">
      <stop
         style="stop-color:#4dadd4;stop-opacity:1;"
         offset="0"
         id="stop3807" />
    </linearGradient>
    <linearGradient
       id="linearGradient3799"
       osb:paint="solid">
      <stop
         style="stop-color:#5294e2;stop-opacity:1;"
         offset="0"
         id="stop3801" />
    </linearGradient>
    <linearGradient
       inkscape:collect="always"
       xlink:href="#linearGradient3799"
       id="linearGradient3803"
       x1="154.00345"
       y1="726.5885"
       x2="173.80345"
       y2="726.5885"
       gradientUnits="userSpaceOnUse"
       gradientTransform="translate(-91.713681,-95.394909)" />
    <linearGradient
       inkscape:collect="always"
       xlink:href="#linearGradient3805"
       id="linearGradient3809"
       x1="228.67014"
       y1="726.5885"
       x2="248.47014"
       y2="726.5885"
       gradientUnits="userSpaceOnUse"
       gradientTransform="translate(-91.713681,-95.394909)" />
    <linearGradient
       inkscape:collect="always"
       xlink:href="#linearGradient3811"
       id="linearGradient3815"
       x1="303.33679"
       y1="726.5885"
       x2="323.13681"
       y2="726.5885"
       gradientUnits="userSpaceOnUse"
       gradientTransform="translate(-91.713681,-95.394909)" />
    <linearGradient
       inkscape:collect="always"
       xlink:href="#linearGradient3817"
       id="linearGradient3821"
       x1="378.00345"
       y1="726.5885"
       x2="397.80344"
       y2="726.5885"
       gradientUnits="userSpaceOnUse"
       gradientTransform="translate(-91.713681,-95.394909)" />
    <linearGradient
       inkscape:collect="always"
       xlink:href="#linearGradient3823"
       id="linearGradient3827"
       x1="452.67014"
       y1="726.5885"
       x2="472.47015"
       y2="726.5885"
       gradientUnits="userSpaceOnUse"
       gradientTransform="translate(-91.713681,-95.394909)" />
    <linearGradient
       inkscape:collect="always"
       xlink:href="#linearGradient3829"
       id="linearGradient3833"
       x1="527.33679"
       y1="726.5885"
       x2="547.13678"
       y2="726.5885"
       gradientUnits="userSpaceOnUse"
       gradientTransform="translate(-91.713681,-95.394909)" />
    <linearGradient
       inkscape:collect="always"
       xlink:href="#linearGradient3835"
       id="linearGradient3839"
       x1="602.00348"
       y1="726.5885"
       x2="621.80347"
       y2="726.5885"
       gradientUnits="userSpaceOnUse"
       gradientTransform="translate(-91.713681,-95.394909)" />
    <linearGradient
       inkscape:collect="always"
       xlink:href="#linearGradient3841"
       id="linearGradient3845"
       x1="676.6701"
       y1="726.5885"
       x2="696.47009"
       y2="726.5885"
       gradientUnits="userSpaceOnUse"
       gradientTransform="translate(-91.713681,-95.394909)" />
    <linearGradient
       inkscape:collect="always"
       xlink:href="#linearGradient3847"
       id="linearGradient3851"
       x1="751.33685"
       y1="726.5885"
       x2="771.13684"
       y2="726.5885"
       gradientUnits="userSpaceOnUse"
       gradientTransform="translate(-91.713681,-95.394909)" />
    <linearGradient
       inkscape:collect="always"
       xlink:href="#linearGradient3853"
       id="linearGradient3857"
       x1="825.37848"
       y1="726.5885"
       x2="846.42853"
       y2="726.5885"
       gradientUnits="userSpaceOnUse"
       gradientTransform="translate(-91.713681,-95.394909)" />
  </defs>
  <sodipodi:namedview
     pagecolor="#ffffff"
     bordercolor="#666666"
     borderopacity="1"
     objecttolerance="10"
     gridtolerance="10"
     guidetolerance="10"
     inkscape:pageopacity="0"
     inkscape:pageshadow="2"
     inkscape:window-width="640"
     inkscape:window-height="480"
     id="namedview6"
     showgrid="false"
     inkscape:zoom="0.92679739"
     inkscape:cx="410.85668"
     inkscape:cy="382.5"
     inkscape:current-layer="svg2"
     inkscape:document-units="in"
     units="in"
     showguides="true"
     inkscape:guide-bbox="true">
    <sodipodi:guide
       position="406.77715,-16.184769"
       orientation="1,0"
       id="guide3406" />
  </sodipodi:namedview>
  <metadata
     id="metadata4">
    <rdf:RDF>
      <cc:Work
         rdf:about="">
        <dc:format>image/svg+xml</dc:format>
        <dc:type
           rdf:resource="http://purl.org/dc/dcmitype/StillImage" />
        <dc:title />
      </cc:Work>
    </rdf:RDF>
  </metadata>
  <rect
     style="fill:url(#linearGradient3803);fill-opacity:1;stroke:none;stroke-width:1.25;stroke-miterlimit:4;stroke-dasharray:none;stroke-opacity:1"
     id="rect4497"
     width="19.799999"
     height="19.799999"
     x="62.289768"
     y="621.29358" />
  <rect
     style="fill:url(#linearGradient3809);fill-opacity:1;stroke:none;stroke-width:1.25;stroke-miterlimit:4;stroke-dasharray:none;stroke-opacity:1"
     id="rect4497-5"
     width="19.800001"
     height="19.800001"
     x="136.95645"
     y="621.29358" />
  <rect
     style="fill:url(#linearGradient3815);fill-opacity:1;stroke:none;stroke-width:1.25;stroke-miterlimit:4;stroke-dasharray:none;stroke-opacity:1"
     id="rect4497-5-6"
     width="19.800003"
     height="19.800003"
     x="211.62311"
     y="621.29358" />
  <rect
     style="fill:url(#linearGradient3821);fill-opacity:1;stroke:none;stroke-width:1.25;stroke-miterlimit:4;stroke-dasharray:none;stroke-opacity:1"
     id="rect4497-5-6-9"
     width="19.800005"
     height="19.800005"
     x="286.28976"
     y="621.29358" />
  <rect
     style="fill:url(#linearGradient3827);fill-opacity:1;stroke:none;stroke-width:1.25;stroke-miterlimit:4;stroke-dasharray:none;stroke-opacity:1"
     id="rect4497-5-6-9-3"
     width="19.800007"
     height="19.800007"
     x="360.95645"
     y="621.29358" />
  <rect
     style="fill:url(#linearGradient3833);fill-opacity:1;stroke:none;stroke-width:1.25;stroke-miterlimit:4;stroke-dasharray:none;stroke-opacity:1"
     id="rect4497-5-6-9-3-7"
     width="19.800009"
     height="19.800009"
     x="435.62311"
     y="621.29358" />
  <rect
     style="fill:url(#linearGradient3839);fill-opacity:1;stroke:none;stroke-width:1.25;stroke-miterlimit:4;stroke-dasharray:none;stroke-opacity:1"
     id="rect4497-5-6-9-3-7-4"
     width="19.800011"
     height="19.800011"
     x="510.28979"
     y="621.29358" />
  <rect
     style="fill:url(#linearGradient3845);fill-opacity:1;stroke:none;stroke-width:1.25;stroke-miterlimit:4;stroke-dasharray:none;stroke-opacity:1"
     id="rect4497-5-6-9-3-7-4-5"
     width="19.800013"
     height="19.800013"
     x="584.95642"
     y="621.29358" />
  <rect
     style="fill:url(#linearGradient3851);fill-opacity:1;stroke:none;stroke-width:1.25;stroke-miterlimit:4;stroke-dasharray:none;stroke-opacity:1"
     id="rect4497-5-6-9-3-7-4-5-2"
     width="19.800014"
     height="19.800014"
     x="659.62317"
     y="621.29358" />
  <rect
     style="fill:url(#linearGradient3857);fill-opacity:1;stroke:#b3b3b3;stroke-width:1.25;stroke-miterlimit:4;stroke-dasharray:none;stroke-opacity:1"
     id="rect4497-5-6-9-3-7-4-5-2-5"
     width="19.800016"
     height="19.800016"
     x="734.28979"
     y="621.29358" />
  <flowRoot
     xml:space="preserve"
     id="flowRoot4792"
     style="font-style:normal;font-weight:normal;font-size:40px;line-height:125%;font-family:sans-serif;text-align:start;letter-spacing:0px;word-spacing:0px;writing-mode:lr-tb;text-anchor:start;fill:#000000;fill-opacity:1;stroke:none;stroke-width:1px;stroke-linecap:butt;stroke-linejoin:miter;stroke-opacity:1"
     transform="translate(12.213619,88.361191)"><flowRegion
       id="flowRegion4794"><rect
         id="rect4796"
         width="63.649097"
         height="17.438227"
         x="29.644779"
         y="556.22711"
         style="line-height:125%;text-align:start;writing-mode:lr-tb;text-anchor:start" /></flowRegion><flowPara
       id="flowPara4800"
       style="font-style:normal;font-variant:normal;font-weight:bold;font-stretch:normal;font-size:11.25px;font-family:sans-serif;-inkscape-font-specification:'sans-serif Bold'">#5294E2</flowPara></flowRoot>  <flowRoot
     transform="translate(88.213618,88.361191)"
     style="font-style:normal;font-weight:normal;font-size:40px;line-height:125%;font-family:sans-serif;text-align:start;letter-spacing:0px;word-spacing:0px;writing-mode:lr-tb;text-anchor:start;fill:#000000;fill-opacity:1;stroke:none;stroke-width:1px;stroke-linecap:butt;stroke-linejoin:miter;stroke-opacity:1"
     id="flowRoot4814"
     xml:space="preserve"><flowRegion
       id="flowRegion4816"><rect
         style="line-height:125%;text-align:start;writing-mode:lr-tb;text-anchor:start"
         y="556.22711"
         x="29.644779"
         height="17.438227"
         width="63.649097"
         id="rect4818" /></flowRegion><flowPara
       style="font-style:normal;font-variant:normal;font-weight:bold;font-stretch:normal;font-size:11.25px;font-family:sans-serif;-inkscape-font-specification:'sans-serif Bold'"
       id="flowPara4820">#4DADD4</flowPara></flowRoot>  <flowRoot
     xml:space="preserve"
     id="flowRoot4822"
     style="font-style:normal;font-weight:normal;font-size:40px;line-height:125%;font-family:sans-serif;text-align:start;letter-spacing:0px;word-spacing:0px;writing-mode:lr-tb;text-anchor:start;fill:#000000;fill-opacity:1;stroke:none;stroke-width:1px;stroke-linecap:butt;stroke-linejoin:miter;stroke-opacity:1"
     transform="translate(164.21361,88.361191)"><flowRegion
       id="flowRegion4824"><rect
         id="rect4826"
         width="63.649097"
         height="17.438227"
         x="29.644779"
         y="556.22711"
         style="line-height:125%;text-align:start;writing-mode:lr-tb;text-anchor:start" /></flowRegion><flowPara
       id="flowPara4828"
       style="font-style:normal;font-variant:normal;font-weight:bold;font-stretch:normal;font-size:11.25px;font-family:sans-serif;-inkscape-font-specification:'sans-serif Bold'">#73D216</flowPara></flowRoot>  <flowRoot
     transform="translate(238.21361,88.361191)"
     style="font-style:normal;font-weight:normal;font-size:40px;line-height:125%;font-family:sans-serif;text-align:start;letter-spacing:0px;word-spacing:0px;writing-mode:lr-tb;text-anchor:start;fill:#000000;fill-opacity:1;stroke:none;stroke-width:1px;stroke-linecap:butt;stroke-linejoin:miter;stroke-opacity:1"
     id="flowRoot4830"
     xml:space="preserve"><flowRegion
       id="flowRegion4832"><rect
         style="line-height:125%;text-align:start;writing-mode:lr-tb;text-anchor:start"
         y="556.22711"
         x="29.644779"
         height="17.438227"
         width="63.649097"
         id="rect4834" /></flowRegion><flowPara
       style="font-style:normal;font-variant:normal;font-weight:bold;font-stretch:normal;font-size:11.25px;font-family:sans-serif;-inkscape-font-specification:'sans-serif Bold'"
       id="flowPara4836">#FC4138</flowPara></flowRoot>  <flowRoot
     xml:space="preserve"
     id="flowRoot4838"
     style="font-style:normal;font-weight:normal;font-size:40px;line-height:125%;font-family:sans-serif;text-align:start;letter-spacing:0px;word-spacing:0px;writing-mode:lr-tb;text-anchor:start;fill:#000000;fill-opacity:1;stroke:none;stroke-width:1px;stroke-linecap:butt;stroke-linejoin:miter;stroke-opacity:1"
     transform="translate(312.21361,88.361191)"><flowRegion
       id="flowRegion4840"><rect
         id="rect4842"
         width="63.649097"
         height="17.438227"
         x="29.644779"
         y="556.22711"
         style="line-height:125%;text-align:start;writing-mode:lr-tb;text-anchor:start" /></flowRegion><flowPara
       id="flowPara4844"
       style="font-style:normal;font-variant:normal;font-weight:bold;font-stretch:normal;font-size:11.25px;font-family:sans-serif;-inkscape-font-specification:'sans-serif Bold'">#F04A50</flowPara></flowRoot>  <flowRoot
     transform="translate(386.21361,88.361191)"
     style="font-style:normal;font-weight:normal;font-size:40px;line-height:125%;font-family:sans-serif;text-align:start;letter-spacing:0px;word-spacing:0px;writing-mode:lr-tb;text-anchor:start;fill:#000000;fill-opacity:1;stroke:none;stroke-width:1px;stroke-linecap:butt;stroke-linejoin:miter;stroke-opacity:1"
     id="flowRoot4846"
     xml:space="preserve"><flowRegion
       id="flowRegion4848"><rect
         style="line-height:125%;text-align:start;writing-mode:lr-tb;text-anchor:start"
         y="556.22711"
         x="29.644779"
         height="17.438227"
         width="63.649097"
         id="rect4850" /></flowRegion><flowPara
       style="font-style:normal;font-variant:normal;font-weight:bold;font-stretch:normal;font-size:11.25px;font-family:sans-serif;-inkscape-font-specification:'sans-serif Bold'"
       id="flowPara4852">#383C4A</flowPara></flowRoot>  <flowRoot
     xml:space="preserve"
     id="flowRoot4854"
     style="font-style:normal;font-weight:normal;font-size:40px;line-height:125%;font-family:sans-serif;text-align:start;letter-spacing:0px;word-spacing:0px;writing-mode:lr-tb;text-anchor:start;fill:#000000;fill-opacity:1;stroke:none;stroke-width:1px;stroke-linecap:butt;stroke-linejoin:miter;stroke-opacity:1"
     transform="translate(462.21361,88.361191)"><flowRegion
       id="flowRegion4856"><rect
         id="rect4858"
         width="63.649097"
         height="17.438227"
         x="29.644779"
         y="556.22711"
         style="line-height:125%;text-align:start;writing-mode:lr-tb;text-anchor:start" /></flowRegion><flowPara
       id="flowPara4860"
       style="font-style:normal;font-variant:normal;font-weight:bold;font-stretch:normal;font-size:11.25px;font-family:sans-serif;-inkscape-font-specification:'sans-serif Bold'">#404552</flowPara></flowRoot>  <flowRoot
     transform="translate(536.21361,88.361191)"
     style="font-style:normal;font-weight:normal;font-size:40px;line-height:125%;font-family:sans-serif;text-align:start;letter-spacing:0px;word-spacing:0px;writing-mode:lr-tb;text-anchor:start;fill:#000000;fill-opacity:1;stroke:none;stroke-width:1px;stroke-linecap:butt;stroke-linejoin:miter;stroke-opacity:1"
     id="flowRoot4862"
     xml:space="preserve"><flowRegion
       id="flowRegion4864"><rect
         style="line-height:125%;text-align:start;writing-mode:lr-tb;text-anchor:start"
         y="556.22711"
         x="29.644779"
         height="17.438227"
         width="63.649097"
         id="rect4866" /></flowRegion><flowPara
       style="font-style:normal;font-variant:normal;font-weight:bold;font-stretch:normal;font-size:11.25px;font-family:sans-serif;-inkscape-font-specification:'sans-serif Bold'"
       id="flowPara4868">#5C616C</flowPara></flowRoot>  <flowRoot
     xml:space="preserve"
     id="flowRoot4870"
     style="font-style:normal;font-weight:normal;font-size:40px;line-height:125%;font-family:sans-serif;text-align:start;letter-spacing:0px;word-spacing:0px;writing-mode:lr-tb;text-anchor:start;fill:#000000;fill-opacity:1;stroke:none;stroke-width:1px;stroke-linecap:butt;stroke-linejoin:miter;stroke-opacity:1"
     transform="translate(612.21361,88.361191)"><flowRegion
       id="flowRegion4872"><rect
         id="rect4874"
         width="63.649097"
         height="17.438227"
         x="29.644779"
         y="556.22711"
         style="line-height:125%;text-align:start;writing-mode:lr-tb;text-anchor:start" /></flowRegion><flowPara
       id="flowPara4876"
       style="font-style:normal;font-variant:normal;font-weight:bold;font-stretch:normal;font-size:11.25px;font-family:sans-serif;-inkscape-font-specification:'sans-serif Bold'">#D3DAE3</flowPara></flowRoot>  <flowRoot
     transform="translate(686.21361,88.361191)"
     style="font-style:normal;font-weight:normal;font-size:40px;line-height:125%;font-family:sans-serif;text-align:start;letter-spacing:0px;word-spacing:0px;writing-mode:lr-tb;text-anchor:start;fill:#000000;fill-opacity:1;stroke:none;stroke-width:1px;stroke-linecap:butt;stroke-linejoin:miter;stroke-opacity:1"
     id="flowRoot4878"
     xml:space="preserve"><flowRegion
       id="flowRegion4880"><rect
         style="line-height:125%;text-align:start;writing-mode:lr-tb;text-anchor:start"
         y="556.22711"
         x="29.644779"
         height="17.438227"
         width="63.649097"
         id="rect4882" /></flowRegion><flowPara
       style="font-style:normal;font-variant:normal;font-weight:bold;font-stretch:normal;font-size:11.25px;font-family:sans-serif;-inkscape-font-specification:'sans-serif Bold'"
       id="flowPara4884">#F5F6F7</flowPara></flowRoot>  <g
     id="g3917"
     transform="translate(0,-89.999989)" />
  <g
     id="g4384"
     transform="matrix(0.25000001,0,0,0.25000001,549.8919,346.07822)"
     style="fill:url(#linearGradient3829);stroke:none">
    <path
       id="path4386"
       d="m 392.68727,290.20301 10.70098,6.10452 0,37.93283 a 56.874419,56.775165 0 0 1 22.74451,-4.81304 56.874419,56.775165 0 0 1 56.87433,56.77508 56.874419,56.775165 0 0 1 -56.87433,56.77509 56.874419,56.775165 0 0 1 -56.81365,-55.08322 l -0.0475,0 0,-1.32355 a 56.874419,56.775165 0 0 1 -0.0131,-0.36832 56.874419,56.775165 0 0 1 0.0131,-0.26138 l 0,-75.4415 c -0.088,0.0799 -0.24281,0.21623 -0.24281,0.21623 l -36.21267,36.14829 11.31037,-3.07008 15.1594,15.13297 -15.47362,0 c -13.50424,0 -13.68003,14.00546 -13.68003,14.00546 l 0,51.12205 5.82359,-10.15479 23.73594,0 -9.7798,9.76152 c -9.54892,9.53227 0.24876,19.55988 0.24876,19.55988 l 36.21148,36.14829 -3.07545,-11.29063 15.5391,-15.51198 0,15.9801 c 0,13.48067 14.02994,13.65615 14.02994,13.65615 l 51.21024,0 -10.17136,-5.81343 0,-23.49727 9.85002,9.83162 c 9.54893,9.53227 19.59287,-0.24713 19.59287,-0.24713 l 36.21148,-36.14829 -11.30918,3.07008 -15.67835,-15.65099 15.8819,0 c 13.50422,0 13.67881,-14.00545 13.67882,-14.00545 l 0,-51.12205 -5.8224,10.15478 -23.65618,0 9.9202,-9.90172 c 9.54896,-9.53227 -0.24875,-19.55987 -0.24875,-19.55987 l -36.21155,-36.14829 3.07547,11.29062 -15.72003,15.69258 0,-16.28901 c 0,-13.48067 -14.02994,-13.65615 -14.02994,-13.65615 l -35.96867,0 -0.0821,0 -10.70098,0 z"
       style="fill:url(#linearGradient3829);fill-opacity:1;stroke:none;stroke-width:1.875;stroke-miterlimit:4;stroke-dasharray:none;stroke-opacity:1"
       inkscape:connector-curvature="0" />
    <path
       id="path4388"
       d="m 417.27599,359.62025 a 37.012347,37.048117 0 0 0 -37.01366,37.04745 37.012347,37.048117 0 0 0 37.01366,37.05026 37.012347,37.048117 0 0 0 37.01081,-37.05026 37.012347,37.048117 0 0 0 -37.01081,-37.04745 z m 7.95803,19.93349 c 4.52203,-0.0948 9.05485,1.93194 12.47493,4.86039 3.82238,2.83014 5.6826,7.6194 5.83196,12.27044 0.45638,9.50585 -6.32301,18.15584 -14.83475,21.7354 -9.86746,4.04128 -21.90074,2.39509 -30.29465,-4.2026 -6.9087,-5.35491 -8.95251,-15.1479 -6.80628,-23.3321 0.64648,1.60119 1.49111,3.1638 2.73152,4.38531 2.77525,2.97725 7.52734,2.26689 10.59665,0.15742 2.6572,-2.21252 4.59969,-5.16656 6.78942,-7.82609 2.14071,-3.29198 5.26217,-5.98191 9.03375,-7.19921 1.4633,-0.54831 2.97012,-0.81733 4.47745,-0.84896 z"
       style="fill:url(#linearGradient3829);fill-opacity:1;stroke:none;stroke-width:1.875;stroke-miterlimit:4;stroke-dasharray:none;stroke-opacity:1"
       inkscape:connector-curvature="0" />
  </g>
  <path
     inkscape:connector-curvature="0"
     id="path3149"
     style="font-style:normal;font-variant:normal;font-weight:normal;font-stretch:normal;font-size:60px;line-height:125%;font-family:Ubuntu;-inkscape-font-specification:'Ubuntu, Normal';text-align:start;letter-spacing:0px;word-spacing:0px;writing-mode:lr-tb;text-anchor:start;fill:url(#linearGradient3829);fill-opacity:1;stroke:none;stroke-width:1px;stroke-linecap:butt;stroke-linejoin:miter;stroke-opacity:1"
     d="m 167.8878,516.9069 q -3.09435,0.77358 -8.21937,1.64387 -5.02832,0.87029 -11.70051,0.87029 -5.80191,0 -9.76654,-1.64388 -3.96464,-1.74057 -6.3821,-4.83492 -2.41746,-3.09435 -3.48115,-7.25238 -1.06368,-4.25474 -1.06368,-9.37975 l 0,-28.23595 8.99296,0 0,26.30198 q 0,9.18635 2.90095,13.15099 2.90095,3.96463 9.76654,3.96463 1.45048,0 2.99766,-0.0967 1.54717,-0.0967 2.90095,-0.19339 1.35378,-0.1934 2.41746,-0.2901 1.16038,-0.19339 1.64388,-0.38679 l 0,-42.45062 8.99295,0 0,48.83272 z" />
  <path
     inkscape:connector-curvature="0"
     id="path3151"
     style="font-style:normal;font-variant:normal;font-weight:normal;font-stretch:normal;font-size:60px;line-height:125%;font-family:Ubuntu;-inkscape-font-specification:'Ubuntu, Normal';text-align:start;letter-spacing:0px;word-spacing:0px;writing-mode:lr-tb;text-anchor:start;fill:url(#linearGradient3829);fill-opacity:1;stroke:none;stroke-width:1px;stroke-linecap:butt;stroke-linejoin:miter;stroke-opacity:1"
     d="m 185.92709,470.29824 q 1.64388,-1.06368 4.93162,-2.22406 3.38445,-1.16039 7.73588,-1.16039 5.41512,0 9.57315,1.93397 4.25475,1.93397 7.1557,5.41512 2.90095,3.48114 4.35143,8.31606 1.54718,4.83493 1.54718,10.63683 0,6.09201 -1.83727,11.02363 -1.74058,4.83492 -5.02832,8.21937 -3.28775,3.38444 -7.92929,5.22171 -4.64153,1.83728 -10.44344,1.83728 -6.2854,0 -11.12032,-0.87029 -4.83492,-0.87029 -7.92927,-1.74057 l 0,-72.04034 8.99295,-1.54718 0,26.97886 z m 0,40.22656 q 1.35378,0.38679 3.77124,0.77359 2.51416,0.29009 6.1887,0.29009 7.25239,0 11.60382,-4.73822 4.35145,-4.83493 4.35145,-13.63449 0,-3.86793 -0.77359,-7.25238 -0.77359,-3.38445 -2.51418,-5.80191 -1.74057,-2.51416 -4.54482,-3.86794 -2.70756,-1.45047 -6.5755,-1.45047 -3.67454,0 -6.76889,1.25708 -3.09435,1.25708 -4.73823,2.61086 l 0,31.81379 z" />
  <path
     inkscape:connector-curvature="0"
     id="path3153"
     style="font-style:normal;font-variant:normal;font-weight:normal;font-stretch:normal;font-size:60px;line-height:125%;font-family:Ubuntu;-inkscape-font-specification:'Ubuntu, Normal';text-align:start;letter-spacing:0px;word-spacing:0px;writing-mode:lr-tb;text-anchor:start;fill:url(#linearGradient3829);fill-opacity:1;stroke:none;stroke-width:1px;stroke-linecap:butt;stroke-linejoin:miter;stroke-opacity:1"
     d="m 267.55774,516.9069 q -3.09435,0.77358 -8.21937,1.64387 -5.02832,0.87029 -11.70051,0.87029 -5.80191,0 -9.76655,-1.64388 -3.96463,-1.74057 -6.38209,-4.83492 -2.41747,-3.09435 -3.48115,-7.25238 -1.06368,-4.25474 -1.06368,-9.37975 l 0,-28.23595 8.99295,0 0,26.30198 q 0,9.18635 2.90096,13.15099 2.90095,3.96463 9.76654,3.96463 1.45048,0 2.99765,-0.0967 1.54718,-0.0967 2.90096,-0.19339 1.35378,-0.1934 2.41746,-0.2901 1.16038,-0.19339 1.64387,-0.38679 l 0,-42.45062 8.99296,0 0,48.83272 z" />
  <path
     inkscape:connector-curvature="0"
     id="path3155"
     style="font-style:normal;font-variant:normal;font-weight:normal;font-stretch:normal;font-size:60px;line-height:125%;font-family:Ubuntu;-inkscape-font-specification:'Ubuntu, Normal';text-align:start;letter-spacing:0px;word-spacing:0px;writing-mode:lr-tb;text-anchor:start;fill:url(#linearGradient3829);fill-opacity:1;stroke:none;stroke-width:1px;stroke-linecap:butt;stroke-linejoin:miter;stroke-opacity:1"
     d="m 276.60407,469.52465 q 3.09436,-0.77359 8.21937,-1.64387 5.12502,-0.87029 11.79722,-0.87029 5.9953,0 9.95994,1.74057 3.96463,1.64388 6.2854,4.73823 2.41746,2.99765 3.38444,7.25238 0.96699,4.25474 0.96699,9.37975 l 0,28.23595 -8.99296,0 0,-26.30198 q 0,-4.64152 -0.67689,-7.92927 -0.58019,-3.28775 -2.03067,-5.31842 -1.45047,-2.03066 -3.86793,-2.90095 -2.41747,-0.96698 -5.99531,-0.96698 -1.45048,0 -2.99765,0.0967 -1.54718,0.0967 -2.99765,0.2901 -1.35378,0.0967 -2.51416,0.2901 -1.06369,0.19339 -1.54718,0.29009 l 0,42.45062 -8.99296,0 0,-48.83272 z" />
  <path
     inkscape:connector-curvature="0"
     id="path3157"
     style="font-style:normal;font-variant:normal;font-weight:normal;font-stretch:normal;font-size:60px;line-height:125%;font-family:Ubuntu;-inkscape-font-specification:'Ubuntu, Normal';text-align:start;letter-spacing:0px;word-spacing:0px;writing-mode:lr-tb;text-anchor:start;fill:url(#linearGradient3829);fill-opacity:1;stroke:none;stroke-width:1px;stroke-linecap:butt;stroke-linejoin:miter;stroke-opacity:1"
     d="m 334.09635,468.07418 19.0496,0 0,7.54248 -19.0496,0 0,23.20763 q 0,3.77124 0.58019,6.2854 0.58019,2.41746 1.74058,3.86793 1.16038,1.35378 2.90095,1.93397 1.74057,0.58019 4.06133,0.58019 4.06134,0 6.4788,-0.87028 2.51416,-0.96699 3.48115,-1.35378 l 1.74057,7.44578 q -1.35378,0.67689 -4.73823,1.64387 -3.38444,1.06369 -7.73587,1.06369 -5.12502,0 -8.50947,-1.25708 -3.28774,-1.35378 -5.31841,-3.96464 -2.03067,-2.61086 -2.90096,-6.3821 -0.77358,-3.86794 -0.77358,-8.89626 l 0,-44.86808 8.99295,-1.54717 0,15.56845 z" />
  <path
     inkscape:connector-curvature="0"
     id="path3159"
     style="font-style:normal;font-variant:normal;font-weight:normal;font-stretch:normal;font-size:60px;line-height:125%;font-family:Ubuntu;-inkscape-font-specification:'Ubuntu, Normal';text-align:start;letter-spacing:0px;word-spacing:0px;writing-mode:lr-tb;text-anchor:start;fill:url(#linearGradient3829);fill-opacity:1;stroke:none;stroke-width:1px;stroke-linecap:butt;stroke-linejoin:miter;stroke-opacity:1"
     d="m 401.39948,516.9069 q -3.09435,0.77358 -8.21937,1.64387 -5.02832,0.87029 -11.70051,0.87029 -5.80191,0 -9.76655,-1.64388 -3.96463,-1.74057 -6.3821,-4.83492 -2.41746,-3.09435 -3.48114,-7.25238 -1.06368,-4.25474 -1.06368,-9.37975 l 0,-28.23595 8.99295,0 0,26.30198 q 0,9.18635 2.90096,13.15099 2.90095,3.96463 9.76654,3.96463 1.45048,0 2.99765,-0.0967 1.54718,-0.0967 2.90096,-0.19339 1.35378,-0.1934 2.41746,-0.2901 1.16038,-0.19339 1.64387,-0.38679 l 0,-42.45062 8.99296,0 0,48.83272 z" />
  <path
     inkscape:connector-curvature="0"
     id="path3161"
     style="font-style:normal;font-variant:normal;font-weight:normal;font-stretch:normal;font-size:medium;line-height:125%;font-family:Ubuntu;-inkscape-font-specification:Ubuntu;text-align:start;letter-spacing:0px;word-spacing:0px;writing-mode:lr-tb;text-anchor:start;fill:url(#linearGradient3829);fill-opacity:1;stroke:none;stroke-width:108;stroke-linecap:butt;stroke-linejoin:miter;stroke-miterlimit:4;stroke-dasharray:none;stroke-opacity:1"
     d="m 443.29939,519.18395 q -1.54365,0 -3.38135,-0.0737 -1.76417,-0.0736 -3.60188,-0.2205 -1.76416,-0.14699 -3.52835,-0.36756 -1.76418,-0.2205 -3.23433,-0.58805 l 0,-49.39709 q 1.47015,-0.36753 3.23433,-0.58807 1.76419,-0.22052 3.52835,-0.36753 1.83771,-0.14698 3.60188,-0.22052 1.76418,-0.0735 3.30784,-0.0735 4.41047,0 8.23284,0.66156 3.89592,0.66158 6.6892,2.27873 2.86679,1.54366 4.48397,4.11642 1.61716,2.57278 1.61716,6.32165 0,4.18994 -1.98471,6.90973 -1.9847,2.64627 -5.29255,3.96939 4.48398,1.32314 7.13024,4.18994 2.64628,2.86679 2.64628,8.08585 0,7.64477 -5.6601,11.54067 -5.58656,3.82241 -17.78882,3.82241 z m -6.6892,-24.18399 0,17.93585 q 0.80859,0.0735 1.9112,0.14699 0.95559,0.0736 2.20522,0.14698 1.32314,0 3.01382,0 3.16083,0 5.95411,-0.36752 2.8668,-0.44106 4.99852,-1.47017 2.13172,-1.0291 3.38135,-2.86679 1.32314,-1.83769 1.32314,-4.63097 0,-2.49927 -0.9556,-4.18994 -0.95561,-1.76417 -2.7933,-2.7933 -1.76418,-1.0291 -4.26342,-1.47014 -2.49927,-0.44104 -5.58659,-0.44104 l -9.18845,0 z m 0,-5.73361 7.49779,0 q 2.64627,0 4.99851,-0.36752 2.35223,-0.36755 4.04293,-1.32314 1.76418,-0.95559 2.71977,-2.49927 1.0291,-1.54364 1.0291,-3.89588 0,-2.20524 -1.0291,-3.6754 -1.02911,-1.54366 -2.8668,-2.42574 -1.76419,-0.95561 -4.18993,-1.39665 -2.42575,-0.44104 -5.14554,-0.44104 -2.71977,0 -4.26343,0.0735 -1.54366,0.0737 -2.7933,0.22054 l 0,15.7306 z" />
  <path
     inkscape:connector-curvature="0"
     id="path3163"
     style="font-style:normal;font-variant:normal;font-weight:normal;font-stretch:normal;font-size:medium;line-height:125%;font-family:Ubuntu;-inkscape-font-specification:Ubuntu;text-align:start;letter-spacing:0px;word-spacing:0px;writing-mode:lr-tb;text-anchor:start;fill:url(#linearGradient3829);fill-opacity:1;stroke:none;stroke-width:108;stroke-linecap:butt;stroke-linejoin:miter;stroke-miterlimit:4;stroke-dasharray:none;stroke-opacity:1"
     d="m 488.40203,519.84551 q -4.99852,0 -8.67388,-1.54364 -3.67538,-1.54368 -6.02762,-4.18995 -2.35225,-2.71978 -3.52837,-6.39516 -1.10263,-3.67538 -1.10263,-7.9388 l 0,-31.97581 7.13025,0 0,31.16722 q 0,7.64478 3.38135,11.09962 3.38134,3.45488 8.8209,3.45488 2.71979,0 4.92502,-0.80859 2.27873,-0.8821 3.8959,-2.64629 1.61716,-1.76418 2.49925,-4.48395 0.8821,-2.79328 0.8821,-6.61567 l 0,-31.16722 7.13024,0 0,31.97581 q 0,4.26342 -1.17613,7.9388 -1.10261,3.67538 -3.52837,6.39516 -2.35224,2.64627 -6.02762,4.18995 -3.60187,1.54364 -8.60039,1.54364 z" />
  <path
     inkscape:connector-curvature="0"
     id="path3165"
     style="font-style:normal;font-variant:normal;font-weight:normal;font-stretch:normal;font-size:medium;line-height:125%;font-family:Ubuntu;-inkscape-font-specification:Ubuntu;text-align:start;letter-spacing:0px;word-spacing:0px;writing-mode:lr-tb;text-anchor:start;fill:url(#linearGradient3829);fill-opacity:1;stroke:none;stroke-width:108;stroke-linecap:butt;stroke-linejoin:miter;stroke-miterlimit:4;stroke-dasharray:none;stroke-opacity:1"
     d="m 554.44863,493.23578 q 0,6.61567 -2.05823,11.54068 -2.05821,4.85149 -5.80711,8.08585 -3.74889,3.16081 -8.96793,4.77798 -5.21903,1.54366 -11.46718,1.54366 -3.08733,0 -6.83621,-0.29403 -3.67537,-0.22053 -6.68918,-0.9556 l 0,-49.39709 q 3.01381,-0.73508 6.68918,-0.95562 3.74888,-0.29401 6.83621,-0.29401 6.24815,0 11.46718,1.61715 5.21904,1.54368 8.96793,4.778 3.7489,3.16083 5.80711,8.08584 2.05823,4.85151 2.05823,11.46719 z m -27.7124,19.70003 q 10.14406,0 15.14258,-5.14555 4.99852,-5.21902 4.99852,-14.55448 0,-9.33547 -4.99852,-14.481 -4.99852,-5.21904 -15.14258,-5.21904 -3.0138,0 -4.70447,0.0736 -1.61717,0.0736 -2.27873,0.14698 l 0,38.95902 q 0.66156,0.0735 2.27873,0.14698 1.69067,0.0735 4.70447,0.0735 z" />
  <path
     inkscape:connector-curvature="0"
     id="path3167"
     style="font-style:normal;font-variant:normal;font-weight:normal;font-stretch:normal;font-size:medium;line-height:125%;font-family:Ubuntu;-inkscape-font-specification:Ubuntu;text-align:start;letter-spacing:0px;word-spacing:0px;writing-mode:lr-tb;text-anchor:start;fill:url(#linearGradient3829);fill-opacity:1;stroke:none;stroke-width:108;stroke-linecap:butt;stroke-linejoin:miter;stroke-miterlimit:4;stroke-dasharray:none;stroke-opacity:1"
     d="m 588.7686,493.67682 7.13024,0 0,23.81646 q -0.88208,0.29401 -2.57278,0.66156 -1.61715,0.36753 -3.82237,0.73508 -2.13174,0.36754 -4.70448,0.58806 -2.57278,0.29403 -5.21906,0.29403 -5.36605,0 -9.7765,-1.76418 -4.41045,-1.76419 -7.57128,-5.14552 -3.16082,-3.38137 -4.925,-8.30637 -1.69069,-4.92501 -1.69069,-11.32016 0,-6.39517 1.9112,-11.32019 1.98472,-4.9985 5.29254,-8.37985 3.30785,-3.38136 7.7183,-5.14554 4.48397,-1.76418 9.55598,-1.76418 3.45488,0 6.10114,0.44104 2.71979,0.44106 4.63099,1.02913 1.91118,0.58806 3.08731,1.17611 1.24961,0.58807 1.69067,0.88208 l -2.27875,5.95412 q -2.1317,-1.39665 -5.66006,-2.27874 -3.52837,-0.95559 -7.20375,-0.95559 -3.89591,0 -7.13024,1.39664 -3.16083,1.39664 -5.43956,4.04291 -2.20522,2.64628 -3.45484,6.46869 -1.24964,3.74887 -1.24964,8.45337 0,4.55746 1.0291,8.30636 1.10262,3.74887 3.23434,6.46866 2.20522,2.64627 5.36606,4.11642 3.23432,1.47014 7.57127,1.47014 3.08733,0 5.21903,-0.29401 2.20524,-0.36754 3.16083,-0.66158 l 0,-18.96495 z" />
  <path
     inkscape:connector-curvature="0"
     id="path3169"
     style="font-style:normal;font-variant:normal;font-weight:normal;font-stretch:normal;font-size:medium;line-height:125%;font-family:Ubuntu;-inkscape-font-specification:Ubuntu;text-align:start;letter-spacing:0px;word-spacing:0px;writing-mode:lr-tb;text-anchor:start;fill:url(#linearGradient3829);fill-opacity:1;stroke:none;stroke-width:108;stroke-linecap:butt;stroke-linejoin:miter;stroke-miterlimit:4;stroke-dasharray:none;stroke-opacity:1"
     d="m 602.1623,467.80215 7.13024,0 0,50.94076 -7.13024,0 0,-50.94076 z" />
  <path
     inkscape:connector-curvature="0"
     id="path3171"
     style="font-style:normal;font-variant:normal;font-weight:normal;font-stretch:normal;font-size:medium;line-height:125%;font-family:Ubuntu;-inkscape-font-specification:Ubuntu;text-align:start;letter-spacing:0px;word-spacing:0px;writing-mode:lr-tb;text-anchor:start;fill:url(#linearGradient3829);fill-opacity:1;stroke:none;stroke-width:36;stroke-linecap:butt;stroke-linejoin:miter;stroke-miterlimit:4;stroke-dasharray:none;stroke-opacity:1"
     d="m 614.62414,518.74291 0,-50.94076 31.09371,0 0,6.10112 -23.96347,0 0,15.14256 21.31719,0 0,5.95413 -21.31719,0 0,17.64181 25.80116,0 0,6.10114 -32.9314,0 z" />
  <rect
     style="opacity:0.9;fill:url(#linearGradient3829);fill-opacity:1;stroke:none;stroke-width:1.875;stroke-miterlimit:4;stroke-dasharray:none;stroke-opacity:1"
     id="rect4900"
     width="758.52612"
     height="152.13681"
     x="28.053566"
     y="253.98734"
     rx="0" />
  <g
     transform="matrix(0.25000001,0,0,0.25000001,549.8919,200.0782)"
     id="g5041"
     style="fill:url(#White-6);stroke:none">
    <path
       inkscape:connector-curvature="0"
       style="fill:url(#White-6);fill-opacity:1;stroke:none;stroke-width:1.875;stroke-miterlimit:4;stroke-dasharray:none;stroke-opacity:1"
       d="m 392.68727,290.20301 10.70098,6.10452 0,37.93283 a 56.874419,56.775165 0 0 1 22.74451,-4.81304 56.874419,56.775165 0 0 1 56.87433,56.77508 56.874419,56.775165 0 0 1 -56.87433,56.77509 56.874419,56.775165 0 0 1 -56.81365,-55.08322 l -0.0475,0 0,-1.32355 a 56.874419,56.775165 0 0 1 -0.0131,-0.36832 56.874419,56.775165 0 0 1 0.0131,-0.26138 l 0,-75.4415 c -0.088,0.0799 -0.24281,0.21623 -0.24281,0.21623 l -36.21267,36.14829 11.31037,-3.07008 15.1594,15.13297 -15.47362,0 c -13.50424,0 -13.68003,14.00546 -13.68003,14.00546 l 0,51.12205 5.82359,-10.15479 23.73594,0 -9.7798,9.76152 c -9.54892,9.53227 0.24876,19.55988 0.24876,19.55988 l 36.21148,36.14829 -3.07545,-11.29063 15.5391,-15.51198 0,15.9801 c 0,13.48067 14.02994,13.65615 14.02994,13.65615 l 51.21024,0 -10.17136,-5.81343 0,-23.49727 9.85002,9.83162 c 9.54893,9.53227 19.59287,-0.24713 19.59287,-0.24713 l 36.21148,-36.14829 -11.30918,3.07008 -15.67835,-15.65099 15.8819,0 c 13.50422,0 13.67881,-14.00545 13.67882,-14.00545 l 0,-51.12205 -5.8224,10.15478 -23.65618,0 9.9202,-9.90172 c 9.54896,-9.53227 -0.24875,-19.55987 -0.24875,-19.55987 l -36.21155,-36.14829 3.07547,11.29062 -15.72003,15.69258 0,-16.28901 c 0,-13.48067 -14.02994,-13.65615 -14.02994,-13.65615 l -35.96867,0 -0.0821,0 -10.70098,0 z"
       id="path5043" />
    <path
       inkscape:connector-curvature="0"
       style="fill:url(#White-6);fill-opacity:1;stroke:none;stroke-width:1.875;stroke-miterlimit:4;stroke-dasharray:none;stroke-opacity:1"
       d="m 417.27599,359.62025 a 37.012347,37.048117 0 0 0 -37.01366,37.04745 37.012347,37.048117 0 0 0 37.01366,37.05026 37.012347,37.048117 0 0 0 37.01081,-37.05026 37.012347,37.048117 0 0 0 -37.01081,-37.04745 z m 7.95803,19.93349 c 4.52203,-0.0948 9.05485,1.93194 12.47493,4.86039 3.82238,2.83014 5.6826,7.6194 5.83196,12.27044 0.45638,9.50585 -6.32301,18.15584 -14.83475,21.7354 -9.86746,4.04128 -21.90074,2.39509 -30.29465,-4.2026 -6.9087,-5.35491 -8.95251,-15.1479 -6.80628,-23.3321 0.64648,1.60119 1.49111,3.1638 2.73152,4.38531 2.77525,2.97725 7.52734,2.26689 10.59665,0.15742 2.6572,-2.21252 4.59969,-5.16656 6.78942,-7.82609 2.14071,-3.29198 5.26217,-5.98191 9.03375,-7.19921 1.4633,-0.54831 2.97012,-0.81733 4.47745,-0.84896 z"
       id="path5045" />
  </g>
  <path
     d="m 167.8878,370.90691 q -3.09435,0.77358 -8.21937,1.64387 -5.02832,0.87029 -11.70051,0.87029 -5.80191,0 -9.76654,-1.64388 -3.96464,-1.74057 -6.3821,-4.83492 -2.41746,-3.09435 -3.48115,-7.25237 -1.06368,-4.25474 -1.06368,-9.37975 l 0,-28.23595 8.99296,0 0,26.30198 q 0,9.18635 2.90095,13.15099 2.90095,3.96462 9.76654,3.96462 1.45048,0 2.99766,-0.0967 1.54717,-0.0967 2.90095,-0.19339 1.35378,-0.1934 2.41746,-0.2901 1.16038,-0.19339 1.64388,-0.38679 l 0,-42.45061 8.99295,0 0,48.83271 z"
     style="font-style:normal;font-variant:normal;font-weight:normal;font-stretch:normal;font-size:60px;line-height:125%;font-family:Ubuntu;-inkscape-font-specification:'Ubuntu, Normal';text-align:start;letter-spacing:0px;word-spacing:0px;writing-mode:lr-tb;text-anchor:start;fill:url(#White-6);fill-opacity:1;stroke:none;stroke-width:1px;stroke-linecap:butt;stroke-linejoin:miter;stroke-opacity:1"
     id="path5047"
     inkscape:connector-curvature="0" />
  <path
     d="m 185.92709,324.29826 q 1.64388,-1.06368 4.93162,-2.22406 3.38445,-1.16039 7.73588,-1.16039 5.41512,0 9.57315,1.93397 4.25475,1.93397 7.1557,5.41512 2.90095,3.48114 4.35143,8.31606 1.54718,4.83493 1.54718,10.63683 0,6.09201 -1.83727,11.02363 -1.74058,4.83491 -5.02832,8.21936 -3.28775,3.38444 -7.92929,5.22171 -4.64153,1.83728 -10.44344,1.83728 -6.2854,0 -11.12032,-0.87029 -4.83492,-0.87029 -7.92927,-1.74057 l 0,-72.04035 8.99295,-1.54718 0,26.97888 z m 0,40.22655 q 1.35378,0.38679 3.77124,0.77359 2.51416,0.29009 6.1887,0.29009 7.25239,0 11.60382,-4.73821 4.35145,-4.83493 4.35145,-13.63449 0,-3.86793 -0.77359,-7.25238 -0.77359,-3.38445 -2.51418,-5.80191 -1.74057,-2.51416 -4.54482,-3.86794 -2.70756,-1.45047 -6.5755,-1.45047 -3.67454,0 -6.76889,1.25708 -3.09435,1.25708 -4.73823,2.61086 l 0,31.81378 z"
     style="font-style:normal;font-variant:normal;font-weight:normal;font-stretch:normal;font-size:60px;line-height:125%;font-family:Ubuntu;-inkscape-font-specification:'Ubuntu, Normal';text-align:start;letter-spacing:0px;word-spacing:0px;writing-mode:lr-tb;text-anchor:start;fill:url(#White-6);fill-opacity:1;stroke:none;stroke-width:1px;stroke-linecap:butt;stroke-linejoin:miter;stroke-opacity:1"
     id="path5049"
     inkscape:connector-curvature="0" />
  <path
     d="m 267.55774,370.90691 q -3.09435,0.77358 -8.21937,1.64387 -5.02832,0.87029 -11.70051,0.87029 -5.80191,0 -9.76655,-1.64388 -3.96463,-1.74057 -6.38209,-4.83492 -2.41747,-3.09435 -3.48115,-7.25237 -1.06368,-4.25474 -1.06368,-9.37975 l 0,-28.23595 8.99295,0 0,26.30198 q 0,9.18635 2.90096,13.15099 2.90095,3.96462 9.76654,3.96462 1.45048,0 2.99765,-0.0967 1.54718,-0.0967 2.90096,-0.19339 1.35378,-0.1934 2.41746,-0.2901 1.16038,-0.19339 1.64387,-0.38679 l 0,-42.45061 8.99296,0 0,48.83271 z"
     style="font-style:normal;font-variant:normal;font-weight:normal;font-stretch:normal;font-size:60px;line-height:125%;font-family:Ubuntu;-inkscape-font-specification:'Ubuntu, Normal';text-align:start;letter-spacing:0px;word-spacing:0px;writing-mode:lr-tb;text-anchor:start;fill:url(#White-6);fill-opacity:1;stroke:none;stroke-width:1px;stroke-linecap:butt;stroke-linejoin:miter;stroke-opacity:1"
     id="path5051"
     inkscape:connector-curvature="0" />
  <path
     d="m 276.60407,323.52467 q 3.09436,-0.77359 8.21937,-1.64387 5.12502,-0.87029 11.79722,-0.87029 5.9953,0 9.95994,1.74057 3.96463,1.64388 6.2854,4.73823 2.41746,2.99765 3.38444,7.25238 0.96699,4.25474 0.96699,9.37975 l 0,28.23594 -8.99296,0 0,-26.30197 q 0,-4.64152 -0.67689,-7.92927 -0.58019,-3.28775 -2.03067,-5.31842 -1.45047,-2.03066 -3.86793,-2.90095 -2.41747,-0.96698 -5.99531,-0.96698 -1.45048,0 -2.99765,0.0967 -1.54718,0.0967 -2.99765,0.2901 -1.35378,0.0967 -2.51416,0.2901 -1.06369,0.19339 -1.54718,0.29009 l 0,42.45061 -8.99296,0 0,-48.83271 z"
     style="font-style:normal;font-variant:normal;font-weight:normal;font-stretch:normal;font-size:60px;line-height:125%;font-family:Ubuntu;-inkscape-font-specification:'Ubuntu, Normal';text-align:start;letter-spacing:0px;word-spacing:0px;writing-mode:lr-tb;text-anchor:start;fill:url(#White-6);fill-opacity:1;stroke:none;stroke-width:1px;stroke-linecap:butt;stroke-linejoin:miter;stroke-opacity:1"
     id="path5053"
     inkscape:connector-curvature="0" />
  <path
     d="m 334.09635,322.0742 19.0496,0 0,7.54248 -19.0496,0 0,23.20763 q 0,3.77124 0.58019,6.2854 0.58019,2.41746 1.74058,3.86793 1.16038,1.35377 2.90095,1.93396 1.74057,0.58019 4.06133,0.58019 4.06134,0 6.4788,-0.87028 2.51416,-0.96699 3.48115,-1.35378 l 1.74057,7.44578 q -1.35378,0.67689 -4.73823,1.64387 -3.38444,1.06369 -7.73587,1.06369 -5.12502,0 -8.50947,-1.25708 -3.28774,-1.35378 -5.31841,-3.96464 -2.03067,-2.61086 -2.90096,-6.38209 -0.77358,-3.86794 -0.77358,-8.89626 l 0,-44.86809 8.99295,-1.54718 0,15.56847 z"
     style="font-style:normal;font-variant:normal;font-weight:normal;font-stretch:normal;font-size:60px;line-height:125%;font-family:Ubuntu;-inkscape-font-specification:'Ubuntu, Normal';text-align:start;letter-spacing:0px;word-spacing:0px;writing-mode:lr-tb;text-anchor:start;fill:url(#White-6);fill-opacity:1;stroke:none;stroke-width:1px;stroke-linecap:butt;stroke-linejoin:miter;stroke-opacity:1"
     id="path5055"
     inkscape:connector-curvature="0" />
  <path
     d="m 401.39948,370.90691 q -3.09435,0.77358 -8.21937,1.64387 -5.02832,0.87029 -11.70051,0.87029 -5.80191,0 -9.76655,-1.64388 -3.96463,-1.74057 -6.3821,-4.83492 -2.41746,-3.09435 -3.48114,-7.25237 -1.06368,-4.25474 -1.06368,-9.37975 l 0,-28.23595 8.99295,0 0,26.30198 q 0,9.18635 2.90096,13.15099 2.90095,3.96462 9.76654,3.96462 1.45048,0 2.99765,-0.0967 1.54718,-0.0967 2.90096,-0.19339 1.35378,-0.1934 2.41746,-0.2901 1.16038,-0.19339 1.64387,-0.38679 l 0,-42.45061 8.99296,0 0,48.83271 z"
     style="font-style:normal;font-variant:normal;font-weight:normal;font-stretch:normal;font-size:60px;line-height:125%;font-family:Ubuntu;-inkscape-font-specification:'Ubuntu, Normal';text-align:start;letter-spacing:0px;word-spacing:0px;writing-mode:lr-tb;text-anchor:start;fill:url(#White-6);fill-opacity:1;stroke:none;stroke-width:1px;stroke-linecap:butt;stroke-linejoin:miter;stroke-opacity:1"
     id="path5057"
     inkscape:connector-curvature="0" />
  <path
     d="m 443.29939,373.18396 q -1.54365,0 -3.38135,-0.0737 -1.76417,-0.0736 -3.60188,-0.2205 -1.76416,-0.14699 -3.52835,-0.36756 -1.76418,-0.2205 -3.23433,-0.58805 l 0,-49.39708 q 1.47015,-0.36753 3.23433,-0.58807 1.76419,-0.22052 3.52835,-0.36753 1.83771,-0.14698 3.60188,-0.22052 1.76418,-0.0735 3.30784,-0.0735 4.41047,0 8.23284,0.66156 3.89592,0.66158 6.6892,2.27873 2.86679,1.54366 4.48397,4.11642 1.61716,2.57278 1.61716,6.32165 0,4.18994 -1.98471,6.90973 -1.9847,2.64627 -5.29255,3.96939 4.48398,1.32314 7.13024,4.18994 2.64628,2.86679 2.64628,8.08585 0,7.64476 -5.6601,11.54066 -5.58656,3.82241 -17.78882,3.82241 z m -6.6892,-24.18398 0,17.93584 q 0.80859,0.0735 1.9112,0.14699 0.95559,0.0736 2.20522,0.14698 1.32314,0 3.01382,0 3.16083,0 5.95411,-0.36752 2.8668,-0.44106 4.99852,-1.47017 2.13172,-1.0291 3.38135,-2.86678 1.32314,-1.83769 1.32314,-4.63097 0,-2.49927 -0.9556,-4.18994 -0.95561,-1.76417 -2.7933,-2.7933 -1.76418,-1.0291 -4.26342,-1.47014 -2.49927,-0.44104 -5.58659,-0.44104 l -9.18845,0 z m 0,-5.73361 7.49779,0 q 2.64627,0 4.99851,-0.36752 2.35223,-0.36755 4.04293,-1.32314 1.76418,-0.95559 2.71977,-2.49927 1.0291,-1.54364 1.0291,-3.89588 0,-2.20524 -1.0291,-3.6754 -1.02911,-1.54366 -2.8668,-2.42574 -1.76419,-0.95561 -4.18993,-1.39665 -2.42575,-0.44104 -5.14554,-0.44104 -2.71977,0 -4.26343,0.0735 -1.54366,0.0737 -2.7933,0.22054 l 0,15.7306 z"
     style="font-style:normal;font-variant:normal;font-weight:normal;font-stretch:normal;font-size:medium;line-height:125%;font-family:Ubuntu;-inkscape-font-specification:Ubuntu;text-align:start;letter-spacing:0px;word-spacing:0px;writing-mode:lr-tb;text-anchor:start;fill:url(#White-6);fill-opacity:1;stroke:none;stroke-width:108;stroke-linecap:butt;stroke-linejoin:miter;stroke-miterlimit:4;stroke-dasharray:none;stroke-opacity:1"
     id="path5059"
     inkscape:connector-curvature="0" />
  <path
     d="m 488.40203,373.84552 q -4.99852,0 -8.67388,-1.54364 -3.67538,-1.54368 -6.02762,-4.18995 -2.35225,-2.71978 -3.52837,-6.39515 -1.10263,-3.67538 -1.10263,-7.9388 l 0,-31.97581 7.13025,0 0,31.16722 q 0,7.64478 3.38135,11.09961 3.38134,3.45488 8.8209,3.45488 2.71979,0 4.92502,-0.80859 2.27873,-0.8821 3.8959,-2.64629 1.61716,-1.76417 2.49925,-4.48394 0.8821,-2.79328 0.8821,-6.61567 l 0,-31.16722 7.13024,0 0,31.97581 q 0,4.26342 -1.17613,7.9388 -1.10261,3.67537 -3.52837,6.39515 -2.35224,2.64627 -6.02762,4.18995 -3.60187,1.54364 -8.60039,1.54364 z"
     style="font-style:normal;font-variant:normal;font-weight:normal;font-stretch:normal;font-size:medium;line-height:125%;font-family:Ubuntu;-inkscape-font-specification:Ubuntu;text-align:start;letter-spacing:0px;word-spacing:0px;writing-mode:lr-tb;text-anchor:start;fill:url(#White-6);fill-opacity:1;stroke:none;stroke-width:108;stroke-linecap:butt;stroke-linejoin:miter;stroke-miterlimit:4;stroke-dasharray:none;stroke-opacity:1"
     id="path5061"
     inkscape:connector-curvature="0" />
  <path
     d="m 554.44863,347.2358 q 0,6.61567 -2.05823,11.54068 -2.05821,4.85148 -5.80711,8.08584 -3.74889,3.16081 -8.96793,4.77798 -5.21903,1.54366 -11.46718,1.54366 -3.08733,0 -6.83621,-0.29403 -3.67537,-0.22053 -6.68918,-0.9556 l 0,-49.39708 q 3.01381,-0.73508 6.68918,-0.95562 3.74888,-0.29401 6.83621,-0.29401 6.24815,0 11.46718,1.61715 5.21904,1.54368 8.96793,4.778 3.7489,3.16083 5.80711,8.08584 2.05823,4.85151 2.05823,11.46719 z m -27.7124,19.70002 q 10.14406,0 15.14258,-5.14554 4.99852,-5.21902 4.99852,-14.55448 0,-9.33547 -4.99852,-14.481 -4.99852,-5.21904 -15.14258,-5.21904 -3.0138,0 -4.70447,0.0736 -1.61717,0.0736 -2.27873,0.14698 l 0,38.95901 q 0.66156,0.0735 2.27873,0.14698 1.69067,0.0735 4.70447,0.0735 z"
     style="font-style:normal;font-variant:normal;font-weight:normal;font-stretch:normal;font-size:medium;line-height:125%;font-family:Ubuntu;-inkscape-font-specification:Ubuntu;text-align:start;letter-spacing:0px;word-spacing:0px;writing-mode:lr-tb;text-anchor:start;fill:url(#White-6);fill-opacity:1;stroke:none;stroke-width:108;stroke-linecap:butt;stroke-linejoin:miter;stroke-miterlimit:4;stroke-dasharray:none;stroke-opacity:1"
     id="path5063"
     inkscape:connector-curvature="0" />
  <path
     d="m 588.7686,347.67684 7.13024,0 0,23.81645 q -0.88208,0.29401 -2.57278,0.66156 -1.61715,0.36753 -3.82237,0.73508 -2.13174,0.36754 -4.70448,0.58806 -2.57278,0.29403 -5.21906,0.29403 -5.36605,0 -9.7765,-1.76418 -4.41045,-1.76419 -7.57128,-5.14552 -3.16082,-3.38137 -4.925,-8.30636 -1.69069,-4.92501 -1.69069,-11.32016 0,-6.39517 1.9112,-11.32019 1.98472,-4.9985 5.29254,-8.37985 3.30785,-3.38136 7.7183,-5.14554 4.48397,-1.76418 9.55598,-1.76418 3.45488,0 6.10114,0.44104 2.71979,0.44106 4.63099,1.02913 1.91118,0.58806 3.08731,1.17611 1.24961,0.58807 1.69067,0.88208 l -2.27875,5.95412 q -2.1317,-1.39665 -5.66006,-2.27874 -3.52837,-0.95559 -7.20375,-0.95559 -3.89591,0 -7.13024,1.39664 -3.16083,1.39664 -5.43956,4.04291 -2.20522,2.64628 -3.45484,6.46869 -1.24964,3.74887 -1.24964,8.45337 0,4.55746 1.0291,8.30636 1.10262,3.74887 3.23434,6.46866 2.20522,2.64626 5.36606,4.11641 3.23432,1.47014 7.57127,1.47014 3.08733,0 5.21903,-0.29401 2.20524,-0.36754 3.16083,-0.66158 l 0,-18.96494 z"
     style="font-style:normal;font-variant:normal;font-weight:normal;font-stretch:normal;font-size:medium;line-height:125%;font-family:Ubuntu;-inkscape-font-specification:Ubuntu;text-align:start;letter-spacing:0px;word-spacing:0px;writing-mode:lr-tb;text-anchor:start;fill:url(#White-6);fill-opacity:1;stroke:none;stroke-width:108;stroke-linecap:butt;stroke-linejoin:miter;stroke-miterlimit:4;stroke-dasharray:none;stroke-opacity:1"
     id="path5065"
     inkscape:connector-curvature="0" />
  <path
     d="m 602.1623,321.80217 7.13024,0 0,50.94075 -7.13024,0 0,-50.94075 z"
     style="font-style:normal;font-variant:normal;font-weight:normal;font-stretch:normal;font-size:medium;line-height:125%;font-family:Ubuntu;-inkscape-font-specification:Ubuntu;text-align:start;letter-spacing:0px;word-spacing:0px;writing-mode:lr-tb;text-anchor:start;fill:url(#White-6);fill-opacity:1;stroke:none;stroke-width:108;stroke-linecap:butt;stroke-linejoin:miter;stroke-miterlimit:4;stroke-dasharray:none;stroke-opacity:1"
     id="path5067"
     inkscape:connector-curvature="0" />
  <path
     d="m 614.62414,372.74292 0,-50.94075 31.09371,0 0,6.10112 -23.96347,0 0,15.14256 21.31719,0 0,5.95413 -21.31719,0 0,17.6418 25.80116,0 0,6.10114 -32.9314,0 z"
     style="font-style:normal;font-variant:normal;font-weight:normal;font-stretch:normal;font-size:medium;line-height:125%;font-family:Ubuntu;-inkscape-font-specification:Ubuntu;text-align:start;letter-spacing:0px;word-spacing:0px;writing-mode:lr-tb;text-anchor:start;fill:url(#White-6);fill-opacity:1;stroke:none;stroke-width:36;stroke-linecap:butt;stroke-linejoin:miter;stroke-miterlimit:4;stroke-dasharray:none;stroke-opacity:1"
     id="path5069"
     inkscape:connector-curvature="0" />
  <rect
     rx="0"
     y="17.987343"
     x="417.56699"
     height="219.03386"
     width="369.0127"
     id="rect3330"
     style="opacity:0.9;fill:url(#linearGradient3829);fill-opacity:1;stroke:none;stroke-width:1.875;stroke-miterlimit:4;stroke-dasharray:none;stroke-opacity:1" />
  <g
     style="fill:url(#White-6);stroke:none"
     id="g3332"
     transform="matrix(0.25000001,0,0,0.25000001,629.73675,-34.950019)">
    <path
       id="path3334"
       d="m 392.68727,290.20301 10.70098,6.10452 0,37.93283 a 56.874419,56.775165 0 0 1 22.74451,-4.81304 56.874419,56.775165 0 0 1 56.87433,56.77508 56.874419,56.775165 0 0 1 -56.87433,56.77509 56.874419,56.775165 0 0 1 -56.81365,-55.08322 l -0.0475,0 0,-1.32355 a 56.874419,56.775165 0 0 1 -0.0131,-0.36832 56.874419,56.775165 0 0 1 0.0131,-0.26138 l 0,-75.4415 c -0.088,0.0799 -0.24281,0.21623 -0.24281,0.21623 l -36.21267,36.14829 11.31037,-3.07008 15.1594,15.13297 -15.47362,0 c -13.50424,0 -13.68003,14.00546 -13.68003,14.00546 l 0,51.12205 5.82359,-10.15479 23.73594,0 -9.7798,9.76152 c -9.54892,9.53227 0.24876,19.55988 0.24876,19.55988 l 36.21148,36.14829 -3.07545,-11.29063 15.5391,-15.51198 0,15.9801 c 0,13.48067 14.02994,13.65615 14.02994,13.65615 l 51.21024,0 -10.17136,-5.81343 0,-23.49727 9.85002,9.83162 c 9.54893,9.53227 19.59287,-0.24713 19.59287,-0.24713 l 36.21148,-36.14829 -11.30918,3.07008 -15.67835,-15.65099 15.8819,0 c 13.50422,0 13.67881,-14.00545 13.67882,-14.00545 l 0,-51.12205 -5.8224,10.15478 -23.65618,0 9.9202,-9.90172 c 9.54896,-9.53227 -0.24875,-19.55987 -0.24875,-19.55987 l -36.21155,-36.14829 3.07547,11.29062 -15.72003,15.69258 0,-16.28901 c 0,-13.48067 -14.02994,-13.65615 -14.02994,-13.65615 l -35.96867,0 -0.0821,0 -10.70098,0 z"
       style="fill:url(#White-6);fill-opacity:1;stroke:none;stroke-width:1.875;stroke-miterlimit:4;stroke-dasharray:none;stroke-opacity:1"
       inkscape:connector-curvature="0" />
    <path
       id="path3336"
       d="m 417.27599,359.62025 a 37.012347,37.048117 0 0 0 -37.01366,37.04745 37.012347,37.048117 0 0 0 37.01366,37.05026 37.012347,37.048117 0 0 0 37.01081,-37.05026 37.012347,37.048117 0 0 0 -37.01081,-37.04745 z m 7.95803,19.93349 c 4.52203,-0.0948 9.05485,1.93194 12.47493,4.86039 3.82238,2.83014 5.6826,7.6194 5.83196,12.27044 0.45638,9.50585 -6.32301,18.15584 -14.83475,21.7354 -9.86746,4.04128 -21.90074,2.39509 -30.29465,-4.2026 -6.9087,-5.35491 -8.95251,-15.1479 -6.80628,-23.3321 0.64648,1.60119 1.49111,3.1638 2.73152,4.38531 2.77525,2.97725 7.52734,2.26689 10.59665,0.15742 2.6572,-2.21252 4.59969,-5.16656 6.78942,-7.82609 2.14071,-3.29198 5.26217,-5.98191 9.03375,-7.19921 1.4633,-0.54831 2.97012,-0.81733 4.47745,-0.84896 z"
       style="fill:url(#White-6);fill-opacity:1;stroke:none;stroke-width:1.875;stroke-miterlimit:4;stroke-dasharray:none;stroke-opacity:1"
       inkscape:connector-curvature="0" />
  </g>
  <path
     inkscape:connector-curvature="0"
     id="path3338"
     style="font-style:normal;font-variant:normal;font-weight:normal;font-stretch:normal;font-size:60px;line-height:125%;font-family:Ubuntu;-inkscape-font-specification:'Ubuntu, Normal';text-align:start;letter-spacing:0px;word-spacing:0px;writing-mode:lr-tb;text-anchor:start;fill:url(#White-6);fill-opacity:1;stroke:none;stroke-width:1px;stroke-linecap:butt;stroke-linejoin:miter;stroke-opacity:1"
     d="m 491.58316,136.95767 q -3.09435,0.77358 -8.21937,1.64387 -5.02832,0.87029 -11.70051,0.87029 -5.80191,0 -9.76654,-1.64388 -3.96464,-1.74057 -6.3821,-4.83492 -2.41746,-3.09435 -3.48115,-7.25237 -1.06368,-4.25474 -1.06368,-9.37975 l 0,-28.235951 8.99296,0 0,26.301981 q 0,9.18635 2.90095,13.15099 2.90095,3.96462 9.76654,3.96462 1.45048,0 2.99766,-0.0967 1.54717,-0.0967 2.90095,-0.19339 1.35378,-0.1934 2.41746,-0.2901 1.16038,-0.19339 1.64388,-0.38679 l 0,-42.450611 8.99295,0 0,48.832711 z" />
  <path
     inkscape:connector-curvature="0"
     id="path3340"
     style="font-style:normal;font-variant:normal;font-weight:normal;font-stretch:normal;font-size:60px;line-height:125%;font-family:Ubuntu;-inkscape-font-specification:'Ubuntu, Normal';text-align:start;letter-spacing:0px;word-spacing:0px;writing-mode:lr-tb;text-anchor:start;fill:url(#White-6);fill-opacity:1;stroke:none;stroke-width:1px;stroke-linecap:butt;stroke-linejoin:miter;stroke-opacity:1"
     d="m 509.62245,90.349019 q 1.64388,-1.06368 4.93162,-2.22406 3.38445,-1.16039 7.73588,-1.16039 5.41512,0 9.57315,1.93397 4.25475,1.93397 7.1557,5.41512 2.90095,3.481141 4.35143,8.316061 1.54718,4.83493 1.54718,10.63683 0,6.09201 -1.83727,11.02363 -1.74058,4.83491 -5.02832,8.21936 -3.28775,3.38444 -7.92929,5.22171 -4.64153,1.83728 -10.44344,1.83728 -6.2854,0 -11.12032,-0.87029 -4.83492,-0.87029 -7.92927,-1.74057 l 0,-72.040354 8.99295,-1.54718 0,26.978883 z m 0,40.226551 q 1.35378,0.38679 3.77124,0.77359 2.51416,0.29009 6.1887,0.29009 7.25239,0 11.60382,-4.73821 4.35145,-4.83493 4.35145,-13.63449 0,-3.86793 -0.77359,-7.25238 -0.77359,-3.38445 -2.51418,-5.80191 -1.74057,-2.51416 -4.54482,-3.86794 -2.70756,-1.450471 -6.5755,-1.450471 -3.67454,0 -6.76889,1.257081 -3.09435,1.25708 -4.73823,2.61086 l 0,31.81378 z" />
  <path
     inkscape:connector-curvature="0"
     id="path3342"
     style="font-style:normal;font-variant:normal;font-weight:normal;font-stretch:normal;font-size:60px;line-height:125%;font-family:Ubuntu;-inkscape-font-specification:'Ubuntu, Normal';text-align:start;letter-spacing:0px;word-spacing:0px;writing-mode:lr-tb;text-anchor:start;fill:url(#White-6);fill-opacity:1;stroke:none;stroke-width:1px;stroke-linecap:butt;stroke-linejoin:miter;stroke-opacity:1"
     d="m 591.2531,136.95767 q -3.09435,0.77358 -8.21937,1.64387 -5.02832,0.87029 -11.70051,0.87029 -5.80191,0 -9.76655,-1.64388 -3.96463,-1.74057 -6.38209,-4.83492 -2.41747,-3.09435 -3.48115,-7.25237 -1.06368,-4.25474 -1.06368,-9.37975 l 0,-28.235951 8.99295,0 0,26.301981 q 0,9.18635 2.90096,13.15099 2.90095,3.96462 9.76654,3.96462 1.45048,0 2.99765,-0.0967 1.54718,-0.0967 2.90096,-0.19339 1.35378,-0.1934 2.41746,-0.2901 1.16038,-0.19339 1.64387,-0.38679 l 0,-42.450611 8.99296,0 0,48.832711 z" />
  <path
     inkscape:connector-curvature="0"
     id="path3344"
     style="font-style:normal;font-variant:normal;font-weight:normal;font-stretch:normal;font-size:60px;line-height:125%;font-family:Ubuntu;-inkscape-font-specification:'Ubuntu, Normal';text-align:start;letter-spacing:0px;word-spacing:0px;writing-mode:lr-tb;text-anchor:start;fill:url(#White-6);fill-opacity:1;stroke:none;stroke-width:1px;stroke-linecap:butt;stroke-linejoin:miter;stroke-opacity:1"
     d="m 600.29943,89.575429 q 3.09436,-0.77359 8.21937,-1.64387 5.12502,-0.87029 11.79722,-0.87029 5.9953,0 9.95994,1.74057 3.96463,1.64388 6.2854,4.73823 2.41746,2.997651 3.38444,7.252381 0.96699,4.25474 0.96699,9.37975 l 0,28.23594 -8.99296,0 0,-26.30197 q 0,-4.64152 -0.67689,-7.92927 -0.58019,-3.28775 -2.03067,-5.31842 -1.45047,-2.03066 -3.86793,-2.900951 -2.41747,-0.96698 -5.99531,-0.96698 -1.45048,0 -2.99765,0.0967 -1.54718,0.0967 -2.99765,0.2901 -1.35378,0.0967 -2.51416,0.2901 -1.06369,0.19339 -1.54718,0.29009 l 0,42.450611 -8.99296,0 0,-48.832711 z" />
  <path
     inkscape:connector-curvature="0"
     id="path3346"
     style="font-style:normal;font-variant:normal;font-weight:normal;font-stretch:normal;font-size:60px;line-height:125%;font-family:Ubuntu;-inkscape-font-specification:'Ubuntu, Normal';text-align:start;letter-spacing:0px;word-spacing:0px;writing-mode:lr-tb;text-anchor:start;fill:url(#White-6);fill-opacity:1;stroke:none;stroke-width:1px;stroke-linecap:butt;stroke-linejoin:miter;stroke-opacity:1"
     d="m 657.79171,88.124959 19.0496,0 0,7.54248 -19.0496,0 0,23.207631 q 0,3.77124 0.58019,6.2854 0.58019,2.41746 1.74058,3.86793 1.16038,1.35377 2.90095,1.93396 1.74057,0.58019 4.06133,0.58019 4.06134,0 6.4788,-0.87028 2.51416,-0.96699 3.48115,-1.35378 l 1.74057,7.44578 q -1.35378,0.67689 -4.73823,1.64387 -3.38444,1.06369 -7.73587,1.06369 -5.12502,0 -8.50947,-1.25708 -3.28774,-1.35378 -5.31841,-3.96464 -2.03067,-2.61086 -2.90096,-6.38209 -0.77358,-3.86794 -0.77358,-8.89626 l 0,-44.868093 8.99295,-1.54718 0,15.568472 z" />
  <path
     inkscape:connector-curvature="0"
     id="path3348"
     style="font-style:normal;font-variant:normal;font-weight:normal;font-stretch:normal;font-size:60px;line-height:125%;font-family:Ubuntu;-inkscape-font-specification:'Ubuntu, Normal';text-align:start;letter-spacing:0px;word-spacing:0px;writing-mode:lr-tb;text-anchor:start;fill:url(#White-6);fill-opacity:1;stroke:none;stroke-width:1px;stroke-linecap:butt;stroke-linejoin:miter;stroke-opacity:1"
     d="m 725.09484,136.95767 q -3.09435,0.77358 -8.21937,1.64387 -5.02832,0.87029 -11.70051,0.87029 -5.80191,0 -9.76655,-1.64388 -3.96463,-1.74057 -6.3821,-4.83492 -2.41746,-3.09435 -3.48114,-7.25237 -1.06368,-4.25474 -1.06368,-9.37975 l 0,-28.235951 8.99295,0 0,26.301981 q 0,9.18635 2.90096,13.15099 2.90095,3.96462 9.76654,3.96462 1.45048,0 2.99765,-0.0967 1.54718,-0.0967 2.90096,-0.19339 1.35378,-0.1934 2.41746,-0.2901 1.16038,-0.19339 1.64387,-0.38679 l 0,-42.450611 8.99296,0 0,48.832711 z" />
  <path
     inkscape:connector-curvature="0"
     id="path3350"
     style="font-style:normal;font-variant:normal;font-weight:normal;font-stretch:normal;font-size:medium;line-height:125%;font-family:Ubuntu;-inkscape-font-specification:Ubuntu;text-align:start;letter-spacing:0px;word-spacing:0px;writing-mode:lr-tb;text-anchor:start;fill:url(#White-6);fill-opacity:1;stroke:none;stroke-width:108;stroke-linecap:butt;stroke-linejoin:miter;stroke-miterlimit:4;stroke-dasharray:none;stroke-opacity:1"
     d="m 521.14424,199.65786 q -1.54365,0 -3.38135,-0.0737 -1.76417,-0.0736 -3.60188,-0.2205 -1.76416,-0.14699 -3.52835,-0.36756 -1.76418,-0.2205 -3.23433,-0.58805 l 0,-49.39708 q 1.47015,-0.36753 3.23433,-0.58807 1.76419,-0.22052 3.52835,-0.36753 1.83771,-0.14698 3.60188,-0.22052 1.76418,-0.0735 3.30784,-0.0735 4.41047,0 8.23284,0.66156 3.89592,0.66158 6.6892,2.27873 2.86679,1.54366 4.48397,4.11642 1.61716,2.57278 1.61716,6.32165 0,4.18994 -1.98471,6.90973 -1.9847,2.64627 -5.29255,3.96939 4.48398,1.32314 7.13024,4.18994 2.64628,2.86679 2.64628,8.08585 0,7.64476 -5.6601,11.54066 -5.58656,3.82241 -17.78882,3.82241 z m -6.6892,-24.18398 0,17.93584 q 0.80859,0.0735 1.9112,0.14699 0.95559,0.0736 2.20522,0.14698 1.32314,0 3.01382,0 3.16083,0 5.95411,-0.36752 2.8668,-0.44106 4.99852,-1.47017 2.13172,-1.0291 3.38135,-2.86678 1.32314,-1.83769 1.32314,-4.63097 0,-2.49927 -0.9556,-4.18994 -0.95561,-1.76417 -2.7933,-2.7933 -1.76418,-1.0291 -4.26342,-1.47014 -2.49927,-0.44104 -5.58659,-0.44104 l -9.18845,0 z m 0,-5.73361 7.49779,0 q 2.64627,0 4.99851,-0.36752 2.35223,-0.36755 4.04293,-1.32314 1.76418,-0.95559 2.71977,-2.49927 1.0291,-1.54364 1.0291,-3.89588 0,-2.20524 -1.0291,-3.6754 -1.02911,-1.54366 -2.8668,-2.42574 -1.76419,-0.95561 -4.18993,-1.39665 -2.42575,-0.44104 -5.14554,-0.44104 -2.71977,0 -4.26343,0.0735 -1.54366,0.0737 -2.7933,0.22054 l 0,15.7306 z" />
  <path
     inkscape:connector-curvature="0"
     id="path3352"
     style="font-style:normal;font-variant:normal;font-weight:normal;font-stretch:normal;font-size:medium;line-height:125%;font-family:Ubuntu;-inkscape-font-specification:Ubuntu;text-align:start;letter-spacing:0px;word-spacing:0px;writing-mode:lr-tb;text-anchor:start;fill:url(#White-6);fill-opacity:1;stroke:none;stroke-width:108;stroke-linecap:butt;stroke-linejoin:miter;stroke-miterlimit:4;stroke-dasharray:none;stroke-opacity:1"
     d="m 566.24688,200.31942 q -4.99852,0 -8.67388,-1.54364 -3.67538,-1.54368 -6.02762,-4.18995 -2.35225,-2.71978 -3.52837,-6.39515 -1.10263,-3.67538 -1.10263,-7.9388 l 0,-31.97581 7.13025,0 0,31.16722 q 0,7.64478 3.38135,11.09961 3.38134,3.45488 8.8209,3.45488 2.71979,0 4.92502,-0.80859 2.27873,-0.8821 3.8959,-2.64629 1.61716,-1.76417 2.49925,-4.48394 0.8821,-2.79328 0.8821,-6.61567 l 0,-31.16722 7.13024,0 0,31.97581 q 0,4.26342 -1.17613,7.9388 -1.10261,3.67537 -3.52837,6.39515 -2.35224,2.64627 -6.02762,4.18995 -3.60187,1.54364 -8.60039,1.54364 z" />
  <path
     inkscape:connector-curvature="0"
     id="path3354"
     style="font-style:normal;font-variant:normal;font-weight:normal;font-stretch:normal;font-size:medium;line-height:125%;font-family:Ubuntu;-inkscape-font-specification:Ubuntu;text-align:start;letter-spacing:0px;word-spacing:0px;writing-mode:lr-tb;text-anchor:start;fill:url(#White-6);fill-opacity:1;stroke:none;stroke-width:108;stroke-linecap:butt;stroke-linejoin:miter;stroke-miterlimit:4;stroke-dasharray:none;stroke-opacity:1"
     d="m 632.29348,173.7097 q 0,6.61567 -2.05823,11.54068 -2.05821,4.85148 -5.80711,8.08584 -3.74889,3.16081 -8.96793,4.77798 -5.21903,1.54366 -11.46718,1.54366 -3.08733,0 -6.83621,-0.29403 -3.67537,-0.22053 -6.68918,-0.9556 l 0,-49.39708 q 3.01381,-0.73508 6.68918,-0.95562 3.74888,-0.29401 6.83621,-0.29401 6.24815,0 11.46718,1.61715 5.21904,1.54368 8.96793,4.778 3.7489,3.16083 5.80711,8.08584 2.05823,4.85151 2.05823,11.46719 z m -27.7124,19.70002 q 10.14406,0 15.14258,-5.14554 4.99852,-5.21902 4.99852,-14.55448 0,-9.33547 -4.99852,-14.481 -4.99852,-5.21904 -15.14258,-5.21904 -3.0138,0 -4.70447,0.0736 -1.61717,0.0736 -2.27873,0.14698 l 0,38.95901 q 0.66156,0.0735 2.27873,0.14698 1.69067,0.0735 4.70447,0.0735 z" />
  <path
     inkscape:connector-curvature="0"
     id="path3356"
     style="font-style:normal;font-variant:normal;font-weight:normal;font-stretch:normal;font-size:medium;line-height:125%;font-family:Ubuntu;-inkscape-font-specification:Ubuntu;text-align:start;letter-spacing:0px;word-spacing:0px;writing-mode:lr-tb;text-anchor:start;fill:url(#White-6);fill-opacity:1;stroke:none;stroke-width:108;stroke-linecap:butt;stroke-linejoin:miter;stroke-miterlimit:4;stroke-dasharray:none;stroke-opacity:1"
     d="m 666.61345,174.15074 7.13024,0 0,23.81645 q -0.88208,0.29401 -2.57278,0.66156 -1.61715,0.36753 -3.82237,0.73508 -2.13174,0.36754 -4.70448,0.58806 -2.57278,0.29403 -5.21906,0.29403 -5.36605,0 -9.7765,-1.76418 -4.41045,-1.76419 -7.57128,-5.14552 -3.16082,-3.38137 -4.925,-8.30636 -1.69069,-4.92501 -1.69069,-11.32016 0,-6.39517 1.9112,-11.32019 1.98472,-4.9985 5.29254,-8.37985 3.30785,-3.38136 7.7183,-5.14554 4.48397,-1.76418 9.55598,-1.76418 3.45488,0 6.10114,0.44104 2.71979,0.44106 4.63099,1.02913 1.91118,0.58806 3.08731,1.17611 1.24961,0.58807 1.69067,0.88208 l -2.27875,5.95412 q -2.1317,-1.39665 -5.66006,-2.27874 -3.52837,-0.95559 -7.20375,-0.95559 -3.89591,0 -7.13024,1.39664 -3.16083,1.39664 -5.43956,4.04291 -2.20522,2.64628 -3.45484,6.46869 -1.24964,3.74887 -1.24964,8.45337 0,4.55746 1.0291,8.30636 1.10262,3.74887 3.23434,6.46866 2.20522,2.64626 5.36606,4.11641 3.23432,1.47014 7.57127,1.47014 3.08733,0 5.21903,-0.29401 2.20524,-0.36754 3.16083,-0.66158 l 0,-18.96494 z" />
  <path
     inkscape:connector-curvature="0"
     id="path3358"
     style="font-style:normal;font-variant:normal;font-weight:normal;font-stretch:normal;font-size:medium;line-height:125%;font-family:Ubuntu;-inkscape-font-specification:Ubuntu;text-align:start;letter-spacing:0px;word-spacing:0px;writing-mode:lr-tb;text-anchor:start;fill:url(#White-6);fill-opacity:1;stroke:none;stroke-width:108;stroke-linecap:butt;stroke-linejoin:miter;stroke-miterlimit:4;stroke-dasharray:none;stroke-opacity:1"
     d="m 680.00715,148.27607 7.13024,0 0,50.94075 -7.13024,0 0,-50.94075 z" />
  <path
     inkscape:connector-curvature="0"
     id="path3360"
     style="font-style:normal;font-variant:normal;font-weight:normal;font-stretch:normal;font-size:medium;line-height:125%;font-family:Ubuntu;-inkscape-font-specification:Ubuntu;text-align:start;letter-spacing:0px;word-spacing:0px;writing-mode:lr-tb;text-anchor:start;fill:url(#White-6);fill-opacity:1;stroke:none;stroke-width:36;stroke-linecap:butt;stroke-linejoin:miter;stroke-miterlimit:4;stroke-dasharray:none;stroke-opacity:1"
     d="m 692.46899,199.21682 0,-50.94075 31.09371,0 0,6.10112 -23.96347,0 0,15.14256 21.31719,0 0,5.95413 -21.31719,0 0,17.6418 25.80116,0 0,6.10114 -32.9314,0 z" />
  <g
     transform="matrix(0.25000001,0,0,0.25000001,235.73675,-34.950019)"
     id="g3362"
     style="fill:url(#linearGradient3829);stroke:none">
    <path
       inkscape:connector-curvature="0"
       style="fill:url(#linearGradient3829);fill-opacity:1;stroke:none;stroke-width:1.875;stroke-miterlimit:4;stroke-dasharray:none;stroke-opacity:1"
       d="m 392.68727,290.20301 10.70098,6.10452 0,37.93283 a 56.874419,56.775165 0 0 1 22.74451,-4.81304 56.874419,56.775165 0 0 1 56.87433,56.77508 56.874419,56.775165 0 0 1 -56.87433,56.77509 56.874419,56.775165 0 0 1 -56.81365,-55.08322 l -0.0475,0 0,-1.32355 a 56.874419,56.775165 0 0 1 -0.0131,-0.36832 56.874419,56.775165 0 0 1 0.0131,-0.26138 l 0,-75.4415 c -0.088,0.0799 -0.24281,0.21623 -0.24281,0.21623 l -36.21267,36.14829 11.31037,-3.07008 15.1594,15.13297 -15.47362,0 c -13.50424,0 -13.68003,14.00546 -13.68003,14.00546 l 0,51.12205 5.82359,-10.15479 23.73594,0 -9.7798,9.76152 c -9.54892,9.53227 0.24876,19.55988 0.24876,19.55988 l 36.21148,36.14829 -3.07545,-11.29063 15.5391,-15.51198 0,15.9801 c 0,13.48067 14.02994,13.65615 14.02994,13.65615 l 51.21024,0 -10.17136,-5.81343 0,-23.49727 9.85002,9.83162 c 9.54893,9.53227 19.59287,-0.24713 19.59287,-0.24713 l 36.21148,-36.14829 -11.30918,3.07008 -15.67835,-15.65099 15.8819,0 c 13.50422,0 13.67881,-14.00545 13.67882,-14.00545 l 0,-51.12205 -5.8224,10.15478 -23.65618,0 9.9202,-9.90172 c 9.54896,-9.53227 -0.24875,-19.55987 -0.24875,-19.55987 l -36.21155,-36.14829 3.07547,11.29062 -15.72003,15.69258 0,-16.28901 c 0,-13.48067 -14.02994,-13.65615 -14.02994,-13.65615 l -35.96867,0 -0.0821,0 -10.70098,0 z"
       id="path3364" />
    <path
       inkscape:connector-curvature="0"
       style="fill:url(#linearGradient3829);fill-opacity:1;stroke:none;stroke-width:1.875;stroke-miterlimit:4;stroke-dasharray:none;stroke-opacity:1"
       d="m 417.27599,359.62025 a 37.012347,37.048117 0 0 0 -37.01366,37.04745 37.012347,37.048117 0 0 0 37.01366,37.05026 37.012347,37.048117 0 0 0 37.01081,-37.05026 37.012347,37.048117 0 0 0 -37.01081,-37.04745 z m 7.95803,19.93349 c 4.52203,-0.0948 9.05485,1.93194 12.47493,4.86039 3.82238,2.83014 5.6826,7.6194 5.83196,12.27044 0.45638,9.50585 -6.32301,18.15584 -14.83475,21.7354 -9.86746,4.04128 -21.90074,2.39509 -30.29465,-4.2026 -6.9087,-5.35491 -8.95251,-15.1479 -6.80628,-23.3321 0.64648,1.60119 1.49111,3.1638 2.73152,4.38531 2.77525,2.97725 7.52734,2.26689 10.59665,0.15742 2.6572,-2.21252 4.59969,-5.16656 6.78942,-7.82609 2.14071,-3.29198 5.26217,-5.98191 9.03375,-7.19921 1.4633,-0.54831 2.97012,-0.81733 4.47745,-0.84896 z"
       id="path3366" />
  </g>
  <path
     d="m 97.58316,136.95767 q -3.09435,0.77358 -8.21937,1.64387 -5.02832,0.87029 -11.70051,0.87029 -5.80191,0 -9.76654,-1.64388 -3.96464,-1.74057 -6.3821,-4.83492 -2.41746,-3.09435 -3.48115,-7.25237 -1.06368,-4.25474 -1.06368,-9.37975 l 0,-28.235951 8.99296,0 0,26.301981 q 0,9.18635 2.90095,13.15099 2.90095,3.96462 9.76654,3.96462 1.45048,0 2.99766,-0.0967 1.54717,-0.0967 2.90095,-0.19339 1.35378,-0.1934 2.41746,-0.2901 1.16038,-0.19339 1.64388,-0.38679 l 0,-42.450611 8.99295,0 0,48.832711 z"
     style="font-style:normal;font-variant:normal;font-weight:normal;font-stretch:normal;font-size:60px;line-height:125%;font-family:Ubuntu;-inkscape-font-specification:'Ubuntu, Normal';text-align:start;letter-spacing:0px;word-spacing:0px;writing-mode:lr-tb;text-anchor:start;fill:url(#linearGradient3829);fill-opacity:1;stroke:none;stroke-width:1px;stroke-linecap:butt;stroke-linejoin:miter;stroke-opacity:1"
     id="path3368"
     inkscape:connector-curvature="0" />
  <path
     d="m 115.62245,90.349019 q 1.64388,-1.06368 4.93162,-2.22406 3.38445,-1.16039 7.73588,-1.16039 5.41512,0 9.57315,1.93397 4.25475,1.93397 7.1557,5.41512 2.90095,3.481141 4.35143,8.316061 1.54718,4.83493 1.54718,10.63683 0,6.09201 -1.83727,11.02363 -1.74058,4.83491 -5.02832,8.21936 -3.28775,3.38444 -7.92929,5.22171 -4.64153,1.83728 -10.44344,1.83728 -6.2854,0 -11.12032,-0.87029 -4.83492,-0.87029 -7.92927,-1.74057 l 0,-72.040354 8.99295,-1.54718 0,26.978883 z m 0,40.226551 q 1.35378,0.38679 3.77124,0.77359 2.51416,0.29009 6.1887,0.29009 7.25239,0 11.60382,-4.73821 4.35145,-4.83493 4.35145,-13.63449 0,-3.86793 -0.77359,-7.25238 -0.77359,-3.38445 -2.51418,-5.80191 -1.74057,-2.51416 -4.54482,-3.86794 -2.70756,-1.450471 -6.5755,-1.450471 -3.67454,0 -6.76889,1.257081 -3.09435,1.25708 -4.73823,2.61086 l 0,31.81378 z"
     style="font-style:normal;font-variant:normal;font-weight:normal;font-stretch:normal;font-size:60px;line-height:125%;font-family:Ubuntu;-inkscape-font-specification:'Ubuntu, Normal';text-align:start;letter-spacing:0px;word-spacing:0px;writing-mode:lr-tb;text-anchor:start;fill:url(#linearGradient3829);fill-opacity:1;stroke:none;stroke-width:1px;stroke-linecap:butt;stroke-linejoin:miter;stroke-opacity:1"
     id="path3370"
     inkscape:connector-curvature="0" />
  <path
     d="m 197.2531,136.95767 q -3.09435,0.77358 -8.21937,1.64387 -5.02832,0.87029 -11.70051,0.87029 -5.80191,0 -9.76655,-1.64388 -3.96463,-1.74057 -6.38209,-4.83492 -2.41747,-3.09435 -3.48115,-7.25237 -1.06368,-4.25474 -1.06368,-9.37975 l 0,-28.235951 8.99295,0 0,26.301981 q 0,9.18635 2.90096,13.15099 2.90095,3.96462 9.76654,3.96462 1.45048,0 2.99765,-0.0967 1.54718,-0.0967 2.90096,-0.19339 1.35378,-0.1934 2.41746,-0.2901 1.16038,-0.19339 1.64387,-0.38679 l 0,-42.450611 8.99296,0 0,48.832711 z"
     style="font-style:normal;font-variant:normal;font-weight:normal;font-stretch:normal;font-size:60px;line-height:125%;font-family:Ubuntu;-inkscape-font-specification:'Ubuntu, Normal';text-align:start;letter-spacing:0px;word-spacing:0px;writing-mode:lr-tb;text-anchor:start;fill:url(#linearGradient3829);fill-opacity:1;stroke:none;stroke-width:1px;stroke-linecap:butt;stroke-linejoin:miter;stroke-opacity:1"
     id="path3372"
     inkscape:connector-curvature="0" />
  <path
     d="m 206.29943,89.575429 q 3.09436,-0.77359 8.21937,-1.64387 5.12502,-0.87029 11.79722,-0.87029 5.9953,0 9.95994,1.74057 3.96463,1.64388 6.2854,4.73823 2.41746,2.997651 3.38444,7.252381 0.96699,4.25474 0.96699,9.37975 l 0,28.23594 -8.99296,0 0,-26.30197 q 0,-4.64152 -0.67689,-7.92927 -0.58019,-3.28775 -2.03067,-5.31842 -1.45047,-2.03066 -3.86793,-2.900951 -2.41747,-0.96698 -5.99531,-0.96698 -1.45048,0 -2.99765,0.0967 -1.54718,0.0967 -2.99765,0.2901 -1.35378,0.0967 -2.51416,0.2901 -1.06369,0.19339 -1.54718,0.29009 l 0,42.450611 -8.99296,0 0,-48.832711 z"
     style="font-style:normal;font-variant:normal;font-weight:normal;font-stretch:normal;font-size:60px;line-height:125%;font-family:Ubuntu;-inkscape-font-specification:'Ubuntu, Normal';text-align:start;letter-spacing:0px;word-spacing:0px;writing-mode:lr-tb;text-anchor:start;fill:url(#linearGradient3829);fill-opacity:1;stroke:none;stroke-width:1px;stroke-linecap:butt;stroke-linejoin:miter;stroke-opacity:1"
     id="path3374"
     inkscape:connector-curvature="0" />
  <path
     d="m 263.79171,88.124959 19.0496,0 0,7.54248 -19.0496,0 0,23.207631 q 0,3.77124 0.58019,6.2854 0.58019,2.41746 1.74058,3.86793 1.16038,1.35377 2.90095,1.93396 1.74057,0.58019 4.06133,0.58019 4.06134,0 6.4788,-0.87028 2.51416,-0.96699 3.48115,-1.35378 l 1.74057,7.44578 q -1.35378,0.67689 -4.73823,1.64387 -3.38444,1.06369 -7.73587,1.06369 -5.12502,0 -8.50947,-1.25708 -3.28774,-1.35378 -5.31841,-3.96464 -2.03067,-2.61086 -2.90096,-6.38209 -0.77358,-3.86794 -0.77358,-8.89626 l 0,-44.868093 8.99295,-1.54718 0,15.568472 z"
     style="font-style:normal;font-variant:normal;font-weight:normal;font-stretch:normal;font-size:60px;line-height:125%;font-family:Ubuntu;-inkscape-font-specification:'Ubuntu, Normal';text-align:start;letter-spacing:0px;word-spacing:0px;writing-mode:lr-tb;text-anchor:start;fill:url(#linearGradient3829);fill-opacity:1;stroke:none;stroke-width:1px;stroke-linecap:butt;stroke-linejoin:miter;stroke-opacity:1"
     id="path3376"
     inkscape:connector-curvature="0" />
  <path
     d="m 331.09484,136.95767 q -3.09435,0.77358 -8.21937,1.64387 -5.02832,0.87029 -11.70051,0.87029 -5.80191,0 -9.76655,-1.64388 -3.96463,-1.74057 -6.3821,-4.83492 -2.41746,-3.09435 -3.48114,-7.25237 -1.06368,-4.25474 -1.06368,-9.37975 l 0,-28.235951 8.99295,0 0,26.301981 q 0,9.18635 2.90096,13.15099 2.90095,3.96462 9.76654,3.96462 1.45048,0 2.99765,-0.0967 1.54718,-0.0967 2.90096,-0.19339 1.35378,-0.1934 2.41746,-0.2901 1.16038,-0.19339 1.64387,-0.38679 l 0,-42.450611 8.99296,0 0,48.832711 z"
     style="font-style:normal;font-variant:normal;font-weight:normal;font-stretch:normal;font-size:60px;line-height:125%;font-family:Ubuntu;-inkscape-font-specification:'Ubuntu, Normal';text-align:start;letter-spacing:0px;word-spacing:0px;writing-mode:lr-tb;text-anchor:start;fill:url(#linearGradient3829);fill-opacity:1;stroke:none;stroke-width:1px;stroke-linecap:butt;stroke-linejoin:miter;stroke-opacity:1"
     id="path3378"
     inkscape:connector-curvature="0" />
  <path
     d="m 127.14424,199.65786 q -1.54365,0 -3.38135,-0.0737 -1.76417,-0.0736 -3.60188,-0.2205 -1.76416,-0.14699 -3.52835,-0.36756 -1.76418,-0.2205 -3.23433,-0.58805 l 0,-49.39708 q 1.47015,-0.36753 3.23433,-0.58807 1.76419,-0.22052 3.52835,-0.36753 1.83771,-0.14698 3.60188,-0.22052 1.76418,-0.0735 3.30784,-0.0735 4.41047,0 8.23284,0.66156 3.89592,0.66158 6.6892,2.27873 2.86679,1.54366 4.48397,4.11642 1.61716,2.57278 1.61716,6.32165 0,4.18994 -1.98471,6.90973 -1.9847,2.64627 -5.29255,3.96939 4.48398,1.32314 7.13024,4.18994 2.64628,2.86679 2.64628,8.08585 0,7.64476 -5.6601,11.54066 -5.58656,3.82241 -17.78882,3.82241 z m -6.6892,-24.18398 0,17.93584 q 0.80859,0.0735 1.9112,0.14699 0.95559,0.0736 2.20522,0.14698 1.32314,0 3.01382,0 3.16083,0 5.95411,-0.36752 2.8668,-0.44106 4.99852,-1.47017 2.13172,-1.0291 3.38135,-2.86678 1.32314,-1.83769 1.32314,-4.63097 0,-2.49927 -0.9556,-4.18994 -0.95561,-1.76417 -2.7933,-2.7933 -1.76418,-1.0291 -4.26342,-1.47014 -2.49927,-0.44104 -5.58659,-0.44104 l -9.18845,0 z m 0,-5.73361 7.49779,0 q 2.64627,0 4.99851,-0.36752 2.35223,-0.36755 4.04293,-1.32314 1.76418,-0.95559 2.71977,-2.49927 1.0291,-1.54364 1.0291,-3.89588 0,-2.20524 -1.0291,-3.6754 -1.02911,-1.54366 -2.8668,-2.42574 -1.76419,-0.95561 -4.18993,-1.39665 -2.42575,-0.44104 -5.14554,-0.44104 -2.71977,0 -4.26343,0.0735 -1.54366,0.0737 -2.7933,0.22054 l 0,15.7306 z"
     style="font-style:normal;font-variant:normal;font-weight:normal;font-stretch:normal;font-size:medium;line-height:125%;font-family:Ubuntu;-inkscape-font-specification:Ubuntu;text-align:start;letter-spacing:0px;word-spacing:0px;writing-mode:lr-tb;text-anchor:start;fill:url(#linearGradient3829);fill-opacity:1;stroke:none;stroke-width:108;stroke-linecap:butt;stroke-linejoin:miter;stroke-miterlimit:4;stroke-dasharray:none;stroke-opacity:1"
     id="path3380"
     inkscape:connector-curvature="0" />
  <path
     d="m 172.24688,200.31942 q -4.99852,0 -8.67388,-1.54364 -3.67538,-1.54368 -6.02762,-4.18995 -2.35225,-2.71978 -3.52837,-6.39515 -1.10263,-3.67538 -1.10263,-7.9388 l 0,-31.97581 7.13025,0 0,31.16722 q 0,7.64478 3.38135,11.09961 3.38134,3.45488 8.8209,3.45488 2.71979,0 4.92502,-0.80859 2.27873,-0.8821 3.8959,-2.64629 1.61716,-1.76417 2.49925,-4.48394 0.8821,-2.79328 0.8821,-6.61567 l 0,-31.16722 7.13024,0 0,31.97581 q 0,4.26342 -1.17613,7.9388 -1.10261,3.67537 -3.52837,6.39515 -2.35224,2.64627 -6.02762,4.18995 -3.60187,1.54364 -8.60039,1.54364 z"
     style="font-style:normal;font-variant:normal;font-weight:normal;font-stretch:normal;font-size:medium;line-height:125%;font-family:Ubuntu;-inkscape-font-specification:Ubuntu;text-align:start;letter-spacing:0px;word-spacing:0px;writing-mode:lr-tb;text-anchor:start;fill:url(#linearGradient3829);fill-opacity:1;stroke:none;stroke-width:108;stroke-linecap:butt;stroke-linejoin:miter;stroke-miterlimit:4;stroke-dasharray:none;stroke-opacity:1"
     id="path3382"
     inkscape:connector-curvature="0" />
  <path
     d="m 238.29348,173.7097 q 0,6.61567 -2.05823,11.54068 -2.05821,4.85148 -5.80711,8.08584 -3.74889,3.16081 -8.96793,4.77798 -5.21903,1.54366 -11.46718,1.54366 -3.08733,0 -6.83621,-0.29403 -3.67537,-0.22053 -6.68918,-0.9556 l 0,-49.39708 q 3.01381,-0.73508 6.68918,-0.95562 3.74888,-0.29401 6.83621,-0.29401 6.24815,0 11.46718,1.61715 5.21904,1.54368 8.96793,4.778 3.7489,3.16083 5.80711,8.08584 2.05823,4.85151 2.05823,11.46719 z m -27.7124,19.70002 q 10.14406,0 15.14258,-5.14554 4.99852,-5.21902 4.99852,-14.55448 0,-9.33547 -4.99852,-14.481 -4.99852,-5.21904 -15.14258,-5.21904 -3.0138,0 -4.70447,0.0736 -1.61717,0.0736 -2.27873,0.14698 l 0,38.95901 q 0.66156,0.0735 2.27873,0.14698 1.69067,0.0735 4.70447,0.0735 z"
     style="font-style:normal;font-variant:normal;font-weight:normal;font-stretch:normal;font-size:medium;line-height:125%;font-family:Ubuntu;-inkscape-font-specification:Ubuntu;text-align:start;letter-spacing:0px;word-spacing:0px;writing-mode:lr-tb;text-anchor:start;fill:url(#linearGradient3829);fill-opacity:1;stroke:none;stroke-width:108;stroke-linecap:butt;stroke-linejoin:miter;stroke-miterlimit:4;stroke-dasharray:none;stroke-opacity:1"
     id="path3384"
     inkscape:connector-curvature="0" />
  <path
     d="m 272.61345,174.15074 7.13024,0 0,23.81645 q -0.88208,0.29401 -2.57278,0.66156 -1.61715,0.36753 -3.82237,0.73508 -2.13174,0.36754 -4.70448,0.58806 -2.57278,0.29403 -5.21906,0.29403 -5.36605,0 -9.7765,-1.76418 -4.41045,-1.76419 -7.57128,-5.14552 -3.16082,-3.38137 -4.925,-8.30636 -1.69069,-4.92501 -1.69069,-11.32016 0,-6.39517 1.9112,-11.32019 1.98472,-4.9985 5.29254,-8.37985 3.30785,-3.38136 7.7183,-5.14554 4.48397,-1.76418 9.55598,-1.76418 3.45488,0 6.10114,0.44104 2.71979,0.44106 4.63099,1.02913 1.91118,0.58806 3.08731,1.17611 1.24961,0.58807 1.69067,0.88208 l -2.27875,5.95412 q -2.1317,-1.39665 -5.66006,-2.27874 -3.52837,-0.95559 -7.20375,-0.95559 -3.89591,0 -7.13024,1.39664 -3.16083,1.39664 -5.43956,4.04291 -2.20522,2.64628 -3.45484,6.46869 -1.24964,3.74887 -1.24964,8.45337 0,4.55746 1.0291,8.30636 1.10262,3.74887 3.23434,6.46866 2.20522,2.64626 5.36606,4.11641 3.23432,1.47014 7.57127,1.47014 3.08733,0 5.21903,-0.29401 2.20524,-0.36754 3.16083,-0.66158 l 0,-18.96494 z"
     style="font-style:normal;font-variant:normal;font-weight:normal;font-stretch:normal;font-size:medium;line-height:125%;font-family:Ubuntu;-inkscape-font-specification:Ubuntu;text-align:start;letter-spacing:0px;word-spacing:0px;writing-mode:lr-tb;text-anchor:start;fill:url(#linearGradient3829);fill-opacity:1;stroke:none;stroke-width:108;stroke-linecap:butt;stroke-linejoin:miter;stroke-miterlimit:4;stroke-dasharray:none;stroke-opacity:1"
     id="path3386"
     inkscape:connector-curvature="0" />
  <path
     d="m 286.00715,148.27607 7.13024,0 0,50.94075 -7.13024,0 0,-50.94075 z"
     style="font-style:normal;font-variant:normal;font-weight:normal;font-stretch:normal;font-size:medium;line-height:125%;font-family:Ubuntu;-inkscape-font-specification:Ubuntu;text-align:start;letter-spacing:0px;word-spacing:0px;writing-mode:lr-tb;text-anchor:start;fill:url(#linearGradient3829);fill-opacity:1;stroke:none;stroke-width:108;stroke-linecap:butt;stroke-linejoin:miter;stroke-miterlimit:4;stroke-dasharray:none;stroke-opacity:1"
     id="path3388"
     inkscape:connector-curvature="0" />
  <path
     d="m 298.46899,199.21682 0,-50.94075 31.09371,0 0,6.10112 -23.96347,0 0,15.14256 21.31719,0 0,5.95413 -21.31719,0 0,17.6418 25.80116,0 0,6.10114 -32.9314,0 z"
     style="font-style:normal;font-variant:normal;font-weight:normal;font-stretch:normal;font-size:medium;line-height:125%;font-family:Ubuntu;-inkscape-font-specification:Ubuntu;text-align:start;letter-spacing:0px;word-spacing:0px;writing-mode:lr-tb;text-anchor:start;fill:url(#linearGradient3829);fill-opacity:1;stroke:none;stroke-width:36;stroke-linecap:butt;stroke-linejoin:miter;stroke-miterlimit:4;stroke-dasharray:none;stroke-opacity:1"
     id="path3390"
     inkscape:connector-curvature="0" />
  <flowRoot
     xml:space="preserve"
     id="flowRoot3392"
     style="font-style:normal;font-variant:normal;font-weight:normal;font-stretch:normal;font-size:11.25000095px;line-height:125%;font-family:'DejaVu Sans';-inkscape-font-specification:'DejaVu Sans, Normal';text-align:center;letter-spacing:0px;word-spacing:0px;writing-mode:lr-tb;text-anchor:middle;fill:#000000;fill-opacity:1;stroke:none;stroke-width:1px;stroke-linecap:butt;stroke-linejoin:miter;stroke-opacity:1"
     transform="translate(119.76152,17.228388)"><flowRegion
       id="flowRegion3394"><rect
         id="rect3396"
         width="533.01831"
         height="49.633286"
         x="20.500706"
         y="549.83783"
         style="font-style:normal;font-variant:normal;font-weight:normal;font-stretch:normal;font-size:11.25000095px;line-height:125%;font-family:'DejaVu Sans';-inkscape-font-specification:'DejaVu Sans, Normal';text-align:center;writing-mode:lr-tb;text-anchor:middle" /></flowRegion><flowPara
       id="flowPara3400">released under CC-BY-SA 4.0</flowPara><flowPara
       id="flowPara3402">Lloyd J. Harp  ~  llo@tuxxllo.com  ~  www.tuxxllo.com</flowPara></flowRoot>  <rect
     style="opacity:0.2;fill:url(#linearGradient3829);stroke:none;stroke-width:1.5;stroke-miterlimit:4;stroke-dasharray:none;stroke-dashoffset:0;stroke-opacity:1"
     id="rect3404"
     width="359.30182"
     height="45.317348"
     x="227.19179"
     y="559.54865"
     rx="0" />
</svg>
