<?xml version="1.0" encoding="UTF-8" standalone="no"?>
<!-- Created with Inkscape (http://www.inkscape.org/) -->

<svg
   xmlns:dc="http://purl.org/dc/elements/1.1/"
   xmlns:cc="http://creativecommons.org/ns#"
   xmlns:rdf="http://www.w3.org/1999/02/22-rdf-syntax-ns#"
   xmlns:svg="http://www.w3.org/2000/svg"
   xmlns="http://www.w3.org/2000/svg"
   xmlns:sodipodi="http://sodipodi.sourceforge.net/DTD/sodipodi-0.dtd"
   xmlns:inkscape="http://www.inkscape.org/namespaces/inkscape"
   width="210mm"
   height="297mm"
   viewBox="0 0 744.09448819 1052.3622047"
   id="svg2"
   version="1.1"
   inkscape:version="0.91 r13725"
   sodipodi:docname="drawing2.svg">
  <defs
     id="defs4" />
  <sodipodi:namedview
     id="base"
     pagecolor="#ffffff"
     bordercolor="#666666"
     borderopacity="1.0"
     inkscape:pageopacity="0.0"
     inkscape:pageshadow="2"
     inkscape:zoom="2.8"
     inkscape:cx="61.945755"
     inkscape:cy="977.73856"
     inkscape:document-units="px"
     inkscape:current-layer="layer1"
     showgrid="false"
     inkscape:window-width="1366"
     inkscape:window-height="705"
     inkscape:window-x="-8"
     inkscape:window-y="-8"
     inkscape:window-maximized="1" />
  <metadata
     id="metadata7">
    <rdf:RDF>
      <cc:Work
         rdf:about="">
        <dc:format>image/svg+xml</dc:format>
        <dc:type
           rdf:resource="http://purl.org/dc/dcmitype/StillImage" />
        <dc:title></dc:title>
      </cc:Work>
    </rdf:RDF>
  </metadata>
  <g
     inkscape:label="Layer 1"
     inkscape:groupmode="layer"
     id="layer1">
    <text
       sodipodi:linespacing="125%"
       font-size="40px"
       style="font-weight:500;font-size:40px;line-height:125%;font-family:Ubuntu;letter-spacing:0px;word-spacing:0px;fill:#383c4a;fill-opacity:1"
       line-height="125%"
       xml:space="preserve"
       y="37.900227"
       x="-2.1140857"
       font-weight="500"
       id="text4142"
       inkscape:export-xdpi="100.80807"
       inkscape:export-ydpi="100.80807"><tspan
         style="font-weight:500;font-size:30px;font-family:Ubuntu;fill:#383c4a;fill-opacity:1"
         font-size="30px"
         y="37.900227"
         x="-2.1140857"
         font-weight="500"
         id="tspan4144">budgie-remix</tspan></text>
    <path
       style="fill:#383c4a;fill-opacity:1"
       inkscape:connector-curvature="0"
       d="m 188.46104,-0.0376493 a 11,11 0 0 0 -11,11.0000003 11,11 0 0 0 11,11 11,11 0 0 0 11,-11 11,11 0 0 0 -11,-11.0000003 z m 3.0938,1.65 c 0.3025,0 0.5775,0.055 0.89375,0.095 1.32,0.2201 2.6675,1.1962 3.4925,2.6126 1.1,1.8974 0.8525,4.1936003 -0.4125,5.5000003 -0.61875,0.6325 -0.825,0.6875 -1.2375,0.9625 0.275,-0.4539 0.385,-0.6325 0.37125,-1.0039 0.055,-0.22 -0.0275,-0.4124 -0.0687,-0.5224 -0.1375,-0.4126 -0.44,-0.5776 -0.77,-0.77 -0.4125,-0.2476 -0.89375,-0.3163 -1.1962,-0.3163 -0.20625,0 -0.33,0 -0.6325,0.082 -1.43,0.3574 -2.9975,-0.2062 -3.74,-1.5123003 -0.9075,-1.5677 -0.34375,-3.575 1.265,-4.4963 0.4675,-0.275 1.0312,-0.55 1.54,-0.605 0.1375,0 0.275,0 0.4125,-0.027 l 0.1375,0 z m -8.4562,3.7124 c 0.275,0 0.55,0.028 0.825,0.095 0.88,0.22 1.0038,0.3573 1.4438,0.5775 -0.5225,-0.056 -0.715,-0.056 -1.0312,0.1374 -0.1925,0.1376 -0.33,0.2751 -0.4125,0.3575 -0.275,0.3438 -0.275,0.6876 -0.275,1.0588 0,0.4674003 0.17875,0.9212003 0.31625,1.1688003 0.1375,0.1924 0.17875,0.2749 0.4125,0.5499 1.0175,1.0313 1.3062,2.6537 0.55,3.9874 -0.89375,1.54 -2.9288,2.0626 -4.5375,1.1276 -0.4675,-0.2749 -0.9625,-0.6187 -1.2788,-1.0313 -0.34375,-0.4674 -0.48125,-0.825 -0.66,-1.2786 -0.4675,-1.2375 -0.3025,-2.8876 0.50875,-4.3177003 0.89375,-1.5948 2.5438,-2.5161 4.125,-2.4749 z m 9.1438,7.5213003 c 1.7875,0 3.2588,1.5126 3.2588,3.355 0,0.55 -0.0412,1.1963 -0.2475,1.65 -0.23375,0.55 -0.4675,0.825 -0.78375,1.2376 -0.825,1.0313 -2.365,1.705 -3.9875,1.705 -2.2,0 -4.07,-1.375 -4.5375,-3.08 -0.275,-0.8937 -0.20625,-1.0726 -0.23375,-1.5676 0.2475,0.4676 0.34375,0.6326 0.66,0.825 0.20625,0.095 0.4125,0.1376 0.5225,0.1376 0.4125,0.069 0.715,-0.083 1.045,-0.275 0.4125,-0.2337 0.715,-0.605 0.86625,-0.8663 0.11,-0.1924 0.165,-0.275 0.275,-0.5913 0.385,-1.4437 1.65,-2.5024 3.1625,-2.5024 z"
       id="path4146"
       inkscape:export-xdpi="100.80807"
       inkscape:export-ydpi="100.80807" />
  </g>
</svg>
