<?xml version="1.0" encoding="UTF-8" standalone="no"?>
<!-- Created with Inkscape (http://www.inkscape.org/) -->

<svg
   xmlns:dc="http://purl.org/dc/elements/1.1/"
   xmlns:cc="http://creativecommons.org/ns#"
   xmlns:rdf="http://www.w3.org/1999/02/22-rdf-syntax-ns#"
   xmlns:svg="http://www.w3.org/2000/svg"
   xmlns="http://www.w3.org/2000/svg"
   xmlns:sodipodi="http://sodipodi.sourceforge.net/DTD/sodipodi-0.dtd"
   xmlns:inkscape="http://www.inkscape.org/namespaces/inkscape"
   width="210mm"
   height="297mm"
   viewBox="0 0 744.09448819 1052.3622047"
   id="svg2"
   version="1.1"
   inkscape:version="0.91 r13725"
   sodipodi:docname="budgie-remix-wordmark-dark.svg">
  <defs
     id="defs4" />
  <sodipodi:namedview
     id="base"
     pagecolor="#ffffff"
     bordercolor="#666666"
     borderopacity="1.0"
     inkscape:pageopacity="0.0"
     inkscape:pageshadow="2"
     inkscape:zoom="1.4"
     inkscape:cx="87.489066"
     inkscape:cy="979.39612"
     inkscape:document-units="px"
     inkscape:current-layer="layer1"
     showgrid="false"
     inkscape:window-width="1366"
     inkscape:window-height="705"
     inkscape:window-x="-8"
     inkscape:window-y="-8"
     inkscape:window-maximized="1" />
  <metadata
     id="metadata7">
    <rdf:RDF>
      <cc:Work
         rdf:about="">
        <dc:format>image/svg+xml</dc:format>
        <dc:type
           rdf:resource="http://purl.org/dc/dcmitype/StillImage" />
        <dc:title></dc:title>
      </cc:Work>
    </rdf:RDF>
  </metadata>
  <g
     inkscape:label="Layer 1"
     inkscape:groupmode="layer"
     id="layer1">
    <path
       style="font-weight:500;font-size:30px;line-height:125%;font-family:Ubuntu;letter-spacing:0px;word-spacing:0px;fill:#383c4a;fill-opacity:1"
       d="M 3.0761719 14.621094 L 0.28515625 15.099609 L 0.28515625 37.451172 C 0.92515623 37.631172 1.7460937 37.810234 2.7460938 37.990234 C 3.7460937 38.170234 4.8953125 38.259766 6.1953125 38.259766 C 7.3953125 38.259766 8.4755469 38.069453 9.4355469 37.689453 C 10.395547 37.309453 11.216484 36.770312 11.896484 36.070312 C 12.576484 35.370313 13.095078 34.519531 13.455078 33.519531 C 13.835078 32.499531 14.025391 31.359609 14.025391 30.099609 C 14.025391 28.899609 13.866875 27.800781 13.546875 26.800781 C 13.246875 25.800781 12.795313 24.940703 12.195312 24.220703 C 11.595312 23.500703 10.856562 22.941016 9.9765625 22.541016 C 9.1165625 22.141016 8.1258594 21.939453 7.0058594 21.939453 C 6.1058594 21.939453 5.3054688 22.060781 4.6054688 22.300781 C 3.9254687 22.540781 3.4161719 22.770234 3.0761719 22.990234 L 3.0761719 14.621094 z M 48.078125 14.621094 L 45.287109 15.099609 L 45.287109 22.990234 C 44.947109 22.770234 44.428516 22.540781 43.728516 22.300781 C 43.048516 22.060781 42.257422 21.939453 41.357422 21.939453 C 40.237422 21.939453 39.237422 22.141016 38.357422 22.541016 C 37.497422 22.941016 36.767969 23.500703 36.167969 24.220703 C 35.567969 24.940703 35.107109 25.800781 34.787109 26.800781 C 34.487109 27.800781 34.337891 28.899609 34.337891 30.099609 C 34.337891 31.359609 34.516953 32.499531 34.876953 33.519531 C 35.256953 34.519531 35.78875 35.370312 36.46875 36.070312 C 37.14875 36.770313 37.967734 37.309453 38.927734 37.689453 C 39.887734 38.069453 40.967969 38.259766 42.167969 38.259766 C 43.467969 38.259766 44.617188 38.170234 45.617188 37.990234 C 46.617187 37.810234 47.438125 37.631172 48.078125 37.451172 L 48.078125 14.621094 z M 71.626953 15.820312 C 71.126953 15.820313 70.695937 15.990078 70.335938 16.330078 C 69.995938 16.650078 69.826172 17.090391 69.826172 17.650391 C 69.826172 18.210391 69.995938 18.66 70.335938 19 C 70.695937 19.32 71.126953 19.480469 71.626953 19.480469 C 72.126953 19.480469 72.546719 19.32 72.886719 19 C 73.246719 18.66 73.427734 18.210391 73.427734 17.650391 C 73.427734 17.090391 73.246719 16.650078 72.886719 16.330078 C 72.546719 15.990078 72.126953 15.820312 71.626953 15.820312 z M 159.10742 15.820312 C 158.60742 15.820313 158.17641 15.990078 157.81641 16.330078 C 157.47641 16.650078 157.30664 17.090391 157.30664 17.650391 C 157.30664 18.210391 157.47641 18.66 157.81641 19 C 158.17641 19.32 158.60742 19.480469 159.10742 19.480469 C 159.60742 19.480469 160.02719 19.32 160.36719 19 C 160.72719 18.66 160.9082 18.210391 160.9082 17.650391 C 160.9082 17.090391 160.72719 16.650078 160.36719 16.330078 C 160.02719 15.990078 159.60742 15.820312 159.10742 15.820312 z M 84.103516 21.910156 C 83.203516 21.910156 82.324844 22.079922 81.464844 22.419922 C 80.604844 22.759922 79.843594 23.271172 79.183594 23.951172 C 78.523594 24.631172 77.99375 25.489297 77.59375 26.529297 C 77.19375 27.549297 76.994141 28.750859 76.994141 30.130859 C 76.994141 31.310859 77.143359 32.400391 77.443359 33.400391 C 77.763359 34.380391 78.244766 35.231172 78.884766 35.951172 C 79.524766 36.671172 80.334453 37.240156 81.314453 37.660156 C 82.314453 38.060156 83.493516 38.259766 84.853516 38.259766 C 85.933516 38.259766 86.894375 38.160938 87.734375 37.960938 C 88.594375 37.760938 89.193203 37.570625 89.533203 37.390625 L 89.144531 35.050781 C 88.804531 35.210781 88.293281 35.380547 87.613281 35.560547 C 86.953281 35.720547 86.134297 35.800781 85.154297 35.800781 C 83.414297 35.800781 82.134453 35.381016 81.314453 34.541016 C 80.494453 33.701016 80.024297 32.469609 79.904297 30.849609 L 90.583984 30.849609 C 90.603984 30.689609 90.613281 30.519844 90.613281 30.339844 L 90.613281 29.859375 C 90.613281 27.179375 90.053594 25.190625 88.933594 23.890625 C 87.813594 22.570625 86.203516 21.910156 84.103516 21.910156 z M 121.36914 21.910156 C 120.46914 21.910156 119.59047 22.079922 118.73047 22.419922 C 117.87047 22.759922 117.10922 23.271172 116.44922 23.951172 C 115.78922 24.631172 115.25938 25.489297 114.85938 26.529297 C 114.45938 27.549297 114.25977 28.750859 114.25977 30.130859 C 114.25977 31.310859 114.40898 32.400391 114.70898 33.400391 C 115.02898 34.380391 115.51039 35.231172 116.15039 35.951172 C 116.79039 36.671172 117.60008 37.240156 118.58008 37.660156 C 119.58008 38.060156 120.75914 38.259766 122.11914 38.259766 C 123.19914 38.259766 124.16 38.160938 125 37.960938 C 125.86 37.760938 126.45883 37.570625 126.79883 37.390625 L 126.41016 35.050781 C 126.07016 35.210781 125.55891 35.380547 124.87891 35.560547 C 124.21891 35.720547 123.39992 35.800781 122.41992 35.800781 C 120.67992 35.800781 119.40008 35.381016 118.58008 34.541016 C 117.76008 33.701016 117.28992 32.469609 117.16992 30.849609 L 127.84961 30.849609 C 127.86961 30.689609 127.87891 30.519844 127.87891 30.339844 L 127.87891 29.859375 C 127.87891 27.179375 127.31922 25.190625 126.19922 23.890625 C 125.07922 22.570625 123.46914 21.910156 121.36914 21.910156 z M 59.59375 21.970703 C 58.41375 21.970703 57.354063 22.170312 56.414062 22.570312 C 55.474063 22.950312 54.673672 23.489453 54.013672 24.189453 C 53.373672 24.869453 52.882969 25.690391 52.542969 26.650391 C 52.202969 27.590391 52.033203 28.629531 52.033203 29.769531 C 52.033203 31.069531 52.212266 32.190859 52.572266 33.130859 C 52.932266 34.070859 53.422969 34.86 54.042969 35.5 C 54.662969 36.12 55.383125 36.580859 56.203125 36.880859 C 57.043125 37.180859 57.933047 37.330078 58.873047 37.330078 C 59.793047 37.330078 60.593437 37.210703 61.273438 36.970703 C 61.973437 36.710703 62.443594 36.499844 62.683594 36.339844 L 62.683594 37 C 62.683594 38.44 62.312266 39.490391 61.572266 40.150391 C 60.852266 40.810391 59.663906 41.140625 58.003906 41.140625 C 57.123906 41.140625 56.273125 41.051094 55.453125 40.871094 C 54.653125 40.711094 53.974062 40.520781 53.414062 40.300781 L 52.902344 42.730469 C 53.542344 42.950469 54.292344 43.140781 55.152344 43.300781 C 56.032344 43.460781 56.963359 43.541016 57.943359 43.541016 C 60.463359 43.541016 62.343984 42.999922 63.583984 41.919922 C 64.823984 40.839922 65.443359 39.101172 65.443359 36.701172 L 65.443359 22.779297 C 64.783359 22.619297 63.962422 22.449531 62.982422 22.269531 C 62.022422 22.069531 60.89375 21.970703 59.59375 21.970703 z M 109.28906 21.970703 C 108.06906 21.970703 106.96828 22.080781 105.98828 22.300781 C 105.00828 22.500781 104.18734 22.720937 103.52734 22.960938 L 103.52734 37.900391 L 106.31836 37.900391 L 106.31836 24.791016 C 106.47836 24.751016 106.80859 24.680078 107.30859 24.580078 C 107.82859 24.460078 108.34719 24.400391 108.86719 24.400391 C 109.66719 24.400391 110.31836 24.460078 110.81836 24.580078 C 111.33836 24.680078 111.70773 24.769609 111.92773 24.849609 L 112.4082 22.419922 C 112.2882 22.379922 112.09789 22.340781 111.83789 22.300781 C 111.59789 22.240781 111.32734 22.190391 111.02734 22.150391 C 110.72734 22.090391 110.41766 22.049297 110.09766 22.029297 C 109.79766 21.989297 109.52906 21.970703 109.28906 21.970703 z M 138.06836 21.970703 C 136.68836 21.970703 135.4682 22.060234 134.4082 22.240234 C 133.3682 22.420234 132.52672 22.59 131.88672 22.75 L 131.88672 37.900391 L 134.67773 37.900391 L 134.67773 24.730469 C 134.75773 24.710469 134.9182 24.680625 135.1582 24.640625 C 135.3982 24.600625 135.6575 24.570781 135.9375 24.550781 C 136.2375 24.510781 136.54719 24.480937 136.86719 24.460938 C 137.18719 24.440938 137.48758 24.429688 137.76758 24.429688 C 138.42758 24.429688 138.96672 24.539766 139.38672 24.759766 C 139.82672 24.959766 140.1682 25.280703 140.4082 25.720703 C 140.6682 26.160703 140.84727 26.711094 140.94727 27.371094 C 141.04727 28.031094 141.09766 28.820234 141.09766 29.740234 L 141.09766 37.900391 L 143.88672 37.900391 L 143.88672 29.140625 C 143.88672 28.460625 143.84758 27.809453 143.76758 27.189453 C 143.68758 26.569453 143.5682 26.000469 143.4082 25.480469 C 143.6282 25.280469 144.03672 25.060312 144.63672 24.820312 C 145.25672 24.560312 146.03656 24.429688 146.97656 24.429688 C 147.65656 24.429688 148.20695 24.539766 148.62695 24.759766 C 149.06695 24.959766 149.40844 25.280703 149.64844 25.720703 C 149.90844 26.160703 150.0782 26.711094 150.1582 27.371094 C 150.2582 28.031094 150.30664 28.820234 150.30664 29.740234 L 150.30664 37.900391 L 153.09766 37.900391 L 153.09766 29.140625 C 153.09766 28.100625 153.01742 27.139766 152.85742 26.259766 C 152.71742 25.379766 152.42828 24.620469 151.98828 23.980469 C 151.56828 23.340469 150.9768 22.849766 150.2168 22.509766 C 149.4568 22.149766 148.47734 21.970703 147.27734 21.970703 C 146.65734 21.970703 146.07711 22.039688 145.53711 22.179688 C 144.99711 22.299688 144.50836 22.450859 144.06836 22.630859 C 143.62836 22.790859 143.25703 22.960625 142.95703 23.140625 C 142.65703 23.320625 142.43687 23.460547 142.29688 23.560547 C 141.83687 23.040547 141.26789 22.650625 140.58789 22.390625 C 139.90789 22.110625 139.06836 21.970703 138.06836 21.970703 z M 17.800781 22.300781 L 17.800781 31.060547 C 17.800781 32.120547 17.910859 33.090703 18.130859 33.970703 C 18.350859 34.830703 18.710937 35.580703 19.210938 36.220703 C 19.710937 36.860703 20.371406 37.360703 21.191406 37.720703 C 22.011406 38.060703 23.020703 38.230469 24.220703 38.230469 C 25.600703 38.230469 26.811563 38.140937 27.851562 37.960938 C 28.911563 37.780937 29.760391 37.611172 30.400391 37.451172 L 30.400391 22.300781 L 27.611328 22.300781 L 27.611328 35.470703 C 27.511328 35.510703 27.341563 35.549844 27.101562 35.589844 C 26.881563 35.609844 26.631563 35.639688 26.351562 35.679688 C 26.071563 35.699688 25.771172 35.720234 25.451172 35.740234 C 25.131172 35.760234 24.821484 35.769531 24.521484 35.769531 C 23.101484 35.769531 22.092187 35.361016 21.492188 34.541016 C 20.892188 33.721016 20.591797 32.360937 20.591797 30.460938 L 20.591797 22.300781 L 17.800781 22.300781 z M 70.246094 22.300781 L 70.246094 37.900391 L 73.037109 37.900391 L 73.037109 22.300781 L 70.246094 22.300781 z M 157.72656 22.300781 L 157.72656 37.900391 L 160.51758 37.900391 L 160.51758 22.300781 L 157.72656 22.300781 z M 163.66406 22.300781 L 168.82422 29.710938 C 167.86422 30.990937 166.89406 32.339766 165.91406 33.759766 C 164.95406 35.159766 164.12383 36.540391 163.42383 37.900391 L 166.30469 37.900391 C 166.52469 37.480391 166.79523 37.000937 167.11523 36.460938 C 167.43523 35.920938 167.77477 35.370547 168.13477 34.810547 C 168.51477 34.230547 168.90469 33.659609 169.30469 33.099609 C 169.70469 32.519609 170.09461 31.980469 170.47461 31.480469 C 170.85461 31.980469 171.24453 32.510313 171.64453 33.070312 C 172.04453 33.630313 172.43445 34.199297 172.81445 34.779297 C 173.19445 35.339297 173.54523 35.889687 173.86523 36.429688 C 174.18523 36.969687 174.45383 37.460391 174.67383 37.900391 L 177.73438 37.900391 C 177.03438 36.520391 176.1743 35.109922 175.1543 33.669922 C 174.1543 32.209922 173.17484 30.829297 172.21484 29.529297 L 177.25391 22.300781 L 174.28516 22.300781 L 170.53516 27.759766 L 166.81445 22.300781 L 163.66406 22.300781 z M 84.074219 24.279297 C 85.214219 24.279297 86.104141 24.689766 86.744141 25.509766 C 87.404141 26.309766 87.723125 27.339609 87.703125 28.599609 L 79.964844 28.599609 C 80.024844 28.059609 80.144219 27.529766 80.324219 27.009766 C 80.524219 26.489766 80.794766 26.030859 81.134766 25.630859 C 81.474766 25.230859 81.883281 24.909922 82.363281 24.669922 C 82.863281 24.409922 83.434219 24.279297 84.074219 24.279297 z M 121.33984 24.279297 C 122.47984 24.279297 123.36977 24.689766 124.00977 25.509766 C 124.66977 26.309766 124.98875 27.339609 124.96875 28.599609 L 117.23047 28.599609 C 117.29047 28.059609 117.40984 27.529766 117.58984 27.009766 C 117.78984 26.489766 118.06039 26.030859 118.40039 25.630859 C 118.74039 25.230859 119.14891 24.909922 119.62891 24.669922 C 120.12891 24.409922 120.69984 24.279297 121.33984 24.279297 z M 6.6464844 24.400391 C 7.4464844 24.400391 8.1255469 24.549609 8.6855469 24.849609 C 9.2655469 25.129609 9.7357033 25.530781 10.095703 26.050781 C 10.455703 26.550781 10.715 27.149609 10.875 27.849609 C 11.035 28.549609 11.115234 29.299609 11.115234 30.099609 C 11.115234 31.919609 10.665625 33.330078 9.765625 34.330078 C 8.865625 35.310078 7.6660156 35.800781 6.1660156 35.800781 C 5.4060156 35.800781 4.7660938 35.770938 4.2460938 35.710938 C 3.7460938 35.630938 3.3561719 35.550703 3.0761719 35.470703 L 3.0761719 25.599609 C 3.4161719 25.319609 3.906875 25.051016 4.546875 24.791016 C 5.186875 24.531016 5.8864844 24.400391 6.6464844 24.400391 z M 41.71875 24.400391 C 42.47875 24.400391 43.178359 24.531016 43.818359 24.791016 C 44.458359 25.051016 44.947109 25.319609 45.287109 25.599609 L 45.287109 35.470703 C 45.007109 35.550703 44.607891 35.630937 44.087891 35.710938 C 43.587891 35.770938 42.957266 35.800781 42.197266 35.800781 C 40.697266 35.800781 39.497656 35.310078 38.597656 34.330078 C 37.697656 33.330078 37.248047 31.919609 37.248047 30.099609 C 37.248047 29.299609 37.328281 28.549609 37.488281 27.849609 C 37.648281 27.149609 37.907578 26.550781 38.267578 26.050781 C 38.627578 25.530781 39.088437 25.129609 39.648438 24.849609 C 40.228437 24.549609 40.91875 24.400391 41.71875 24.400391 z M 59.623047 24.429688 C 60.423047 24.429687 61.053672 24.470781 61.513672 24.550781 C 61.993672 24.610781 62.372344 24.679766 62.652344 24.759766 L 62.652344 33.880859 C 62.292344 34.160859 61.803594 34.410859 61.183594 34.630859 C 60.563594 34.830859 59.882578 34.929688 59.142578 34.929688 C 58.602578 34.929688 58.072734 34.830859 57.552734 34.630859 C 57.052734 34.430859 56.603125 34.121172 56.203125 33.701172 C 55.823125 33.281172 55.513437 32.749375 55.273438 32.109375 C 55.053437 31.469375 54.943359 30.700781 54.943359 29.800781 C 54.943359 28.180781 55.342578 26.880391 56.142578 25.900391 C 56.962578 24.920391 58.123047 24.429688 59.623047 24.429688 z M 93.001953 27.609375 L 93.001953 30.220703 L 100.41211 30.220703 L 100.41211 27.609375 L 93.001953 27.609375 z "
       id="path4172" />
    <path
       style="fill:#383c4a;fill-opacity:1"
       inkscape:connector-curvature="0"
       d="m 188.46104,-0.0376493 a 11,11 0 0 0 -11,11.0000003 11,11 0 0 0 11,11 11,11 0 0 0 11,-11 11,11 0 0 0 -11,-11.0000003 z m 3.0938,1.65 c 0.3025,0 0.5775,0.055 0.89375,0.095 1.32,0.2201 2.6675,1.1962 3.4925,2.6126 1.1,1.8974 0.8525,4.1936003 -0.4125,5.5000003 -0.61875,0.6325 -0.825,0.6875 -1.2375,0.9625 0.275,-0.4539 0.385,-0.6325 0.37125,-1.0039 0.055,-0.22 -0.0275,-0.4124 -0.0687,-0.5224 -0.1375,-0.4126 -0.44,-0.5776 -0.77,-0.77 -0.4125,-0.2476 -0.89375,-0.3163 -1.1962,-0.3163 -0.20625,0 -0.33,0 -0.6325,0.082 -1.43,0.3574 -2.9975,-0.2062 -3.74,-1.5123003 -0.9075,-1.5677 -0.34375,-3.575 1.265,-4.4963 0.4675,-0.275 1.0312,-0.55 1.54,-0.605 0.1375,0 0.275,0 0.4125,-0.027 l 0.1375,0 z m -8.4562,3.7124 c 0.275,0 0.55,0.028 0.825,0.095 0.88,0.22 1.0038,0.3573 1.4438,0.5775 -0.5225,-0.056 -0.715,-0.056 -1.0312,0.1374 -0.1925,0.1376 -0.33,0.2751 -0.4125,0.3575 -0.275,0.3438 -0.275,0.6876 -0.275,1.0588 0,0.4674003 0.17875,0.9212003 0.31625,1.1688003 0.1375,0.1924 0.17875,0.2749 0.4125,0.5499 1.0175,1.0313 1.3062,2.6537 0.55,3.9874 -0.89375,1.54 -2.9288,2.0626 -4.5375,1.1276 -0.4675,-0.2749 -0.9625,-0.6187 -1.2788,-1.0313 -0.34375,-0.4674 -0.48125,-0.825 -0.66,-1.2786 -0.4675,-1.2375 -0.3025,-2.8876 0.50875,-4.3177003 0.89375,-1.5948 2.5438,-2.5161 4.125,-2.4749 z m 9.1438,7.5213003 c 1.7875,0 3.2588,1.5126 3.2588,3.355 0,0.55 -0.0412,1.1963 -0.2475,1.65 -0.23375,0.55 -0.4675,0.825 -0.78375,1.2376 -0.825,1.0313 -2.365,1.705 -3.9875,1.705 -2.2,0 -4.07,-1.375 -4.5375,-3.08 -0.275,-0.8937 -0.20625,-1.0726 -0.23375,-1.5676 0.2475,0.4676 0.34375,0.6326 0.66,0.825 0.20625,0.095 0.4125,0.1376 0.5225,0.1376 0.4125,0.069 0.715,-0.083 1.045,-0.275 0.4125,-0.2337 0.715,-0.605 0.86625,-0.8663 0.11,-0.1924 0.165,-0.275 0.275,-0.5913 0.385,-1.4437 1.65,-2.5024 3.1625,-2.5024 z"
       id="path4146"
       inkscape:export-xdpi="100.80807"
       inkscape:export-ydpi="100.80807" />
  </g>
</svg>
