<?xml version="1.0" encoding="UTF-8" standalone="no"?>
<svg xmlns:rdf="http://www.w3.org/1999/02/22-rdf-syntax-ns#" xmlns="http://www.w3.org/2000/svg" height="256" width="256" version="1.1" xmlns:cc="http://creativecommons.org/ns#" xmlns:xlink="http://www.w3.org/1999/xlink" viewBox="0 0 256 256" xmlns:dc="http://purl.org/dc/elements/1.1/">
 <title>budgie-remix Logo</title>
 <metadata>
  <rdf:RDF>
   <cc:Work rdf:about="">
    <dc:format>image/svg+xml</dc:format>
    <dc:type rdf:resource="http://purl.org/dc/dcmitype/StillImage"/>
    <dc:title>budgie-remix Logo</dc:title>
    <dc:creator>
     <cc:Agent>
      <dc:title>HEXcube and Joshua &quot;Foggalong&quot; Fogg</dc:title>
     </cc:Agent>
    </dc:creator>
    <cc:license rdf:resource="http://creativecommons.org/licenses/by-sa/4.0/"/>
    <dc:source>Budgie Logo by Yuri Henrique</dc:source>
    <dc:description>Prototype logo for budgie-remix with small sized Budgie shapes</dc:description>
   </cc:Work>
  </rdf:RDF>
 </metadata>
 <circle cy="128" cx="128" r="128" fill="#404552"/>
 <path id="budgie" d="m168 154c-14.784 0-27.327 10.913-31 25-1.1005 2.868-1.8854 4.0332-3 6-1.4507 2.5283-3.58 5.7384-7.5796 8.6305-3.5417 1.996-5.7642 2.5916-10.42 2.3695-3.2045-0.48252-3.9754-0.99933-6-2-3.139-2.5679-3.6167-3.4154-6-8 0.34022 4.8952 0.0467 6.3083 2 15 5.1954 16.95 23.426 31 45 31 15.992 0 30.554-6.7124 38.895-16.957 3.0503-3.7466 5.3472-6.7027 7.5789-11.87 2.0305-4.701 2.5248-10.791 2.5263-16.174 0.005-18.276-14.327-33-32-33z" fill="#fff"/>
 <use xlink:href="#budgie" transform="matrix(-.5 .86603 -.86603 -.5 302.85 81.149)" height="100%" width="100%" y="0" x="0"/>
 <use xlink:href="#budgie" transform="matrix(-.5 -.86603 .86603 -.5 81.149 302.85)" height="100%" width="100%" y="0" x="0"/>
</svg>
