<?xml version="1.0" encoding="UTF-8" standalone="no"?>
<!-- Created with Inkscape (http://www.inkscape.org/) -->

<svg
   width="50.799999mm"
   height="50.799995mm"
   viewBox="0 0 50.799999 50.799996"
   version="1.1"
   id="svg1"
   inkscape:export-filename="ubuntubudgielogo32.svg"
   inkscape:export-xdpi="16"
   inkscape:export-ydpi="16"
   sodipodi:docname="thebird.svg"
   xmlns:inkscape="http://www.inkscape.org/namespaces/inkscape"
   xmlns:sodipodi="http://sodipodi.sourceforge.net/DTD/sodipodi-0.dtd"
   xmlns="http://www.w3.org/2000/svg"
   xmlns:svg="http://www.w3.org/2000/svg">
  <sodipodi:namedview
     id="namedview1"
     pagecolor="#ffffff"
     bordercolor="#000000"
     borderopacity="0.25"
     inkscape:showpageshadow="2"
     inkscape:pageopacity="0.0"
     inkscape:pagecheckerboard="0"
     inkscape:deskcolor="#d1d1d1"
     inkscape:document-units="mm" />
  <defs
     id="defs1" />
  <g
     inkscape:label="Layer 1"
     inkscape:groupmode="layer"
     id="layer1"
     transform="translate(-73.994321,-81.493024)">
    <g
       id="g2"
       transform="matrix(0.0656184,0,0,0.06745856,65.602562,77.179429)"
       style="stroke-width:2.30983">
      <path
         d="M 484.32,375.24 C 575.25,255.5 857.87,527.6 788.67,581.07 693.91,654.28 297.66,621.06 484.32,375.24 Z"
         fill="#1c80aa"
         id="path1"
         style="stroke-width:2.30983" />
      <path
         d="m 224.73,264.77 -24,50.19 a 21.7,21.7 0 0 1 -37.73,2.5 l -31.57,-48.27 a 21.7,21.7 0 0 1 17.41,-33.57 l 55.61,-1.92 a 21.7,21.7 0 0 1 20.28,31.07 z"
         fill="#de7b56"
         id="path3"
         style="stroke-width:2.30983" />
      <path
         d="M 900.53,638.76 C 882.23,725.67 678.67,846.89 422.53,810.3 150.46,771.44 26,281.88 315,103.56 476.25,4.07 641.71,108.56 671.8,233.93 713,405.47 583.15,534.58 749.57,609 836.48,647.91 914,574.67 900.53,638.76 Z"
         fill="#fdd2be"
         id="path4"
         style="fill:#404552;fill-opacity:1;stroke-width:2.30983" />
      <path
         d="m 365.86,264.78 m -32.45,0 a 32.45,32.45 0 1 0 64.9,0 32.45,32.45 0 1 0 -64.9,0 z"
         fill=""
         id="path5"
         style="fill:#f9f9f9;stroke-width:2.30983" />
      <path
         d="M 512.24,366 C 649.72,305.14 765.58,680 679.16,693.31 560.81,711.56 230,490.92 512.24,366 Z M 223.3,530 c -9.34,-2.6 -17.2,-12.8 -23.94,-31 a 195,195 0 0 1 -7.64,-27 7.2848147,7.2848147 0 0 1 14.3,-2.79 c 4.79,24.5 15,46.44 21.91,46.93 1.12,0.08 11.43,-0.5 27.23,-45.51 a 7.2804533,7.2804533 0 1 1 13.74,4.82 c -13.61,38.77 -27,56.31 -42,55.22 A 18.18,18.18 0 0 1 223.3,530 Z m 117.5,60.36 c -9.63,1.14 -20.77,-5.32 -33.92,-19.63 a 195,195 0 0 1 -17.32,-22.11 7.2819795,7.2819795 0 0 1 12.17,-8 c 13.73,20.85 31.53,37.27 38.07,35.12 1.07,-0.35 10.38,-4.8 7.93,-52.44 a 7.2846585,7.2846585 0 1 1 14.55,-0.75 c 2.11,41 -3.59,62.33 -17.95,67 a 18.18,18.18 0 0 1 -3.53,0.81 z m -79.3,69.35 c -9,-0.19 -18.35,-7.55 -28.56,-22.35 a 180.41,180.41 0 0 1 -13,-22.49 6.74,6.74 0 0 1 12.18,-5.77 c 9.9,20.88 24.1,38.21 30.37,37.08 1,-0.18 10.13,-3.07 14,-47 a 6.7408698,6.7408698 0 1 1 13.43,1.18 c -3.34,37.87 -11.31,56.66 -25.07,59.12 a 16.82,16.82 0 0 1 -3.35,0.23 z m 127.78,62.58 c -9.26,2.85 -21.38,-1.51 -36.89,-13.22 a 195,195 0 0 1 -21,-18.64 7.2815606,7.2815606 0 0 1 10.53,-10.06 c 17.25,18.05 37.7,31 43.75,27.71 1,-0.54 9.35,-6.59 -1.61,-53 a 7.2803056,7.2803056 0 1 1 14.17,-3.35 c 9.44,40 7.65,62 -5.63,69.16 a 18.18,18.18 0 0 1 -3.32,1.4 z"
         fill="#22b0c3"
         id="path6"
         style="fill:#e3dedb;fill-opacity:1;stroke-width:2.30983" />
    </g>
  </g>
</svg>
