<?xml version="1.0" encoding="UTF-8" standalone="no"?>
<!-- Created with Inkscape (http://www.inkscape.org/) -->

<svg
   width="128mm"
   height="107.56659mm"
   viewBox="0 0 128 107.56659"
   version="1.1"
   id="svg1"
   inkscape:export-filename="ubuntubudgie192.png"
   inkscape:export-xdpi="96"
   inkscape:export-ydpi="96"
   sodipodi:docname="ubuntubudgielogo192x192.svg"
   inkscape:version="1.3.2 (091e20e, 2023-11-25, custom)"
   xmlns:inkscape="http://www.inkscape.org/namespaces/inkscape"
   xmlns:sodipodi="http://sodipodi.sourceforge.net/DTD/sodipodi-0.dtd"
   xmlns="http://www.w3.org/2000/svg"
   xmlns:svg="http://www.w3.org/2000/svg">
  <sodipodi:namedview
     id="namedview1"
     pagecolor="#ffffff"
     bordercolor="#000000"
     borderopacity="0.25"
     inkscape:showpageshadow="2"
     inkscape:pageopacity="0.0"
     inkscape:pagecheckerboard="0"
     inkscape:deskcolor="#d1d1d1"
     inkscape:document-units="mm"
     inkscape:zoom="1.4279508"
     inkscape:cx="375.01292"
     inkscape:cy="258.76242"
     inkscape:window-width="1920"
     inkscape:window-height="1017"
     inkscape:window-x="-8"
     inkscape:window-y="-8"
     inkscape:window-maximized="1"
     inkscape:current-layer="g2" />
  <defs
     id="defs1" />
  <g
     inkscape:label="Layer 1"
     inkscape:groupmode="layer"
     id="layer1"
     transform="translate(-35.394318,-53.109732)">
    <g
       id="g2"
       transform="matrix(0.1653377,0,0,0.1428403,14.249729,43.975899)"
       style="stroke-width:1.00209615;stroke-dasharray:none">
      <path
         d="m 502.80811,409.66505 c 36.08784,-56.54909 148.25265,71.95438 120.7889,97.20643 -37.60788,34.57457 -194.86959,18.8859 -120.7889,-97.20643 z"
         fill="#1c80aa"
         id="path1"
         style="stroke-width:1.0021;stroke-dasharray:none" />
      <path
         d="m 399.78333,357.49387 -9.525,23.70301 a 8.6121875,10.248164 0 0 1 -14.9741,1.18066 l -12.52934,-22.79626 a 8.6121875,10.248164 0 0 1 6.90959,-15.85395 l 22.07022,-0.90675 a 8.6121875,10.248164 0 0 1 8.04863,14.67329 z"
         fill="#de7b56"
         id="path3"
         style="stroke-width:1.0021;stroke-dasharray:none" />
      <path
         d="m 667.99145,534.11648 c -7.26282,41.0446 -88.05069,98.29264 -189.70625,81.01243 -107.97778,-18.35223 -157.37285,-249.55458 -42.67597,-333.76899 63.99609,-46.9857 129.66303,2.36134 141.605,61.56928 16.35125,81.01243 -35.18297,141.98665 30.86497,177.13266 34.4924,18.37584 65.25816,-16.21288 59.91225,14.05462 z"
         fill="#fdd2be"
         id="path4"
         style="fill:#404552;fill-opacity:1;stroke-width:1.0021;stroke-dasharray:none" />
      <path
         d="m 455.79429,357.49859 m -12.87859,0 a 12.878595,15.325021 0 1 0 25.75719,0 12.878595,15.325021 0 1 0 -25.75719,0 z"
         fill=""
         id="path5"
         style="fill:#f9f9f9;stroke-width:1.0021;stroke-dasharray:none" />
      <path
         d="m 513.88885,405.30132 c 54.56238,-28.7421 100.54431,148.29139 66.24638,154.57725 -32.57235,5.9769 -105.69414,-42.30102 -110.1064,-92.13428 -1.95033,-22.02758 9.52426,-44.35905 43.86002,-62.44297 z M 399.2158,482.75287 c -3.70682,-1.22789 -6.82625,-6.045 -9.50119,-14.64023 -1.26672,-4.15822 -2.28006,-8.41965 -3.03213,-12.75117 -0.30565,-1.86484 0.71693,-3.67147 2.28405,-4.0353 1.56713,-0.36384 3.08541,0.85288 3.39127,2.71767 1.90103,11.57051 5.95312,21.93202 8.69553,22.16343 0.4445,0.0378 4.53628,-0.23613 10.8069,-21.4928 0.52817,-1.79201 2.17717,-2.73515 3.68307,-2.10653 1.50589,0.62862 2.29837,2.59094 1.76999,4.38284 -5.40146,18.30974 -10.71562,26.59327 -16.66874,26.07851 -0.48399,-0.048 -0.96267,-0.15399 -1.42875,-0.31642 z m 46.63281,28.50596 c -3.82191,0.53838 -8.2431,-2.51246 -13.462,-9.27058 -2.49924,-3.27946 -4.79648,-6.76911 -6.87388,-10.44179 -0.87657,-1.58712 -0.50604,-3.7193 0.82763,-4.76254 1.33367,-1.04323 3.12552,-0.60251 4.00234,0.98442 5.44909,9.84673 12.51347,17.60134 15.10903,16.58597 0.42466,-0.1653 4.11956,-2.26688 3.14722,-24.76562 -0.0822,-1.8975 1.14385,-3.51501 2.73844,-3.61283 1.59459,-0.0978 2.95389,1.36113 3.03609,3.25864 0.83741,19.36288 -1.42478,29.4363 -7.1239,31.64179 -0.45513,0.18268 -0.92445,0.31083 -1.40097,0.38254 z m -31.47219,32.75162 c -3.57188,-0.0897 -7.28266,-3.56561 -11.33475,-10.55515 -1.93203,-3.38829 -3.65629,-6.93789 -5.15937,-10.62124 -0.59898,-1.58127 -0.0238,-3.44209 1.29345,-4.18465 1.31726,-0.74257 2.89164,-0.0935 3.54048,1.45968 3.92907,9.8609 9.56469,18.04526 12.0531,17.5116 0.39687,-0.085 4.02034,-1.44986 5.55625,-22.19648 0.12915,-1.75161 1.42722,-3.0469 2.8992,-2.89301 1.47197,0.1539 2.56034,1.69871 2.43083,3.45028 -1.32557,17.88469 -4.48866,26.75858 -9.94966,27.92035 -0.43902,0.0889 -0.88442,0.12528 -1.32953,0.10864 z m 50.71269,29.55438 c -3.67507,1.34595 -8.48519,-0.71312 -14.64072,-6.24335 -2.95229,-2.69221 -5.73764,-5.63418 -8.33438,-8.80303 -1.10251,-1.37325 -1.06076,-3.55003 0.0933,-4.86198 1.15402,-1.31194 2.98331,-1.26226 4.08583,0.11102 6.84609,8.52439 14.96218,14.64023 17.36328,13.08648 0.39687,-0.25503 3.71078,-3.11223 -0.63897,-25.03008 -0.36714,-1.84795 0.59414,-3.70017 2.14709,-4.13705 1.55295,-0.43687 3.10949,0.70702 3.47663,2.55496 3.7465,18.89063 3.03609,29.28047 -2.23441,32.66189 -0.41973,0.27176 -0.8611,0.49325 -1.31762,0.66118 z"
         fill="#22b0c3"
         id="path6"
         style="fill:#e3dedb;fill-opacity:1;stroke-width:1.0021;stroke-dasharray:none"
         sodipodi:nodetypes="ccsccccscccsccccccscccsccccccscccsccccccscccsccc" />
    </g>
  </g>
</svg>
