<?xml version="1.0" encoding="UTF-8" standalone="no"?>
<svg xmlns:rdf="http://www.w3.org/1999/02/22-rdf-syntax-ns#" xmlns="http://www.w3.org/2000/svg" height="152" width="1000" version="1.1" xmlns:cc="http://creativecommons.org/ns#" xmlns:dc="http://purl.org/dc/elements/1.1/" viewBox="0 0 1000 152">
 <title>Ubuntu Budgie wordmark</title>
 <metadata>
  <rdf:RDF>
   <cc:Work rdf:about="">
    <dc:format>image/svg+xml</dc:format>
    <dc:type rdf:resource="http://purl.org/dc/dcmitype/StillImage"/>
    <dc:title>Ubuntu Budgie wordmark</dc:title>
    <dc:creator>
     <cc:Agent>
      <dc:title>HEXcube</dc:title>
     </cc:Agent>
    </dc:creator>
    <cc:license rdf:resource="http://creativecommons.org/licenses/by-sa/4.0/"/>
    <dc:source>Ubuntu and Clear Sans fonts and Ubuntu Budgie logo</dc:source>
    <dc:description>Official wordmark for Ubuntu Budgie</dc:description>
   </cc:Work>
  </rdf:RDF>
 </metadata>
 <g fill="#fff">
  <path d="m61.13 121.82q-4.64 1.16-12.325 2.465-7.54 1.305-17.545 1.305-8.7 0-14.645-2.465-5.945-2.61-9.57-7.25t-5.22-10.88q-1.595-6.375-1.595-14.06v-42.34h13.485v39.44q0 13.775 4.35 19.72t14.645 5.945q2.175 0 4.495-0.145t4.35-0.29q2.03-0.29 3.625-0.435 1.74-0.29 2.465-0.58v-63.655h13.485v73.225z"/>
  <path d="m97.847 51.935q2.465-1.595 7.395-3.335 5.075-1.74 11.6-1.74 8.12 0 14.355 2.9 6.38 2.9 10.73 8.12t6.525 12.47q2.32 7.25 2.32 15.95 0 9.135-2.755 16.53-2.61 7.25-7.54 12.325t-11.89 7.83-15.66 2.755q-9.425 0-16.675-1.305t-11.89-2.61v-108.02l13.485-2.32v40.455zm0 60.32q2.03 0.58 5.655 1.16 3.77 0.435 9.28 0.435 10.875 0 17.4-7.105 6.525-7.25 6.525-20.445 0-5.8-1.16-10.875t-3.77-8.7q-2.61-3.77-6.815-5.8-4.06-2.175-9.86-2.175-5.51 0-10.15 1.885t-7.105 3.915v47.705z"/>
  <path d="m229.92 121.82q-4.64 1.16-12.325 2.465-7.54 1.305-17.545 1.305-8.7 0-14.645-2.465-5.945-2.61-9.57-7.25t-5.22-10.875q-1.595-6.38-1.595-14.065v-42.34h13.485v39.44q0 13.775 4.35 19.72t14.645 5.945q2.175 0 4.495-0.145t4.35-0.29q2.03-0.29 3.625-0.435 1.74-0.29 2.465-0.58v-63.655h13.485v73.225z"/>
  <path d="m253.15 50.775q4.64-1.16 12.325-2.465t17.69-1.305q8.99 0 14.935 2.61 5.945 2.465 9.425 7.105 3.625 4.495 5.075 10.875t1.45 14.065v42.34h-13.485v-39.44q0-6.96-1.015-11.89-0.87-4.93-3.045-7.975t-5.8-4.35q-3.625-1.45-8.99-1.45-2.175 0-4.495 0.145t-4.495 0.435q-2.03 0.145-3.77 0.435-1.595 0.29-2.32 0.435v63.655h-13.485v-73.225z"/>
  <path d="m349.03 48.6h28.565v11.31h-28.565v34.8q0 5.655 0.87 9.425 0.87 3.625 2.61 5.8 1.74 2.03 4.35 2.9t6.09 0.87q6.09 0 9.715-1.305 3.77-1.45 5.22-2.03l2.61 11.165q-2.03 1.015-7.105 2.465-5.075 1.595-11.6 1.595-7.685 0-12.76-1.885-4.93-2.03-7.975-5.945t-4.35-9.57q-1.16-5.8-1.16-13.34v-67.28l13.485-2.32v23.345z"/>
  <path d="m454.78 121.82q-4.64 1.16-12.325 2.465-7.54 1.305-17.545 1.305-8.7 0-14.645-2.465-5.945-2.61-9.57-7.25t-5.22-10.875q-1.595-6.38-1.595-14.065v-42.34h13.485v39.44q0 13.775 4.35 19.72t14.645 5.945q2.175 0 4.495-0.145t4.35-0.29q2.03-0.29 3.625-0.435 1.74-0.29 2.465-0.58v-63.655h13.485v73.225z"/>
  <path d="m561.9 96.196q0 14.422-9.915 21.147-9.915 6.6562-27.526 6.6562h-36.055v-95.961h33.905q18.443 0 26.417 5.4082 7.9736 5.3389 7.9736 16.987 0 8.9443-4.3682 14.491-4.2988 5.5469-13.52 7.4189 12.064 1.6641 17.542 7.627 5.5469 5.9629 5.5469 16.225zm-24.961-41.463q0-5.4775-4.0215-7.5576-4.0215-2.1494-12.48-2.1494h-12.48v20.593h11.926q8.667 0 12.827-2.4268 4.2295-2.4268 4.2295-8.459zm4.9922 39.729q0-6.4482-4.3682-9.083-4.3682-2.7041-16.363-2.7041h-13.243v23.99h9.915q11.44 0 15.739-1.1094 4.3682-1.1094 6.3096-3.7441 2.0107-2.6348 2.0107-7.3496z"/>
  <path d="m624.51 124v-9.3604q-4.7148 5.0615-11.579 8.3203-6.7949 3.1894-13.104 3.1894-12.342 0-17.265-6.7949-4.9228-6.8643-4.9228-19.483v-48.604h17.889v40.076q0 7.6963 0.90137 11.787 0.90137 4.0908 2.9121 5.6856 2.0801 1.5254 6.0322 1.5254 7.9736 0 19.137-10.47v-48.604h17.889v72.733z"/>
  <path d="m710.28 124v-7.0723q-4.9922 4.2295-10.539 6.7256-5.5469 2.4961-12.619 2.4961-13.729 0-21.009-9.915-7.2803-9.915-7.2803-28.012 0-18.513 7.9736-28.774 8.043-10.262 22.534-10.262 5.1309 0 10.539 2.1494 5.4082 2.0801 8.9443 5.3389v-35.916h17.889v103.24zm-1.456-52.557q-2.8428-2.5654-7.0723-4.5068-4.1602-2.0107-8.5283-2.0107-7.2109 0-11.579 6.2402-4.3682 6.1709-4.3682 16.779 0 10.47 3.5361 16.433 3.6055 5.9629 11.094 5.9629 4.4375 0 9.0137-2.0107 4.6455-2.0801 7.9043-5.0615z"/>
  <path d="m811.02 122.61q0 14.561-8.9443 21.633-8.9443 7.1416-28.705 7.1416-16.294 0-28.497-6.2402l5.2695-14.63q11.302 5.2695 23.228 5.2695 11.094 0 15.393-3.1894 4.3682-3.1895 4.3682-10.747v-5.9629q-8.875 8.1123-21.425 8.1123-13.312 0-20.939-9.5684t-7.627-27.526q0-11.232 3.5361-19.761 3.6055-8.5977 10.47-13.243 6.9336-4.7148 16.71-4.7148 5.7549 0 11.51 2.5654 5.7549 2.4961 9.6377 6.3789l2.3574-6.8643h13.659zm-17.889-51.17q-7.3496-6.5176-16.017-6.5176-6.5176 0-11.024 5.9629-4.5068 5.9629-4.5068 15.739 0 11.094 3.9522 16.363 4.0215 5.2695 10.4 5.2695 8.875 0 17.195-7.1416z"/>
  <path d="m850.06 31.437q0 5.0615-2.4961 7.0723-2.4961 2.0107-7.627 2.0107-5.6855 0-7.7656-2.3574-2.0107-2.3574-2.0107-6.7256 0-4.8535 2.2188-6.9336 2.2188-2.1494 7.5576-2.1494 5.4082 0 7.7656 2.0801 2.3574 2.0107 2.3574 7.0029zm-18.929 92.563v-72.733h17.889v72.733z"/>
  <path d="m883.89 92.313q0.48535 9.707 4.7148 13.937t13.312 4.2295q5.2695 0 9.2217-1.3174 4.0215-1.3174 7.0029-5.0615l13.312 9.499q-4.3682 6.3096-11.371 9.4297-6.9336 3.1201-18.998 3.1201-17.958 0-26.833-9.4297-8.8057-9.4297-8.8057-28.497 0-39.036 34.945-39.036 15.531 0 23.644 8.8057 8.1816 8.7363 8.1816 25.516v8.8057zm30.577-12.342q0-16.571-14.491-16.571-4.7842 0-7.835 1.6641-3.0508 1.5947-4.9228 4.8535-1.8027 3.1895-2.8428 10.054z"/>
  <path d="m968 0a32 32 0 0 0 -32 32 32 32 0 0 0 32 32 32 32 0 0 0 32 -32 32 32 0 0 0 -32 -32zm8.61 4.8145c1.07-0.025 1.95 0.1054 3 0.2793 3.86 0.6342 7.77 3.4545 10.15 7.5662 3.2 5.547 2.48 12.233-1.17 15.975-1.84 1.88-2.39 1.98-3.59 2.789 0.82-1.287 1.07-1.788 1.07-2.854 0-0.67-0.22-1.217-0.34-1.525-0.46-1.185-1.29-1.679-2.25-2.25-1.19-0.702-2.55-0.915-3.42-0.914-0.66 0.001-1.01 0.002-1.89 0.224-4.16 1.053-8.71-0.584-10.9-4.386l0.01 0.004c-2.63-4.545-0.98-10.409 3.69-13.102 1.37-0.7939 2.99-1.5562 4.49-1.7265 0.41-0.0471 0.79-0.0717 1.15-0.08zm-24.76 10.726c1-0.032 1.99 0.07 2.94 0.313 2.55 0.65 2.91 1.077 4.21 1.712-1.52-0.062-2.08-0.034-3 0.502-0.58 0.337-0.95 0.793-1.16 1.051-0.79 0.995-0.81 1.957-0.82 3.078-0.01 1.377 0.48 2.668 0.92 3.414 0.33 0.579 0.5 0.876 1.14 1.526 2.99 3.079 3.85 7.833 1.65 11.634v-0.005c-2.62 4.545-8.53 6.05-13.19 3.353-1.38-0.794-2.85-1.811-3.74-3.025-0.99-1.337-1.41-2.362-1.91-3.698-1.38-3.654-0.89-8.456 1.48-12.568 2.61-4.507 7.15-7.149 11.48-7.287zm27.15 21.967l-0.01 0.004c5.25 0 9.51 4.36 9.5 9.75 0 1.588-0.14 3.365-0.75 4.75-0.66 1.525-1.34 2.396-2.25 3.5-2.47 3.02-6.87 5-11.62 5-6.4 0-11.84-3.964-13.25-9-0.71-2.53-0.52-3.056-0.62-4.5 0.71 1.35 1.01 1.819 1.94 2.349 0.58 0.334 1.16 0.425 1.48 0.475 1.26 0.19 2.1-0.278 3.08-0.828 1.2-0.675 2.07-1.753 2.5-2.5 0.33-0.58 0.5-0.878 0.75-1.75 1.17-4.132 4.86-7.25 9.25-7.25z"/>
 </g>
</svg>
