<?xml version="1.0" encoding="UTF-8" standalone="no"?>
<svg xmlns:rdf="http://www.w3.org/1999/02/22-rdf-syntax-ns#" xmlns="http://www.w3.org/2000/svg" height="600" width="1100" version="1.1" xmlns:cc="http://creativecommons.org/ns#" xmlns:xlink="http://www.w3.org/1999/xlink" viewBox="0 0 1100 600" xmlns:dc="http://purl.org/dc/elements/1.1/">
 <title>Ubuntu Budgie wordmark preview</title>
 <metadata>
  <rdf:RDF>
   <cc:Work rdf:about="">
    <dc:format>image/svg+xml</dc:format>
    <dc:type rdf:resource="http://purl.org/dc/dcmitype/StillImage"/>
    <dc:title>Ubuntu Budgie wordmark preview</dc:title>
    <dc:creator>
     <cc:Agent>
      <dc:title>HEXcube</dc:title>
     </cc:Agent>
    </dc:creator>
    <cc:license rdf:resource="http://creativecommons.org/licenses/by-sa/4.0/"/>
    <dc:source>Ubuntu and Clear Sans fonts and Ubuntu Budgie logo</dc:source>
    <dc:description>Preview of official wordmark for Ubuntu Budgie</dc:description>
   </cc:Work>
  </rdf:RDF>
 </metadata>
 <rect height="600" width="1100" y="0" x="0" fill="#404552"/>
 <rect height="346" width="1096" y="2" x="2" fill="#fff"/>
 <path d="m121.13 270.43q-4.64 1.16-12.325 2.465-7.54 1.305-17.545 1.305-8.7 0-14.645-2.465-5.945-2.61-9.57-7.25t-5.22-10.88q-1.595-6.375-1.595-14.06v-42.34h13.485v39.44q0 13.775 4.35 19.72t14.645 5.945q2.175 0 4.495-0.145t4.35-0.29q2.03-0.29 3.625-0.435 1.74-0.29 2.465-0.58v-63.655h13.485v73.225z"/>
 <path d="m157.85 200.54q2.465-1.595 7.395-3.335 5.075-1.74 11.6-1.74 8.12 0 14.355 2.9 6.38 2.9 10.73 8.12t6.525 12.47q2.32 7.25 2.32 15.95 0 9.135-2.755 16.53-2.61 7.25-7.54 12.325t-11.89 7.83-15.66 2.755q-9.425 0-16.675-1.305t-11.89-2.61v-108.02l13.485-2.32v40.455zm0 60.32q2.03 0.58 5.655 1.16 3.77 0.435 9.28 0.435 10.875 0 17.4-7.105 6.525-7.25 6.525-20.445 0-5.8-1.16-10.875t-3.77-8.7q-2.61-3.77-6.815-5.8-4.06-2.175-9.86-2.175-5.51 0-10.15 1.885t-7.105 3.915v47.705z"/>
 <path d="m289.92 270.43q-4.64 1.16-12.325 2.465-7.54 1.305-17.545 1.305-8.7 0-14.645-2.465-5.945-2.61-9.57-7.25t-5.22-10.875q-1.595-6.38-1.595-14.065v-42.34h13.485v39.44q0 13.775 4.35 19.72t14.645 5.945q2.175 0 4.495-0.145t4.35-0.29q2.03-0.29 3.625-0.435 1.74-0.29 2.465-0.58v-63.655h13.485v73.225z"/>
 <path d="m313.15 199.38q4.64-1.16 12.325-2.465t17.69-1.305q8.99 0 14.935 2.61 5.945 2.465 9.425 7.105 3.625 4.495 5.075 10.875t1.45 14.065v42.34h-13.485v-39.44q0-6.96-1.015-11.89-0.87-4.93-3.045-7.975t-5.8-4.35q-3.625-1.45-8.99-1.45-2.175 0-4.495 0.145t-4.495 0.435q-2.03 0.145-3.77 0.435-1.595 0.29-2.32 0.435v63.655h-13.485v-73.225z"/>
 <path d="m409.03 197.21h28.565v11.31h-28.565v34.8q0 5.655 0.87 9.425 0.87 3.625 2.61 5.8 1.74 2.03 4.35 2.9t6.09 0.87q6.09 0 9.715-1.305 3.77-1.45 5.22-2.03l2.61 11.165q-2.03 1.015-7.105 2.465-5.075 1.595-11.6 1.595-7.685 0-12.76-1.885-4.93-2.03-7.975-5.945t-4.35-9.57q-1.16-5.8-1.16-13.34v-67.28l13.485-2.32v23.345z"/>
 <path d="m514.78 270.43q-4.64 1.16-12.325 2.465-7.54 1.305-17.545 1.305-8.7 0-14.645-2.465-5.945-2.61-9.57-7.25t-5.22-10.875q-1.595-6.38-1.595-14.065v-42.34h13.485v39.44q0 13.775 4.35 19.72t14.645 5.945q2.175 0 4.495-0.145t4.35-0.29q2.03-0.29 3.625-0.435 1.74-0.29 2.465-0.58v-63.655h13.485v73.225z"/>
 <g fill="#404552">
  <path d="m618.12 244.81q0 14.422-9.915 21.147-9.915 6.6562-27.526 6.6562h-36.055v-95.961h33.905q18.443 0 26.417 5.4082 7.9736 5.3389 7.9736 16.987 0 8.9443-4.3682 14.491-4.2988 5.5469-13.52 7.4189 12.064 1.6641 17.542 7.627 5.5469 5.9629 5.5469 16.225zm-24.961-41.463q0-5.4775-4.0215-7.5576-4.0215-2.1494-12.48-2.1494h-12.48v20.593h11.926q8.667 0 12.827-2.4268 4.2295-2.4268 4.2295-8.459zm4.9922 39.729q0-6.4482-4.3682-9.083-4.3682-2.7041-16.363-2.7041h-13.243v23.99h9.915q11.44 0 15.739-1.1094 4.3682-1.1094 6.3096-3.7441 2.0107-2.6348 2.0107-7.3496z"/>
  <path d="m680.73 272.61v-9.3604q-4.7148 5.0615-11.579 8.3203-6.7949 3.1894-13.104 3.1894-12.342 0-17.265-6.7949-4.9228-6.8643-4.9228-19.483v-48.604h17.889v40.076q0 7.6963 0.90137 11.787 0.90137 4.0908 2.9121 5.6856 2.0801 1.5254 6.0322 1.5254 7.9736 0 19.137-10.47v-48.604h17.889v72.733z"/>
  <path d="m766.5 272.61v-7.0723q-4.9922 4.2295-10.539 6.7256-5.5469 2.4961-12.619 2.4961-13.729 0-21.009-9.915-7.2803-9.915-7.2803-28.012 0-18.513 7.9736-28.774 8.043-10.262 22.534-10.262 5.1309 0 10.539 2.1494 5.4082 2.0801 8.9443 5.3389v-35.916h17.889v103.24zm-1.456-52.557q-2.8428-2.5654-7.0723-4.5068-4.1602-2.0107-8.5283-2.0107-7.2109 0-11.579 6.2402-4.3682 6.1709-4.3682 16.779 0 10.47 3.5361 16.433 3.6055 5.9629 11.094 5.9629 4.4375 0 9.0137-2.0107 4.6455-2.0801 7.9043-5.0615z"/>
  <path d="m867.24 271.22q0 14.561-8.9443 21.633-8.9443 7.1416-28.705 7.1416-16.294 0-28.497-6.2402l5.2695-14.63q11.302 5.2695 23.228 5.2695 11.094 0 15.393-3.1894 4.3682-3.1895 4.3682-10.747v-5.9629q-8.875 8.1123-21.425 8.1123-13.312 0-20.939-9.5684t-7.627-27.526q0-11.232 3.5361-19.761 3.6055-8.5977 10.47-13.243 6.9336-4.7148 16.71-4.7148 5.7549 0 11.51 2.5654 5.7549 2.4961 9.6377 6.3789l2.3574-6.8643h13.659zm-17.889-51.17q-7.3496-6.5176-16.017-6.5176-6.5176 0-11.024 5.9629-4.5068 5.9629-4.5068 15.739 0 11.094 3.9522 16.363 4.0215 5.2695 10.4 5.2695 8.875 0 17.195-7.1416z"/>
  <path d="m906.28 180.05q0 5.0615-2.4961 7.0723-2.4961 2.0107-7.627 2.0107-5.6855 0-7.7656-2.3574-2.0107-2.3574-2.0107-6.7256 0-4.8535 2.2188-6.9336 2.2188-2.1494 7.5576-2.1494 5.4082 0 7.7656 2.0801 2.3574 2.0107 2.3574 7.0029zm-18.929 92.563v-72.733h17.889v72.733z"/>
  <path d="m940.11 240.93q0.48535 9.707 4.7148 13.937t13.312 4.2295q5.2695 0 9.2217-1.3174 4.0215-1.3174 7.0029-5.0615l13.312 9.499q-4.3682 6.3096-11.371 9.4297-6.9336 3.1201-18.998 3.1201-17.958 0-26.833-9.4297-8.8057-9.4297-8.8057-28.497 0-39.036 34.945-39.036 15.531 0 23.644 8.8057 8.1816 8.7363 8.1816 25.516v8.8057zm30.577-12.342q0-16.571-14.491-16.571-4.7842 0-7.835 1.6641-3.0508 1.5947-4.9228 4.8535-1.8027 3.1895-2.8428 10.054z"/>
  <circle cy="180" cx="1028" r="32"/>
 </g>
 <path id="budgie-shape" fill="#fff" d="m1039 185.51c-4.39 0-8.08 3.118-9.25 7.25-0.247 0.872-0.417 1.17-0.75 1.75-0.43 0.747-1.3 1.825-2.5 2.5-0.977 0.55-1.818 1.017-3.076 0.827-0.327-0.05-0.907-0.14-1.488-0.474-0.925-0.53-1.23-1-1.937-2.35 0.1 1.444-0.088 1.97 0.622 4.5 1.413 5.036 6.845 9 13.25 9 4.748 0 9.148-1.98 11.624-5 0.905-1.104 1.587-1.975 2.25-3.5 0.603-1.385 0.75-3.162 0.75-4.75 0-5.39-4.252-9.75-9.5-9.75z"/>
 <use xlink:href="#budgie-shape" transform="matrix(-.5 .86603 -.86603 -.5 1697.9 -620.27)" height="100%" width="100%" y="0" x="0"/>
 <use xlink:href="#budgie-shape" transform="matrix(-.5 -.86603 .86603 -.5 1386.1 1160.3)" height="100%" width="100%" y="0" x="0"/>
 <g fill="#fff">
  <path d="m121.13 528.43q-4.64 1.16-12.325 2.465-7.54 1.305-17.545 1.305-8.7 0-14.645-2.465-5.945-2.61-9.57-7.25t-5.22-10.88q-1.595-6.38-1.595-14.065v-42.34h13.485v39.44q0 13.775 4.35 19.72t14.645 5.945q2.175 0 4.495-0.145t4.35-0.29q2.03-0.29 3.625-0.435 1.74-0.29 2.465-0.58v-63.655h13.485v73.225z"/>
  <path d="m157.85 458.54q2.465-1.595 7.395-3.335 5.075-1.74 11.6-1.74 8.12 0 14.355 2.9 6.38 2.9 10.73 8.12t6.525 12.47q2.32 7.25 2.32 15.95 0 9.135-2.755 16.53-2.61 7.25-7.54 12.325t-11.89 7.83-15.66 2.755q-9.425 0-16.675-1.305t-11.89-2.61v-108.02l13.485-2.32v40.455zm0 60.32q2.03 0.58 5.655 1.16 3.77 0.435 9.28 0.435 10.875 0 17.4-7.105 6.525-7.25 6.525-20.445 0-5.8-1.16-10.875t-3.77-8.7q-2.61-3.77-6.815-5.8-4.06-2.175-9.86-2.175-5.51 0-10.15 1.885t-7.105 3.915v47.705z"/>
  <path d="m289.92 528.43q-4.64 1.16-12.325 2.465-7.54 1.305-17.545 1.305-8.7 0-14.645-2.465-5.945-2.61-9.57-7.25t-5.22-10.875q-1.595-6.38-1.595-14.065v-42.34h13.485v39.44q0 13.775 4.35 19.72t14.645 5.945q2.175 0 4.495-0.145t4.35-0.29q2.03-0.29 3.625-0.435 1.74-0.29 2.465-0.58v-63.655h13.485v73.225z"/>
  <path d="m313.15 457.38q4.64-1.16 12.325-2.465t17.69-1.305q8.99 0 14.935 2.61 5.945 2.465 9.425 7.105 3.625 4.495 5.075 10.875t1.45 14.065v42.34h-13.485v-39.44q0-6.96-1.015-11.89-0.87-4.93-3.045-7.975t-5.8-4.35q-3.625-1.45-8.99-1.45-2.175 0-4.495 0.145t-4.495 0.435q-2.03 0.145-3.77 0.435-1.595 0.29-2.32 0.435v63.655h-13.485v-73.225z"/>
  <path d="m409.03 455.21h28.565v11.31h-28.565v34.8q0 5.655 0.87 9.425 0.87 3.625 2.61 5.8 1.74 2.03 4.35 2.9t6.09 0.87q6.09 0 9.715-1.305 3.77-1.45 5.22-2.03l2.61 11.165q-2.03 1.015-7.105 2.465-5.075 1.595-11.6 1.595-7.685 0-12.76-1.885-4.93-2.03-7.975-5.945t-4.35-9.57q-1.16-5.8-1.16-13.34v-67.28l13.485-2.32v23.345z"/>
  <path d="m514.78 528.43q-4.64 1.16-12.325 2.465-7.54 1.305-17.545 1.305-8.7 0-14.645-2.465-5.945-2.61-9.57-7.25t-5.22-10.875q-1.595-6.38-1.595-14.065v-42.34h13.485v39.44q0 13.775 4.35 19.72t14.645 5.945q2.175 0 4.495-0.145t4.35-0.29q2.03-0.29 3.625-0.435 1.74-0.29 2.465-0.58v-63.655h13.485v73.225z"/>
  <path d="m618.12 502.81q0 14.422-9.915 21.147-9.915 6.6562-27.526 6.6562h-36.055v-95.961h33.905q18.443 0 26.417 5.4082 7.9736 5.3389 7.9736 16.987 0 8.9443-4.3682 14.491-4.2988 5.5469-13.52 7.4189 12.064 1.6641 17.542 7.627 5.5469 5.9629 5.5469 16.225zm-24.961-41.463q0-5.4775-4.0215-7.5576-4.0215-2.1494-12.48-2.1494h-12.48v20.593h11.926q8.667 0 12.827-2.4268 4.2295-2.4268 4.2295-8.459zm4.9922 39.729q0-6.4482-4.3682-9.083-4.3682-2.7041-16.363-2.7041h-13.243v23.99h9.915q11.44 0 15.739-1.1094 4.3682-1.1094 6.3096-3.7441 2.0107-2.6348 2.0107-7.3496z"/>
  <path d="m680.73 530.61v-9.3604q-4.7148 5.0615-11.579 8.3203-6.7949 3.1894-13.104 3.1894-12.342 0-17.265-6.7949-4.9228-6.8643-4.9228-19.483v-48.604h17.889v40.076q0 7.6963 0.90137 11.787 0.90137 4.0908 2.9121 5.6856 2.0801 1.5254 6.0322 1.5254 7.9736 0 19.137-10.47v-48.604h17.889v72.733z"/>
  <path d="m766.5 530.61v-7.0723q-4.9922 4.2295-10.539 6.7256-5.5469 2.4961-12.619 2.4961-13.729 0-21.009-9.915-7.2803-9.915-7.2803-28.012 0-18.513 7.9736-28.774 8.043-10.262 22.534-10.262 5.1309 0 10.539 2.1494 5.4082 2.0801 8.9443 5.3389v-35.916h17.889v103.24zm-1.456-52.557q-2.8428-2.5654-7.0723-4.5068-4.1602-2.0107-8.5283-2.0107-7.2109 0-11.579 6.2402-4.3682 6.1709-4.3682 16.779 0 10.47 3.5361 16.433 3.6055 5.9629 11.094 5.9629 4.4375 0 9.0137-2.0107 4.6455-2.0801 7.9043-5.0615z"/>
  <path d="m867.24 529.22q0 14.561-8.9443 21.633-8.9443 7.1416-28.705 7.1416-16.294 0-28.497-6.2402l5.2695-14.63q11.302 5.2695 23.228 5.2695 11.094 0 15.393-3.1894 4.3682-3.1895 4.3682-10.747v-5.9629q-8.875 8.1123-21.425 8.1123-13.312 0-20.939-9.5684t-7.627-27.526q0-11.232 3.5361-19.761 3.6055-8.5977 10.47-13.243 6.9336-4.7148 16.71-4.7148 5.7549 0 11.51 2.5654 5.7549 2.4961 9.6377 6.3789l2.3574-6.8643h13.659zm-17.889-51.17q-7.3496-6.5176-16.017-6.5176-6.5176 0-11.024 5.9629-4.5068 5.9629-4.5068 15.739 0 11.094 3.9522 16.363 4.0215 5.2695 10.4 5.2695 8.875 0 17.195-7.1416z"/>
  <path d="m906.28 438.05q0 5.0615-2.4961 7.0723-2.4961 2.0107-7.627 2.0107-5.6855 0-7.7656-2.3574-2.0107-2.3574-2.0107-6.7256 0-4.8535 2.2188-6.9336 2.2188-2.1494 7.5576-2.1494 5.4082 0 7.7656 2.0801 2.3574 2.0107 2.3574 7.0029zm-18.929 92.563v-72.733h17.889v72.733z"/>
  <path d="m940.11 498.93q0.48535 9.707 4.7148 13.937t13.312 4.2295q5.2695 0 9.2217-1.3174 4.0215-1.3174 7.0029-5.0615l13.312 9.499q-4.3682 6.3096-11.371 9.4297-6.9336 3.1201-18.998 3.1201-17.958 0-26.833-9.4297-8.8057-9.4297-8.8057-28.497 0-39.036 34.945-39.036 15.531 0 23.644 8.8057 8.1816 8.7363 8.1816 25.516v8.8057zm30.577-12.342q0-16.571-14.491-16.571-4.7842 0-7.835 1.6641-3.0508 1.5947-4.9228 4.8535-1.8027 3.1895-2.8428 10.054z"/>
  <path d="m1028 406a32 32 0 0 0 -32 32 32 32 0 0 0 32 32 32 32 0 0 0 32 -32 32 32 0 0 0 -32 -32zm8.61 4.8145c1.07-0.025 1.95 0.1054 3 0.2793 3.86 0.6342 7.77 3.4545 10.15 7.5662 3.2 5.547 2.48 12.233-1.17 15.975-1.84 1.88-2.39 1.98-3.59 2.789 0.82-1.287 1.07-1.788 1.07-2.854 0-0.67-0.22-1.217-0.34-1.525-0.46-1.185-1.29-1.679-2.25-2.25-1.19-0.702-2.55-0.915-3.42-0.914-0.66 0.001-1.01 0.002-1.89 0.224-4.16 1.053-8.71-0.584-10.9-4.386l0.01 0.004c-2.63-4.545-0.98-10.409 3.69-13.102 1.37-0.7939 2.99-1.5562 4.49-1.7265 0.41-0.0471 0.79-0.0717 1.15-0.08zm-24.76 10.726c1-0.032 1.99 0.07 2.94 0.313 2.55 0.65 2.91 1.077 4.21 1.712-1.52-0.062-2.08-0.034-3 0.502-0.58 0.337-0.95 0.793-1.16 1.051-0.79 0.995-0.81 1.957-0.82 3.078-0.01 1.377 0.48 2.668 0.92 3.414 0.33 0.579 0.5 0.876 1.14 1.526 2.99 3.079 3.85 7.833 1.65 11.634v-0.005c-2.62 4.545-8.53 6.05-13.19 3.353-1.38-0.794-2.85-1.811-3.74-3.025-0.99-1.337-1.41-2.362-1.91-3.698-1.38-3.654-0.89-8.456 1.48-12.568 2.61-4.507 7.15-7.149 11.48-7.287zm27.15 21.967-0.01 0.004c5.25 0 9.51 4.36 9.5 9.75 0 1.588-0.14 3.365-0.75 4.75-0.66 1.525-1.34 2.396-2.25 3.5-2.47 3.02-6.87 5-11.62 5-6.4 0-11.84-3.964-13.25-9-0.71-2.53-0.52-3.056-0.62-4.5 0.71 1.35 1.01 1.819 1.94 2.349 0.58 0.334 1.16 0.425 1.48 0.475 1.26 0.19 2.1-0.278 3.08-0.828 1.2-0.675 2.07-1.753 2.5-2.5 0.33-0.58 0.5-0.878 0.75-1.75 1.17-4.132 4.86-7.25 9.25-7.25z"/>
 </g>
 <g fill="#404552">
  <path d="m390.88 102q-2.84 0-4.88-0.8-2.04-0.84-3.4-2.32-1.32-1.48-1.96-3.48t-0.64-4.4v-17.32h5.08v16.84q0 1.88 0.4 3.24 0.44 1.32 1.2 2.16 0.8 0.84 1.84 1.24 1.08 0.4 2.4 0.4t2.4-0.4 1.84-1.24q0.8-0.84 1.2-2.16 0.44-1.36 0.44-3.24v-16.84h5.08v17.32q0 2.4-0.68 4.4-0.64 2-2 3.48-1.32 1.48-3.4 2.32-2.08 0.8-4.92 0.8z"/>
  <path d="m421.96 90.88q0-3.08-1.24-4.88-1.2-1.8-3.84-1.8-1.2 0-2.28 0.36-1.04 0.36-1.68 0.8v12.04q0.52 0.12 1.32 0.24 0.84 0.08 2 0.08 2.68 0 4.2-1.8 1.52-1.84 1.52-5.04zm4.96 0.08q0 2.52-0.76 4.56-0.72 2-2.12 3.44-1.36 1.44-3.32 2.2t-4.44 0.76q-2.4 0-4.6-0.36-2.16-0.36-3.6-0.8v-29.6l4.84-0.8v10.84q0.84-0.44 2.04-0.8 1.24-0.36 2.72-0.36 2.2 0 3.92 0.8 1.76 0.76 2.92 2.2t1.76 3.48q0.64 2 0.64 4.44z"/>
  <path d="m449.07 100.76q-1.4 0.36-3.64 0.72-2.24 0.4-4.92 0.4-2.52 0-4.24-0.72-1.68-0.72-2.72-2-1-1.28-1.44-3.04-0.44-1.8-0.44-3.92v-11.72h4.84v10.96q0 3.36 0.96 4.8 1 1.44 3.44 1.44 0.88 0 1.84-0.08 1-0.08 1.48-0.2v-16.92h4.84v20.28z"/>
  <path d="m455.27 81.16q1.4-0.4 3.64-0.76t4.96-0.36q2.56 0 4.28 0.72 1.72 0.68 2.72 1.96 1.04 1.24 1.44 3.04 0.44 1.76 0.44 3.88v11.76h-4.84v-11q0-1.68-0.24-2.84-0.2-1.2-0.72-1.92-0.48-0.76-1.36-1.08-0.84-0.36-2.08-0.36-0.92 0-1.92 0.12t-1.48 0.2v16.88h-4.84v-20.24z"/>
  <path d="m478.47 74.96 4.84-0.8v6.32h7.44v4.04h-7.44v8.52q0 2.52 0.8 3.6t2.72 1.08q1.32 0 2.32-0.28 1.04-0.28 1.64-0.52l0.8 3.84q-0.84 0.36-2.2 0.72-1.36 0.4-3.2 0.4-2.24 0-3.76-0.6-1.48-0.6-2.36-1.72-0.88-1.16-1.24-2.76-0.36-1.64-0.36-3.72v-18.12z"/>
  <path d="m512.59 100.76q-1.4 0.36-3.64 0.72-2.24 0.4-4.92 0.4-2.52 0-4.24-0.72-1.68-0.72-2.72-2-1-1.28-1.44-3.04-0.44-1.8-0.44-3.92v-11.72h4.84v10.96q0 3.36 0.96 4.8 1 1.44 3.44 1.44 0.88 0 1.84-0.08 1-0.08 1.48-0.2v-16.92h4.84v20.28z"/>
  <path d="m525.53 88.08h7.12v-7.84h4.32v7.84h7.12v4.08h-7.12v7.84h-4.32v-7.84h-7.12v-4.08z"/>
  <path d="m579.76 96.668q-1.2891 2.0703-2.6367 3.1445-1.3281 1.0547-3.1055 1.6016-1.7773 0.54688-4.1797 0.54688-6.0742 0-8.9648-3.4961-2.87-3.516-2.87-10.586 0-7.0508 2.8516-10.566 2.8711-3.5156 8.8281-3.5156 2.3633 0 4.2188 0.58594t3.125 1.6211q1.2891 1.0156 2.3438 2.8711l-2.9688 1.9531q-0.85938-1.4453-1.7383-2.1875-0.87891-0.76172-2.1094-1.1914-1.23-0.449-2.87-0.449-4.0625 0-5.9766 2.7148-1.8945 2.6953-1.8945 8.1641 0 5.3906 1.875 8.1445 1.875 2.7344 6.0352 2.7344 2.3047 0 4.0039-0.89844 1.6992-0.91797 3.0469-3.1445l2.9883 1.9531z"/>
  <path d="m584.74 101.39v-29.082h3.3594v29.082h-3.3594z"/>
  <path d="m597.34 91.551q0 4.0625 1.3867 5.8008 1.3867 1.7188 4.4531 1.7188 1.3672 0 2.4023-0.56641 1.0352-0.58594 1.9922-1.875l2.7734 1.7188q-1.1719 1.7578-2.8516 2.7148-1.68 0.94-4.55 0.94-4.5703 0-6.8359-2.6562-2.2461-2.6562-2.2461-8.0273 0-5.625 2.1875-8.3008 2.207-2.6953 6.6406-2.6953 3.9844 0 5.9766 2.3047 1.9922 2.2852 1.9922 7.0508v1.875h-13.32zm10.04-2.637q-0.0391-2.7539-1.1719-4.2773-1.1133-1.5234-3.6328-1.5234-2.4023 0-3.6133 1.3867-1.1914 1.3672-1.582 4.4141h10z"/>
  <path d="m627.63 101.39v-2.5586q-1.5625 1.3672-3.1445 2.2656-1.59 0.9-3.58 0.9-2.9297 0-4.5312-1.7773-1.582-1.7969-1.582-4.5898 0-2.1094 0.82032-3.4961 0.83984-1.4062 2.4023-2.207 1.582-0.82031 4.5703-1.1719l5.0391-0.44922v-0.99609q0-2.3633-1.3281-3.2227-1.3086-0.85938-3.6328-0.85938-2.0703 0-3.2031 0.72266-1.1133 0.72266-1.6016 1.5625l-2.7539-1.6797q0.9375-1.6992 2.8516-2.5977 1.9336-0.91797 4.7852-0.91797 4.4141 0 6.3281 1.6016 1.9141 1.6016 1.9141 5.5469v13.926h-3.3594zm0-10.391-3.2812 0.3125q-3.3398 0.29297-4.707 1.3086-1.3672 0.99609-1.3672 2.9297 0 1.8359 0.91797 2.6367 0.91796 0.80078 2.7539 0.80078 0.76172 0 1.5039-0.27344 0.74219-0.29297 1.4648-0.70312 0.72266-0.42969 1.3867-0.95703 0.68359-0.54688 1.3281-1.0547v-5z"/>
  <path d="m648.55 84.227q-0.55-0.235-1.57-0.235-1.5039 0-2.9102 0.70312-1.3867 0.68359-3.2422 2.5391v14.16h-3.3594v-20.488h3.3594v3.3203q1.4062-1.4258 2.9492-2.5195 1.5625-1.1133 3.457-1.1133 1.2695 0 2.0312 0.41016l-0.72266 3.2227z"/>
  <path d="m682.51 93.992q0 3.7891-2.5 5.8789-2.4805 2.0898-7.2656 2.0898-3.6523 0-6.0938-1.2891-2.4414-1.2891-3.9844-4.0039l2.9297-1.9531q2.2852 4.043 7.0703 4.043 2.8711 0 4.5117-1.1914 1.6602-1.2109 1.6602-3.3008 0-1.1914-0.52734-2.0117-0.52734-0.82031-1.3867-1.3672-0.85937-0.56641-1.9727-0.89844-1.1133-0.35156-2.3242-0.66406-1.9922-0.48828-3.7109-0.99609-1.7188-0.52734-2.9883-1.3477-1.25-0.82031-1.9727-2.0898-0.72266-1.2891-0.72266-3.3008 0-3.5938 2.3047-5.6836 2.3242-2.1094 6.9336-2.1094 3.6719 0 5.8594 1.3672 2.1875 1.3477 3.457 3.4766l-2.8711 2.0312q-1.06-1.758-2.58-2.715-1.5-0.957-3.87-0.957-2.6367 0-4.1016 1.1719-1.4648 1.1523-1.4648 3.1055 0 1.0352 0.42969 1.7383 0.44922 0.70312 1.2695 1.1914 0.82031 0.46875 2.0312 0.82031 1.2305 0.33203 2.793 0.72266 1.8359 0.48828 3.4961 1.0352 1.6602 0.52734 2.8906 1.4062 1.25 0.87891 1.9726 2.2656 0.72266 1.3867 0.72266 3.5352z"/>
  <path d="m699.74 101.39v-2.5586q-1.5625 1.3672-3.1445 2.2656-1.59 0.9-3.58 0.9-2.9297 0-4.5312-1.7773-1.582-1.7969-1.582-4.5898 0-2.1094 0.82031-3.4961 0.83985-1.4062 2.4024-2.207 1.582-0.82031 4.5703-1.1719l5.0391-0.44922v-0.99609q0-2.3633-1.3281-3.2227-1.3086-0.85938-3.6328-0.85938-2.0703 0-3.2031 0.72266-1.1133 0.72266-1.6016 1.5625l-2.7539-1.6797q0.9375-1.6992 2.8516-2.5977 1.9336-0.91797 4.7852-0.91797 4.4141 0 6.3281 1.6016 1.9141 1.6016 1.9141 5.5469v13.926h-3.3594zm0-10.391-3.2812 0.3125q-3.3398 0.29297-4.707 1.3086-1.3672 0.99609-1.3672 2.9297 0 1.8359 0.91797 2.6367 0.91797 0.80078 2.7539 0.80078 0.76172 0 1.5039-0.27344 0.74219-0.29297 1.4648-0.70312 0.72265-0.42969 1.3867-0.95703 0.68359-0.54688 1.3281-1.0547v-5z"/>
  <path d="m722.45 101.39v-12.07q0-2.9297-0.29296-3.9062-0.29297-0.97656-0.95704-1.4062-0.66406-0.44922-1.9336-0.44922-1.2891 0-3.0078 0.97656-1.7188 0.97656-3.3203 2.3828v14.473h-3.3594v-20.488h3.3594v3.0469q1.4258-1.4258 3.3203-2.5195 1.8945-1.1133 3.8086-1.1133 2.9688 0 4.3555 1.6992 1.3867 1.6797 1.3867 5.7031v13.672h-3.3594z"/>
  <path d="m746.32 95.867q0 2.8711-2.0312 4.5117-2.03 1.62-5.78 1.62-2.5586 0-4.5898-0.95703-2.0312-0.97656-2.9688-2.7344l2.6953-1.6406q1.543 2.4805 4.9609 2.4805 2.2266 0 3.3203-0.83984 1.1133-0.85938 1.1133-2.3047 0-0.85938-0.39062-1.3867-0.39063-0.54688-1.2109-0.9375-0.82031-0.41016-3.3594-1.0938-3.6523-0.83984-5.1562-2.3242-1.4844-1.4844-1.4844-3.9453 0-2.7148 1.9531-4.3555 1.9531-1.6406 5.4102-1.6406 2.6758 0 4.4922 1.0547t2.6562 2.5391l-2.6758 1.6406q-1.6016-2.4023-4.5508-2.4023-1.6797 0-2.8516 0.74219-1.1523 0.74219-1.1523 2.3047 0 1.3867 1.0156 2.0117t3.1836 1.1523q3.4766 0.89844 4.8047 1.6797 1.3281 0.78125 1.9531 1.9336 0.64453 1.1328 0.64453 2.8906z"/>
 </g>
</svg>
