<?xml version="1.0" encoding="UTF-8" standalone="no"?>
<svg xmlns:rdf="http://www.w3.org/1999/02/22-rdf-syntax-ns#" xmlns="http://www.w3.org/2000/svg" height="1080" width="1920" version="1.1" xmlns:cc="http://creativecommons.org/ns#" xmlns:dc="http://purl.org/dc/elements/1.1/" viewBox="0 0 1920 1080">
 <title>Ubuntu Budgie Splash Screen Mockup</title>
 <metadata>
  <rdf:RDF>
   <cc:Work rdf:about="">
    <dc:format>image/svg+xml</dc:format>
    <dc:type rdf:resource="http://purl.org/dc/dcmitype/StillImage"/>
    <dc:title>Ubuntu Budgie Splash Screen</dc:title>
    <dc:creator>
     <cc:Agent>
      <dc:title>HEXcube</dc:title>
     </cc:Agent>
    </dc:creator>
    <cc:license rdf:resource="http://creativecommons.org/licenses/by-sa/4.0/"/>
    <dc:source>Budgie Logo by Yuri Henrique</dc:source>
   </cc:Work>
  </rdf:RDF>
 </metadata>
 <rect height="1080" width="1980" y="0" x="0" fill="#383c4a"/>
 <g fill="#fff">
  <path d="m960 404a96 96 0 0 0 -96 96 96 96 0 0 0 96 96 96 96 0 0 0 96 -96 96 96 0 0 0 -96 -96zm26.97 14.44c2.7 0.0315 5.07 0.3885 7.845 0.84525 11.558 1.902 23.302 10.366 30.42 22.7 9.6075 16.64 7.455 36.699-3.51 47.926-5.505 5.64-7.1475 5.9475-10.748 8.37 2.4525-3.8625 3.21-5.355 3.2025-8.5575 0-2.01-0.6375-3.6525-0.9975-4.5825-1.395-3.5475-3.87-5.0325-6.765-6.7462-3.555-2.1052-7.665-2.7518-10.245-2.7465-2.0025 0.005-3.0375 0.0112-5.67 0.67725-12.495 3.153-26.13-1.7542-32.715-13.157l0.007 0.001c-7.875-13.632-2.925-31.227 11.078-39.307 4.125-2.3798 8.9625-4.662 13.47-5.175 1.2375-0.141 2.37-0.21675 3.4425-0.2415 0.405-0.01 0.795-0.012 1.185-0.007zm-73.891 32.196c2.4885 0.0315 4.9432 0.34425 7.3185 0.95025 7.638 1.95 8.7285 3.2228 12.63 5.1255-4.575-0.1905-6.2482-0.0983-9.0188 1.506-1.7385 1.0072-2.8455 2.376-3.4642 3.1522-2.379 2.9835-2.427 5.8718-2.4645 9.2332-0.0457 4.131 1.449 8.0108 2.7458 10.241 1.005 1.74 1.5262 2.625 3.4215 4.575 8.9782 9.24 11.545 23.505 4.9612 34.912v-0.007c-7.8698 13.635-25.582 18.142-39.581 10.058-4.1235-2.3775-8.5178-5.43-11.215-9.075-2.9648-4.005-4.2068-7.0875-5.7188-11.1-4.1343-10.965-2.6745-25.365 4.4468-37.696 8.1068-14.04 22.504-22.047 35.938-21.874zm79.92 65.864c15.735 0 28.5 13.088 28.5 29.25-0.01 4.7625-0.45 10.095-2.2575 14.25-1.9875 4.575-4.035 7.185-6.75 10.5-7.425 9.0675-20.625 15-34.867 15-19.215 0-35.512-11.888-39.753-27-2.13-7.59-1.572-9.165-1.875-13.5 2.1225 4.0575 3.0405 5.46 5.8155 7.0575 1.74 1.005 3.48 1.275 4.4625 1.425 3.7725 0.57 6.2925-0.8325 9.225-2.4825 3.6-2.025 6.21-5.2575 7.5-7.5 0.9975-1.74 1.5075-2.6325 2.25-5.25 3.51-12.398 14.58-21.75 27.75-21.75z"/>
  <g>
   <circle cx="960" cy="660" r="8"/>
   <circle cy="660" cx="920" r="8"/>
   <circle cx="880" cy="660" r="8"/>
  </g>
 </g>
 <circle cy="660" cx="1e3" r="8" fill="#4dadd4"/>
 <circle cx="1040" cy="660" r="8" fill="#4dadd4"/>
</svg>
