<?xml version="1.0" encoding="UTF-8" standalone="no"?>
<svg xmlns:rdf="http://www.w3.org/1999/02/22-rdf-syntax-ns#" xmlns="http://www.w3.org/2000/svg" height="480" width="640" version="1.1" xmlns:cc="http://creativecommons.org/ns#" xmlns:dc="http://purl.org/dc/elements/1.1/">
 <title>Theme template for Syslinux Bootloader</title>
 <metadata>
  <rdf:RDF>
   <cc:Work rdf:about="">
    <dc:format>image/svg+xml</dc:format>
    <dc:type rdf:resource="http://purl.org/dc/dcmitype/StillImage"/>
    <dc:title>Theme template for Syslinux Bootloader</dc:title>
    <dc:source>Ubuntu GNOME Syslinux theme</dc:source>
    <dc:creator>
     <cc:Agent>
      <dc:title/>
     </cc:Agent>
    </dc:creator>
    <dc:description>Use this template to generate image assets for budgie-remix syslinux theme</dc:description>
   </cc:Work>
  </rdf:RDF>
 </metadata>
 <rect height="480" width="640" y="0" x="0" fill="#383c4a"/>
 <rect height="320" width="640" y="0" x="0" fill="#383c4a"/>
 <rect y="480" width="640" height="66" x="0"/>
 <g fill="#fff">
  <path style="color:#bebebe" d="m290.37 504.75c-0.76175 0-1.375 0.61325-1.375 1.375v13.75c0 0.76175 0.61325 1.375 1.375 1.375h19.25c0.76175 0 1.375-0.61325 1.375-1.375v-13.75c0-0.76175-0.61325-1.375-1.375-1.375h-19.25zm1.375 2.75h2.75v2.75h-2.75v-2.75zm4.125 0h2.75v2.75h-2.75v-2.75zm4.125 0h2.75v2.75h-2.75v-2.75zm4.125 0h2.75v2.75h-2.75v-2.75zm-11 4.1679h2.75v2.75h-2.75v-2.75zm4.125 0h2.75v2.75h-2.75v-2.75zm4.125 0h2.75v2.75h-2.75v-2.75zm4.125 0h2.75v2.75h-2.75v-2.75zm-13.75 4.125h2.75v2.75h-2.75v-2.75zm4.125 0h8.25v2.75h-8.25v-2.75zm9.625 0h4.125v2.75h-4.125v-2.75z"/>
  <path d="m340 502c-6.0752 0-11 4.9248-11 11s4.9248 11 11 11 11-4.9248 11-11-4.9248-11-11-11zm0 2.6719c1.5418 0 2.7914 1.2496 2.7914 2.7914s-1.2496 2.7914-2.7914 2.7914-2.7914-1.2496-2.7914-2.7914 1.2496-2.7914 2.7914-2.7914zm-6.5964 5.6653c4.4092-0.063 8.8177-0.0212 13.227 0.0155 0 0 0.59252-0.011 0.59252 0.58311v0.28684c0 0.31625-0.3245 0.39875-0.3245 0.39875l-4.1046 0.79499v2.9025l1.8627 5.3713c0.1881 0.31037-0.21779 0.39903-0.21779 0.39903l-0.72393 0.007c-0.34811 0-0.47863-0.29291-0.47863-0.29291l-2.8487-4.9384c-0.30564-0.69314-0.32474-0.60474-0.614 0.001l-2.9822 4.931c-0.0997 0.29926-0.48895 0.30579-0.48895 0.30579l-0.78417-0.0124s-0.28666-0.008-0.22089-0.28762l1.9078-5.4846v-2.9025l-3.9764-0.76285c-0.31962-0.10821-0.45215-0.40472-0.45215-0.40472v-0.29925s-0.0133-0.60972 0.62654-0.60972z"/>
  <path d="m315.93 513.86h8.1406v1.8125h-8.1406v-1.8125m0-3.5391h8.1406v1.8125h-8.1406v-1.8125"/>
 </g>
 <g fill="#fff">
  <text font-size="40px" font-weight="500" xml:space="preserve" style="word-spacing:0px;letter-spacing:0px" y="151.42" x="207.30499" font-family="Ubuntu" line-height="125%"><tspan font-size="35px" font-weight="500" y="151.42" x="207.30499" font-family="Ubuntu" fill="#fff">budgie-remix</tspan></text>
  <path d="m441 122a11 11 0 0 0 -11 11 11 11 0 0 0 11 11 11 11 0 0 0 11 -11 11 11 0 0 0 -11 -11zm3.0938 1.65c0.3025 0 0.5775 0.055 0.89375 0.095 1.32 0.2201 2.6675 1.1962 3.4925 2.6126 1.1 1.8974 0.8525 4.1936-0.4125 5.5-0.61875 0.6325-0.825 0.6875-1.2375 0.9625 0.275-0.4539 0.385-0.6325 0.37125-1.0039 0.055-0.22-0.0275-0.4124-0.0687-0.5224-0.1375-0.4126-0.44-0.5776-0.77-0.77-0.4125-0.2476-0.89375-0.3163-1.1962-0.3163-0.20625 0-0.33 0-0.6325 0.082-1.43 0.3574-2.9975-0.2062-3.74-1.5123-0.9075-1.5677-0.34375-3.575 1.265-4.4963 0.4675-0.275 1.0312-0.55 1.54-0.605 0.1375 0 0.275 0 0.4125-0.027h0.1375zm-8.4562 3.7124c0.275 0 0.55 0.028 0.825 0.095 0.88 0.22 1.0038 0.3573 1.4438 0.5775-0.5225-0.056-0.715-0.056-1.0312 0.1374-0.1925 0.1376-0.33 0.2751-0.4125 0.3575-0.275 0.3438-0.275 0.6876-0.275 1.0588 0 0.4674 0.17875 0.9212 0.31625 1.1688 0.1375 0.1924 0.17875 0.2749 0.4125 0.5499 1.0175 1.0313 1.3062 2.6537 0.55 3.9874-0.89375 1.54-2.9288 2.0626-4.5375 1.1276-0.4675-0.2749-0.9625-0.6187-1.2788-1.0313-0.34375-0.4674-0.48125-0.825-0.66-1.2786-0.4675-1.2375-0.3025-2.8876 0.50875-4.3177 0.89375-1.5948 2.5438-2.5161 4.125-2.4749zm9.1438 7.5213c1.7875 0 3.2588 1.5126 3.2588 3.355 0 0.55-0.0412 1.1963-0.2475 1.65-0.23375 0.55-0.4675 0.825-0.78375 1.2376-0.825 1.0313-2.365 1.705-3.9875 1.705-2.2 0-4.07-1.375-4.5375-3.08-0.275-0.8937-0.20625-1.0726-0.23375-1.5676 0.2475 0.4676 0.34375 0.6326 0.66 0.825 0.20625 0.095 0.4125 0.1376 0.5225 0.1376 0.4125 0.069 0.715-0.083 1.045-0.275 0.4125-0.2337 0.715-0.605 0.86625-0.8663 0.11-0.1924 0.165-0.275 0.275-0.5913 0.385-1.4437 1.65-2.5024 3.1625-2.5024z"/>
 </g>
</svg>
