<?xml version="1.0" encoding="UTF-8"?>
<svg version="1.1" viewBox="0 0 640 480" xmlns="http://www.w3.org/2000/svg" xmlns:cc="http://creativecommons.org/ns#" xmlns:dc="http://purl.org/dc/elements/1.1/" xmlns:rdf="http://www.w3.org/1999/02/22-rdf-syntax-ns#">
  <title>Theme template for Syslinux Bootloader</title>
  <metadata>
    <rdf:RDF>
      <cc:Work rdf:about="">
        <dc:format>image/svg+xml</dc:format>
        <dc:type rdf:resource="http://purl.org/dc/dcmitype/StillImage"/>
        <dc:title>Theme template for Syslinux Bootloader</dc:title>
        <dc:source>Ubuntu GNOME Syslinux theme</dc:source>
        <dc:creator>
          <cc:Agent>
            <dc:title/>
          </cc:Agent>
        </dc:creator>
        <dc:description>Use this template to generate image assets for Ubuntu Budgie syslinux theme</dc:description>
      </cc:Work>
    </rdf:RDF>
  </metadata>
  <rect width="640" height="480" fill="#383c4a"/>
  <rect width="640" height="320" fill="#383c4a"/>
  <rect y="480" width="640" height="66"/>
  <g fill="#fff">
    <path d="m290.37 504.75c-0.76175 0-1.375 0.61325-1.375 1.375v13.75c0 0.76175 0.61325 1.375 1.375 1.375h19.25c0.76175 0 1.375-0.61325 1.375-1.375v-13.75c0-0.76175-0.61325-1.375-1.375-1.375h-19.25zm1.375 2.75h2.75v2.75h-2.75v-2.75zm4.125 0h2.75v2.75h-2.75v-2.75zm4.125 0h2.75v2.75h-2.75v-2.75zm4.125 0h2.75v2.75h-2.75v-2.75zm-11 4.1679h2.75v2.75h-2.75v-2.75zm4.125 0h2.75v2.75h-2.75v-2.75zm4.125 0h2.75v2.75h-2.75v-2.75zm4.125 0h2.75v2.75h-2.75v-2.75zm-13.75 4.125h2.75v2.75h-2.75v-2.75zm4.125 0h8.25v2.75h-8.25v-2.75zm9.625 0h4.125v2.75h-4.125v-2.75z" color="#bebebe"/>
    <path d="m340 502c-6.0752 0-11 4.9248-11 11s4.9248 11 11 11 11-4.9248 11-11-4.9248-11-11-11zm0 2.6719c1.5418 0 2.7914 1.2496 2.7914 2.7914s-1.2496 2.7914-2.7914 2.7914-2.7914-1.2496-2.7914-2.7914 1.2496-2.7914 2.7914-2.7914zm-6.5964 5.6653c4.4092-0.063 8.8177-0.0212 13.227 0.0155 0 0 0.59252-0.011 0.59252 0.58311v0.28684c0 0.31625-0.3245 0.39875-0.3245 0.39875l-4.1046 0.79499v2.9025l1.8627 5.3713c0.1881 0.31037-0.21779 0.39903-0.21779 0.39903l-0.72393 7e-3c-0.34811 0-0.47863-0.29291-0.47863-0.29291l-2.8487-4.9384c-0.30564-0.69314-0.32474-0.60474-0.614 1e-3l-2.9822 4.931c-0.0997 0.29926-0.48895 0.30579-0.48895 0.30579l-0.78417-0.0124s-0.28666-8e-3 -0.22089-0.28762l1.9078-5.4846v-2.9025l-3.9764-0.76285c-0.31962-0.10821-0.45215-0.40472-0.45215-0.40472v-0.29925s-0.0133-0.60972 0.62654-0.60972z"/>
    <path d="m315.93 513.86h8.1406v1.8125h-8.1406v-1.8125m0-3.5391h8.1406v1.8125h-8.1406v-1.8125"/>
  </g>
  <g transform="matrix(.25 0 0 .25 203.94 120.15)" fill="#fff" stroke-width="4">
    <path d="m61.13 121.82q-4.64 1.16-12.325 2.465-7.54 1.305-17.545 1.305-8.7 0-14.645-2.465-5.945-2.61-9.57-7.25t-5.22-10.88q-1.595-6.375-1.595-14.06v-42.34h13.485v39.44q0 13.775 4.35 19.72t14.645 5.945q2.175 0 4.495-0.145t4.35-0.29q2.03-0.29 3.625-0.435 1.74-0.29 2.465-0.58v-63.655h13.485z"/>
    <path d="m97.847 51.935q2.465-1.595 7.395-3.335 5.075-1.74 11.6-1.74 8.12 0 14.355 2.9 6.38 2.9 10.73 8.12t6.525 12.47q2.32 7.25 2.32 15.95 0 9.135-2.755 16.53-2.61 7.25-7.54 12.325t-11.89 7.83-15.66 2.755q-9.425 0-16.675-1.305t-11.89-2.61v-108.02l13.485-2.32v40.455zm0 60.32q2.03 0.58 5.655 1.16 3.77 0.435 9.28 0.435 10.875 0 17.4-7.105 6.525-7.25 6.525-20.445 0-5.8-1.16-10.875t-3.77-8.7q-2.61-3.77-6.815-5.8-4.06-2.175-9.86-2.175-5.51 0-10.15 1.885t-7.105 3.915z"/>
    <path d="m229.92 121.82q-4.64 1.16-12.325 2.465-7.54 1.305-17.545 1.305-8.7 0-14.645-2.465-5.945-2.61-9.57-7.25t-5.22-10.875q-1.595-6.38-1.595-14.065v-42.34h13.485v39.44q0 13.775 4.35 19.72t14.645 5.945q2.175 0 4.495-0.145t4.35-0.29q2.03-0.29 3.625-0.435 1.74-0.29 2.465-0.58v-63.655h13.485z"/>
    <path d="m253.15 50.775q4.64-1.16 12.325-2.465t17.69-1.305q8.99 0 14.935 2.61 5.945 2.465 9.425 7.105 3.625 4.495 5.075 10.875t1.45 14.065v42.34h-13.485v-39.44q0-6.96-1.015-11.89-0.87-4.93-3.045-7.975t-5.8-4.35q-3.625-1.45-8.99-1.45-2.175 0-4.495 0.145t-4.495 0.435q-2.03 0.145-3.77 0.435-1.595 0.29-2.32 0.435v63.655h-13.485z"/>
    <path d="m349.03 48.6h28.565v11.31h-28.565v34.8q0 5.655 0.87 9.425 0.87 3.625 2.61 5.8 1.74 2.03 4.35 2.9t6.09 0.87q6.09 0 9.715-1.305 3.77-1.45 5.22-2.03l2.61 11.165q-2.03 1.015-7.105 2.465-5.075 1.595-11.6 1.595-7.685 0-12.76-1.885-4.93-2.03-7.975-5.945t-4.35-9.57q-1.16-5.8-1.16-13.34v-67.28l13.485-2.32z"/>
    <path d="m454.78 121.82q-4.64 1.16-12.325 2.465-7.54 1.305-17.545 1.305-8.7 0-14.645-2.465-5.945-2.61-9.57-7.25t-5.22-10.875q-1.595-6.38-1.595-14.065v-42.34h13.485v39.44q0 13.775 4.35 19.72t14.645 5.945q2.175 0 4.495-0.145t4.35-0.29q2.03-0.29 3.625-0.435 1.74-0.29 2.465-0.58v-63.655h13.485z"/>
    <path d="m558.22 95.85q0 14.769-9.4297 21.494-9.43 6.66-26.9 6.66h-31.271v-95.961h28.428q17.611 0 25.377 5.0615 7.835 4.9922 7.835 16.779 0 9.6377-4.2988 14.699-4.2295 5.0615-10.608 7.0029 9.499 1.3174 15.185 7.0029 5.6856 5.6855 5.6856 17.265zm-19.14-43.127q0-7.3496-4.5762-10.331-4.5762-3.0508-16.294-3.0508h-14.769v28.566h14.145q11.51 0 16.502-3.6748 4.9922-3.6748 4.9922-11.51zm5.8242 42.572q0-5.9629-2.3574-9.3604-2.2881-3.4668-7.1416-5.0615t-15.67-1.5947h-16.294v33.073h13.035q12.203 0 17.681-1.5947 5.4775-1.6641 8.1123-5.3389 2.6348-3.7441 2.6348-10.123z"/>
    <path d="m623.12 124v-10.816q-5.5469 5.5469-12.203 9.291-6.6562 3.6748-13.035 3.6748-7.2803 0-11.856-2.7041-4.5068-2.7734-6.5869-8.251-2.0108-5.5469-2.0108-15.323v-48.604h11.926v42.919q0 10.4 1.04 13.867 1.1094 3.4668 3.4668 5.0615 2.3574 1.5254 6.8643 1.5254 4.5068 0 10.608-3.4668 6.1016-3.5361 11.787-8.459v-51.447h11.926v72.733h-11.926z"/>
    <path d="m704.52 124v-7.2109q-4.0908 3.9522-9.8457 6.6562-5.7549 2.7041-12.272 2.7041-13.104 0-20.246-9.8457-7.1416-9.915-7.1416-28.081 0-17.819 7.7656-28.428 7.7656-10.608 21.494-10.608 11.024 0 20.246 8.043v-36.471h11.995v103.24h-11.995zm0-56.37q-9.499-7.835-18.721-7.835-8.1123 0-13.312 6.8643-5.1308 6.7949-5.1308 21.286 0 27.526 17.334 27.526 5.6856 0 10.816-2.8428 5.2002-2.8428 9.0137-6.5176v-38.481z"/>
    <path d="m798.05 122.41q0 14.63-7.2803 21.771-7.2109 7.2109-23.99 7.2109-16.017 0-26.417-6.7949l4.4375-9.6377q9.3604 6.5176 21.979 6.5176 10.192 0 14.699-4.2988 4.5762-4.2295 4.5762-14.006v-8.5283q-4.0908 3.9522-9.7764 6.6562-5.67 2.7-12.33 2.7-13.382 0-20.385-9.499-7.0029-9.5684-7.0029-27.596 0-17.75 7.835-27.734 7.835-9.9844 21.425-9.9844 11.024 0 20.246 8.043v-5.9629h11.995v71.139zm-11.99-54.78q-9.499-7.835-18.721-7.835-9.083 0-13.798 7.0723-4.6455 7.0723-4.6455 19.761 0 14.006 4.3682 20.385 4.3682 6.3096 12.966 6.3096 9.9844 0 19.83-9.3604v-36.332z"/>
    <path d="m835.57 32.823q0 4.1602-1.8721 5.6855-1.8721 1.4561-5.9629 1.4561-4.3682 0-6.0322-1.8721-1.6641-1.8721-1.6641-5.2695 0-3.6748 1.8027-5.3389 1.8027-1.7334 5.8936-1.7334 4.2295 0 6.0322 1.6641 1.8027 1.5947 1.8027 5.4082zm-13.8 91.177v-72.733h11.926v72.733z"/>
    <path d="m865.93 89.055q0 14.422 4.9228 20.593 4.9228 6.1016 15.809 6.1016 4.8535 0 8.5283-2.0107 3.6748-2.0801 7.0723-6.6562l9.8457 6.1016q-4.1602 6.2402-10.123 9.6377-5.9629 3.3281-16.155 3.3281-16.225 0-24.268-9.4297-7.9736-9.4297-7.9736-28.497 0-19.969 7.7656-29.468 7.835-9.5684 23.574-9.5684 14.145 0 21.217 8.1816 7.0723 8.1123 7.0723 25.03v6.6562h-47.287zm35.639-9.3604q-0.13867-9.7764-4.1602-15.185-3.9522-5.4082-12.896-5.4082-8.5283 0-12.827 4.9229-4.2295 4.8535-5.6162 15.67h35.5z"/>
    <path d="m968 0a32 32 0 0 0 -32 32 32 32 0 0 0 32 32 32 32 0 0 0 32 -32 32 32 0 0 0 -32 -32zm8.61 4.8145c1.07-0.025 1.95 0.1054 3 0.2793 3.86 0.6342 7.77 3.4545 10.15 7.5662 3.2 5.547 2.48 12.233-1.17 15.975-1.84 1.88-2.39 1.98-3.59 2.789 0.82-1.287 1.07-1.788 1.07-2.854 0-0.67-0.22-1.217-0.34-1.525-0.46-1.185-1.29-1.679-2.25-2.25-1.19-0.702-2.55-0.915-3.42-0.914-0.66 1e-3 -1.01 2e-3 -1.89 0.224-4.16 1.053-8.71-0.584-10.9-4.386l0.01 4e-3c-2.63-4.545-0.98-10.409 3.69-13.102 1.37-0.7939 2.99-1.5562 4.49-1.7265 0.41-0.0471 0.79-0.0717 1.15-0.08zm-24.76 10.726c1-0.032 1.99 0.07 2.94 0.313 2.55 0.65 2.91 1.077 4.21 1.712-1.52-0.062-2.08-0.034-3 0.502-0.58 0.337-0.95 0.793-1.16 1.051-0.79 0.995-0.81 1.957-0.82 3.078-0.01 1.377 0.48 2.668 0.92 3.414 0.33 0.579 0.5 0.876 1.14 1.526 2.99 3.079 3.85 7.833 1.65 11.634v-5e-3c-2.62 4.545-8.53 6.05-13.19 3.353-1.38-0.794-2.85-1.811-3.74-3.025-0.99-1.337-1.41-2.362-1.91-3.698-1.38-3.654-0.89-8.456 1.48-12.568 2.61-4.507 7.15-7.149 11.48-7.287zm27.15 21.967-0.01 4e-3c5.25 0 9.51 4.36 9.5 9.75 0 1.588-0.14 3.365-0.75 4.75-0.66 1.525-1.34 2.396-2.25 3.5-2.47 3.02-6.87 5-11.62 5-6.4 0-11.84-3.964-13.25-9-0.71-2.53-0.52-3.056-0.62-4.5 0.71 1.35 1.01 1.819 1.94 2.349 0.58 0.334 1.16 0.425 1.48 0.475 1.26 0.19 2.1-0.278 3.08-0.828 1.2-0.675 2.07-1.753 2.5-2.5 0.33-0.58 0.5-0.878 0.75-1.75 1.17-4.132 4.86-7.25 9.25-7.25z"/>
  </g>
</svg>
