<?xml version="1.0" encoding="UTF-8"?>
<svg version="1.1" viewBox="0 0 1366 768" xmlns="http://www.w3.org/2000/svg" xmlns:cc="http://creativecommons.org/ns#" xmlns:dc="http://purl.org/dc/elements/1.1/" xmlns:rdf="http://www.w3.org/1999/02/22-rdf-syntax-ns#" xmlns:xlink="http://www.w3.org/1999/xlink">
  <defs>
    <linearGradient id="linearGradient5332" x1="1140.2" x2="-157.27" y1="1377.4" y2="2140.9" gradientUnits="userSpaceOnUse">
      <stop stop-color="#4dadd4" offset="0"/>
      <stop stop-color="#f04a50" offset="1"/>
    </linearGradient>
    <linearGradient id="linearGradient5336" x1="1389.4" x2="-157.27" y1="1233.9" y2="2140.9" gradientTransform="translate(-1051.5)" gradientUnits="userSpaceOnUse">
      <stop stop-color="#383c4a" offset="0"/>
      <stop stop-color="#f04a50" stop-opacity="0" offset="1"/>
    </linearGradient>
    <linearGradient id="linearGradient5346" x1="1208.7" x2="-157.27" y1="1372.9" y2="2140.9" gradientTransform="translate(.00014922)" gradientUnits="userSpaceOnUse">
      <stop stop-color="#4dadd4" offset="0"/>
      <stop stop-color="#f04a50" stop-opacity="0" offset="1"/>
    </linearGradient>
    <linearGradient id="linearGradient5356" x1="1896.8" x2="581.13" y1="910.9" y2="1298.7" gradientTransform="translate(-1051.5 -3513.8)" gradientUnits="userSpaceOnUse">
      <stop stop-color="#73d216" offset="0"/>
      <stop stop-color="#f04a50" stop-opacity="0" offset="1"/>
    </linearGradient>
    <linearGradient id="linearGradient5366" x1="1465.9" x2="560.27" y1="1140.3" y2="1674" gradientTransform="translate(.00014922 -3513.8)" gradientUnits="userSpaceOnUse">
      <stop stop-color="#404552" offset="0"/>
      <stop stop-color="#f04a50" stop-opacity="0" offset="1"/>
    </linearGradient>
    <radialGradient id="radialGradient5376" cx="-755.62" cy="1527" r="683" gradientTransform="matrix(2.971 0 0 1.6704 1036.2 -1177.8)" gradientUnits="userSpaceOnUse">
      <stop stop-color="#5294e2" offset="0"/>
      <stop stop-color="#f04a50" stop-opacity="0" offset="1"/>
    </radialGradient>
    <clipPath id="clipPath7583">
      <rect x="17" y="16" width="1366" height="768" fill="#1a1a1a" opacity=".155" stroke="#ff2a50" stroke-opacity=".056716" stroke-width=".1" style="paint-order:fill markers stroke"/>
    </clipPath>
  </defs>
  <title>Suru Tesselation</title>
  <metadata>
    <rdf:RDF>
      <cc:Work rdf:about="">
        <dc:format>image/svg+xml</dc:format>
        <dc:type rdf:resource="http://purl.org/dc/dcmitype/StillImage"/>
        <dc:title>Suru Tesselation</dc:title>
        <cc:license rdf:resource="http://creativecommons.org/licenses/by-sa/4.0/"/>
        <dc:creator>
          <cc:Agent>
            <dc:title>Rania el-Amina</dc:title>
          </cc:Agent>
        </dc:creator>
        <dc:rights>
          <cc:Agent>
            <dc:title>Ubuntu Budgie</dc:title>
          </cc:Agent>
        </dc:rights>
        <dc:description>Suru Tesselation wallpaper for Ubuntu Budgie</dc:description>
        <dc:contributor>
          <cc:Agent>
            <dc:title>HEXcube</dc:title>
          </cc:Agent>
        </dc:contributor>
      </cc:Work>
      <cc:License rdf:about="http://creativecommons.org/licenses/by-sa/4.0/">
        <cc:permits rdf:resource="http://creativecommons.org/ns#Reproduction"/>
        <cc:permits rdf:resource="http://creativecommons.org/ns#Distribution"/>
        <cc:requires rdf:resource="http://creativecommons.org/ns#Notice"/>
        <cc:requires rdf:resource="http://creativecommons.org/ns#Attribution"/>
        <cc:permits rdf:resource="http://creativecommons.org/ns#DerivativeWorks"/>
        <cc:requires rdf:resource="http://creativecommons.org/ns#ShareAlike"/>
      </cc:License>
    </rdf:RDF>
  </metadata>
  <g transform="translate(157.27 -1372.9)">
    <rect x="-157.27" y="1372.9" width="1366" height="768" fill="url(#linearGradient5332)" style="paint-order:normal"/>
    <rect transform="scale(-1,1)" x="-1208.7" y="1372.9" width="1366" height="768" fill="url(#linearGradient5336)" style="paint-order:normal"/>
    <rect x="-157.27" y="1372.9" width="1366" height="768" fill="url(#linearGradient5346)" style="paint-order:normal"/>
    <rect transform="scale(-1)" x="-1208.7" y="-2140.9" width="1366" height="768" fill="url(#linearGradient5356)" style="paint-order:normal"/>
    <rect transform="scale(1,-1)" x="-157.27" y="-2140.9" width="1366" height="768" fill="url(#linearGradient5366)" style="paint-order:normal"/>
    <rect transform="scale(-1,1)" x="-1208.7" y="1372.9" width="1366" height="768" fill="url(#radialGradient5376)" style="paint-order:normal"/>
  </g>
  <rect x="3.4609e-5" y="-8.2031e-5" width="1366" height="768" fill="#1a1a1a" opacity=".155" stroke="#ff2a50" stroke-opacity=".056716" stroke-width=".1" style="paint-order:fill markers stroke"/>
  <g transform="translate(-17 -16)" clip-path="url(#clipPath7583)">
    <path d="m50 100-50-50 50-50 50 50z" fill="#a15964" opacity=".65294" style="paint-order:normal"/>
    <path d="m50 200-50-50 50-50 50 50z" fill="#a45962" opacity=".65294" style="paint-order:normal"/>
    <path d="m50 300-50-50 50-50 50 50z" fill="#a7595f" opacity=".65294" style="paint-order:normal"/>
    <path d="m50 400-50-50 50-50 50 50z" fill="#aa595a" opacity=".65294" style="paint-order:normal"/>
    <path d="m50 500-50-50 50-50 50 50z" fill="#ae5856" opacity=".65294" style="paint-order:normal"/>
    <path d="m50 600-50-50 50-50 50 50z" fill="#b05951" opacity=".65294" style="paint-order:normal"/>
    <path d="m50 700-50-50 50-50 50 50z" fill="#b2594d" opacity=".65294" style="paint-order:normal"/>
    <path d="m50 800-50-50 50-50 50 50z" fill="#b35b49" opacity=".65294" style="paint-order:normal"/>
    <path d="m150 100-50-50 50-50 50 50z" fill="#a25c6e" opacity=".65294" style="paint-order:normal"/>
    <path d="m150 200-50-50 50-50 50 50z" fill="#a55c6c" opacity=".65294" style="paint-order:normal"/>
    <path d="m150 300-50-50 50-50 50 50z" fill="#a95a68" opacity=".65294" style="paint-order:normal"/>
    <path d="m150 400-50-50 50-50 50 50z" fill="#ad5963" opacity=".65294" style="paint-order:normal"/>
    <path d="m150 500-50-50 50-50 50 50z" fill="#b1585e" opacity=".65294" style="paint-order:normal"/>
    <path d="m150 600-50-50 50-50 50 50z" fill="#b55758" opacity=".65294" style="paint-order:normal"/>
    <path d="m150 700-50-50 50-50 50 50z" fill="#b95753" opacity=".65294" style="paint-order:normal"/>
    <path d="m150 800-50-50 50-50 50 50z" fill="#bb5750" opacity=".65294" style="paint-order:normal"/>
    <path d="m250 100-50-50 50-50 50 50z" fill="#a06179" opacity=".65294" style="paint-order:normal"/>
    <path d="m250 200-50-50 50-50 50 50z" fill="#a46076" opacity=".65294" style="paint-order:normal"/>
    <path d="m250 300-50-50 50-50 50 50z" fill="#a85e71" opacity=".65294" style="paint-order:normal"/>
    <path d="m250 400-50-50 50-50 50 50z" fill="#ad5c6c" opacity=".65294" style="paint-order:normal"/>
    <path d="m250 500-50-50 50-50 50 50z" fill="#b35a66" opacity=".65294" style="paint-order:normal"/>
    <path d="m250 600-50-50 50-50 50 50z" fill="#b85860" opacity=".65294" style="paint-order:normal"/>
    <path d="m250 700-50-50 50-50 50 50z" fill="#bc565b" opacity=".65294" style="paint-order:normal"/>
    <path d="m250 800-50-50 50-50 50 50z" fill="#bf5657" opacity=".65294" style="paint-order:normal"/>
    <path d="m350 100-50-50 50-50 50 50z" fill="#9c6784" opacity=".65294" style="paint-order:normal"/>
    <path d="m350 200-50-50 50-50 50 50z" fill="#a06580" opacity=".65294" style="paint-order:normal"/>
    <path d="m350 300-50-50 50-50 50 50z" fill="#a5637b" opacity=".65294" style="paint-order:normal"/>
    <path d="m350 400-50-50 50-50 50 50z" fill="#ab6076" opacity=".65294" style="paint-order:normal"/>
    <path d="m350 500-50-50 50-50 50 50z" fill="#b15d6f" opacity=".65294" style="paint-order:normal"/>
    <path d="m350 600-50-50 50-50 50 50z" fill="#b75a69" opacity=".65294" style="paint-order:normal"/>
    <path d="m350 700-50-50 50-50 50 50z" fill="#bd5863" opacity=".65294" style="paint-order:normal"/>
    <path d="m350 800-50-50 50-50 50 50z" fill="#c1565e" opacity=".65294" style="paint-order:normal"/>
    <path d="m450 100-50-50 50-50 50 50z" fill="#976d8e" opacity=".65294" style="paint-order:normal"/>
    <path d="m450 200-50-50 50-50 50 50z" fill="#9b6b8b" opacity=".65294" style="paint-order:normal"/>
    <path d="m450 300-50-50 50-50 50 50z" fill="#a06886" opacity=".65294" style="paint-order:normal"/>
    <path d="m450 400-50-50 50-50 50 50z" fill="#a6657f" opacity=".65294" style="paint-order:normal"/>
    <path d="m450 500-50-50 50-50 50 50z" fill="#ad6278" opacity=".65294" style="paint-order:normal"/>
    <path d="m450 600-50-50 50-50 50 50z" fill="#b45f71" opacity=".65294" style="paint-order:normal"/>
    <path d="m450 700-50-50 50-50 50 50z" fill="#bb5c6b" opacity=".65294" style="paint-order:normal"/>
    <path d="m450 800-50-50 50-50 50 50z" fill="#c05a66" opacity=".65294" style="paint-order:normal"/>
    <path d="m550 100-50-50 50-50 50 50z" fill="#927398" opacity=".65294" style="paint-order:normal"/>
    <path d="m550 200-50-50 50-50 50 50z" fill="#967194" opacity=".65294" style="paint-order:normal"/>
    <path d="m550 300-50-50 50-50 50 50z" fill="#9b6e8f" opacity=".65294" style="paint-order:normal"/>
    <path d="m550 400-50-50 50-50 50 50z" fill="#a26b88" opacity=".65294" style="paint-order:normal"/>
    <path d="m550 500-50-50 50-50 50 50z" fill="#a96781" opacity=".65294" style="paint-order:normal"/>
    <path d="m550 600-50-50 50-50 50 50z" fill="#b0647a" opacity=".65294" style="paint-order:normal"/>
    <path d="m550 700-50-50 50-50 50 50z" fill="#b66174" opacity=".65294" style="paint-order:normal"/>
    <path d="m550 800-50-50 50-50 50 50z" fill="#bc5e6e" opacity=".65294" style="paint-order:normal"/>
    <path d="m650 100-50-50 50-50 50 50z" fill="#8c78a2" opacity=".65294" style="paint-order:normal"/>
    <path d="m650 200-50-50 50-50 50 50z" fill="#90769e" opacity=".65294" style="paint-order:normal"/>
    <path d="m650 300-50-50 50-50 50 50z" fill="#967398" opacity=".65294" style="paint-order:normal"/>
    <path d="m650 400-50-50 50-50 50 50z" fill="#9d7091" opacity=".65294" style="paint-order:normal"/>
    <path d="m650 500-50-50 50-50 50 50z" fill="#a46c89" opacity=".65294" style="paint-order:normal"/>
    <path d="m650 600-50-50 50-50 50 50z" fill="#ac6982" opacity=".65294" style="paint-order:normal"/>
    <path d="m650 700-50-50 50-50 50 50z" fill="#b3657a" opacity=".65294" style="paint-order:normal"/>
    <path d="m650 800-50-50 50-50 50 50z" fill="#ba6274" opacity=".65294" style="paint-order:normal"/>
    <path d="m750 100-50-50 50-50 50 50z" fill="#857dab" opacity=".65294" style="paint-order:normal"/>
    <path d="m750 200-50-50 50-50 50 50z" fill="#897ba7" opacity=".65294" style="paint-order:normal"/>
    <path d="m750 300-50-50 50-50 50 50z" fill="#8f78a0" opacity=".65294" style="paint-order:normal"/>
    <path d="m750 400-50-50 50-50 50 50z" fill="#977598" opacity=".65294" style="paint-order:normal"/>
    <path d="m750 500-50-50 50-50 50 50z" fill="#a07190" opacity=".65294" style="paint-order:normal"/>
    <path d="m750 600-50-50 50-50 50 50z" fill="#a96c87" opacity=".65294" style="paint-order:normal"/>
    <path d="m750 700-50-50 50-50 50 50z" fill="#b1687f" opacity=".65294" style="paint-order:normal"/>
    <path d="m750 800-50-50 50-50 50 50z" fill="#b76578" opacity=".65294" style="paint-order:normal"/>
    <path d="m850 100-50-50 50-50 50 50z" fill="#7d82b5" opacity=".65294" style="paint-order:normal"/>
    <path d="m850 200-50-50 50-50 50 50z" fill="#8280b0" opacity=".65294" style="paint-order:normal"/>
    <path d="m850 300-50-50 50-50 50 50z" fill="#897ca8" opacity=".65294" style="paint-order:normal"/>
    <path d="m850 400-50-50 50-50 50 50z" fill="#93789f" opacity=".65294" style="paint-order:normal"/>
    <path d="m850 500-50-50 50-50 50 50z" fill="#9d7395" opacity=".65294" style="paint-order:normal"/>
    <path d="m850 600-50-50 50-50 50 50z" fill="#a66f8b" opacity=".65294" style="paint-order:normal"/>
    <path d="m850 700-50-50 50-50 50 50z" fill="#ad6a82" opacity=".65294" style="paint-order:normal"/>
    <path d="m850 800-50-50 50-50 50 50z" fill="#b2677b" opacity=".65294" style="paint-order:normal"/>
    <path d="m950 100-50-50 50-50 50 50z" fill="#7586be" opacity=".65294" style="paint-order:normal"/>
    <path d="m950 200-50-50 50-50 50 50z" fill="#7b83b7" opacity=".65294" style="paint-order:normal"/>
    <path d="m950 300-50-50 50-50 50 50z" fill="#857fae" opacity=".65294" style="paint-order:normal"/>
    <path d="m950 400-50-50 50-50 50 50z" fill="#8f7aa3" opacity=".65294" style="paint-order:normal"/>
    <path d="m950 500-50-50 50-50 50 50z" fill="#997598" opacity=".65294" style="paint-order:normal"/>
    <path d="m950 600-50-50 50-50 50 50z" fill="#a2708e" opacity=".65294" style="paint-order:normal"/>
    <path d="m950 700-50-50 50-50 50 50z" fill="#a96b84" opacity=".65294" style="paint-order:normal"/>
    <path d="m950 800-50-50 50-50 50 50z" fill="#ad687d" opacity=".65294" style="paint-order:normal"/>
    <path d="m1050 100-50-50 50-50l50 50z" fill="#6e89c5" opacity=".65294" style="paint-order:normal"/>
    <path d="m1050 200-50-50 50-50 50 50z" fill="#7686be" opacity=".65294" style="paint-order:normal"/>
    <path d="m1050 300-50-50 50-50 50 50z" fill="#8081b2" opacity=".65294" style="paint-order:normal"/>
    <path d="m1050 400-50-50 50-50 50 50z" fill="#8b7ba6" opacity=".65294" style="paint-order:normal"/>
    <path d="m1050 500-50-50 50-50 50 50z" fill="#95769b" opacity=".65294" style="paint-order:normal"/>
    <path d="m1050 600-50-50 50-50 50 50z" fill="#9d7190" opacity=".65294" style="paint-order:normal"/>
    <path d="m1050 700-50-50 50-50 50 50z" fill="#a36c86" opacity=".65294" style="paint-order:normal"/>
    <path d="m1050 800-50-50 50-50 50 50z" fill="#a6687e" opacity=".65294" style="paint-order:normal"/>
    <path d="m1150 100-50-50 50-50l50 50z" fill="#678ccd" opacity=".65294" style="paint-order:normal"/>
    <path d="m1150 200-50-50 50-50 50 50z" fill="#7088c3" opacity=".65294" style="paint-order:normal"/>
    <path d="m1150 300-50-50 50-50 50 50z" fill="#7c82b6" opacity=".65294" style="paint-order:normal"/>
    <path d="m1150 400-50-50 50-50 50 50z" fill="#877ca9" opacity=".65294" style="paint-order:normal"/>
    <path d="m1150 500-50-50 50-50 50 50z" fill="#91769c" opacity=".65294" style="paint-order:normal"/>
    <path d="m1150 600-50-50 50-50 50 50z" fill="#987190" opacity=".65294" style="paint-order:normal"/>
    <path d="m1150 700-50-50 50-50 50 50z" fill="#9d6b86" opacity=".65294" style="paint-order:normal"/>
    <path d="m1150 800-50-50 50-50 50 50z" fill="#9f677e" opacity=".65294" style="paint-order:normal"/>
    <path d="m1250 100-50-50 50-50l50 50z" fill="#608ed4" opacity=".65294" style="paint-order:normal"/>
    <path d="m1250 200-50-50 50-50 50 50z" fill="#6c89c7" opacity=".65294" style="paint-order:normal"/>
    <path d="m1250 300-50-50 50-50 50 50z" fill="#7883b8" opacity=".65294" style="paint-order:normal"/>
    <path d="m1250 400-50-50 50-50 50 50z" fill="#847caa" opacity=".65294" style="paint-order:normal"/>
    <path d="m1250 500-50-50 50-50 50 50z" fill="#8d769c" opacity=".65294" style="paint-order:normal"/>
    <path d="m1250 600-50-50 50-50 50 50z" fill="#937090" opacity=".65294" style="paint-order:normal"/>
    <path d="m1250 700-50-50 50-50 50 50z" fill="#976a85" opacity=".65294" style="paint-order:normal"/>
    <path d="m1250 800-50-50 50-50 50 50z" fill="#98667d" opacity=".65294" style="paint-order:normal"/>
    <path d="m1350 100-50-50 50-50l50 50z" fill="#5b90d8" opacity=".65294" style="paint-order:normal"/>
    <path d="m1350 200-50-50 50-50 50 50z" fill="#6989c8" opacity=".65294" style="paint-order:normal"/>
    <path d="m1350 300-50-50 50-50 50 50z" fill="#7682b8" opacity=".65294" style="paint-order:normal"/>
    <path d="m1350 400-50-50 50-50 50 50z" fill="#817ca9" opacity=".65294" style="paint-order:normal"/>
    <path d="m1350 500-50-50 50-50 50 50z" fill="#8a759b" opacity=".65294" style="paint-order:normal"/>
    <path d="m1350 600-50-50 50-50 50 50z" fill="#906f8f" opacity=".65294" style="paint-order:normal"/>
    <path d="m1350 700-50-50 50-50 50 50z" fill="#926883" opacity=".65294" style="paint-order:normal"/>
    <path d="m1350 800-50-50 50-50 50 50z" fill="#91647b" opacity=".65294" style="paint-order:normal"/>
    <path d="m0 50-50-50 50-50 50 50z" fill="#9f5962" opacity=".65294" style="paint-order:normal"/>
    <path d="m0 150-50-50 50-50 50 50z" fill="#a15961" opacity=".65294" style="paint-order:normal"/>
    <path d="m0 250-50-50 50-50 50 50z" fill="#a5595e" opacity=".65294" style="paint-order:normal"/>
    <path d="m0 350-50-50 50-50 50 50z" fill="#a8595a" opacity=".65294" style="paint-order:normal"/>
    <path d="m0 450-50-50 50-50 50 50z" fill="#ab5956" opacity=".65294" style="paint-order:normal"/>
    <path d="m0 550-50-50 50-50 50 50z" fill="#ad5951" opacity=".65294" style="paint-order:normal"/>
    <path d="m0 650-50-50 50-50 50 50z" fill="#b05a4d" opacity=".65294" style="paint-order:normal"/>
    <path d="m0 750-50-50 50-50 50 50z" fill="#b15b49" opacity=".65294" style="paint-order:normal"/>
    <path d="m0 850-50-50 50-50 50 50z" fill="#b15c47" opacity=".65294" style="paint-order:normal"/>
    <path d="m100 50-50-50 50-50 50 50z" fill="#a15b6a" opacity=".65294" style="paint-order:normal"/>
    <path d="m100 150-50-50 50-50 50 50z" fill="#a35a68" opacity=".65294" style="paint-order:normal"/>
    <path d="m100 250-50-50 50-50 50 50z" fill="#a75a65" opacity=".65294" style="paint-order:normal"/>
    <path d="m100 350-50-50 50-50 50 50z" fill="#aa5961" opacity=".65294" style="paint-order:normal"/>
    <path d="m100 450-50-50 50-50 50 50z" fill="#ae585c" opacity=".65294" style="paint-order:normal"/>
    <path d="m100 550-50-50 50-50 50 50z" fill="#b25857" opacity=".65294" style="paint-order:normal"/>
    <path d="m100 650-50-50 50-50 50 50z" fill="#b55852" opacity=".65294" style="paint-order:normal"/>
    <path d="m100 750-50-50 50-50 50 50z" fill="#b7584e" opacity=".65294" style="paint-order:normal"/>
    <path d="m100 850-50-50 50-50 50 50z" fill="#b8594b" opacity=".65294" style="paint-order:normal"/>
    <path d="m200 50-50-50 50-50 50 50z" fill="#a05f74" opacity=".65294" style="paint-order:normal"/>
    <path d="m200 150-50-50 50-50 50 50z" fill="#a35e72" opacity=".65294" style="paint-order:normal"/>
    <path d="m200 250-50-50 50-50 50 50z" fill="#a75d6f" opacity=".65294" style="paint-order:normal"/>
    <path d="m200 350-50-50 50-50 50 50z" fill="#ab5b6a" opacity=".65294" style="paint-order:normal"/>
    <path d="m200 450-50-50 50-50 50 50z" fill="#b05965" opacity=".65294" style="paint-order:normal"/>
    <path d="m200 550-50-50 50-50 50 50z" fill="#b5585f" opacity=".65294" style="paint-order:normal"/>
    <path d="m200 650-50-50 50-50 50 50z" fill="#b9575a" opacity=".65294" style="paint-order:normal"/>
    <path d="m200 750-50-50 50-50 50 50z" fill="#bc5655" opacity=".65294" style="paint-order:normal"/>
    <path d="m200 850-50-50 50-50 50 50z" fill="#be5652" opacity=".65294" style="paint-order:normal"/>
    <path d="m300 50-50-50 50-50 50 50z" fill="#9d647f" opacity=".65294" style="paint-order:normal"/>
    <path d="m300 150-50-50 50-50 50 50z" fill="#a0637d" opacity=".65294" style="paint-order:normal"/>
    <path d="m300 250-50-50 50-50 50 50z" fill="#a46179" opacity=".65294" style="paint-order:normal"/>
    <path d="m300 350-50-50 50-50 50 50z" fill="#aa5f74" opacity=".65294" style="paint-order:normal"/>
    <path d="m300 450-50-50 50-50 50 50z" fill="#af5c6e" opacity=".65294" style="paint-order:normal"/>
    <path d="m300 550-50-50 50-50 50 50z" fill="#b55a68" opacity=".65294" style="paint-order:normal"/>
    <path d="m300 650-50-50 50-50 50 50z" fill="#ba5861" opacity=".65294" style="paint-order:normal"/>
    <path d="m300 750-50-50 50-50 50 50z" fill="#bf565c" opacity=".65294" style="paint-order:normal"/>
    <path d="m300 850-50-50 50-50 50 50z" fill="#c25659" opacity=".65294" style="paint-order:normal"/>
    <path d="m400 50-50-50 50-50 50 50z" fill="#986a8a" opacity=".65294" style="paint-order:normal"/>
    <path d="m400 150-50-50 50-50 50 50z" fill="#9b6987" opacity=".65294" style="paint-order:normal"/>
    <path d="m400 250-50-50 50-50 50 50z" fill="#a06783" opacity=".65294" style="paint-order:normal"/>
    <path d="m400 350-50-50 50-50 50 50z" fill="#a6647e" opacity=".65294" style="paint-order:normal"/>
    <path d="m400 450-50-50 50-50 50 50z" fill="#ac6177" opacity=".65294" style="paint-order:normal"/>
    <path d="m400 550-50-50 50-50 50 50z" fill="#b35e70" opacity=".65294" style="paint-order:normal"/>
    <path d="m400 650-50-50 50-50 50 50z" fill="#b95b6a" opacity=".65294" style="paint-order:normal"/>
    <path d="m400 750-50-50 50-50 50 50z" fill="#bf5864" opacity=".65294" style="paint-order:normal"/>
    <path d="m400 850-50-50 50-50 50 50z" fill="#c25761" opacity=".65294" style="paint-order:normal"/>
    <path d="m500 50-50-50 50-50 50 50z" fill="#947094" opacity=".65294" style="paint-order:normal"/>
    <path d="m500 150-50-50 50-50 50 50z" fill="#976f92" opacity=".65294" style="paint-order:normal"/>
    <path d="m500 250-50-50 50-50 50 50z" fill="#9b6d8d" opacity=".65294" style="paint-order:normal"/>
    <path d="m500 350-50-50 50-50 50 50z" fill="#a16a87" opacity=".65294" style="paint-order:normal"/>
    <path d="m500 450-50-50 50-50 50 50z" fill="#a76680" opacity=".65294" style="paint-order:normal"/>
    <path d="m500 550-50-50 50-50 50 50z" fill="#ae6379" opacity=".65294" style="paint-order:normal"/>
    <path d="m500 650-50-50 50-50 50 50z" fill="#b56073" opacity=".65294" style="paint-order:normal"/>
    <path d="m500 750-50-50 50-50 50 50z" fill="#bc5d6c" opacity=".65294" style="paint-order:normal"/>
    <path d="m500 850-50-50 50-50 50 50z" fill="#bf5b69" opacity=".65294" style="paint-order:normal"/>
    <path d="m600 50-50-50 50-50 50 50z" fill="#8e769d" opacity=".65294" style="paint-order:normal"/>
    <path d="m600 150-50-50 50-50 50 50z" fill="#91759b" opacity=".65294" style="paint-order:normal"/>
    <path d="m600 250-50-50 50-50 50 50z" fill="#967296" opacity=".65294" style="paint-order:normal"/>
    <path d="m600 350-50-50 50-50 50 50z" fill="#9c6f90" opacity=".65294" style="paint-order:normal"/>
    <path d="m600 450-50-50 50-50 50 50z" fill="#a36c89" opacity=".65294" style="paint-order:normal"/>
    <path d="m600 550-50-50 50-50 50 50z" fill="#aa6882" opacity=".65294" style="paint-order:normal"/>
    <path d="m600 650-50-50 50-50 50 50z" fill="#b1657b" opacity=".65294" style="paint-order:normal"/>
    <path d="m600 750-50-50 50-50 50 50z" fill="#b86274" opacity=".65294" style="paint-order:normal"/>
    <path d="m600 850-50-50 50-50 50 50z" fill="#bc6070" opacity=".65294" style="paint-order:normal"/>
    <path d="m700 50-50-50 50-50 50 50z" fill="#877ba7" opacity=".65294" style="paint-order:normal"/>
    <path d="m700 150-50-50 50-50 50 50z" fill="#8a7aa5" opacity=".65294" style="paint-order:normal"/>
    <path d="m700 250-50-50 50-50 50 50z" fill="#8f779f" opacity=".65294" style="paint-order:normal"/>
    <path d="m700 350-50-50 50-50 50 50z" fill="#967498" opacity=".65294" style="paint-order:normal"/>
    <path d="m700 450-50-50 50-50 50 50z" fill="#9e7191" opacity=".65294" style="paint-order:normal"/>
    <path d="m700 550-50-50 50-50 50 50z" fill="#a66d89" opacity=".65294" style="paint-order:normal"/>
    <path d="m700 650-50-50 50-50 50 50z" fill="#ae6981" opacity=".65294" style="paint-order:normal"/>
    <path d="m700 750-50-50 50-50 50 50z" fill="#b66579" opacity=".65294" style="paint-order:normal"/>
    <path d="m700 850-50-50 50-50 50 50z" fill="#ba6375" opacity=".65294" style="paint-order:normal"/>
    <path d="m800 50-50-50 50-50 50 50z" fill="#8080b1" opacity=".65294" style="paint-order:normal"/>
    <path d="m800 150-50-50 50-50 50 50z" fill="#837fae" opacity=".65294" style="paint-order:normal"/>
    <path d="m800 250-50-50 50-50 50 50z" fill="#887ca8" opacity=".65294" style="paint-order:normal"/>
    <path d="m800 350-50-50 50-50 50 50z" fill="#9079a0" opacity=".65294" style="paint-order:normal"/>
    <path d="m800 450-50-50 50-50 50 50z" fill="#9a7497" opacity=".65294" style="paint-order:normal"/>
    <path d="m800 550-50-50 50-50 50 50z" fill="#a3708e" opacity=".65294" style="paint-order:normal"/>
    <path d="m800 650-50-50 50-50 50 50z" fill="#ac6b85" opacity=".65294" style="paint-order:normal"/>
    <path d="m800 750-50-50 50-50 50 50z" fill="#b3677c" opacity=".65294" style="paint-order:normal"/>
    <path d="m800 850-50-50 50-50 50 50z" fill="#b66578" opacity=".65294" style="paint-order:normal"/>
    <path d="m900 50-50-50 50-50 50 50z" fill="#7885ba" opacity=".65294" style="paint-order:normal"/>
    <path d="m900 150-50-50 50-50 50 50z" fill="#7b83b7" opacity=".65294" style="paint-order:normal"/>
    <path d="m900 250-50-50 50-50 50 50z" fill="#8280b0" opacity=".65294" style="paint-order:normal"/>
    <path d="m900 350-50-50 50-50 50 50z" fill="#8c7ba6" opacity=".65294" style="paint-order:normal"/>
    <path d="m900 450-50-50 50-50 50 50z" fill="#96779c" opacity=".65294" style="paint-order:normal"/>
    <path d="m900 550-50-50 50-50 50 50z" fill="#a07291" opacity=".65294" style="paint-order:normal"/>
    <path d="m900 650-50-50 50-50 50 50z" fill="#a86d88" opacity=".65294" style="paint-order:normal"/>
    <path d="m900 750-50-50 50-50 50 50z" fill="#ae697f" opacity=".65294" style="paint-order:normal"/>
    <path d="m900 850-50-50 50-50 50 50z" fill="#b1667b" opacity=".65294" style="paint-order:normal"/>
    <path d="m1e3 50-50-50 50-50l50 50z" fill="#7088c3" opacity=".65294" style="paint-order:normal"/>
    <path d="m1e3 150-50-50 50-50l50 50z" fill="#7486bf" opacity=".65294" style="paint-order:normal"/>
    <path d="m1e3 250-50-50 50-50l50 50z" fill="#7d82b6" opacity=".65294" style="paint-order:normal"/>
    <path d="m1e3 350-50-50 50-50l50 50z" fill="#887dab" opacity=".65294" style="paint-order:normal"/>
    <path d="m1e3 450-50-50 50-50l50 50z" fill="#92789f" opacity=".65294" style="paint-order:normal"/>
    <path d="m1e3 550-50-50 50-50l50 50z" fill="#9b7394" opacity=".65294" style="paint-order:normal"/>
    <path d="m1e3 650-50-50 50-50l50 50z" fill="#a36e8a" opacity=".65294" style="paint-order:normal"/>
    <path d="m1e3 750-50-50 50-50l50 50z" fill="#a86981" opacity=".65294" style="paint-order:normal"/>
    <path d="m1e3 850-50-50 50-50l50 50z" fill="#aa677c" opacity=".65294" style="paint-order:normal"/>
    <path d="m1100 50-50-50 50-50 50 50z" fill="#698bca" opacity=".65294" style="paint-order:normal"/>
    <path d="m1100 150-50-50 50-50 50 50z" fill="#6e89c5" opacity=".65294" style="paint-order:normal"/>
    <path d="m1100 250-50-50 50-50 50 50z" fill="#7884ba" opacity=".65294" style="paint-order:normal"/>
    <path d="m1100 350-50-50 50-50 50 50z" fill="#837fae" opacity=".65294" style="paint-order:normal"/>
    <path d="m1100 450-50-50 50-50 50 50z" fill="#8e79a1" opacity=".65294" style="paint-order:normal"/>
    <path d="m1100 550-50-50 50-50 50 50z" fill="#977396" opacity=".65294" style="paint-order:normal"/>
    <path d="m1100 650-50-50 50-50 50 50z" fill="#9e6e8b" opacity=".65294" style="paint-order:normal"/>
    <path d="m1100 750-50-50 50-50 50 50z" fill="#a26981" opacity=".65294" style="paint-order:normal"/>
    <path d="m1100 850-50-50 50-50 50 50z" fill="#a3667c" opacity=".65294" style="paint-order:normal"/>
    <path d="m1200 50-50-50 50-50 50 50z" fill="#618ed2" opacity=".65294" style="paint-order:normal"/>
    <path d="m1200 150-50-50 50-50 50 50z" fill="#688bcb" opacity=".65294" style="paint-order:normal"/>
    <path d="m1200 250-50-50 50-50 50 50z" fill="#7485be" opacity=".65294" style="paint-order:normal"/>
    <path d="m1200 350-50-50 50-50 50 50z" fill="#807fb0" opacity=".65294" style="paint-order:normal"/>
    <path d="m1200 450-50-50 50-50 50 50z" fill="#8a79a3" opacity=".65294" style="paint-order:normal"/>
    <path d="m1200 550-50-50 50-50 50 50z" fill="#937396" opacity=".65294" style="paint-order:normal"/>
    <path d="m1200 650-50-50 50-50 50 50z" fill="#986e8b" opacity=".65294" style="paint-order:normal"/>
    <path d="m1200 750-50-50 50-50 50 50z" fill="#9b6881" opacity=".65294" style="paint-order:normal"/>
    <path d="m1200 850-50-50 50-50 50 50z" fill="#9c657b" opacity=".65294" style="paint-order:normal"/>
    <path d="m1300 50-50-50 50-50 50 50z" fill="#5a91da" opacity=".65294" style="paint-order:normal"/>
    <path d="m1300 150-50-50 50-50 50 50z" fill="#638dd0" opacity=".65294" style="paint-order:normal"/>
    <path d="m1300 250-50-50 50-50 50 50z" fill="#7186c0" opacity=".65294" style="paint-order:normal"/>
    <path d="m1300 350-50-50 50-50 50 50z" fill="#7d7fb1" opacity=".65294" style="paint-order:normal"/>
    <path d="m1300 450-50-50 50-50 50 50z" fill="#8779a3" opacity=".65294" style="paint-order:normal"/>
    <path d="m1300 550-50-50 50-50 50 50z" fill="#8f7295" opacity=".65294" style="paint-order:normal"/>
    <path d="m1300 650-50-50 50-50 50 50z" fill="#936c89" opacity=".65294" style="paint-order:normal"/>
    <path d="m1300 750-50-50 50-50 50 50z" fill="#94667f" opacity=".65294" style="paint-order:normal"/>
    <path d="m1300 850-50-50 50-50 50 50z" fill="#936379" opacity=".65294" style="paint-order:normal"/>
    <path d="m1400 50-50-50 50-50 50 50z" fill="#5692dd" opacity=".65294" style="paint-order:normal"/>
    <path d="m1400 150-50-50 50-50 50 50z" fill="#628dd1" opacity=".65294" style="paint-order:normal"/>
    <path d="m1400 250-50-50 50-50 50 50z" fill="#7086c0" opacity=".65294" style="paint-order:normal"/>
    <path d="m1400 350-50-50 50-50 50 50z" fill="#7c7fb1" opacity=".65294" style="paint-order:normal"/>
    <path d="m1400 450-50-50 50-50 50 50z" fill="#8578a2" opacity=".65294" style="paint-order:normal"/>
    <path d="m1400 550-50-50 50-50 50 50z" fill="#8c7194" opacity=".65294" style="paint-order:normal"/>
    <path d="m1400 650-50-50 50-50 50 50z" fill="#906b88" opacity=".65294" style="paint-order:normal"/>
    <path d="m1400 750-50-50 50-50 50 50z" fill="#90657d" opacity=".65294" style="paint-order:normal"/>
    <path d="m1400 850-50-50 50-50 50 50z" fill="#8f6277" opacity=".65294" style="paint-order:normal"/>
  </g>
  <g fill="#fff" stroke-width=".26458">
    <path d="m932.71 729.44q-1.9352 0.48382-5.1402 1.0281-3.1446 0.54425-7.3172 0.54425-3.6284 0-6.1077-1.028-2.4794-1.0885-3.9912-3.0236-1.5118-1.9352-2.177-4.5377-0.6652-2.6608-0.6652-5.8658v-17.658h5.624v16.448q0 5.7448 1.8142 8.2242t6.1077 2.4794q0.90708 0 1.8747-0.0605 0.96756-0.0605 1.8142-0.12094 0.84662-0.12094 1.5118-0.18142 0.7257-0.12094 1.0281-0.24189v-26.547h5.624v30.539z"/>
    <path d="m948.02 700.27q1.0281-0.66519 3.0841-1.3909 2.1165-0.72566 4.8378-0.72566 3.3865 0 5.9868 1.2094 2.6608 1.2094 4.475 3.3865 1.8142 2.177 2.7213 5.2006 0.96756 3.0236 0.96756 6.6519 0 3.8097-1.149 6.8938-1.0885 3.0236-3.1446 5.1401t-4.9588 3.2655-6.531 1.149q-3.9307 0-6.9544-0.54425t-4.9588-1.0885v-45.052l5.624-0.96756v16.872zm0 25.157q0.84665 0.24189 2.3585 0.48377 1.5723 0.18142 3.8702 0.18142 4.5354 0 7.2567-2.9632 2.7213-3.0236 2.7213-8.5266 0-2.4189-0.48378-4.5354t-1.5723-3.6284q-1.0885-1.5723-2.8422-2.4189-1.6933-0.90709-4.1121-0.90709-2.298 0-4.2331 0.78614t-2.9632 1.6328z"/>
    <path d="m1003.1 729.44q-1.9351 0.48382-5.1402 1.0281-3.1446 0.54425-7.3172 0.54425-3.6284 0-6.1077-1.028-2.4794-1.0885-3.9912-3.0236-1.5118-1.9352-2.177-4.5354-0.6652-2.6608-0.6652-5.8658v-17.658h5.624v16.448q0 5.7448 1.8142 8.2242t6.1077 2.4794q0.90708 0 1.8746-0.0605 0.96756-0.0605 1.8142-0.12094 0.84662-0.12095 1.5118-0.18142 0.72567-0.12094 1.028-0.24189v-26.548h5.6239z"/>
    <path d="m1012.8 699.81q1.9351-0.48377 5.1402-1.028 3.205-0.54425 7.3776-0.54425 3.7493 0 6.2287 1.0885 2.4794 1.028 3.9307 2.9632 1.5119 1.8746 2.1166 4.5354t0.6047 5.8658v17.658h-5.6239v-16.448q0-2.9027-0.4233-4.9587-0.3629-2.056-1.27-3.326-0.9071-1.2699-2.4189-1.8142-1.5118-0.60472-3.7494-0.60472-0.907 0-1.8746 0.0605t-1.8747 0.18142q-0.8466 0.0605-1.5723 0.18141-0.6652 0.12095-0.9675 0.18142v26.548h-5.624z"/>
    <path d="m1052.8 698.91h11.913v4.7168h-11.913v14.513q0 2.3584 0.3628 3.9307 0.3629 1.5118 1.0886 2.4189 0.7256 0.84661 1.8141 1.2094t2.5399 0.36283q2.5399 0 4.0517-0.54425 1.5723-0.60472 2.177-0.8466l1.0885 4.6564q-0.8466 0.4233-2.9632 1.028-2.1165 0.6652-4.8378 0.6652-3.205 0-5.3215-0.78614-2.0561-0.84661-3.326-2.4794-1.27-1.6327-1.8143-3.9912-0.4837-2.4189-0.4837-5.5634v-28.059l5.6239-0.96756z"/>
    <path d="m1096.9 729.44q-1.9352 0.48382-5.1402 1.0281-3.1446 0.54425-7.3172 0.54425-3.6284 0-6.1077-1.028-2.4794-1.0885-3.9912-3.0236-1.5119-1.9352-2.1771-4.5354-0.6651-2.6608-0.6651-5.8658v-17.658h5.6239v16.448q0 5.7448 1.8142 8.2242t6.1077 2.4794q0.9071 0 1.8747-0.0605t1.8142-0.12094q0.8466-0.12095 1.5118-0.18142 0.7257-0.12094 1.0281-0.24189v-26.548h5.6239z"/>
    <path d="m1140 718.6q0 6.1595-3.9326 8.9642-3.933 2.7776-11.219 2.7776h-13.042v-40.021h11.856q7.3448 0 10.584 2.1109 3.2676 2.082 3.2676 6.9978 0 4.0195-1.7928 6.1304-1.7639 2.1109-4.4243 2.9206 3.9617 0.54943 6.333 2.9206 2.3712 2.3711 2.3712 7.2003zm-7.9824-17.986q0-3.0652-1.9085-4.3086-1.9086-1.2723-6.7956-1.2723h-6.1595v11.913h5.8991q4.8004 0 6.8821-1.5326 2.0821-1.5326 2.0821-4.8004zm2.429 17.755q0-2.4868-0.9831-3.9039-0.9543-1.4458-2.9785-2.1109t-6.5352-0.66508h-6.7956v13.793h5.4365q5.0895 0 7.3738-0.66504 2.2845-0.69403 3.3833-2.2266 1.0989-1.5615 1.0989-4.2217z"/>
    <path d="m1167.1 730.35v-4.5108q-2.3134 2.3134-5.0896 3.8748-2.776 1.5326-5.4365 1.5326-3.0362 0-4.9447-1.1278-1.8796-1.1566-2.7471-3.4411-0.8386-2.3134-0.8386-6.3904v-20.27h4.9738v17.899q0 4.3374 0.4338 5.7834 0.4627 1.4458 1.4458 2.1109 0.9832 0.63617 2.8628 0.63617t4.424-1.4458q2.5447-1.4747 4.9156-3.5278v-21.456h4.9739v30.334h-4.9739z"/>
    <path d="m1201 730.35v-3.0073q-1.7061 1.6482-4.1061 2.776t-5.1182 1.1277q-5.4653 0-8.4439-4.1061-2.9784-4.1352-2.9784-11.711 0-7.4316 3.2386-11.856 3.2387-4.4243 8.9644-4.4243 4.5974 0 8.4438 3.3544v-15.21h5.0026v43.056h-5.0026zm0-23.509q-3.9617-3.2676-7.8078-3.2676-3.3833 0-5.5517 2.8628-2.1399 2.8338-2.1399 8.8773 0 11.48 7.2292 11.48 2.3712 0 4.5108-1.1856 2.1688-1.1856 3.7593-2.7182v-16.049z"/>
    <path d="m1240 729.67q0 6.1016-3.0363 9.0795-3.0073 3.0074-10.005 3.0074-6.6799 0-11.017-2.8338l1.8507-4.0195q3.9038 2.7182 9.1665 2.7182 4.2504 0 6.1304-1.7928 1.9085-1.7639 1.9085-5.8412v-3.5567q-1.7061 1.6483-4.0774 2.776-2.3647 1.1261-5.1424 1.1261-5.5809 0-8.5017-3.9617-2.9206-3.9904-2.9206-11.509 0-7.4026 3.2676-11.566t8.9356-4.1639q4.5974 0 8.4438 3.3544v-2.4868h5.0026v29.669zm-5.0003-22.846q-3.9617-3.2676-7.8078-3.2676-3.7882 0-5.7547 2.9495-1.9375 2.9495-1.9375 8.2412 0 5.8412 1.8218 8.5016 1.8218 2.6314 5.4074 2.6314 4.1639 0 8.2704-3.9039v-15.152z"/>
    <path d="m1255.7 692.33q0 1.735-0.7808 2.3712-0.7808 0.60729-2.4869 0.60729-1.8218 0-2.5157-0.78077-0.6941-0.78077-0.6941-2.1977 0-1.5326 0.7519-2.2266 0.7518-0.72291 2.4579-0.72291 1.764 0 2.5158 0.69399 0.7518 0.66508 0.7518 2.2555zm-5.7555 38.026v-30.334h4.9739v30.334z"/>
    <path d="m1268.3 715.76q0 6.0147 2.0531 8.5886 2.0531 2.5447 6.5934 2.5447 2.0242 0 3.5568-0.83855 1.5326-0.86751 2.9495-2.776l4.1061 2.5447q-1.735 2.6025-4.2217 4.0195-2.4869 1.388-6.7374 1.388-6.7669 0-10.121-3.9326-3.3255-3.9326-3.3255-11.885 0-8.3282 3.2387-12.29 3.2676-3.9904 9.8317-3.9904 5.8991 0 8.8487 3.4122 2.9495 3.3832 2.9495 10.439v2.776h-19.721zm14.863-3.9038q-0.058-4.0773-1.735-6.3329-1.6483-2.2555-5.3783-2.2555-3.5568 0-5.3495 2.0531-1.764 2.0242-2.3423 6.5352h14.806z"/>
    <path d="m1310.9 678.38a13.346 13.346 0 0 0 -13.346 13.346 13.346 13.346 0 0 0 13.346 13.346 13.346 13.346 0 0 0 13.346 -13.346 13.346 13.346 0 0 0 -13.346 -13.346zm3.5909 2.0079c0.4462-0.0113 0.8132 0.0438 1.2511 0.11641 1.6099 0.26456 3.2405 1.4407 4.2331 3.1555 1.3346 2.3134 1.0343 5.102-0.488 6.6625-0.7674 0.78405-0.9967 0.82574-1.4972 1.1631 0.3421-0.53673 0.4463-0.7457 0.4463-1.1903 0-0.27931-0.092-0.50755-0.1418-0.63598-0.192-0.49421-0.538-0.70023-0.9384-0.93837-0.4962-0.29292-1.0634-0.38162-1.4263-0.38121-0.2751 4.2e-4 -0.4212 8.4e-4 -0.7882 0.0934-1.735 0.43914-3.6325-0.2434-4.546-1.8292v2e-3c-1.0969-1.8955-0.4088-4.3411 1.5389-5.4644 0.5714-0.33108 1.247-0.64901 1.8726-0.72007 0.1708-0.0189 0.3296-0.0302 0.4796-0.034zm-10.326 4.4734c0.417-0.0151 0.8299 0.0302 1.2261 0.1304 1.0635 0.27099 1.2137 0.44915 1.7559 0.71398-0.634-0.0264-0.8675-0.0151-1.2512 0.20939-0.2419 0.1406-0.3962 0.33071-0.4838 0.43831-0.3296 0.41499-0.3379 0.81618-0.3421 1.2837 0 0.57426 0.2004 1.1127 0.3837 1.4238 0.1376 0.24151 0.2087 0.36548 0.4755 0.6364 1.247 1.2841 1.6056 3.2668 0.6881 4.8521v-2e-3c-1.0927 1.8955-3.5575 2.5232-5.5011 1.3984-0.5756-0.33108-1.1886-0.75526-1.5598-1.2616-0.4129-0.55763-0.588-0.98509-0.7966-1.5423-0.5755-1.5239-0.3711-3.5266 0.6173-5.2414 1.0885-1.8796 2.9819-2.9815 4.7879-3.0391zm11.323 9.1615v2e-3c2.1896 0 3.9663 1.8184 3.9621 4.0664 0 0.66229-0.058 1.4034-0.3129 1.981-0.2752 0.63602-0.5589 0.99927-0.9384 1.4597-1.0301 1.2595-2.8652 2.0853-4.8461 2.0853-2.6692 0-4.938-1.6532-5.5261-3.7535-0.2963-1.0551-0.2169-1.2745-0.2585-1.8768 0.2963 0.56303 0.4212 0.75862 0.8091 0.97968 0.2419 0.13947 0.4838 0.17726 0.6173 0.19805 0.5254 0.0794 0.8758-0.11603 1.2845-0.34545 0.5005-0.28157 0.8633-0.73107 1.0426-1.0426 0.1376-0.24189 0.2087-0.36624 0.313-0.72983 0.4879-1.7233 2.0269-3.0236 3.8578-3.0236z"/>
  </g>
</svg>
