<?xml version="1.0" encoding="UTF-8"?>
<svg version="1.1" viewBox="0 0 1366 768" xmlns="http://www.w3.org/2000/svg" xmlns:cc="http://creativecommons.org/ns#" xmlns:dc="http://purl.org/dc/elements/1.1/" xmlns:rdf="http://www.w3.org/1999/02/22-rdf-syntax-ns#" xmlns:xlink="http://www.w3.org/1999/xlink">
  <defs>
    <linearGradient id="linearGradient347" x1="283" x2="-1083" y1="834" y2="1602" gradientUnits="userSpaceOnUse">
      <stop stop-color="#f04a50" offset="0"/>
      <stop stop-color="#4dadd4" stop-opacity="0" offset="1"/>
    </linearGradient>
    <linearGradient id="linearGradient351" x1="320.21" x2="-203.92" y1="782.84" y2="1499.7" gradientTransform="translate(800)" gradientUnits="userSpaceOnUse">
      <stop stop-color="#383c4a" offset="0"/>
      <stop stop-color="#4dadd4" stop-opacity="0" offset="1"/>
    </linearGradient>
    <linearGradient id="linearGradient361" x1="803.94" x2="-45.775" y1="275.85" y2="964.78" gradientTransform="translate(800 -2436)" gradientUnits="userSpaceOnUse">
      <stop stop-color="#383c4a" offset="0"/>
      <stop stop-color="#4dadd4" stop-opacity="0" offset="1"/>
    </linearGradient>
    <linearGradient id="linearGradient371" x1="1013.2" x2="-138.8" y1="378.18" y2="1020.6" gradientTransform="translate(0 -2436)" gradientUnits="userSpaceOnUse">
      <stop stop-color="#4dadd4" offset="0"/>
      <stop stop-color="#4dadd4" stop-opacity="0" offset="1"/>
    </linearGradient>
    <clipPath id="clipPath5262">
      <rect width="1366" height="768" fill="#1a1a1a" opacity=".155" stroke="#ff2a50" stroke-opacity=".056716" stroke-width=".1" style="paint-order:fill markers stroke"/>
    </clipPath>
  </defs>
  <title>Suru Tesselation</title>
  <metadata>
    <rdf:RDF>
      <cc:Work rdf:about="">
        <dc:format>image/svg+xml</dc:format>
        <dc:type rdf:resource="http://purl.org/dc/dcmitype/StillImage"/>
        <dc:title>Suru Tesselation</dc:title>
        <cc:license rdf:resource="http://creativecommons.org/licenses/by-sa/4.0/"/>
        <dc:creator>
          <cc:Agent>
            <dc:title>Rania el-Amina</dc:title>
          </cc:Agent>
        </dc:creator>
        <dc:rights>
          <cc:Agent>
            <dc:title>Ubuntu Budgie</dc:title>
          </cc:Agent>
        </dc:rights>
        <dc:description>Suru Tesselation wallpaper for Ubuntu Budgie</dc:description>
        <dc:contributor>
          <cc:Agent>
            <dc:title>HEXcube</dc:title>
          </cc:Agent>
        </dc:contributor>
      </cc:Work>
      <cc:License rdf:about="http://creativecommons.org/licenses/by-sa/4.0/">
        <cc:permits rdf:resource="http://creativecommons.org/ns#Reproduction"/>
        <cc:permits rdf:resource="http://creativecommons.org/ns#Distribution"/>
        <cc:requires rdf:resource="http://creativecommons.org/ns#Notice"/>
        <cc:requires rdf:resource="http://creativecommons.org/ns#Attribution"/>
        <cc:permits rdf:resource="http://creativecommons.org/ns#DerivativeWorks"/>
        <cc:requires rdf:resource="http://creativecommons.org/ns#ShareAlike"/>
      </cc:License>
    </rdf:RDF>
  </metadata>
  <g>
    <g transform="translate(1083 -834)">
      <rect x="-1083" y="834" width="1366" height="768" fill="url(#linearGradient347)" style="paint-order:normal"/>
      <rect transform="scale(-1,1)" x="-283" y="834" width="1366" height="768" fill="url(#linearGradient351)" style="paint-order:normal"/>
      <rect transform="scale(-1)" x="-283" y="-1602" width="1366" height="768" fill="url(#linearGradient361)" style="paint-order:normal"/>
      <rect transform="scale(1,-1)" x="-1083" y="-1602" width="1366" height="768" fill="url(#linearGradient371)" style="paint-order:normal"/>
    </g>
    <g transform="translate(1083 -834)">
      <rect x="-1083" y="834" width="1366" height="768" fill="url(#linearGradient347)" style="paint-order:normal"/>
      <rect transform="scale(-1,1)" x="-283" y="834" width="1366" height="768" fill="url(#linearGradient351)" style="paint-order:normal"/>
      <rect transform="scale(-1)" x="-283" y="-1602" width="1366" height="768" fill="url(#linearGradient361)" style="paint-order:normal"/>
      <rect transform="scale(1,-1)" x="-1083" y="-1602" width="1366" height="768" fill="url(#linearGradient371)" style="paint-order:normal"/>
    </g>
  </g>
  <path d="m683 47.587a336.41 336.41 0 0 0 -336.41 336.41 336.41 336.41 0 0 0 336.41 336.41 336.41 336.41 0 0 0 336.41 -336.41 336.41 336.41 0 0 0 -336.41 -336.41zm90.516 50.613c11.247-0.27675 20.498 1.1088 31.537 2.9342 40.581 6.6697 81.683 36.316 106.7 79.541 33.641 58.314 26.072 128.61-12.301 167.94-19.344 19.765-25.124 20.816-37.74 29.318 8.6233-13.529 11.25-18.797 11.25-30.004 0-7.0406-2.3191-12.793-3.5744-16.029-4.8397-12.457-13.561-17.652-23.654-23.654-12.508-7.3832-26.805-9.619-35.953-9.6091-6.9344 0.0291-10.617 0.0291-19.868 2.3442-43.734 11.068-91.565-6.1355-114.59-46.109-27.65-47.78-10.305-109.43 38.791-137.74 14.403-8.346 31.433-16.359 47.203-18.151 4.3054-0.47893 8.3082-0.75626 12.089-0.85706zm-260.29 112.76c10.511-0.37813 20.919 0.75626 30.906 3.2869 26.808 6.8314 30.594 11.323 44.261 17.998-15.981-0.65547-21.867-0.37813-31.539 5.2781-6.0976 3.5442-9.987 8.3361-12.195 11.049-8.3082 10.461-8.5174 20.574-8.6234 32.358 0 14.476 5.0515 28.048 9.672 35.89 3.4685 6.0877 5.2607 9.2132 11.986 16.042 31.433 32.368 40.472 82.346 17.345 122.31-27.544 47.78-89.674 63.602-138.67 35.25-14.509-8.346-29.961-19.036-39.318-31.801-10.408-14.055-14.822-24.831-20.08-38.877-14.507-38.413-9.3543-88.895 15.56-132.12 27.438-47.379 75.165-75.155 120.69-76.607zm285.42 230.93c55.193 0 99.979 45.837 99.873 102.5 0 16.695-1.462 35.376-7.8873 49.935-6.937 16.032-14.088 25.189-23.654 36.795-25.966 31.748-72.223 52.564-122.16 52.564-67.283 0-124.47-41.673-139.3-94.615-7.4688-26.596-5.4674-32.126-6.516-47.308 7.4688 14.194 10.617 19.122 20.395 24.695 6.0976 3.5162 12.195 4.4691 15.56 4.9935 13.244 1.9912 22.076-2.9266 32.378-8.709 12.616-7.0986 21.761-18.429 26.281-26.281 3.4685-6.0976 5.2607-9.231 7.8898-18.396 12.299-43.439 51.092-76.216 97.244-76.216z" fill="#fff" opacity=".064" stroke-width=".26458"/>
  <g clip-path="url(#clipPath5262)">
    <path d="m50 100-50-50 50-50 50 50z" fill="#3e5062" opacity=".65294" stroke="#3e5062" style="paint-order:normal"/>
    <path d="m50 200-50-50 50-50 50 50z" fill="#415b70" opacity=".65294" stroke="#415b70" style="paint-order:normal"/>
    <path d="m50 300-50-50 50-50 50 50z" fill="#43677e" opacity=".65294" stroke="#43677e" style="paint-order:normal"/>
    <path d="m50 400-50-50 50-50 50 50z" fill="#45748e" opacity=".65294" stroke="#45748e" style="paint-order:normal"/>
    <path d="m50 500-50-50 50-50 50 50z" fill="#47819e" opacity=".65294" stroke="#47819e" style="paint-order:normal"/>
    <path d="m50 600-50-50 50-50 50 50z" fill="#488baa" opacity=".65294" stroke="#488baa" style="paint-order:normal"/>
    <path d="m50 700-50-50 50-50 50 50z" fill="#4991b2" opacity=".65294" stroke="#4991b2" style="paint-order:normal"/>
    <path d="m50 800-50-50 50-50 50 50z" fill="#4892b3" opacity=".65294" stroke="#4892b3" style="paint-order:normal"/>
    <path d="m150 100-50-50 50-50 50 50z" fill="#42596d" opacity=".65294" stroke="#42596d" style="paint-order:normal"/>
    <path d="m150 200-50-50 50-50 50 50z" fill="#45647b" opacity=".65294" stroke="#45647b" style="paint-order:normal"/>
    <path d="m150 300-50-50 50-50 50 50z" fill="#486f88" opacity=".65294" stroke="#486f88" style="paint-order:normal"/>
    <path d="m150 400-50-50 50-50 50 50z" fill="#4a7995" opacity=".65294" stroke="#4a7995" style="paint-order:normal"/>
    <path d="m150 500-50-50 50-50 50 50z" fill="#4c85a3" opacity=".65294" stroke="#4c85a3" style="paint-order:normal"/>
    <path d="m150 600-50-50 50-50 50 50z" fill="#4d90b1" opacity=".65294" stroke="#4d90b1" style="paint-order:normal"/>
    <path d="m150 700-50-50 50-50 50 50z" fill="#4d98ba" opacity=".65294" stroke="#4d98ba" style="paint-order:normal"/>
    <path d="m150 800-50-50 50-50 50 50z" fill="#4d9bbd" opacity=".65294" stroke="#4d9bbd" style="paint-order:normal"/>
    <path d="m250 100-50-50 50-50 50 50z" fill="#476277" opacity=".65294" stroke="#476277" style="paint-order:normal"/>
    <path d="m250 200-50-50 50-50 50 50z" fill="#4b6c85" opacity=".65294" stroke="#4b6c85" style="paint-order:normal"/>
    <path d="m250 300-50-50 50-50 50 50z" fill="#4e7791" opacity=".65294" stroke="#4e7791" style="paint-order:normal"/>
    <path d="m250 400-50-50 50-50 50 50z" fill="#51819d" opacity=".65294" stroke="#51819d" style="paint-order:normal"/>
    <path d="m250 500-50-50 50-50 50 50z" fill="#548aa8" opacity=".65294" stroke="#548aa8" style="paint-order:normal"/>
    <path d="m250 600-50-50 50-50 50 50z" fill="#5693b4" opacity=".65294" stroke="#5693b4" style="paint-order:normal"/>
    <path d="m250 700-50-50 50-50 50 50z" fill="#569cbe" opacity=".65294" stroke="#569cbe" style="paint-order:normal"/>
    <path d="m250 800-50-50 50-50 50 50z" fill="#55a0c3" opacity=".65294" stroke="#55a0c3" style="paint-order:normal"/>
    <path d="m350 100-50-50 50-50 50 50z" fill="#4e6980" opacity=".65294" stroke="#4e6980" style="paint-order:normal"/>
    <path d="m350 200-50-50 50-50 50 50z" fill="#53738d" opacity=".65294" stroke="#53738d" style="paint-order:normal"/>
    <path d="m350 300-50-50 50-50 50 50z" fill="#577d98" opacity=".65294" stroke="#577d98" style="paint-order:normal"/>
    <path d="m350 400-50-50 50-50 50 50z" fill="#5a86a3" opacity=".65294" stroke="#5a86a3" style="paint-order:normal"/>
    <path d="m350 500-50-50 50-50 50 50z" fill="#5e8eac" opacity=".65294" stroke="#5e8eac" style="paint-order:normal"/>
    <path d="m350 600-50-50 50-50 50 50z" fill="#6194b5" opacity=".65294" stroke="#6194b5" style="paint-order:normal"/>
    <path d="m350 700-50-50 50-50 50 50z" fill="#659abb" opacity=".65294" stroke="#659abb" style="paint-order:normal"/>
    <path d="m350 800-50-50 50-50 50 50z" fill="#659cbe" opacity=".65294" stroke="#659cbe" style="paint-order:normal"/>
    <path d="m450 100-50-50 50-50 50 50z" fill="#577088" opacity=".65294" stroke="#577088" style="paint-order:normal"/>
    <path d="m450 200-50-50 50-50 50 50z" fill="#5d7993" opacity=".65294" stroke="#5d7993" style="paint-order:normal"/>
    <path d="m450 300-50-50 50-50 50 50z" fill="#61819d" opacity=".65294" stroke="#61819d" style="paint-order:normal"/>
    <path d="m450 400-50-50 50-50 50 50z" fill="#6688a5" opacity=".65294" stroke="#6688a5" style="paint-order:normal"/>
    <path d="m450 500-50-50 50-50 50 50z" fill="#6b8ead" opacity=".65294" stroke="#6b8ead" style="paint-order:normal"/>
    <path d="m450 600-50-50 50-50 50 50z" fill="#7093b1" opacity=".65294" stroke="#7093b1" style="paint-order:normal"/>
    <path d="m450 700-50-50 50-50 50 50z" fill="#7693b2" opacity=".65294" stroke="#7693b2" style="paint-order:normal"/>
    <path d="m450 800-50-50 50-50 50 50z" fill="#7893b2" opacity=".65294" stroke="#7893b2" style="paint-order:normal"/>
    <path d="m550 100-50-50 50-50 50 50z" fill="#62748d" opacity=".65294" stroke="#62748d" style="paint-order:normal"/>
    <path d="m550 200-50-50 50-50 50 50z" fill="#687c96" opacity=".65294" stroke="#687c96" style="paint-order:normal"/>
    <path d="m550 300-50-50 50-50 50 50z" fill="#6e839e" opacity=".65294" stroke="#6e839e" style="paint-order:normal"/>
    <path d="m550 400-50-50 50-50 50 50z" fill="#7488a4" opacity=".65294" stroke="#7488a4" style="paint-order:normal"/>
    <path d="m550 500-50-50 50-50 50 50z" fill="#7a8ca8" opacity=".65294" stroke="#7a8ca8" style="paint-order:normal"/>
    <path d="m550 600-50-50 50-50 50 50z" fill="#818ca8" opacity=".65294" stroke="#818ca8" style="paint-order:normal"/>
    <path d="m550 700-50-50 50-50 50 50z" fill="#848ba7" opacity=".65294" stroke="#848ba7" style="paint-order:normal"/>
    <path d="m550 800-50-50 50-50 50 50z" fill="#818eaa" opacity=".65294" stroke="#818eaa" style="paint-order:normal"/>
    <path d="m650 100-50-50 50-50 50 50z" fill="#6f778f" opacity=".65294" stroke="#6f778f" style="paint-order:normal"/>
    <path d="m650 200-50-50 50-50 50 50z" fill="#767d96" opacity=".65294" stroke="#767d96" style="paint-order:normal"/>
    <path d="m650 300-50-50 50-50 50 50z" fill="#7d829c" opacity=".65294" stroke="#7d829c" style="paint-order:normal"/>
    <path d="m650 400-50-50 50-50 50 50z" fill="#84859f" opacity=".65294" stroke="#84859f" style="paint-order:normal"/>
    <path d="m650 500-50-50 50-50 50 50z" fill="#8b859f" opacity=".65294" stroke="#8b859f" style="paint-order:normal"/>
    <path d="m650 600-50-50 50-50 50 50z" fill="#91849d" opacity=".65294" stroke="#91849d" style="paint-order:normal"/>
    <path d="m650 700-50-50 50-50 50 50z" fill="#8e869f" opacity=".65294" stroke="#8e869f" style="paint-order:normal"/>
    <path d="m650 800-50-50 50-50 50 50z" fill="#8a88a3" opacity=".65294" stroke="#8a88a3" style="paint-order:normal"/>
    <path d="m750 100-50-50 50-50 50 50z" fill="#7e778f" opacity=".65294" stroke="#7e778f" style="paint-order:normal"/>
    <path d="m750 200-50-50 50-50 50 50z" fill="#867b93" opacity=".65294" stroke="#867b93" style="paint-order:normal"/>
    <path d="m750 300-50-50 50-50 50 50z" fill="#8d7e96" opacity=".65294" stroke="#8d7e96" style="paint-order:normal"/>
    <path d="m750 400-50-50 50-50 50 50z" fill="#957e96" opacity=".65294" stroke="#957e96" style="paint-order:normal"/>
    <path d="m750 500-50-50 50-50 50 50z" fill="#9d7c93" opacity=".65294" stroke="#9d7c93" style="paint-order:normal"/>
    <path d="m750 600-50-50 50-50 50 50z" fill="#9c7d94" opacity=".65294" stroke="#9c7d94" style="paint-order:normal"/>
    <path d="m750 700-50-50 50-50 50 50z" fill="#978098" opacity=".65294" stroke="#978098" style="paint-order:normal"/>
    <path d="m750 800-50-50 50-50 50 50z" fill="#93839b" opacity=".65294" stroke="#93839b" style="paint-order:normal"/>
    <path d="m850 100-50-50 50-50 50 50z" fill="#8e758b" opacity=".65294" stroke="#8e758b" style="paint-order:normal"/>
    <path d="m850 200-50-50 50-50 50 50z" fill="#97778d" opacity=".65294" stroke="#97778d" style="paint-order:normal"/>
    <path d="m850 300-50-50 50-50 50 50z" fill="#9f778d" opacity=".65294" stroke="#9f778d" style="paint-order:normal"/>
    <path d="m850 400-50-50 50-50 50 50z" fill="#a8758a" opacity=".65294" stroke="#a8758a" style="paint-order:normal"/>
    <path d="m850 500-50-50 50-50 50 50z" fill="#aa7489" opacity=".65294" stroke="#aa7489" style="paint-order:normal"/>
    <path d="m850 600-50-50 50-50 50 50z" fill="#a5778d" opacity=".65294" stroke="#a5778d" style="paint-order:normal"/>
    <path d="m850 700-50-50 50-50 50 50z" fill="#a07a91" opacity=".65294" stroke="#a07a91" style="paint-order:normal"/>
    <path d="m850 800-50-50 50-50 50 50z" fill="#9b7e95" opacity=".65294" stroke="#9b7e95" style="paint-order:normal"/>
    <path d="m950 100-50-50 50-50 50 50z" fill="#a07184" opacity=".65294" stroke="#a07184" style="paint-order:normal"/>
    <path d="m950 200-50-50 50-50 50 50z" fill="#a97184" opacity=".65294" stroke="#a97184" style="paint-order:normal"/>
    <path d="m950 300-50-50 50-50 50 50z" fill="#b26e81" opacity=".65294" stroke="#b26e81" style="paint-order:normal"/>
    <path d="m950 400-50-50 50-50 50 50z" fill="#b86c7e" opacity=".65294" stroke="#b86c7e" style="paint-order:normal"/>
    <path d="m950 500-50-50 50-50 50 50z" fill="#b36f81" opacity=".65294" stroke="#b36f81" style="paint-order:normal"/>
    <path d="m950 600-50-50 50-50 50 50z" fill="#ad7286" opacity=".65294" stroke="#ad7286" style="paint-order:normal"/>
    <path d="m950 700-50-50 50-50 50 50z" fill="#a4788d" opacity=".65294" stroke="#a4788d" style="paint-order:normal"/>
    <path d="m950 800-50-50 50-50 50 50z" fill="#9c7d94" opacity=".65294" stroke="#9c7d94" style="paint-order:normal"/>
    <path d="m1050 100-50-50 50-50l50 50z" fill="#b36a7b" opacity=".65294" stroke="#b36a7b" style="paint-order:normal"/>
    <path d="m1050 200-50-50 50-50 50 50z" fill="#bd6878" opacity=".65294" stroke="#bd6878" style="paint-order:normal"/>
    <path d="m1050 300-50-50 50-50 50 50z" fill="#c46574" opacity=".65294" stroke="#c46574" style="paint-order:normal"/>
    <path d="m1050 400-50-50 50-50 50 50z" fill="#c16776" opacity=".65294" stroke="#c16776" style="paint-order:normal"/>
    <path d="m1050 500-50-50 50-50 50 50z" fill="#b96c7d" opacity=".65294" stroke="#b96c7d" style="paint-order:normal"/>
    <path d="m1050 600-50-50l50-50 50 50z" fill="#ae7285" opacity=".65294" stroke="#ae7285" style="paint-order:normal"/>
    <path d="m1050 700-50-50 50-50 50 50z" fill="#a4788e" opacity=".65294" stroke="#a4788e" style="paint-order:normal"/>
    <path d="m1050 800-50-50 50-50 50 50z" fill="#9b7e95" opacity=".65294" stroke="#9b7e95" style="paint-order:normal"/>
    <path d="m1150 100-50-50 50-50l50 50z" fill="#c7616f" opacity=".65294" stroke="#c7616f" style="paint-order:normal"/>
    <path d="m1150 200-50-50 50-50 50 50z" fill="#cf5e6a" opacity=".65294" stroke="#cf5e6a" style="paint-order:normal"/>
    <path d="m1150 300-50-50 50-50 50 50z" fill="#cd5f6d" opacity=".65294" stroke="#cd5f6d" style="paint-order:normal"/>
    <path d="m1150 400-50-50 50-50 50 50z" fill="#c26675" opacity=".65294" stroke="#c26675" style="paint-order:normal"/>
    <path d="m1150 500-50-50 50-50 50 50z" fill="#b86c7e" opacity=".65294" stroke="#b86c7e" style="paint-order:normal"/>
    <path d="m1150 600-50-50 50-50 50 50z" fill="#ad7386" opacity=".65294" stroke="#ad7386" style="paint-order:normal"/>
    <path d="m1150 700-50-50 50-50 50 50z" fill="#a3798f" opacity=".65294" stroke="#a3798f" style="paint-order:normal"/>
    <path d="m1150 800-50-50 50-50 50 50z" fill="#9b7e95" opacity=".65294" stroke="#9b7e95" style="paint-order:normal"/>
    <path d="m1250 100-50-50 50-50l50 50z" fill="#d85863" opacity=".65294" stroke="#d85863" style="paint-order:normal"/>
    <path d="m1250 200-50-50 50-50 50 50z" fill="#d75a65" opacity=".65294" stroke="#d75a65" style="paint-order:normal"/>
    <path d="m1250 300-50-50 50-50 50 50z" fill="#cc606e" opacity=".65294" stroke="#cc606e" style="paint-order:normal"/>
    <path d="m1250 400-50-50 50-50 50 50z" fill="#c16676" opacity=".65294" stroke="#c16676" style="paint-order:normal"/>
    <path d="m1250 500-50-50 50-50 50 50z" fill="#b66d7f" opacity=".65294" stroke="#b66d7f" style="paint-order:normal"/>
    <path d="m1250 600-50-50 50-50 50 50z" fill="#ac7387" opacity=".65294" stroke="#ac7387" style="paint-order:normal"/>
    <path d="m1250 700-50-50 50-50 50 50z" fill="#a2798f" opacity=".65294" stroke="#a2798f" style="paint-order:normal"/>
    <path d="m1250 800-50-50 50-50 50 50z" fill="#9a7e96" opacity=".65294" stroke="#9a7e96" style="paint-order:normal"/>
    <path d="m1350 100-50-50 50-50l50 50z" fill="#df545e" opacity=".65294" stroke="#df545e" style="paint-order:normal"/>
    <path d="m1350 200-50-50 50-50 50 50z" fill="#d65a66" opacity=".65294" stroke="#d65a66" style="paint-order:normal"/>
    <path d="m1350 300-50-50 50-50 50 50z" fill="#cb616e" opacity=".65294" stroke="#cb616e" style="paint-order:normal"/>
    <path d="m1350 400-50-50 50-50 50 50z" fill="#c06877" opacity=".65294" stroke="#c06877" style="paint-order:normal"/>
    <path d="m1350 500-50-50 50-50 50 50z" fill="#b56e80" opacity=".65294" stroke="#b56e80" style="paint-order:normal"/>
    <path d="m1350 600-50-50 50-50 50 50z" fill="#ab7488" opacity=".65294" stroke="#ab7488" style="paint-order:normal"/>
    <path d="m1350 700-50-50 50-50 50 50z" fill="#a17a90" opacity=".65294" stroke="#a17a90" style="paint-order:normal"/>
    <path d="m1350 800-50-50 50-50 50 50z" fill="#997f96" opacity=".65294" stroke="#997f96" style="paint-order:normal"/>
    <path d="m0 50-50-50 50-50 50 50z" fill="#3c4b5c" opacity=".65294" stroke="#3c4b5c" style="paint-order:normal"/>
    <path d="m0 150-50-50 50-50 50 50z" fill="#3e5366" opacity=".65294" stroke="#3e5366" style="paint-order:normal"/>
    <path d="m0 250-50-50 50-50 50 50z" fill="#415f74" opacity=".65294" stroke="#415f74" style="paint-order:normal"/>
    <path d="m0 350-50-50 50-50 50 50z" fill="#436b84" opacity=".65294" stroke="#436b84" style="paint-order:normal"/>
    <path d="m0 450-50-50 50-50 50 50z" fill="#457a95" opacity=".65294" stroke="#457a95" style="paint-order:normal"/>
    <path d="m0 550-50-50 50-50 50 50z" fill="#4785a3" opacity=".65294" stroke="#4785a3" style="paint-order:normal"/>
    <path d="m0 650-50-50 50-50 50 50z" fill="#488dad" opacity=".65294" stroke="#488dad" style="paint-order:normal"/>
    <path d="m0 750-50-50 50-50 50 50z" fill="#4890b1" opacity=".65294" stroke="#4890b1" style="paint-order:normal"/>
    <path d="m0 850-50-50 50-50 50 50z" fill="#478fb0" opacity=".65294" stroke="#478fb0" style="paint-order:normal"/>
    <path d="m100 50-50-50 50-50 50 50z" fill="#3f5264" opacity=".65294" stroke="#3f5264" style="paint-order:normal"/>
    <path d="m100 150-50-50 50-50 50 50z" fill="#415a6e" opacity=".65294" stroke="#415a6e" style="paint-order:normal"/>
    <path d="m100 250-50-50 50-50 50 50z" fill="#44657c" opacity=".65294" stroke="#44657c" style="paint-order:normal"/>
    <path d="m100 350-50-50 50-50 50 50z" fill="#46708a" opacity=".65294" stroke="#46708a" style="paint-order:normal"/>
    <path d="m100 450-50-50 50-50 50 50z" fill="#487d99" opacity=".65294" stroke="#487d99" style="paint-order:normal"/>
    <path d="m100 550-50-50 50-50 50 50z" fill="#4a89a8" opacity=".65294" stroke="#4a89a8" style="paint-order:normal"/>
    <path d="m100 650-50-50 50-50 50 50z" fill="#4b92b3" opacity=".65294" stroke="#4b92b3" style="paint-order:normal"/>
    <path d="m100 750-50-50 50-50 50 50z" fill="#4a97b8" opacity=".65294" stroke="#4a97b8" style="paint-order:normal"/>
    <path d="m100 850-50-50 50-50 50 50z" fill="#4a97b9" opacity=".65294" stroke="#4a97b9" style="paint-order:normal"/>
    <path d="m200 50-50-50l50-50 50 50z" fill="#435a6f" opacity=".65294" stroke="#435a6f" style="paint-order:normal"/>
    <path d="m200 150-50-50 50-50 50 50z" fill="#466379" opacity=".65294" stroke="#466379" style="paint-order:normal"/>
    <path d="m200 250-50-50 50-50 50 50z" fill="#496e86" opacity=".65294" stroke="#496e86" style="paint-order:normal"/>
    <path d="m200 350-50-50 50-50 50 50z" fill="#4c7893" opacity=".65294" stroke="#4c7893" style="paint-order:normal"/>
    <path d="m200 450-50-50 50-50 50 50z" fill="#4f829f" opacity=".65294" stroke="#4f829f" style="paint-order:normal"/>
    <path d="m200 550-50-50 50-50 50 50z" fill="#508dac" opacity=".65294" stroke="#508dac" style="paint-order:normal"/>
    <path d="m200 650-50-50 50-50 50 50z" fill="#5197b9" opacity=".65294" stroke="#5197b9" style="paint-order:normal"/>
    <path d="m200 750-50-50 50-50 50 50z" fill="#519dc0" opacity=".65294" stroke="#519dc0" style="paint-order:normal"/>
    <path d="m200 850-50-50 50-50 50 50z" fill="#509ec1" opacity=".65294" stroke="#509ec1" style="paint-order:normal"/>
    <path d="m300 50-50-50l50-50 50 50z" fill="#4a6379" opacity=".65294" stroke="#4a6379" style="paint-order:normal"/>
    <path d="m300 150-50-50 50-50 50 50z" fill="#4d6b83" opacity=".65294" stroke="#4d6b83" style="paint-order:normal"/>
    <path d="m300 250-50-50 50-50 50 50z" fill="#51758f" opacity=".65294" stroke="#51758f" style="paint-order:normal"/>
    <path d="m300 350-50-50 50-50 50 50z" fill="#547f9b" opacity=".65294" stroke="#547f9b" style="paint-order:normal"/>
    <path d="m300 450-50-50 50-50 50 50z" fill="#5788a6" opacity=".65294" stroke="#5788a6" style="paint-order:normal"/>
    <path d="m300 550-50-50 50-50 50 50z" fill="#5a90b0" opacity=".65294" stroke="#5a90b0" style="paint-order:normal"/>
    <path d="m300 650-50-50 50-50 50 50z" fill="#5c98b9" opacity=".65294" stroke="#5c98b9" style="paint-order:normal"/>
    <path d="m300 750-50-50 50-50 50 50z" fill="#5d9ec1" opacity=".65294" stroke="#5d9ec1" style="paint-order:normal"/>
    <path d="m300 850-50-50 50-50 50 50z" fill="#5b9fc2" opacity=".65294" stroke="#5b9fc2" style="paint-order:normal"/>
    <path d="m400 50-50-50l50-50 50 50z" fill="#526a81" opacity=".65294" stroke="#526a81" style="paint-order:normal"/>
    <path d="m400 150-50-50 50-50 50 50z" fill="#55728a" opacity=".65294" stroke="#55728a" style="paint-order:normal"/>
    <path d="m400 250-50-50 50-50 50 50z" fill="#5a7b96" opacity=".65294" stroke="#5a7b96" style="paint-order:normal"/>
    <path d="m400 350-50-50 50-50 50 50z" fill="#5e84a0" opacity=".65294" stroke="#5e84a0" style="paint-order:normal"/>
    <path d="m400 450-50-50 50-50 50 50z" fill="#628ba9" opacity=".65294" stroke="#628ba9" style="paint-order:normal"/>
    <path d="m400 550-50-50 50-50 50 50z" fill="#6692b1" opacity=".65294" stroke="#6692b1" style="paint-order:normal"/>
    <path d="m400 650-50-50 50-50 50 50z" fill="#6b96b6" opacity=".65294" stroke="#6b96b6" style="paint-order:normal"/>
    <path d="m400 750-50-50 50-50 50 50z" fill="#7097b7" opacity=".65294" stroke="#7097b7" style="paint-order:normal"/>
    <path d="m400 850-50-50 50-50 50 50z" fill="#6f98b8" opacity=".65294" stroke="#6f98b8" style="paint-order:normal"/>
    <path d="m500 50-50-50l50-50 50 50z" fill="#5b7088" opacity=".65294" stroke="#5b7088" style="paint-order:normal"/>
    <path d="m500 150-50-50 50-50 50 50z" fill="#607790" opacity=".65294" stroke="#607790" style="paint-order:normal"/>
    <path d="m500 250-50-50 50-50 50 50z" fill="#657f9a" opacity=".65294" stroke="#657f9a" style="paint-order:normal"/>
    <path d="m500 350-50-50 50-50 50 50z" fill="#6a86a2" opacity=".65294" stroke="#6a86a2" style="paint-order:normal"/>
    <path d="m500 450-50-50 50-50 50 50z" fill="#6f8ba8" opacity=".65294" stroke="#6f8ba8" style="paint-order:normal"/>
    <path d="m500 550-50-50 50-50 50 50z" fill="#758fad" opacity=".65294" stroke="#758fad" style="paint-order:normal"/>
    <path d="m500 650-50-50 50-50 50 50z" fill="#7b90ad" opacity=".65294" stroke="#7b90ad" style="paint-order:normal"/>
    <path d="m500 750-50-50 50-50 50 50z" fill="#7e8fad" opacity=".65294" stroke="#7e8fad" style="paint-order:normal"/>
    <path d="m500 850-50-50 50-50 50 50z" fill="#7b91af" opacity=".65294" stroke="#7b91af" style="paint-order:normal"/>
    <path d="m600 50-50-50l50-50 50 50z" fill="#67748c" opacity=".65294" stroke="#67748c" style="paint-order:normal"/>
    <path d="m600 150-50-50 50-50 50 50z" fill="#6c7a93" opacity=".65294" stroke="#6c7a93" style="paint-order:normal"/>
    <path d="m600 250-50-50 50-50 50 50z" fill="#72809a" opacity=".65294" stroke="#72809a" style="paint-order:normal"/>
    <path d="m600 350-50-50 50-50 50 50z" fill="#7885a0" opacity=".65294" stroke="#7885a0" style="paint-order:normal"/>
    <path d="m600 450-50-50 50-50 50 50z" fill="#7f88a4" opacity=".65294" stroke="#7f88a4" style="paint-order:normal"/>
    <path d="m600 550-50-50 50-50 50 50z" fill="#8689a4" opacity=".65294" stroke="#8689a4" style="paint-order:normal"/>
    <path d="m600 650-50-50 50-50 50 50z" fill="#8b87a2" opacity=".65294" stroke="#8b87a2" style="paint-order:normal"/>
    <path d="m600 750-50-50 50-50 50 50z" fill="#878aa5" opacity=".65294" stroke="#878aa5" style="paint-order:normal"/>
    <path d="m600 850-50-50 50-50 50 50z" fill="#848ca8" opacity=".65294" stroke="#848ca8" style="paint-order:normal"/>
    <path d="m700 50-50-50l50-50 50 50z" fill="#75768e" opacity=".65294" stroke="#75768e" style="paint-order:normal"/>
    <path d="m700 150-50-50 50-50 50 50z" fill="#7a7a93" opacity=".65294" stroke="#7a7a93" style="paint-order:normal"/>
    <path d="m700 250-50-50 50-50 50 50z" fill="#817f98" opacity=".65294" stroke="#817f98" style="paint-order:normal"/>
    <path d="m700 350-50-50 50-50 50 50z" fill="#89819a" opacity=".65294" stroke="#89819a" style="paint-order:normal"/>
    <path d="m700 450-50-50 50-50 50 50z" fill="#90829b" opacity=".65294" stroke="#90829b" style="paint-order:normal"/>
    <path d="m700 550-50-50 50-50 50 50z" fill="#978098" opacity=".65294" stroke="#978098" style="paint-order:normal"/>
    <path d="m700 650-50-50 50-50 50 50z" fill="#95819a" opacity=".65294" stroke="#95819a" style="paint-order:normal"/>
    <path d="m700 750-50-50 50-50 50 50z" fill="#90849e" opacity=".65294" stroke="#90849e" style="paint-order:normal"/>
    <path d="m700 850-50-50 50-50 50 50z" fill="#8d86a0" opacity=".65294" stroke="#8d86a0" style="paint-order:normal"/>
    <path d="m800 50-50-50l50-50 50 50z" fill="#84758c" opacity=".65294" stroke="#84758c" style="paint-order:normal"/>
    <path d="m800 150-50-50 50-50 50 50z" fill="#8a788f" opacity=".65294" stroke="#8a788f" style="paint-order:normal"/>
    <path d="m800 250-50-50 50-50 50 50z" fill="#927b92" opacity=".65294" stroke="#927b92" style="paint-order:normal"/>
    <path d="m800 350-50-50 50-50 50 50z" fill="#9a7b91" opacity=".65294" stroke="#9a7b91" style="paint-order:normal"/>
    <path d="m800 450-50-50 50-50 50 50z" fill="#a3788e" opacity=".65294" stroke="#a3788e" style="paint-order:normal"/>
    <path d="m800 550-50-50 50-50 50 50z" fill="#a3798e" opacity=".65294" stroke="#a3798e" style="paint-order:normal"/>
    <path d="m800 650-50-50 50-50 50 50z" fill="#9e7c92" opacity=".65294" stroke="#9e7c92" style="paint-order:normal"/>
    <path d="m800 750-50-50 50-50 50 50z" fill="#997f96" opacity=".65294" stroke="#997f96" style="paint-order:normal"/>
    <path d="m800 850-50-50 50-50 50 50z" fill="#968199" opacity=".65294" stroke="#968199" style="paint-order:normal"/>
    <path d="m900 50-50-50l50-50 50 50z" fill="#957388" opacity=".65294" stroke="#957388" style="paint-order:normal"/>
    <path d="m900 150-50-50 50-50 50 50z" fill="#9c7489" opacity=".65294" stroke="#9c7489" style="paint-order:normal"/>
    <path d="m900 250-50-50 50-50 50 50z" fill="#a47488" opacity=".65294" stroke="#a47488" style="paint-order:normal"/>
    <path d="m900 350-50-50 50-50 50 50z" fill="#ad7285" opacity=".65294" stroke="#ad7285" style="paint-order:normal"/>
    <path d="m900 450-50-50 50-50 50 50z" fill="#b17083" opacity=".65294" stroke="#b17083" style="paint-order:normal"/>
    <path d="m900 550-50-50 50-50 50 50z" fill="#ac7387" opacity=".65294" stroke="#ac7387" style="paint-order:normal"/>
    <path d="m900 650-50-50 50-50 50 50z" fill="#a7768b" opacity=".65294" stroke="#a7768b" style="paint-order:normal"/>
    <path d="m900 750-50-50 50-50 50 50z" fill="#9f7b91" opacity=".65294" stroke="#9f7b91" style="paint-order:normal"/>
    <path d="m900 850-50-50 50-50 50 50z" fill="#997f96" opacity=".65294" stroke="#997f96" style="paint-order:normal"/>
    <path d="m1e3 50-50-50 50-50 50 50z" fill="#a76d80" opacity=".65294" stroke="#a76d80" style="paint-order:normal"/>
    <path d="m1e3 150-50-50 50-50 50 50z" fill="#ae6d7f" opacity=".65294" stroke="#ae6d7f" style="paint-order:normal"/>
    <path d="m1e3 250-50-50 50-50 50 50z" fill="#b86b7c" opacity=".65294" stroke="#b86b7c" style="paint-order:normal"/>
    <path d="m1e3 350-50-50 50-50 50 50z" fill="#be6878" opacity=".65294" stroke="#be6878" style="paint-order:normal"/>
    <path d="m1e3 450-50-50 50-50 50 50z" fill="#ba6b7b" opacity=".65294" stroke="#ba6b7b" style="paint-order:normal"/>
    <path d="m1e3 550-50-50 50-50 50 50z" fill="#b36f81" opacity=".65294" stroke="#b36f81" style="paint-order:normal"/>
    <path d="m1e3 650-50-50 50-50 50 50z" fill="#a97589" opacity=".65294" stroke="#a97589" style="paint-order:normal"/>
    <path d="m1e3 750-50-50 50-50 50 50z" fill="#9f7b92" opacity=".65294" stroke="#9f7b92" style="paint-order:normal"/>
    <path d="m1e3 850-50-50 50-50 50 50z" fill="#997f97" opacity=".65294" stroke="#997f97" style="paint-order:normal"/>
    <path d="m1100 50-50-50l50-50 50 50z" fill="#ba6676" opacity=".65294" stroke="#ba6676" style="paint-order:normal"/>
    <path d="m1100 150-50-50 50-50 50 50z" fill="#c26473" opacity=".65294" stroke="#c26473" style="paint-order:normal"/>
    <path d="m1100 250-50-50 50-50 50 50z" fill="#ca616e" opacity=".65294" stroke="#ca616e" style="paint-order:normal"/>
    <path d="m1100 350-50-50 50-50 50 50z" fill="#c76371" opacity=".65294" stroke="#c76371" style="paint-order:normal"/>
    <path d="m1100 450-50-50 50-50 50 50z" fill="#be6979" opacity=".65294" stroke="#be6979" style="paint-order:normal"/>
    <path d="m1100 550-50-50 50-50 50 50z" fill="#b36f82" opacity=".65294" stroke="#b36f82" style="paint-order:normal"/>
    <path d="m1100 650-50-50 50-50 50 50z" fill="#a8768a" opacity=".65294" stroke="#a8768a" style="paint-order:normal"/>
    <path d="m1100 750-50-50 50-50 50 50z" fill="#9e7c92" opacity=".65294" stroke="#9e7c92" style="paint-order:normal"/>
    <path d="m1100 850-50-50 50-50 50 50z" fill="#987f97" opacity=".65294" stroke="#987f97" style="paint-order:normal"/>
    <path d="m1200 50-50-50l50-50 50 50z" fill="#ce5d69" opacity=".65294" stroke="#ce5d69" style="paint-order:normal"/>
    <path d="m1200 150-50-50 50-50 50 50z" fill="#d45b66" opacity=".65294" stroke="#d45b66" style="paint-order:normal"/>
    <path d="m1200 250-50-50 50-50 50 50z" fill="#d25c69" opacity=".65294" stroke="#d25c69" style="paint-order:normal"/>
    <path d="m1200 350-50-50 50-50 50 50z" fill="#c76371" opacity=".65294" stroke="#c76371" style="paint-order:normal"/>
    <path d="m1200 450-50-50 50-50 50 50z" fill="#bc697a" opacity=".65294" stroke="#bc697a" style="paint-order:normal"/>
    <path d="m1200 550-50-50 50-50 50 50z" fill="#b27082" opacity=".65294" stroke="#b27082" style="paint-order:normal"/>
    <path d="m1200 650-50-50 50-50 50 50z" fill="#a7768b" opacity=".65294" stroke="#a7768b" style="paint-order:normal"/>
    <path d="m1200 750-50-50 50-50 50 50z" fill="#9d7c93" opacity=".65294" stroke="#9d7c93" style="paint-order:normal"/>
    <path d="m1200 850-50-50 50-50 50 50z" fill="#987f97" opacity=".65294" stroke="#987f97" style="paint-order:normal"/>
    <path d="m1300 50-50-50l50-50 50 50z" fill="#dd555f" opacity=".65294" stroke="#dd555f" style="paint-order:normal"/>
    <path d="m1300 150-50-50 50-50 50 50z" fill="#db5761" opacity=".65294" stroke="#db5761" style="paint-order:normal"/>
    <path d="m1300 250-50-50 50-50 50 50z" fill="#d15d6a" opacity=".65294" stroke="#d15d6a" style="paint-order:normal"/>
    <path d="m1300 350-50-50 50-50 50 50z" fill="#c66472" opacity=".65294" stroke="#c66472" style="paint-order:normal"/>
    <path d="m1300 450-50-50 50-50 50 50z" fill="#bb6a7b" opacity=".65294" stroke="#bb6a7b" style="paint-order:normal"/>
    <path d="m1300 550-50-50 50-50 50 50z" fill="#b17083" opacity=".65294" stroke="#b17083" style="paint-order:normal"/>
    <path d="m1300 650-50-50 50-50 50 50z" fill="#a6778c" opacity=".65294" stroke="#a6778c" style="paint-order:normal"/>
    <path d="m1300 750-50-50 50-50 50 50z" fill="#9d7d93" opacity=".65294" stroke="#9d7d93" style="paint-order:normal"/>
    <path d="m1300 850-50-50 50-50 50 50z" fill="#978098" opacity=".65294" stroke="#978098" style="paint-order:normal"/>
    <path d="m1400 50-50-50l50-50 50 50z" fill="#e1525c" opacity=".65294" stroke="#e1525c" style="paint-order:normal"/>
    <path d="m1400 150-50-50 50-50 50 50z" fill="#da5761" opacity=".65294" stroke="#da5761" style="paint-order:normal"/>
    <path d="m1400 250-50-50 50-50 50 50z" fill="#d05e6a" opacity=".65294" stroke="#d05e6a" style="paint-order:normal"/>
    <path d="m1400 350-50-50 50-50 50 50z" fill="#c56473" opacity=".65294" stroke="#c56473" style="paint-order:normal"/>
    <path d="m1400 450-50-50 50-50 50 50z" fill="#ba6b7c" opacity=".65294" stroke="#ba6b7c" style="paint-order:normal"/>
    <path d="m1400 550-50-50 50-50 50 50z" fill="#b07184" opacity=".65294" stroke="#b07184" style="paint-order:normal"/>
    <path d="m1400 650-50-50 50-50 50 50z" fill="#a6778c" opacity=".65294" stroke="#a6778c" style="paint-order:normal"/>
    <path d="m1400 750-50-50 50-50 50 50z" fill="#9c7d94" opacity=".65294" stroke="#9c7d94" style="paint-order:normal"/>
    <path d="m1400 850-50-50 50-50 50 50z" fill="#978099" opacity=".65294" stroke="#978099" style="paint-order:normal"/>
  </g>
  <g transform="translate(0,1e-4)" fill="#fff" stroke-width=".26458">
    <path d="m932.71 729.44q-1.9352 0.48382-5.1402 1.0281-3.1446 0.54425-7.3172 0.54425-3.6284 0-6.1077-1.028-2.4794-1.0885-3.9912-3.0236-1.5118-1.9352-2.177-4.5377-0.6652-2.6608-0.6652-5.8658v-17.658h5.624v16.448q0 5.7448 1.8142 8.2242t6.1077 2.4794q0.90708 0 1.8747-0.0605 0.96756-0.0605 1.8142-0.12094 0.84662-0.12094 1.5118-0.18142 0.7257-0.12094 1.0281-0.24189v-26.547h5.624v30.539z"/>
    <path d="m948.02 700.27q1.0281-0.66519 3.0841-1.3909 2.1165-0.72566 4.8378-0.72566 3.3865 0 5.9868 1.2094 2.6608 1.2094 4.475 3.3865 1.8142 2.177 2.7213 5.2006 0.96756 3.0236 0.96756 6.6519 0 3.8097-1.149 6.8938-1.0885 3.0236-3.1446 5.1401t-4.9588 3.2655-6.531 1.149q-3.9307 0-6.9544-0.54425t-4.9588-1.0885v-45.052l5.624-0.96756v16.872zm0 25.157q0.84665 0.24189 2.3585 0.48377 1.5723 0.18142 3.8702 0.18142 4.5354 0 7.2567-2.9632 2.7213-3.0236 2.7213-8.5266 0-2.4189-0.48378-4.5354t-1.5723-3.6284q-1.0885-1.5723-2.8422-2.4189-1.6933-0.90709-4.1121-0.90709-2.298 0-4.2331 0.78614t-2.9632 1.6328z"/>
    <path d="m1003.1 729.44q-1.9351 0.48382-5.1402 1.0281-3.1446 0.54425-7.3172 0.54425-3.6284 0-6.1077-1.028-2.4794-1.0885-3.9912-3.0236-1.5118-1.9352-2.177-4.5354-0.6652-2.6608-0.6652-5.8658v-17.658h5.624v16.448q0 5.7448 1.8142 8.2242t6.1077 2.4794q0.90708 0 1.8746-0.0605 0.96756-0.0605 1.8142-0.12094 0.84662-0.12095 1.5118-0.18142 0.72567-0.12094 1.028-0.24189v-26.548h5.6239z"/>
    <path d="m1012.8 699.81q1.9351-0.48377 5.1402-1.028 3.205-0.54425 7.3776-0.54425 3.7493 0 6.2287 1.0885 2.4794 1.028 3.9307 2.9632 1.5119 1.8746 2.1166 4.5354t0.6047 5.8658v17.658h-5.6239v-16.448q0-2.9027-0.4233-4.9587-0.3629-2.056-1.27-3.326-0.9071-1.2699-2.4189-1.8142-1.5118-0.60472-3.7494-0.60472-0.907 0-1.8746 0.0605t-1.8747 0.18142q-0.8466 0.0605-1.5723 0.18141-0.6652 0.12095-0.9675 0.18142v26.548h-5.624z"/>
    <path d="m1052.8 698.91h11.913v4.7168h-11.913v14.513q0 2.3584 0.3628 3.9307 0.3629 1.5118 1.0886 2.4189 0.7256 0.84661 1.8141 1.2094t2.5399 0.36283q2.5399 0 4.0517-0.54425 1.5723-0.60472 2.177-0.8466l1.0885 4.6564q-0.8466 0.4233-2.9632 1.028-2.1165 0.6652-4.8378 0.6652-3.205 0-5.3215-0.78614-2.0561-0.84661-3.326-2.4794-1.27-1.6327-1.8143-3.9912-0.4837-2.4189-0.4837-5.5634v-28.059l5.6239-0.96756z"/>
    <path d="m1096.9 729.44q-1.9352 0.48382-5.1402 1.0281-3.1446 0.54425-7.3172 0.54425-3.6284 0-6.1077-1.028-2.4794-1.0885-3.9912-3.0236-1.5119-1.9352-2.1771-4.5354-0.6651-2.6608-0.6651-5.8658v-17.658h5.6239v16.448q0 5.7448 1.8142 8.2242t6.1077 2.4794q0.9071 0 1.8747-0.0605t1.8142-0.12094q0.8466-0.12095 1.5118-0.18142 0.7257-0.12094 1.0281-0.24189v-26.548h5.6239z"/>
    <path d="m1140 718.6q0 6.1595-3.9326 8.9642-3.933 2.7776-11.219 2.7776h-13.042v-40.021h11.856q7.3448 0 10.584 2.1109 3.2676 2.082 3.2676 6.9978 0 4.0195-1.7928 6.1304-1.7639 2.1109-4.4243 2.9206 3.9617 0.54943 6.333 2.9206 2.3712 2.3711 2.3712 7.2003zm-7.9824-17.986q0-3.0652-1.9085-4.3086-1.9086-1.2723-6.7956-1.2723h-6.1595v11.913h5.8991q4.8004 0 6.8821-1.5326 2.0821-1.5326 2.0821-4.8004zm2.429 17.755q0-2.4868-0.9831-3.9039-0.9543-1.4458-2.9785-2.1109t-6.5352-0.66508h-6.7956v13.793h5.4365q5.0895 0 7.3738-0.66504 2.2845-0.69403 3.3833-2.2266 1.0989-1.5615 1.0989-4.2217z"/>
    <path d="m1167.1 730.35v-4.5108q-2.3134 2.3134-5.0896 3.8748-2.776 1.5326-5.4365 1.5326-3.0362 0-4.9447-1.1278-1.8796-1.1566-2.7471-3.4411-0.8386-2.3134-0.8386-6.3904v-20.27h4.9738v17.899q0 4.3374 0.4338 5.7834 0.4627 1.4458 1.4458 2.1109 0.9832 0.63617 2.8628 0.63617t4.424-1.4458q2.5447-1.4747 4.9156-3.5278v-21.456h4.9739v30.334h-4.9739z"/>
    <path d="m1201 730.35v-3.0073q-1.7061 1.6482-4.1061 2.776t-5.1182 1.1277q-5.4653 0-8.4439-4.1061-2.9784-4.1352-2.9784-11.711 0-7.4316 3.2386-11.856 3.2387-4.4243 8.9644-4.4243 4.5974 0 8.4438 3.3544v-15.21h5.0026v43.056h-5.0026zm0-23.509q-3.9617-3.2676-7.8078-3.2676-3.3833 0-5.5517 2.8628-2.1399 2.8338-2.1399 8.8773 0 11.48 7.2292 11.48 2.3712 0 4.5108-1.1856 2.1688-1.1856 3.7593-2.7182v-16.049z"/>
    <path d="m1240 729.67q0 6.1016-3.0363 9.0795-3.0073 3.0074-10.005 3.0074-6.6799 0-11.017-2.8338l1.8507-4.0195q3.9038 2.7182 9.1665 2.7182 4.2504 0 6.1304-1.7928 1.9085-1.7639 1.9085-5.8412v-3.5567q-1.7061 1.6483-4.0774 2.776-2.3647 1.1261-5.1424 1.1261-5.5809 0-8.5017-3.9617-2.9206-3.9904-2.9206-11.509 0-7.4026 3.2676-11.566t8.9356-4.1639q4.5974 0 8.4438 3.3544v-2.4868h5.0026v29.669zm-5.0003-22.846q-3.9617-3.2676-7.8078-3.2676-3.7882 0-5.7547 2.9495-1.9375 2.9495-1.9375 8.2412 0 5.8412 1.8218 8.5016 1.8218 2.6314 5.4074 2.6314 4.1639 0 8.2704-3.9039v-15.152z"/>
    <path d="m1255.7 692.33q0 1.735-0.7808 2.3712-0.7808 0.60729-2.4869 0.60729-1.8218 0-2.5157-0.78077-0.6941-0.78077-0.6941-2.1977 0-1.5326 0.7519-2.2266 0.7518-0.72291 2.4579-0.72291 1.764 0 2.5158 0.69399 0.7518 0.66508 0.7518 2.2555zm-5.7555 38.026v-30.334h4.9739v30.334z"/>
    <path d="m1268.3 715.76q0 6.0147 2.0531 8.5886 2.0531 2.5447 6.5934 2.5447 2.0242 0 3.5568-0.83855 1.5326-0.86751 2.9495-2.776l4.1061 2.5447q-1.735 2.6025-4.2217 4.0195-2.4869 1.388-6.7374 1.388-6.7669 0-10.121-3.9326-3.3255-3.9326-3.3255-11.885 0-8.3282 3.2387-12.29 3.2676-3.9904 9.8317-3.9904 5.8991 0 8.8487 3.4122 2.9495 3.3832 2.9495 10.439v2.776h-19.721zm14.863-3.9038q-0.058-4.0773-1.735-6.3329-1.6483-2.2555-5.3783-2.2555-3.5568 0-5.3495 2.0531-1.764 2.0242-2.3423 6.5352h14.806z"/>
    <path d="m1310.9 678.38a13.346 13.346 0 0 0 -13.346 13.346 13.346 13.346 0 0 0 13.346 13.346 13.346 13.346 0 0 0 13.346 -13.346 13.346 13.346 0 0 0 -13.346 -13.346zm3.5909 2.0079c0.4462-0.0113 0.8132 0.0438 1.2511 0.11641 1.6099 0.26456 3.2405 1.4407 4.2331 3.1555 1.3346 2.3134 1.0343 5.102-0.488 6.6625-0.7674 0.78405-0.9967 0.82574-1.4972 1.1631 0.3421-0.53673 0.4463-0.7457 0.4463-1.1903 0-0.27931-0.092-0.50755-0.1418-0.63598-0.192-0.49421-0.538-0.70023-0.9384-0.93837-0.4962-0.29292-1.0634-0.38162-1.4263-0.38121-0.2751 4.2e-4 -0.4212 8.4e-4 -0.7882 0.0934-1.735 0.43914-3.6325-0.2434-4.546-1.8292v2e-3c-1.0969-1.8955-0.4088-4.3411 1.5389-5.4644 0.5714-0.33108 1.247-0.64901 1.8726-0.72007 0.1708-0.0189 0.3296-0.0302 0.4796-0.034zm-10.326 4.4734c0.417-0.0151 0.8299 0.0302 1.2261 0.1304 1.0635 0.27099 1.2137 0.44915 1.7559 0.71398-0.634-0.0264-0.8675-0.0151-1.2512 0.20939-0.2419 0.1406-0.3962 0.33071-0.4838 0.43831-0.3296 0.41499-0.3379 0.81618-0.3421 1.2837 0 0.57426 0.2004 1.1127 0.3837 1.4238 0.1376 0.24151 0.2087 0.36548 0.4755 0.6364 1.247 1.2841 1.6056 3.2668 0.6881 4.8521v-2e-3c-1.0927 1.8955-3.5575 2.5232-5.5011 1.3984-0.5756-0.33108-1.1886-0.75526-1.5598-1.2616-0.4129-0.55763-0.588-0.98509-0.7966-1.5423-0.5755-1.5239-0.3711-3.5266 0.6173-5.2414 1.0885-1.8796 2.9819-2.9815 4.7879-3.0391zm11.323 9.1615v2e-3c2.1896 0 3.9663 1.8184 3.9621 4.0664 0 0.66229-0.058 1.4034-0.3129 1.981-0.2752 0.63602-0.5589 0.99927-0.9384 1.4597-1.0301 1.2595-2.8652 2.0853-4.8461 2.0853-2.6692 0-4.938-1.6532-5.5261-3.7535-0.2963-1.0551-0.2169-1.2745-0.2585-1.8768 0.2963 0.56303 0.4212 0.75862 0.8091 0.97968 0.2419 0.13947 0.4838 0.17726 0.6173 0.19805 0.5254 0.0794 0.8758-0.11603 1.2845-0.34545 0.5005-0.28157 0.8633-0.73107 1.0426-1.0426 0.1376-0.24189 0.2087-0.36624 0.313-0.72983 0.4879-1.7233 2.0269-3.0236 3.8578-3.0236z"/>
  </g>
</svg>
