<?xml version="1.0" encoding="UTF-8"?>
<svg version="1.1" viewBox="0 0 1366 768" xmlns="http://www.w3.org/2000/svg" xmlns:cc="http://creativecommons.org/ns#" xmlns:dc="http://purl.org/dc/elements/1.1/" xmlns:rdf="http://www.w3.org/1999/02/22-rdf-syntax-ns#">
  <defs>
    <filter id="filter24088" x="-.2744" y="-.41757" width="1.5488" height="1.8351" color-interpolation-filters="sRGB">
      <feGaussianBlur stdDeviation="24.473566"/>
    </filter>
    <filter id="filter24092" x="-.61302" y="-.588" width="2.226" height="2.176" color-interpolation-filters="sRGB">
      <feGaussianBlur stdDeviation="24.473566"/>
    </filter>
    <filter id="filter24096" x="-.61302" y="-.65482" width="2.226" height="2.3096" color-interpolation-filters="sRGB">
      <feGaussianBlur stdDeviation="24.473566"/>
    </filter>
    <filter id="filter24100" x="-.38935" y="-.48834" width="1.7787" height="1.9767" color-interpolation-filters="sRGB">
      <feGaussianBlur stdDeviation="24.473566"/>
    </filter>
    <filter id="filter24104" x="-.49676" y="-.48834" width="1.9935" height="1.9767" color-interpolation-filters="sRGB">
      <feGaussianBlur stdDeviation="24.473566"/>
    </filter>
    <filter id="filter24108" x="-.31662" y="-.39468" width="1.6332" height="1.7894" color-interpolation-filters="sRGB">
      <feGaussianBlur stdDeviation="24.473566"/>
    </filter>
    <filter id="filter24112" x="-.32373" y="-.29103" width="1.6475" height="1.5821" color-interpolation-filters="sRGB">
      <feGaussianBlur stdDeviation="24.473566"/>
    </filter>
    <filter id="filter24116" x="-.3318" y="-.51613" width="1.6636" height="2.0323" color-interpolation-filters="sRGB">
      <feGaussianBlur stdDeviation="24.473566"/>
    </filter>
    <filter id="filter24152" x="-.54859" y="-.88764" width="2.0972" height="2.7753" color-interpolation-filters="sRGB">
      <feGaussianBlur stdDeviation="53.500593"/>
    </filter>
    <clipPath id="clipPath24169">
      <rect x="589.07" y="151.64" width="463.35" height="260.51" fill="#f29312" style="paint-order:normal"/>
    </clipPath>
    <clipPath id="clipPath13742">
      <rect x="-2.0345e-6" y="1.5259e-6" width="361.42" height="203.2" fill="#666" style="paint-order:normal"/>
    </clipPath>
  </defs>
  <title>Suru Tesselation</title>
  <metadata>
    <rdf:RDF>
      <cc:Work rdf:about="">
        <dc:format>image/svg+xml</dc:format>
        <dc:type rdf:resource="http://purl.org/dc/dcmitype/StillImage"/>
        <dc:title>Suru Tesselation</dc:title>
        <cc:license rdf:resource="http://creativecommons.org/licenses/by-sa/4.0/"/>
        <dc:creator>
          <cc:Agent>
            <dc:title>Rania el-Amina</dc:title>
          </cc:Agent>
        </dc:creator>
        <dc:rights>
          <cc:Agent>
            <dc:title>Ubuntu Budgie</dc:title>
          </cc:Agent>
        </dc:rights>
        <dc:description>Suru Tesselation wallpaper for Ubuntu Budgie</dc:description>
        <dc:contributor>
          <cc:Agent>
            <dc:title>HEXcube</dc:title>
          </cc:Agent>
        </dc:contributor>
      </cc:Work>
      <cc:License rdf:about="http://creativecommons.org/licenses/by-sa/4.0/">
        <cc:permits rdf:resource="http://creativecommons.org/ns#Reproduction"/>
        <cc:permits rdf:resource="http://creativecommons.org/ns#Distribution"/>
        <cc:requires rdf:resource="http://creativecommons.org/ns#Notice"/>
        <cc:requires rdf:resource="http://creativecommons.org/ns#Attribution"/>
        <cc:permits rdf:resource="http://creativecommons.org/ns#DerivativeWorks"/>
        <cc:requires rdf:resource="http://creativecommons.org/ns#ShareAlike"/>
      </cc:License>
    </rdf:RDF>
  </metadata>
  <rect width="1366" height="768" fill="#77216f" style="paint-order:normal"/>
  <g transform="matrix(2.9481 0 0 2.9481 -1736.6 -447.04)" clip-path="url(#clipPath24169)" stroke-width=".3392">
    <ellipse transform="matrix(2.1173,0,0,2.1319,-934.77,-332.7)" cx="823.69" cy="250.11" rx="88.513" ry="56.901" fill="#6e3d62" filter="url(#filter24116)" style="paint-order:normal"/>
    <ellipse transform="matrix(2.1173,0,0,2.1319,-934.77,-332.7)" cx="904.13" cy="363.25" rx="90.718" ry="100.91" fill="#77216f" filter="url(#filter24112)" style="paint-order:normal"/>
    <ellipse transform="matrix(2.1173,0,0,2.1319,-934.77,-332.7)" cx="763.46" cy="314.33" rx="92.757" ry="74.409" fill="#5e2750" filter="url(#filter24108)" style="paint-order:normal"/>
    <ellipse transform="matrix(2.1173,0,0,2.1319,-934.77,-332.7)" cx="831.75" cy="412.18" rx="59.12" ry="60.139" fill="#2c001e" filter="url(#filter24104)" style="paint-order:normal"/>
    <ellipse transform="matrix(2.1173,0,0,2.1319,-934.77,-332.7)" cx="937.76" cy="236.86" rx="75.429" ry="60.139" fill="#aea79f" filter="url(#filter24100)" style="paint-order:normal"/>
    <ellipse transform="matrix(2.1173,0,0,2.1319,-934.77,-332.7)" cx="728.8" cy="221.57" rx="47.907" ry="44.85" fill="#333" filter="url(#filter24096)" style="paint-order:normal"/>
    <ellipse transform="matrix(2.1173,0,0,2.1319,-934.77,-332.7)" cx="863.35" cy="165.51" rx="47.907" ry="49.946" fill="#772953" filter="url(#filter24092)" style="paint-order:normal"/>
    <ellipse transform="matrix(2.1173,0,0,2.1319,-934.77,-332.7)" cx="840.93" cy="308.21" rx="107.03" ry="70.332" fill="#e05a2c" filter="url(#filter24088)" style="paint-order:normal"/>
    <ellipse transform="matrix(2.1173,0,0,1.2305,-934.77,-12.642)" cx="836.66" cy="355.1" rx="117.03" ry="72.327" fill="#85377d" filter="url(#filter24152)" style="paint-order:normal"/>
  </g>
  <g transform="scale(3.7795)" clip-path="url(#clipPath13742)">
    <path transform="matrix(1.6669,1.6669,-1.6669,1.6669,27.843,27.499)" d="m-4.6958 4.0713h-7.9365v-7.9365l7.9365-1e-7z" fill="#43313b" opacity=".77255" stroke-width=".26458" style="paint-order:normal"/>
    <path transform="matrix(1.6669,1.6669,-1.6669,1.6669,27.843,53.958)" d="m-4.6958 4.0713h-7.9365v-7.9365l7.9365-1e-7z" fill="#51313f" opacity=".7451" stroke-width=".26458" style="paint-order:normal"/>
    <path transform="matrix(1.6669,1.6669,-1.6669,1.6669,27.843,80.416)" d="m-4.6958 4.0713h-7.9365v-7.9365l7.9365-1e-7z" fill="#663244" opacity=".70196" stroke-width=".26458" style="paint-order:normal"/>
    <path transform="matrix(1.6669,1.6669,-1.6669,1.6669,27.843,106.87)" d="m-4.6958 4.0713h-7.9365v-7.9365l7.9365-1e-7z" fill="#793447" opacity=".66078" stroke-width=".26458" style="paint-order:normal"/>
    <path transform="matrix(1.6669,1.6669,-1.6669,1.6669,27.843,133.33)" d="m-4.6958 4.0713h-7.9365v-7.9365l7.9365-1e-7z" fill="#833649" opacity=".63725" stroke-width=".26458" style="paint-order:normal"/>
    <path transform="matrix(1.6669,1.6669,-1.6669,1.6669,27.843,159.79)" d="m-4.6958 4.0713h-7.9365v-7.9365l7.9365-1e-7z" fill="#85364f" opacity=".63333" stroke-width=".26458" style="paint-order:normal"/>
    <path transform="matrix(1.6669,1.6669,-1.6669,1.6669,27.843,186.25)" d="m-4.6958 4.0713h-7.9365v-7.9365l7.9365-1e-7z" fill="#813456" opacity=".6451" stroke-width=".26458" style="paint-order:normal"/>
    <path transform="matrix(1.6669,1.6669,-1.6669,1.6669,27.843,212.71)" d="m-4.6958 4.0713h-7.9365v-7.9365l7.9365-1e-7z" fill="#7c325c" opacity=".65882" stroke-width=".26458" style="paint-order:normal"/>
    <path transform="matrix(1.6669,1.6669,-1.6669,1.6669,54.301,27.499)" d="m-4.6958 4.0713h-7.9365v-7.9365l7.9365-1e-7z" fill="#4c333c" opacity=".75098" stroke-width=".26458" style="paint-order:normal"/>
    <path transform="matrix(1.6669,1.6669,-1.6669,1.6669,54.301,53.958)" d="m-4.6958 4.0713h-7.9365v-7.9365l7.9365-1e-7z" fill="#61363e" opacity=".70392" stroke-width=".26458" style="paint-order:normal"/>
    <path transform="matrix(1.6669,1.6669,-1.6669,1.6669,54.301,80.416)" d="m-4.6958 4.0713h-7.9365v-7.9365l7.9365-1e-7z" fill="#7d3a3f" opacity=".64118" stroke-width=".26458" style="paint-order:normal"/>
    <path transform="matrix(1.6669,1.6669,-1.6669,1.6669,54.301,106.87)" d="m-4.6958 4.0713h-7.9365v-7.9365l7.9365-1e-7z" fill="#943e41" opacity=".58824" stroke-width=".26458" style="paint-order:normal"/>
    <path transform="matrix(1.6669,1.6669,-1.6669,1.6669,54.301,133.33)" d="m-4.6958 4.0713h-7.9365v-7.9365l7.9365-1e-7z" fill="#9f4144" opacity=".56078" stroke-width=".26458" style="paint-order:normal"/>
    <path transform="matrix(1.6669,1.6669,-1.6669,1.6669,54.301,159.79)" d="m-4.6958 4.0713h-7.9365v-7.9365l7.9365-1e-7z" fill="#9d404c" opacity=".56667" stroke-width=".26458" style="paint-order:normal"/>
    <path transform="matrix(1.6669,1.6669,-1.6669,1.6669,54.301,186.25)" d="m-4.6958 4.0713h-7.9365v-7.9365l7.9365-1e-7z" fill="#933b55" opacity=".59608" stroke-width=".26458" style="paint-order:normal"/>
    <path transform="matrix(1.6669,1.6669,-1.6669,1.6669,54.301,212.71)" d="m-4.6958 4.0713h-7.9365v-7.9365l7.9365-1e-7z" fill="#89385c" opacity=".62157" stroke-width=".26458" style="paint-order:normal"/>
    <path transform="matrix(1.6669,1.6669,-1.6669,1.6669,80.76,27.499)" d="m-4.6958 4.0713h-7.9365v-7.9365l7.9365-1e-7z" fill="#5e3640" opacity=".7098" stroke-width=".26458" style="paint-order:normal"/>
    <path transform="matrix(1.6669,1.6669,-1.6669,1.6669,80.76,53.958)" d="m-4.6958 4.0713h-7.9365v-7.9365l7.9365-1e-7z" fill="#793b3e" opacity=".64706" stroke-width=".26458" style="paint-order:normal"/>
    <path transform="matrix(1.6669,1.6669,-1.6669,1.6669,80.76,80.416)" d="m-4.6958 4.0713h-7.9365v-7.9365l7.9365-1e-7z" fill="#99423b" opacity=".58431" stroke-width=".26458" style="paint-order:normal"/>
    <path transform="matrix(1.6669,1.6669,-1.6669,1.6669,80.76,106.87)" d="m-4.6958 4.0713h-7.9365v-7.9365l7.9365-1e-7z" fill="#af473b" opacity=".54118" stroke-width=".26458" style="paint-order:normal"/>
    <path transform="matrix(1.6669,1.6669,-1.6669,1.6669,80.76,133.33)" d="m-4.6958 4.0713h-7.9365v-7.9365l7.9365-1e-7z" fill="#b64940" opacity=".51765" stroke-width=".26458" style="paint-order:normal"/>
    <path transform="matrix(1.6669,1.6669,-1.6669,1.6669,80.76,159.79)" d="m-4.6958 4.0713h-7.9365v-7.9365l7.9365-1e-7z" fill="#b04749" opacity=".51569" stroke-width=".26458" style="paint-order:normal"/>
    <path transform="matrix(1.6669,1.6669,-1.6669,1.6669,80.76,186.25)" d="m-4.6958 4.0713h-7.9365v-7.9365l7.9365-1e-7z" fill="#a14155" opacity=".55686" stroke-width=".26458" style="paint-order:normal"/>
    <path transform="matrix(1.6669,1.6669,-1.6669,1.6669,80.76,212.71)" d="m-4.6958 4.0713h-7.9365v-7.9365l7.9365-1e-7z" fill="#953c5d" opacity=".5902" stroke-width=".26458" style="paint-order:normal"/>
    <path transform="matrix(1.6669,1.6669,-1.6669,1.6669,107.22,27.499)" d="m-4.6958 4.0713h-7.9365v-7.9365l7.9365-1e-7z" fill="#733a45" opacity=".66078" stroke-width=".26458" style="paint-order:normal"/>
    <path transform="matrix(1.6669,1.6669,-1.6669,1.6669,107.22,53.958)" d="m-4.6958 4.0713h-7.9365v-7.9365l7.9365-1e-7z" fill="#91413e" opacity=".59412" stroke-width=".26458" style="paint-order:normal"/>
    <path transform="matrix(1.6669,1.6669,-1.6669,1.6669,107.22,80.416)" d="m-4.6958 4.0713h-7.9365v-7.9365l7.9365-1e-7z" fill="#b04838" opacity=".5451" stroke-width=".26458" style="paint-order:normal"/>
    <path transform="matrix(1.6669,1.6669,-1.6669,1.6669,107.22,106.87)" d="m-4.6958 4.0713h-7.9365v-7.9365l7.9365-1e-7z" fill="#c24e38" opacity=".5098" stroke-width=".26458" style="paint-order:normal"/>
    <path transform="matrix(1.6669,1.6669,-1.6669,1.6669,107.22,133.33)" d="m-4.6958 4.0713h-7.9365v-7.9365l7.9365-1e-7z" fill="#c44e3e" opacity=".49412" stroke-width=".26458" style="paint-order:normal"/>
    <path transform="matrix(1.6669,1.6669,-1.6669,1.6669,107.22,159.79)" d="m-4.6958 4.0713h-7.9365v-7.9365l7.9365-1e-7z" fill="#b94a4a" opacity=".49216" stroke-width=".26458" style="paint-order:normal"/>
    <path transform="matrix(1.6669,1.6669,-1.6669,1.6669,107.22,186.25)" d="m-4.6958 4.0713h-7.9365v-7.9365l7.9365-1e-7z" fill="#a74457" opacity=".53922" stroke-width=".26458" style="paint-order:normal"/>
    <path transform="matrix(1.6669,1.6669,-1.6669,1.6669,107.22,212.71)" d="m-4.6958 4.0713h-7.9365v-7.9365l7.9365-1e-7z" fill="#9a3e5f" opacity=".57647" stroke-width=".26458" style="paint-order:normal"/>
    <path transform="matrix(1.6669,1.6669,-1.6669,1.6669,133.68,27.499)" d="m-4.6958 4.0713h-7.9365v-7.9365l7.9365-1e-7z" fill="#873f48" opacity=".61176" stroke-width=".26458" style="paint-order:normal"/>
    <path transform="matrix(1.6669,1.6669,-1.6669,1.6669,133.68,53.958)" d="m-4.6958 4.0713h-7.9365v-7.9365l7.9365-1e-7z" fill="#a4463d" opacity=".55882" stroke-width=".26458" style="paint-order:normal"/>
    <path transform="matrix(1.6669,1.6669,-1.6669,1.6669,133.68,80.416)" d="m-4.6958 4.0713h-7.9365v-7.9365l7.9365-1e-7z" fill="#bf4d36" opacity=".51961" stroke-width=".26458" style="paint-order:normal"/>
    <path transform="matrix(1.6669,1.6669,-1.6669,1.6669,133.68,106.87)" d="m-4.6958 4.0713h-7.9365v-7.9365l7.9365-1e-7z" fill="#cc5136" opacity=".49412" stroke-width=".26458" style="paint-order:normal"/>
    <path transform="matrix(1.6669,1.6669,-1.6669,1.6669,133.68,133.33)" d="m-4.6958 4.0713h-7.9365v-7.9365l7.9365-1e-7z" fill="#c8513f" opacity=".48431" stroke-width=".1361" style="paint-order:normal"/>
    <path transform="matrix(1.6669,1.6669,-1.6669,1.6669,133.68,159.79)" d="m-4.6958 4.0713h-7.9365v-7.9365l7.9365-1e-7z" fill="#bb4b4c" opacity=".48627" stroke-width=".26458" style="paint-order:normal"/>
    <path transform="matrix(1.6669,1.6669,-1.6669,1.6669,133.68,186.25)" d="m-4.6958 4.0713h-7.9365v-7.9365l7.9365-1e-7z" fill="#a9445a" opacity=".53529" stroke-width=".26458" style="paint-order:normal"/>
    <path transform="matrix(1.6669,1.6669,-1.6669,1.6669,133.68,212.71)" d="m-4.6958 4.0713h-7.9365v-7.9365l7.9365-1e-7z" fill="#9c3f62" opacity=".57059" stroke-width=".26458" style="paint-order:normal"/>
    <path transform="matrix(1.6669,1.6669,-1.6669,1.6669,160.13,27.499)" d="m-4.6958 4.0713h-7.9365v-7.9365l7.9365-1e-7z" fill="#944249" opacity=".58039" stroke-width=".26458" style="paint-order:normal"/>
    <path transform="matrix(1.6669,1.6669,-1.6669,1.6669,160.13,53.958)" d="m-4.6958 4.0713h-7.9365v-7.9365l7.9365-1e-7z" fill="#b14a3c" opacity=".53529" stroke-width=".26458" style="paint-order:normal"/>
    <path transform="matrix(1.6669,1.6669,-1.6669,1.6669,160.13,80.416)" d="m-4.6958 4.0713h-7.9365v-7.9365l7.9365-1e-7z" fill="#c85135" opacity=".50392" stroke-width=".26458" style="paint-order:normal"/>
    <path transform="matrix(1.6669,1.6669,-1.6669,1.6669,160.13,106.87)" d="m-4.6958 4.0713h-7.9365v-7.9365l7.9365-1e-7z" fill="#d05336" opacity=".48627" stroke-width=".26458" style="paint-order:normal"/>
    <path transform="matrix(1.6669,1.6669,-1.6669,1.6669,160.13,133.33)" d="m-4.6958 4.0713h-7.9365v-7.9365l7.9365-1e-7z" fill="#c85040" opacity=".48235" stroke-width=".26458" style="paint-order:normal"/>
    <path transform="matrix(1.6669,1.6669,-1.6669,1.6669,160.13,159.79)" d="m-4.6958 4.0713h-7.9365v-7.9365l7.9365-1e-7z" fill="#ba4b4e" opacity=".48824" stroke-width=".26458" style="paint-order:normal"/>
    <path transform="matrix(1.6669,1.6669,-1.6669,1.6669,160.13,186.25)" d="m-4.6958 4.0713h-7.9365v-7.9365l7.9365-1e-7z" fill="#a7445c" opacity=".53922" stroke-width=".26458" style="paint-order:normal"/>
    <path transform="matrix(1.6669,1.6669,-1.6669,1.6669,160.13,212.71)" d="m-4.6958 4.0713h-7.9365v-7.9365l7.9365-1e-7z" fill="#9b3f65" opacity=".57255" stroke-width=".26458" style="paint-order:normal"/>
    <path transform="matrix(1.6669,1.6669,-1.6669,1.6669,186.59,27.499)" d="m-4.6958 4.0713h-7.9365v-7.9365l7.9365-1e-7z" fill="#9d464a" opacity=".5549" stroke-width=".26458" style="paint-order:normal"/>
    <path transform="matrix(1.6669,1.6669,-1.6669,1.6669,186.59,53.958)" d="m-4.6958 4.0713h-7.9365v-7.9365l7.9365-1e-7z" fill="#b84e3c" opacity=".52157" stroke-width=".26458" style="paint-order:normal"/>
    <path transform="matrix(1.6669,1.6669,-1.6669,1.6669,186.59,80.416)" d="m-4.6958 4.0713h-7.9365v-7.9365l7.9365-1e-7z" fill="#cc5234" opacity=".49804" stroke-width=".26458" style="paint-order:normal"/>
    <path transform="matrix(1.6669,1.6669,-1.6669,1.6669,186.59,106.87)" d="m-4.6958 4.0713h-7.9365v-7.9365l7.9365-1e-7z" fill="#d15436" opacity=".48431" stroke-width=".1361" style="paint-order:normal"/>
    <path transform="matrix(1.6669,1.6669,-1.6669,1.6669,186.59,133.33)" d="m-4.6958 4.0713h-7.9365v-7.9365l7.9365-1e-7z" fill="#c85140" opacity=".48235" stroke-width=".26458" style="paint-order:normal"/>
    <path transform="matrix(1.6669,1.6669,-1.6669,1.6669,186.59,159.79)" d="m-4.6958 4.0713h-7.9365v-7.9365l7.9365-1e-7z" fill="#b84b4f" opacity=".49216" stroke-width=".26458" style="paint-order:normal"/>
    <path transform="matrix(1.6669,1.6669,-1.6669,1.6669,186.59,186.25)" d="m-4.6958 4.0713h-7.9365v-7.9365l7.9365-1e-7z" fill="#a6435e" opacity=".54314" stroke-width=".26458" style="paint-order:normal"/>
    <path transform="matrix(1.6669,1.6669,-1.6669,1.6669,186.59,212.71)" d="m-4.6958 4.0713h-7.9365v-7.9365l7.9365-1e-7z" fill="#9b3f67" opacity=".57255" stroke-width=".26458" style="paint-order:normal"/>
    <path transform="matrix(1.6669,1.6669,-1.6669,1.6669,213.05,27.499)" d="m-4.6958 4.0713h-7.9365v-7.9365l7.9365-1e-7z" fill="#a24b4c" opacity=".53529" stroke-width=".26458" style="paint-order:normal"/>
    <path transform="matrix(1.6669,1.6669,-1.6669,1.6669,213.05,53.958)" d="m-4.6958 4.0713h-7.9365v-7.9365l7.9365-1e-7z" fill="#bd513d" opacity=".5098" stroke-width=".26458" style="paint-order:normal"/>
    <path transform="matrix(1.6669,1.6669,-1.6669,1.6669,213.05,80.416)" d="m-4.6958 4.0713h-7.9365v-7.9365l7.9365-1e-7z" fill="#ce5435" opacity=".49216" stroke-width=".26458" style="paint-order:normal"/>
    <path transform="matrix(1.6669,1.6669,-1.6669,1.6669,213.05,106.87)" d="m-4.6958 4.0713h-7.9365v-7.9365l7.9365-1e-7z" fill="#d25436" opacity=".48235" stroke-width=".26458" style="paint-order:normal"/>
    <path transform="matrix(1.6669,1.6669,-1.6669,1.6669,213.05,133.33)" d="m-4.6958 4.0713h-7.9365v-7.9365l7.9365-1e-7z" fill="#c85040" opacity=".48235" stroke-width=".26458" style="paint-order:normal"/>
    <path transform="matrix(1.6669,1.6669,-1.6669,1.6669,213.05,159.79)" d="m-4.6958 4.0713h-7.9365v-7.9365l7.9365-1e-7z" fill="#b84a4f" opacity=".49412" stroke-width=".26458" style="paint-order:normal"/>
    <path transform="matrix(1.6669,1.6669,-1.6669,1.6669,213.05,186.25)" d="m-4.6958 4.0713h-7.9365v-7.9365l7.9365-1e-7z" fill="#a6435e" opacity=".54314" stroke-width=".26458" style="paint-order:normal"/>
    <path transform="matrix(1.6669,1.6669,-1.6669,1.6669,213.05,212.71)" d="m-4.6958 4.0713h-7.9365v-7.9365l7.9365-1e-7z" fill="#9a3e67" opacity=".57647" stroke-width=".26458" style="paint-order:normal"/>
    <path transform="matrix(1.6669,1.6669,-1.6669,1.6669,239.51,27.499)" d="m-4.6958 4.0713h-7.9365v-7.9365l7.9365-1e-7z" fill="#a75553" opacity=".5098" stroke-width=".26458" style="paint-order:normal"/>
    <path transform="matrix(1.6669,1.6669,-1.6669,1.6669,239.51,53.958)" d="m-4.6958 4.0713h-7.9365v-7.9365l7.9365-1e-7z" fill="#c05742" opacity=".49412" stroke-width=".26458" style="paint-order:normal"/>
    <path transform="matrix(1.6669,1.6669,-1.6669,1.6669,239.51,80.416)" d="m-4.6958 4.0713h-7.9365v-7.9365l7.9365-1e-7z" fill="#cf5637" opacity=".48627" stroke-width=".26458" style="paint-order:normal"/>
    <path transform="matrix(1.6669,1.6669,-1.6669,1.6669,239.51,106.87)" d="m-4.6958 4.0713h-7.9365v-7.9365l7.9365-1e-7z" fill="#d25536" opacity=".48235" stroke-width=".26458" style="paint-order:normal"/>
    <path transform="matrix(1.6669,1.6669,-1.6669,1.6669,239.51,133.33)" d="m-4.6958 4.0713h-7.9365v-7.9365l7.9365-1e-7z" fill="#c95140" opacity=".48039" stroke-width=".26458" style="paint-order:normal"/>
    <path transform="matrix(1.6669,1.6669,-1.6669,1.6669,239.51,159.79)" d="m-4.6958 4.0713h-7.9365v-7.9365l7.9365-1e-7z" fill="#b94b4e" opacity=".4902" stroke-width=".26458" style="paint-order:normal"/>
    <path transform="matrix(1.6669,1.6669,-1.6669,1.6669,239.51,186.25)" d="m-4.6958 4.0713h-7.9365v-7.9365l7.9365-1e-7z" fill="#a7445e" opacity=".53922" stroke-width=".26458" style="paint-order:normal"/>
    <path transform="matrix(1.6669,1.6669,-1.6669,1.6669,239.51,212.71)" d="m-4.6958 4.0713h-7.9365v-7.9365l7.9365-1e-7z" fill="#9b3f66" opacity=".57255" stroke-width=".26458" style="paint-order:normal"/>
    <path transform="matrix(1.6669,1.6669,-1.6669,1.6669,265.97,27.499)" d="m-4.6958 4.0713h-7.9365v-7.9365l7.9365-1e-7z" fill="#ad635e" opacity=".47647" stroke-width=".26458" style="paint-order:normal"/>
    <path transform="matrix(1.6669,1.6669,-1.6669,1.6669,265.97,53.958)" d="m-4.6958 4.0713h-7.9365v-7.9365l7.9365-1e-7z" fill="#c2614b" opacity=".47255" stroke-width=".26458" style="paint-order:normal"/>
    <path transform="matrix(1.6669,1.6669,-1.6669,1.6669,265.97,80.416)" d="m-4.6958 4.0713h-7.9365v-7.9365l7.9365-1e-7z" fill="#cf593b" opacity=".47843" stroke-width=".26458" style="paint-order:normal"/>
    <path transform="matrix(1.6669,1.6669,-1.6669,1.6669,265.97,106.87)" d="m-4.6958 4.0713h-7.9365v-7.9365l7.9365-1e-7z" fill="#d15537" opacity=".48235" stroke-width=".26458" style="paint-order:normal"/>
    <path transform="matrix(1.6669,1.6669,-1.6669,1.6669,265.97,133.33)" d="m-4.6958 4.0713h-7.9365v-7.9365l7.9365-1e-7z" fill="#c9513f" opacity=".48235" stroke-width=".26458" style="paint-order:normal"/>
    <path transform="matrix(1.6669,1.6669,-1.6669,1.6669,265.97,159.79)" d="m-4.6958 4.0713h-7.9365v-7.9365l7.9365-1e-7z" fill="#ba4b4d" opacity=".48824" stroke-width=".26458" style="paint-order:normal"/>
    <path transform="matrix(1.6669,1.6669,-1.6669,1.6669,265.97,186.25)" d="m-4.6958 4.0713h-7.9365v-7.9365l7.9365-1e-7z" fill="#a9445c" opacity=".53529" stroke-width=".26458" style="paint-order:normal"/>
    <path transform="matrix(1.6669,1.6669,-1.6669,1.6669,265.97,212.71)" d="m-4.6958 4.0713h-7.9365v-7.9365l7.9365-1e-7z" fill="#9d3f65" opacity=".56863" stroke-width=".26458" style="paint-order:normal"/>
    <path transform="matrix(1.6669,1.6669,-1.6669,1.6669,292.43,27.499)" d="m-4.6958 4.0713h-7.9365v-7.9365l7.9365-1e-7z" fill="#b1746c" opacity=".44118" stroke-width=".26458" style="paint-order:normal"/>
    <path transform="matrix(1.6669,1.6669,-1.6669,1.6669,292.43,53.958)" d="m-4.6958 4.0713h-7.9365v-7.9365l7.9365-1e-7z" fill="#c26d57" opacity=".44902" stroke-width=".26458" style="paint-order:normal"/>
    <path transform="matrix(1.6669,1.6669,-1.6669,1.6669,292.43,80.416)" d="m-4.6958 4.0713h-7.9365v-7.9365l7.9365-1e-7z" fill="#ce5e42" opacity=".46667" stroke-width=".26458" style="paint-order:normal"/>
    <path transform="matrix(1.6669,1.6669,-1.6669,1.6669,292.43,106.87)" d="m-4.6958 4.0713h-7.9365v-7.9365l7.9365-1e-7z" fill="#d0563a" opacity=".47843" stroke-width=".26458" style="paint-order:normal"/>
    <path transform="matrix(1.6669,1.6669,-1.6669,1.6669,292.43,133.33)" d="m-4.6958 4.0713h-7.9365v-7.9365l7.9365-1e-7z" fill="#ca513f" opacity=".48039" stroke-width=".26458" style="paint-order:normal"/>
    <path transform="matrix(1.6669,1.6669,-1.6669,1.6669,292.43,159.79)" d="m-4.6958 4.0713h-7.9365v-7.9365l7.9365-1e-7z" fill="#bd4c4b" opacity=".48235" stroke-width=".26458" style="paint-order:normal"/>
    <path transform="matrix(1.6669,1.6669,-1.6669,1.6669,292.43,186.25)" d="m-4.6958 4.0713h-7.9365v-7.9365l7.9365-1e-7z" fill="#ac4559" opacity=".52745" stroke-width=".26458" style="paint-order:normal"/>
    <path transform="matrix(1.6669,1.6669,-1.6669,1.6669,292.43,212.71)" d="m-4.6958 4.0713h-7.9365v-7.9365l7.9365-1e-7z" fill="#9f4063" opacity=".56275" stroke-width=".26458" style="paint-order:normal"/>
    <path transform="matrix(1.6669,1.6669,-1.6669,1.6669,318.88,27.499)" d="m-4.6958 4.0713h-7.9365v-7.9365l7.9365-1e-7z" fill="#b3867c" opacity=".40588" stroke-width=".26458" style="paint-order:normal"/>
    <path transform="matrix(1.6669,1.6669,-1.6669,1.6669,318.88,53.958)" d="m-4.6958 4.0713h-7.9365v-7.9365l7.9365-1e-7z" fill="#c07b67" opacity=".42157" stroke-width=".26458" style="paint-order:normal"/>
    <path transform="matrix(1.6669,1.6669,-1.6669,1.6669,318.88,80.416)" d="m-4.6958 4.0713h-7.9365v-7.9365l7.9365-1e-7z" fill="#c9684e" opacity=".45294" stroke-width=".26458" style="paint-order:normal"/>
    <path transform="matrix(1.6669,1.6669,-1.6669,1.6669,318.88,106.87)" d="m-4.6958 4.0713h-7.9365v-7.9365l7.9365-1e-7z" fill="#cd5940" opacity=".47255" stroke-width=".26458" style="paint-order:normal"/>
    <path transform="matrix(1.6669,1.6669,-1.6669,1.6669,318.88,133.33)" d="m-4.6958 4.0713h-7.9365v-7.9365l7.9365-1e-7z" fill="#c95240" opacity=".48039" stroke-width=".26458" style="paint-order:normal"/>
    <path transform="matrix(1.6669,1.6669,-1.6669,1.6669,318.88,159.79)" d="m-4.6958 4.0713h-7.9365v-7.9365l7.9365-1e-7z" fill="#bd4c4a" opacity=".48431" stroke-width=".1361" style="paint-order:normal"/>
    <path transform="matrix(1.6669,1.6669,-1.6669,1.6669,318.88,186.25)" d="m-4.6958 4.0713h-7.9365v-7.9365l7.9365-1e-7z" fill="#ac4557" opacity=".52745" stroke-width=".26458" style="paint-order:normal"/>
    <path transform="matrix(1.6669,1.6669,-1.6669,1.6669,318.88,212.71)" d="m-4.6958 4.0713h-7.9365v-7.9365l7.9365-1e-7z" fill="#a03f61" opacity=".56275" stroke-width=".26458" style="paint-order:normal"/>
    <path transform="matrix(1.6669,1.6669,-1.6669,1.6669,345.34,27.499)" d="m-4.6958 4.0713h-7.9365v-7.9365l7.9365-1e-7z" fill="#b2948a" opacity=".38039" stroke-width=".26458" style="paint-order:normal"/>
    <path transform="matrix(1.6669,1.6669,-1.6669,1.6669,345.34,53.958)" d="m-4.6958 4.0713h-7.9365v-7.9365l7.9365-1e-7z" fill="#bb8977" opacity=".4" stroke-width=".26458" style="paint-order:normal"/>
    <path transform="matrix(1.6669,1.6669,-1.6669,1.6669,345.34,80.416)" d="m-4.6958 4.0713h-7.9365v-7.9365l7.9365-1e-7z" fill="#c3745f" opacity=".43137" stroke-width=".26458" style="paint-order:normal"/>
    <path transform="matrix(1.6669,1.6669,-1.6669,1.6669,345.34,106.87)" d="m-4.6958 4.0713h-7.9365v-7.9365l7.9365-1e-7z" fill="#c6604d" opacity=".46078" stroke-width=".1361" style="paint-order:normal"/>
    <path transform="matrix(1.6669,1.6669,-1.6669,1.6669,345.34,133.33)" d="m-4.6958 4.0713h-7.9365v-7.9365l7.9365-1e-7z" fill="#c35347" opacity=".47843" stroke-width=".26458" style="paint-order:normal"/>
    <path transform="matrix(1.6669,1.6669,-1.6669,1.6669,345.34,159.79)" d="m-4.6958 4.0713h-7.9365v-7.9365l7.9365-1e-7z" fill="#b84b4d" opacity=".49216" stroke-width=".26458" style="paint-order:normal"/>
    <path transform="matrix(1.6669,1.6669,-1.6669,1.6669,345.34,186.25)" d="m-4.6958 4.0713h-7.9365v-7.9365l7.9365-1e-7z" fill="#a94358" opacity=".53725" stroke-width=".26458" style="paint-order:normal"/>
    <path transform="matrix(1.6669,1.6669,-1.6669,1.6669,345.34,212.71)" d="m-4.6958 4.0713h-7.9365v-7.9365l7.9365-1e-7z" fill="#9d3c61" opacity=".57451" stroke-width=".26458" style="paint-order:normal"/>
    <path transform="matrix(1.6669,1.6669,-1.6669,1.6669,371.8,27.499)" d="m-4.6958 4.0713h-7.9365v-7.9365l7.9365-1e-7z" fill="#b19c92" opacity=".36667" stroke-width=".26458" style="paint-order:normal"/>
    <path transform="matrix(1.6669,1.6669,-1.6669,1.6669,371.8,53.958)" d="m-4.6958 4.0713h-7.9365v-7.9365l7.9365-1e-7z" fill="#b69284" opacity=".38431" stroke-width=".26458" style="paint-order:normal"/>
    <path transform="matrix(1.6669,1.6669,-1.6669,1.6669,371.8,80.416)" d="m-4.6958 4.0713h-7.9365v-7.9365l7.9365-1e-7z" fill="#bb7e70" opacity=".41373" stroke-width=".26458" style="paint-order:normal"/>
    <path transform="matrix(1.6669,1.6669,-1.6669,1.6669,371.8,106.87)" d="m-4.6958 4.0713h-7.9365v-7.9365l7.9365-1e-7z" fill="#bc675c" opacity=".45098" stroke-width=".26458" style="paint-order:normal"/>
    <path transform="matrix(1.6669,1.6669,-1.6669,1.6669,371.8,133.33)" d="m-4.6958 4.0713h-7.9365v-7.9365l7.9365-1e-7z" fill="#b95553" opacity=".47451" stroke-width=".26458" style="paint-order:normal"/>
    <path transform="matrix(1.6669,1.6669,-1.6669,1.6669,371.8,159.79)" d="m-4.6958 4.0713h-7.9365v-7.9365l7.9365-1e-7z" fill="#b04854" opacity=".51373" stroke-width=".26458" style="paint-order:normal"/>
    <path transform="matrix(1.6669,1.6669,-1.6669,1.6669,371.8,186.25)" d="m-4.6958 4.0713h-7.9365v-7.9365l7.9365-1e-7z" fill="#a23f5c" opacity=".55882" stroke-width=".26458" style="paint-order:normal"/>
    <path transform="matrix(1.6669,1.6669,-1.6669,1.6669,371.8,212.71)" d="m-4.6958 4.0713h-7.9365v-7.9365l7.9365-1e-7z" fill="#973864" opacity=".59412" stroke-width=".26458" style="paint-order:normal"/>
    <path transform="matrix(1.6669,1.6669,-1.6669,1.6669,41.072,14.27)" d="m-4.6958 4.0713h-7.9365v-7.9365l7.9365-1e-7z" fill="#43323b" opacity=".77059" stroke-width=".26458" style="paint-order:normal"/>
    <path transform="matrix(1.6669,1.6669,-1.6669,1.6669,41.072,40.729)" d="m-4.6958 4.0713h-7.9365v-7.9365l7.9365-1e-7z" fill="#4e333d" opacity=".74706" stroke-width=".26458" style="paint-order:normal"/>
    <path transform="matrix(1.6669,1.6669,-1.6669,1.6669,41.072,67.187)" d="m-4.6958 4.0713h-7.9365v-7.9365l7.9365-1e-7z" fill="#643440" opacity=".70196" stroke-width=".26458" style="paint-order:normal"/>
    <path transform="matrix(1.6669,1.6669,-1.6669,1.6669,41.072,93.645)" d="m-4.6958 4.0713h-7.9365v-7.9365l7.9365-1e-7z" fill="#7c3743" opacity=".64902" stroke-width=".26458" style="paint-order:normal"/>
    <path transform="matrix(1.6669,1.6669,-1.6669,1.6669,41.072,120.1)" d="m-4.6958 4.0713h-7.9365v-7.9365l7.9365-1e-7z" fill="#8c3a45" opacity=".61176" stroke-width=".26458" style="paint-order:normal"/>
    <path transform="matrix(1.6669,1.6669,-1.6669,1.6669,41.072,146.56)" d="m-4.6958 4.0713h-7.9365v-7.9365l7.9365-1e-7z" fill="#923c4a" opacity=".59608" stroke-width=".26458" style="paint-order:normal"/>
    <path transform="matrix(1.6669,1.6669,-1.6669,1.6669,41.072,173.02)" d="m-4.6958 4.0713h-7.9365v-7.9365l7.9365-1e-7z" fill="#8e3a51" opacity=".60784" stroke-width=".26458" style="paint-order:normal"/>
    <path transform="matrix(1.6669,1.6669,-1.6669,1.6669,41.072,199.48)" d="m-4.6958 4.0713h-7.9365v-7.9365l7.9365-1e-7z" fill="#863759" opacity=".62941" stroke-width=".26458" style="paint-order:normal"/>
    <path transform="matrix(1.6669,1.6669,-1.6669,1.6669,41.072,225.94)" d="m-4.6958 4.0713h-7.9365v-7.9365l7.9365-1e-7z" fill="#82355c" opacity=".64118" stroke-width=".26458" style="paint-order:normal"/>
    <path transform="matrix(1.6669,1.6669,-1.6669,1.6669,67.53,14.27)" d="m-4.6958 4.0713h-7.9365v-7.9365l7.9365-1e-7z" fill="#50343e" opacity=".74118" stroke-width=".26458" style="paint-order:normal"/>
    <path transform="matrix(1.6669,1.6669,-1.6669,1.6669,67.53,40.729)" d="m-4.6958 4.0713h-7.9365v-7.9365l7.9365-1e-7z" fill="#5f363e" opacity=".70784" stroke-width=".26458" style="paint-order:normal"/>
    <path transform="matrix(1.6669,1.6669,-1.6669,1.6669,67.53,67.187)" d="m-4.6958 4.0713h-7.9365v-7.9365l7.9365-1e-7z" fill="#7c3b3d" opacity=".64118" stroke-width=".26458" style="paint-order:normal"/>
    <path transform="matrix(1.6669,1.6669,-1.6669,1.6669,67.53,93.645)" d="m-4.6958 4.0713h-7.9365v-7.9365l7.9365-1e-7z" fill="#97403d" opacity=".58431" stroke-width=".26458" style="paint-order:normal"/>
    <path transform="matrix(1.6669,1.6669,-1.6669,1.6669,67.53,120.1)" d="m-4.6958 4.0713h-7.9365v-7.9365l7.9365-1e-7z" fill="#a8443f" opacity=".54706" stroke-width=".26458" style="paint-order:normal"/>
    <path transform="matrix(1.6669,1.6669,-1.6669,1.6669,67.53,146.56)" d="m-4.6958 4.0713h-7.9365v-7.9365l7.9365-1e-7z" fill="#aa4546" opacity=".53137" stroke-width=".26458" style="paint-order:normal"/>
    <path transform="matrix(1.6669,1.6669,-1.6669,1.6669,67.53,173.02)" d="m-4.6958 4.0713h-7.9365v-7.9365l7.9365-1e-7z" fill="#a14150" opacity=".55686" stroke-width=".26458" style="paint-order:normal"/>
    <path transform="matrix(1.6669,1.6669,-1.6669,1.6669,67.53,199.48)" d="m-4.6958 4.0713h-7.9365v-7.9365l7.9365-1e-7z" fill="#943c5a" opacity=".59216" stroke-width=".26458" style="paint-order:normal"/>
    <path transform="matrix(1.6669,1.6669,-1.6669,1.6669,67.53,225.94)" d="m-4.6958 4.0713h-7.9365v-7.9365l7.9365-1e-7z" fill="#8e3a5d" opacity=".60784" stroke-width=".26458" style="paint-order:normal"/>
    <path transform="matrix(1.6669,1.6669,-1.6669,1.6669,93.989,14.27)" d="m-4.6958 4.0713h-7.9365v-7.9365l7.9365-1e-7z" fill="#623744" opacity=".7" stroke-width=".26458" style="paint-order:normal"/>
    <path transform="matrix(1.6669,1.6669,-1.6669,1.6669,93.989,40.729)" d="m-4.6958 4.0713h-7.9365v-7.9365l7.9365-1e-7z" fill="#763b40" opacity=".65294" stroke-width=".26458" style="paint-order:normal"/>
    <path transform="matrix(1.6669,1.6669,-1.6669,1.6669,93.989,67.187)" d="m-4.6958 4.0713h-7.9365v-7.9365l7.9365-1e-7z" fill="#95423c" opacity=".5902" stroke-width=".26458" style="paint-order:normal"/>
    <path transform="matrix(1.6669,1.6669,-1.6669,1.6669,93.989,93.645)" d="m-4.6958 4.0713h-7.9365v-7.9365l7.9365-1e-7z" fill="#b04839" opacity=".54314" stroke-width=".26458" style="paint-order:normal"/>
    <path transform="matrix(1.6669,1.6669,-1.6669,1.6669,93.989,120.1)" d="m-4.6958 4.0713h-7.9365v-7.9365l7.9365-1e-7z" fill="#bd4c3b" opacity=".51373" stroke-width=".26458" style="paint-order:normal"/>
    <path transform="matrix(1.6669,1.6669,-1.6669,1.6669,93.989,146.56)" d="m-4.6958 4.0713h-7.9365v-7.9365l7.9365-1e-7z" fill="#ba4b44" opacity=".50196" stroke-width=".1361" style="paint-order:normal"/>
    <path transform="matrix(1.6669,1.6669,-1.6669,1.6669,93.989,173.02)" d="m-4.6958 4.0713h-7.9365v-7.9365l7.9365-1e-7z" fill="#ad4650" opacity=".52353" stroke-width=".26458" style="paint-order:normal"/>
    <path transform="matrix(1.6669,1.6669,-1.6669,1.6669,93.989,199.48)" d="m-4.6958 4.0713h-7.9365v-7.9365l7.9365-1e-7z" fill="#9d3f5b" opacity=".56863" stroke-width=".26458" style="paint-order:normal"/>
    <path transform="matrix(1.6669,1.6669,-1.6669,1.6669,93.989,225.94)" d="m-4.6958 4.0713h-7.9365v-7.9365l7.9365-1e-7z" fill="#963d5f" opacity=".58627" stroke-width=".26458" style="paint-order:normal"/>
    <path transform="matrix(1.6669,1.6669,-1.6669,1.6669,120.45,14.27)" d="m-4.6958 4.0713h-7.9365v-7.9365l7.9365-1e-7z" fill="#763b49" opacity=".65294" stroke-width=".26458" style="paint-order:normal"/>
    <path transform="matrix(1.6669,1.6669,-1.6669,1.6669,120.45,40.729)" d="m-4.6958 4.0713h-7.9365v-7.9365l7.9365-1e-7z" fill="#8c4042" opacity=".6" stroke-width=".26458" style="paint-order:normal"/>
    <path transform="matrix(1.6669,1.6669,-1.6669,1.6669,120.45,67.187)" d="m-4.6958 4.0713h-7.9365v-7.9365l7.9365-1e-7z" fill="#ab473a" opacity=".55098" stroke-width=".26458" style="paint-order:normal"/>
    <path transform="matrix(1.6669,1.6669,-1.6669,1.6669,120.45,93.645)" d="m-4.6958 4.0713h-7.9365v-7.9365l7.9365-1e-7z" fill="#c14e36" opacity=".51569" stroke-width=".26458" style="paint-order:normal"/>
    <path transform="matrix(1.6669,1.6669,-1.6669,1.6669,120.45,120.1)" d="m-4.6958 4.0713h-7.9365v-7.9365l7.9365-1e-7z" fill="#c9503a" opacity=".49216" stroke-width=".26458" style="paint-order:normal"/>
    <path transform="matrix(1.6669,1.6669,-1.6669,1.6669,120.45,146.56)" d="m-4.6958 4.0713h-7.9365v-7.9365l7.9365-1e-7z" fill="#c14e44" opacity=".48824" stroke-width=".26458" style="paint-order:normal"/>
    <path transform="matrix(1.6669,1.6669,-1.6669,1.6669,120.45,173.02)" d="m-4.6958 4.0713h-7.9365v-7.9365l7.9365-1e-7z" fill="#b14852" opacity=".51176" stroke-width=".26458" style="paint-order:normal"/>
    <path transform="matrix(1.6669,1.6669,-1.6669,1.6669,120.45,199.48)" d="m-4.6958 4.0713h-7.9365v-7.9365l7.9365-1e-7z" fill="#a1415d" opacity=".55686" stroke-width=".26458" style="paint-order:normal"/>
    <path transform="matrix(1.6669,1.6669,-1.6669,1.6669,120.45,225.94)" d="m-4.6958 4.0713h-7.9365v-7.9365l7.9365-1e-7z" fill="#9a3e61" opacity=".57647" stroke-width=".26458" style="paint-order:normal"/>
    <path transform="matrix(1.6669,1.6669,-1.6669,1.6669,146.91,14.27)" d="m-4.6958 4.0713h-7.9365v-7.9365l7.9365-1e-7z" fill="#863e4c" opacity=".61569" stroke-width=".26458" style="paint-order:normal"/>
    <path transform="matrix(1.6669,1.6669,-1.6669,1.6669,146.91,40.729)" d="m-4.6958 4.0713h-7.9365v-7.9365l7.9365-1e-7z" fill="#9c4442" opacity=".56471" stroke-width=".26458" style="paint-order:normal"/>
    <path transform="matrix(1.6669,1.6669,-1.6669,1.6669,146.91,67.187)" d="m-4.6958 4.0713h-7.9365v-7.9365l7.9365-1e-7z" fill="#b84c38" opacity=".52941" stroke-width=".26458" style="paint-order:normal"/>
    <path transform="matrix(1.6669,1.6669,-1.6669,1.6669,146.91,93.645)" d="m-4.6958 4.0713h-7.9365v-7.9365l7.9365-1e-7z" fill="#ca5135" opacity=".5" stroke-width=".26458" style="paint-order:normal"/>
    <path transform="matrix(1.6669,1.6669,-1.6669,1.6669,146.91,120.1)" d="m-4.6958 4.0713h-7.9365v-7.9365l7.9365-1e-7z" fill="#cc523a" opacity=".48627" stroke-width=".26458" style="paint-order:normal"/>
    <path transform="matrix(1.6669,1.6669,-1.6669,1.6669,146.91,146.56)" d="m-4.6958 4.0713h-7.9365v-7.9365l7.9365-1e-7z" fill="#c24e46" opacity=".48235" stroke-width=".26458" style="paint-order:normal"/>
    <path transform="matrix(1.6669,1.6669,-1.6669,1.6669,146.91,173.02)" d="m-4.6958 4.0713h-7.9365v-7.9365l7.9365-1e-7z" fill="#b14754" opacity=".51373" stroke-width=".26458" style="paint-order:normal"/>
    <path transform="matrix(1.6669,1.6669,-1.6669,1.6669,146.91,199.48)" d="m-4.6958 4.0713h-7.9365v-7.9365l7.9365-1e-7z" fill="#a14160" opacity=".55686" stroke-width=".26458" style="paint-order:normal"/>
    <path transform="matrix(1.6669,1.6669,-1.6669,1.6669,146.91,225.94)" d="m-4.6958 4.0713h-7.9365v-7.9365l7.9365-1e-7z" fill="#9a3f64" opacity=".57451" stroke-width=".26458" style="paint-order:normal"/>
    <path transform="matrix(1.6669,1.6669,-1.6669,1.6669,173.36,14.27)" d="m-4.6958 4.0713h-7.9365v-7.9365l7.9365-1e-7z" fill="#91424d" opacity=".58627" stroke-width=".26458" style="paint-order:normal"/>
    <path transform="matrix(1.6669,1.6669,-1.6669,1.6669,173.36,40.729)" d="m-4.6958 4.0713h-7.9365v-7.9365l7.9365-1e-7z" fill="#a74842" opacity=".54314" stroke-width=".26458" style="paint-order:normal"/>
    <path transform="matrix(1.6669,1.6669,-1.6669,1.6669,173.36,67.187)" d="m-4.6958 4.0713h-7.9365v-7.9365l7.9365-1e-7z" fill="#c04f37" opacity=".51569" stroke-width=".26458" style="paint-order:normal"/>
    <path transform="matrix(1.6669,1.6669,-1.6669,1.6669,173.36,93.645)" d="m-4.6958 4.0713h-7.9365v-7.9365l7.9365-1e-7z" fill="#cf5334" opacity=".49216" stroke-width=".26458" style="paint-order:normal"/>
    <path transform="matrix(1.6669,1.6669,-1.6669,1.6669,173.36,120.1)" d="m-4.6958 4.0713h-7.9365v-7.9365l7.9365-1e-7z" fill="#cd523a" opacity=".48431" stroke-width=".1361" style="paint-order:normal"/>
    <path transform="matrix(1.6669,1.6669,-1.6669,1.6669,173.36,146.56)" d="m-4.6958 4.0713h-7.9365v-7.9365l7.9365-1e-7z" fill="#c14e47" opacity=".48235" stroke-width=".26458" style="paint-order:normal"/>
    <path transform="matrix(1.6669,1.6669,-1.6669,1.6669,173.36,173.02)" d="m-4.6958 4.0713h-7.9365v-7.9365l7.9365-1e-7z" fill="#af4756" opacity=".51765" stroke-width=".26458" style="paint-order:normal"/>
    <path transform="matrix(1.6669,1.6669,-1.6669,1.6669,173.36,199.48)" d="m-4.6958 4.0713h-7.9365v-7.9365l7.9365-1e-7z" fill="#9f4163" opacity=".56078" stroke-width=".26458" style="paint-order:normal"/>
    <path transform="matrix(1.6669,1.6669,-1.6669,1.6669,173.36,225.94)" d="m-4.6958 4.0713h-7.9365v-7.9365l7.9365-1e-7z" fill="#9a3f67" opacity=".57451" stroke-width=".26458" style="paint-order:normal"/>
    <path transform="matrix(1.6669,1.6669,-1.6669,1.6669,199.82,14.27)" d="m-4.6958 4.0713h-7.9365v-7.9365l7.9365-1e-7z" fill="#98464f" opacity=".56471" stroke-width=".26458" style="paint-order:normal"/>
    <path transform="matrix(1.6669,1.6669,-1.6669,1.6669,199.82,40.729)" d="m-4.6958 4.0713h-7.9365v-7.9365l7.9365-1e-7z" fill="#ad4c43" opacity=".52941" stroke-width=".26458" style="paint-order:normal"/>
    <path transform="matrix(1.6669,1.6669,-1.6669,1.6669,199.82,67.187)" d="m-4.6958 4.0713h-7.9365v-7.9365l7.9365-1e-7z" fill="#c55138" opacity=".50392" stroke-width=".26458" style="paint-order:normal"/>
    <path transform="matrix(1.6669,1.6669,-1.6669,1.6669,199.82,93.645)" d="m-4.6958 4.0713h-7.9365v-7.9365l7.9365-1e-7z" fill="#d15434" opacity=".48824" stroke-width=".26458" style="paint-order:normal"/>
    <path transform="matrix(1.6669,1.6669,-1.6669,1.6669,199.82,120.1)" d="m-4.6958 4.0713h-7.9365v-7.9365l7.9365-1e-7z" fill="#ce533a" opacity=".48235" stroke-width=".26458" style="paint-order:normal"/>
    <path transform="matrix(1.6669,1.6669,-1.6669,1.6669,199.82,146.56)" d="m-4.6958 4.0713h-7.9365v-7.9365l7.9365-1e-7z" fill="#c14e47" opacity=".48235" stroke-width=".26458" style="paint-order:normal"/>
    <path transform="matrix(1.6669,1.6669,-1.6669,1.6669,199.82,173.02)" d="m-4.6958 4.0713h-7.9365v-7.9365l7.9365-1e-7z" fill="#af4757" opacity=".51765" stroke-width=".26458" style="paint-order:normal"/>
    <path transform="matrix(1.6669,1.6669,-1.6669,1.6669,199.82,199.48)" d="m-4.6958 4.0713h-7.9365v-7.9365l7.9365-1e-7z" fill="#9f4163" opacity=".56078" stroke-width=".26458" style="paint-order:normal"/>
    <path transform="matrix(1.6669,1.6669,-1.6669,1.6669,199.82,225.94)" d="m-4.6958 4.0713h-7.9365v-7.9365l7.9365-1e-7z" fill="#9a3e67" opacity=".57647" stroke-width=".26458" style="paint-order:normal"/>
    <path transform="matrix(1.6669,1.6669,-1.6669,1.6669,226.28,14.27)" d="m-4.6958 4.0713h-7.9365v-7.9365l7.9365-1e-7z" fill="#9e4e53" opacity=".53725" stroke-width=".26458" style="paint-order:normal"/>
    <path transform="matrix(1.6669,1.6669,-1.6669,1.6669,226.28,40.729)" d="m-4.6958 4.0713h-7.9365v-7.9365l7.9365-1e-7z" fill="#b25347" opacity=".51176" stroke-width=".26458" style="paint-order:normal"/>
    <path transform="matrix(1.6669,1.6669,-1.6669,1.6669,226.28,67.187)" d="m-4.6958 4.0713h-7.9365v-7.9365l7.9365-1e-7z" fill="#c7543a" opacity=".49608" stroke-width=".26458" style="paint-order:normal"/>
    <path transform="matrix(1.6669,1.6669,-1.6669,1.6669,226.28,93.645)" d="m-4.6958 4.0713h-7.9365v-7.9365l7.9365-1e-7z" fill="#d25535" opacity=".48431" stroke-width=".1361" style="paint-order:normal"/>
    <path transform="matrix(1.6669,1.6669,-1.6669,1.6669,226.28,120.1)" d="m-4.6958 4.0713h-7.9365v-7.9365l7.9365-1e-7z" fill="#ce533a" opacity=".48235" stroke-width=".26458" style="paint-order:normal"/>
    <path transform="matrix(1.6669,1.6669,-1.6669,1.6669,226.28,146.56)" d="m-4.6958 4.0713h-7.9365v-7.9365l7.9365-1e-7z" fill="#c14e47" opacity=".48235" stroke-width=".26458" style="paint-order:normal"/>
    <path transform="matrix(1.6669,1.6669,-1.6669,1.6669,226.28,173.02)" d="m-4.6958 4.0713h-7.9365v-7.9365l7.9365-1e-7z" fill="#af4756" opacity=".51765" stroke-width=".26458" style="paint-order:normal"/>
    <path transform="matrix(1.6669,1.6669,-1.6669,1.6669,226.28,199.48)" d="m-4.6958 4.0713h-7.9365v-7.9365l7.9365-1e-7z" fill="#9f4163" opacity=".56078" stroke-width=".26458" style="paint-order:normal"/>
    <path transform="matrix(1.6669,1.6669,-1.6669,1.6669,226.28,225.94)" d="m-4.6958 4.0713h-7.9365v-7.9365l7.9365-1e-7z" fill="#9a3e67" opacity=".57647" stroke-width=".26458" style="paint-order:normal"/>
    <path transform="matrix(1.6669,1.6669,-1.6669,1.6669,252.74,14.27)" d="m-4.6958 4.0713h-7.9365v-7.9365l7.9365-1e-7z" fill="#a35a5c" opacity=".50392" stroke-width=".26458" style="paint-order:normal"/>
    <path transform="matrix(1.6669,1.6669,-1.6669,1.6669,252.74,40.729)" d="m-4.6958 4.0713h-7.9365v-7.9365l7.9365-1e-7z" fill="#b65d4f" opacity=".48824" stroke-width=".26458" style="paint-order:normal"/>
    <path transform="matrix(1.6669,1.6669,-1.6669,1.6669,252.74,67.187)" d="m-4.6958 4.0713h-7.9365v-7.9365l7.9365-1e-7z" fill="#c9593f" opacity=".48235" stroke-width=".26458" style="paint-order:normal"/>
    <path transform="matrix(1.6669,1.6669,-1.6669,1.6669,252.74,93.645)" d="m-4.6958 4.0713h-7.9365v-7.9365l7.9365-1e-7z" fill="#d25636" opacity=".48235" stroke-width=".26458" style="paint-order:normal"/>
    <path transform="matrix(1.6669,1.6669,-1.6669,1.6669,252.74,120.1)" d="m-4.6958 4.0713h-7.9365v-7.9365l7.9365-1e-7z" fill="#ce533a" opacity=".48235" stroke-width=".26458" style="paint-order:normal"/>
    <path transform="matrix(1.6669,1.6669,-1.6669,1.6669,252.74,146.56)" d="m-4.6958 4.0713h-7.9365v-7.9365l7.9365-1e-7z" fill="#c24e46" opacity=".48235" stroke-width=".26458" style="paint-order:normal"/>
    <path transform="matrix(1.6669,1.6669,-1.6669,1.6669,252.74,173.02)" d="m-4.6958 4.0713h-7.9365v-7.9365l7.9365-1e-7z" fill="#b04755" opacity=".51569" stroke-width=".26458" style="paint-order:normal"/>
    <path transform="matrix(1.6669,1.6669,-1.6669,1.6669,252.74,199.48)" d="m-4.6958 4.0713h-7.9365v-7.9365l7.9365-1e-7z" fill="#a14162" opacity=".55686" stroke-width=".26458" style="paint-order:normal"/>
    <path transform="matrix(1.6669,1.6669,-1.6669,1.6669,252.74,225.94)" d="m-4.6958 4.0713h-7.9365v-7.9365l7.9365-1e-7z" fill="#9b3f66" opacity=".57255" stroke-width=".26458" style="paint-order:normal"/>
    <path transform="matrix(1.6669,1.6669,-1.6669,1.6669,279.2,14.27)" d="m-4.6958 4.0713h-7.9365v-7.9365l7.9365-1e-7z" fill="#a96a69" opacity=".46275" stroke-width=".26458" style="paint-order:normal"/>
    <path transform="matrix(1.6669,1.6669,-1.6669,1.6669,279.2,40.729)" d="m-4.6958 4.0713h-7.9365v-7.9365l7.9365-1e-7z" fill="#b96b5c" opacity=".45686" stroke-width=".26458" style="paint-order:normal"/>
    <path transform="matrix(1.6669,1.6669,-1.6669,1.6669,279.2,67.187)" d="m-4.6958 4.0713h-7.9365v-7.9365l7.9365-1e-7z" fill="#c96147" opacity=".46667" stroke-width=".26458" style="paint-order:normal"/>
    <path transform="matrix(1.6669,1.6669,-1.6669,1.6669,279.2,93.645)" d="m-4.6958 4.0713h-7.9365v-7.9365l7.9365-1e-7z" fill="#d1583a" opacity=".47647" stroke-width=".26458" style="paint-order:normal"/>
    <path transform="matrix(1.6669,1.6669,-1.6669,1.6669,279.2,120.1)" d="m-4.6958 4.0713h-7.9365v-7.9365l7.9365-1e-7z" fill="#cf533a" opacity=".48039" stroke-width=".26458" style="paint-order:normal"/>
    <path transform="matrix(1.6669,1.6669,-1.6669,1.6669,279.2,146.56)" d="m-4.6958 4.0713h-7.9365v-7.9365l7.9365-1e-7z" fill="#c34f45" opacity=".48235" stroke-width=".26458" style="paint-order:normal"/>
    <path transform="matrix(1.6669,1.6669,-1.6669,1.6669,279.2,173.02)" d="m-4.6958 4.0713h-7.9365v-7.9365l7.9365-1e-7z" fill="#b34853" opacity=".50784" stroke-width=".26458" style="paint-order:normal"/>
    <path transform="matrix(1.6669,1.6669,-1.6669,1.6669,279.2,199.48)" d="m-4.6958 4.0713h-7.9365v-7.9365l7.9365-1e-7z" fill="#a34260" opacity=".55098" stroke-width=".26458" style="paint-order:normal"/>
    <path transform="matrix(1.6669,1.6669,-1.6669,1.6669,279.2,225.94)" d="m-4.6958 4.0713h-7.9365v-7.9365l7.9365-1e-7z" fill="#9d3f65" opacity=".56863" stroke-width=".26458" style="paint-order:normal"/>
    <path transform="matrix(1.6669,1.6669,-1.6669,1.6669,305.66,14.27)" d="m-4.6958 4.0713h-7.9365v-7.9365l7.9365-1e-7z" fill="#ae7d78" opacity=".42353" stroke-width=".26458" style="paint-order:normal"/>
    <path transform="matrix(1.6669,1.6669,-1.6669,1.6669,305.66,40.729)" d="m-4.6958 4.0713h-7.9365v-7.9365l7.9365-1e-7z" fill="#ba7b6b" opacity=".42549" stroke-width=".26458" style="paint-order:normal"/>
    <path transform="matrix(1.6669,1.6669,-1.6669,1.6669,305.66,67.187)" d="m-4.6958 4.0713h-7.9365v-7.9365l7.9365-1e-7z" fill="#c76c52" opacity=".44902" stroke-width=".26458" style="paint-order:normal"/>
    <path transform="matrix(1.6669,1.6669,-1.6669,1.6669,305.66,93.645)" d="m-4.6958 4.0713h-7.9365v-7.9365l7.9365-1e-7z" fill="#ce5c40" opacity=".47059" stroke-width=".26458" style="paint-order:normal"/>
    <path transform="matrix(1.6669,1.6669,-1.6669,1.6669,305.66,120.1)" d="m-4.6958 4.0713h-7.9365v-7.9365l7.9365-1e-7z" fill="#cd543c" opacity=".48039" stroke-width=".26458" style="paint-order:normal"/>
    <path transform="matrix(1.6669,1.6669,-1.6669,1.6669,305.66,146.56)" d="m-4.6958 4.0713h-7.9365v-7.9365l7.9365-1e-7z" fill="#c44f44" opacity=".48235" stroke-width=".26458" style="paint-order:normal"/>
    <path transform="matrix(1.6669,1.6669,-1.6669,1.6669,305.66,173.02)" d="m-4.6958 4.0713h-7.9365v-7.9365l7.9365-1e-7z" fill="#b44951" opacity=".50392" stroke-width=".26458" style="paint-order:normal"/>
    <path transform="matrix(1.6669,1.6669,-1.6669,1.6669,305.66,199.48)" d="m-4.6958 4.0713h-7.9365v-7.9365l7.9365-1e-7z" fill="#a5425e" opacity=".54706" stroke-width=".26458" style="paint-order:normal"/>
    <path transform="matrix(1.6669,1.6669,-1.6669,1.6669,305.66,225.94)" d="m-4.6958 4.0713h-7.9365v-7.9365l7.9365-1e-7z" fill="#9e3f63" opacity=".56667" stroke-width=".26458" style="paint-order:normal"/>
    <path transform="matrix(1.6669,1.6669,-1.6669,1.6669,332.11,14.27)" d="m-4.6958 4.0713h-7.9365v-7.9365l7.9365-1e-7z" fill="#b08f87" opacity=".3902" stroke-width=".26458" style="paint-order:normal"/>
    <path transform="matrix(1.6669,1.6669,-1.6669,1.6669,332.11,40.729)" d="m-4.6958 4.0713h-7.9365v-7.9365l7.9365-1e-7z" fill="#b98a7a" opacity=".39804" stroke-width=".26458" style="paint-order:normal"/>
    <path transform="matrix(1.6669,1.6669,-1.6669,1.6669,332.11,67.187)" d="m-4.6958 4.0713h-7.9365v-7.9365l7.9365-1e-7z" fill="#c27863" opacity=".42549" stroke-width=".26458" style="paint-order:normal"/>
    <path transform="matrix(1.6669,1.6669,-1.6669,1.6669,332.11,93.645)" d="m-4.6958 4.0713h-7.9365v-7.9365l7.9365-1e-7z" fill="#c9644d" opacity=".4549" stroke-width=".26458" style="paint-order:normal"/>
    <path transform="matrix(1.6669,1.6669,-1.6669,1.6669,332.11,120.1)" d="m-4.6958 4.0713h-7.9365v-7.9365l7.9365-1e-7z" fill="#c95743" opacity=".47451" stroke-width=".26458" style="paint-order:normal"/>
    <path transform="matrix(1.6669,1.6669,-1.6669,1.6669,332.11,146.56)" d="m-4.6958 4.0713h-7.9365v-7.9365l7.9365-1e-7z" fill="#c24f46" opacity=".48235" stroke-width=".26458" style="paint-order:normal"/>
    <path transform="matrix(1.6669,1.6669,-1.6669,1.6669,332.11,173.02)" d="m-4.6958 4.0713h-7.9365v-7.9365l7.9365-1e-7z" fill="#b34851" opacity=".50784" stroke-width=".26458" style="paint-order:normal"/>
    <path transform="matrix(1.6669,1.6669,-1.6669,1.6669,332.11,199.48)" d="m-4.6958 4.0713h-7.9365v-7.9365l7.9365-1e-7z" fill="#a4415d" opacity=".55098" stroke-width=".26458" style="paint-order:normal"/>
    <path transform="matrix(1.6669,1.6669,-1.6669,1.6669,332.11,225.94)" d="m-4.6958 4.0713h-7.9365v-7.9365l7.9365-1e-7z" fill="#9d3e62" opacity=".57059" stroke-width=".26458" style="paint-order:normal"/>
    <path transform="matrix(1.6669,1.6669,-1.6669,1.6669,358.57,14.27)" d="m-4.6958 4.0713h-7.9365v-7.9365l7.9365-1e-7z" fill="#b09a92" opacity=".36863" stroke-width=".26458" style="paint-order:normal"/>
    <path transform="matrix(1.6669,1.6669,-1.6669,1.6669,358.57,40.729)" d="m-4.6958 4.0713h-7.9365v-7.9365l7.9365-1e-7z" fill="#b59588" opacity=".37843" stroke-width=".26458" style="paint-order:normal"/>
    <path transform="matrix(1.6669,1.6669,-1.6669,1.6669,358.57,67.187)" d="m-4.6958 4.0713h-7.9365v-7.9365l7.9365-1e-7z" fill="#bb8574" opacity=".40588" stroke-width=".26458" style="paint-order:normal"/>
    <path transform="matrix(1.6669,1.6669,-1.6669,1.6669,358.57,93.645)" d="m-4.6958 4.0713h-7.9365v-7.9365l7.9365-1e-7z" fill="#c06e5e" opacity=".43922" stroke-width=".26458" style="paint-order:normal"/>
    <path transform="matrix(1.6669,1.6669,-1.6669,1.6669,358.57,120.1)" d="m-4.6958 4.0713h-7.9365v-7.9365l7.9365-1e-7z" fill="#c05b50" opacity=".46667" stroke-width=".26458" style="paint-order:normal"/>
    <path transform="matrix(1.6669,1.6669,-1.6669,1.6669,358.57,146.56)" d="m-4.6958 4.0713h-7.9365v-7.9365l7.9365-1e-7z" fill="#b94f4e" opacity=".48431" stroke-width=".1361" style="paint-order:normal"/>
    <path transform="matrix(1.6669,1.6669,-1.6669,1.6669,358.57,173.02)" d="m-4.6958 4.0713h-7.9365v-7.9365l7.9365-1e-7z" fill="#ad4555" opacity=".52549" stroke-width=".26458" style="paint-order:normal"/>
    <path transform="matrix(1.6669,1.6669,-1.6669,1.6669,358.57,199.48)" d="m-4.6958 4.0713h-7.9365v-7.9365l7.9365-1e-7z" fill="#9f3d5f" opacity=".56863" stroke-width=".26458" style="paint-order:normal"/>
    <path transform="matrix(1.6669,1.6669,-1.6669,1.6669,358.57,225.94)" d="m-4.6958 4.0713h-7.9365v-7.9365l7.9365-1e-7z" fill="#993a64" opacity=".58627" stroke-width=".26458" style="paint-order:normal"/>
  </g>
  <g fill="#fff" stroke-width=".26458">
    <path d="m932.71 729.44q-1.9352 0.48382-5.1402 1.0281-3.1446 0.54425-7.3172 0.54425-3.6284 0-6.1077-1.028-2.4794-1.0885-3.9912-3.0236-1.5118-1.9352-2.177-4.5377-0.6652-2.6608-0.6652-5.8658v-17.658h5.624v16.448q0 5.7448 1.8142 8.2242t6.1077 2.4794q0.90708 0 1.8747-0.0605 0.96756-0.0605 1.8142-0.12094 0.84662-0.12094 1.5118-0.18142 0.7257-0.12094 1.0281-0.24189v-26.547h5.624v30.539z"/>
    <path d="m948.02 700.27q1.0281-0.66519 3.0841-1.3909 2.1165-0.72566 4.8378-0.72566 3.3865 0 5.9868 1.2094 2.6608 1.2094 4.475 3.3865 1.8142 2.177 2.7213 5.2006 0.96756 3.0236 0.96756 6.6519 0 3.8097-1.149 6.8938-1.0885 3.0236-3.1446 5.1401t-4.9588 3.2655-6.531 1.149q-3.9307 0-6.9544-0.54425t-4.9588-1.0885v-45.052l5.624-0.96756v16.872zm0 25.157q0.84665 0.24189 2.3585 0.48377 1.5723 0.18142 3.8702 0.18142 4.5354 0 7.2567-2.9632 2.7213-3.0236 2.7213-8.5266 0-2.4189-0.48378-4.5354t-1.5723-3.6284q-1.0885-1.5723-2.8422-2.4189-1.6933-0.90709-4.1121-0.90709-2.298 0-4.2331 0.78614t-2.9632 1.6328z"/>
    <path d="m1003.1 729.44q-1.9351 0.48382-5.1402 1.0281-3.1446 0.54425-7.3172 0.54425-3.6284 0-6.1077-1.028-2.4794-1.0885-3.9912-3.0236-1.5118-1.9352-2.177-4.5354-0.6652-2.6608-0.6652-5.8658v-17.658h5.624v16.448q0 5.7448 1.8142 8.2242t6.1077 2.4794q0.90708 0 1.8746-0.0605 0.96756-0.0605 1.8142-0.12094 0.84662-0.12095 1.5118-0.18142 0.72567-0.12094 1.028-0.24189v-26.548h5.6239z"/>
    <path d="m1012.8 699.81q1.9351-0.48377 5.1402-1.028 3.205-0.54425 7.3776-0.54425 3.7493 0 6.2287 1.0885 2.4794 1.028 3.9307 2.9632 1.5119 1.8746 2.1166 4.5354t0.6047 5.8658v17.658h-5.6239v-16.448q0-2.9027-0.4233-4.9587-0.3629-2.056-1.27-3.326-0.9071-1.2699-2.4189-1.8142-1.5118-0.60472-3.7494-0.60472-0.907 0-1.8746 0.0605t-1.8747 0.18142q-0.8466 0.0605-1.5723 0.18141-0.6652 0.12095-0.9675 0.18142v26.548h-5.624z"/>
    <path d="m1052.8 698.91h11.913v4.7168h-11.913v14.513q0 2.3584 0.3628 3.9307 0.3629 1.5118 1.0886 2.4189 0.7256 0.84661 1.8141 1.2094t2.5399 0.36283q2.5399 0 4.0517-0.54425 1.5723-0.60472 2.177-0.8466l1.0885 4.6564q-0.8466 0.4233-2.9632 1.028-2.1165 0.6652-4.8378 0.6652-3.205 0-5.3215-0.78614-2.0561-0.84661-3.326-2.4794-1.27-1.6327-1.8143-3.9912-0.4837-2.4189-0.4837-5.5634v-28.059l5.6239-0.96756z"/>
    <path d="m1096.9 729.44q-1.9352 0.48382-5.1402 1.0281-3.1446 0.54425-7.3172 0.54425-3.6284 0-6.1077-1.028-2.4794-1.0885-3.9912-3.0236-1.5119-1.9352-2.1771-4.5354-0.6651-2.6608-0.6651-5.8658v-17.658h5.6239v16.448q0 5.7448 1.8142 8.2242t6.1077 2.4794q0.9071 0 1.8747-0.0605t1.8142-0.12094q0.8466-0.12095 1.5118-0.18142 0.7257-0.12094 1.0281-0.24189v-26.548h5.6239z"/>
    <path d="m1140 718.6q0 6.1595-3.9326 8.9642-3.933 2.7776-11.219 2.7776h-13.042v-40.021h11.856q7.3448 0 10.584 2.1109 3.2676 2.082 3.2676 6.9978 0 4.0195-1.7928 6.1304-1.7639 2.1109-4.4243 2.9206 3.9617 0.54943 6.333 2.9206 2.3712 2.3711 2.3712 7.2003zm-7.9824-17.986q0-3.0652-1.9085-4.3086-1.9086-1.2723-6.7956-1.2723h-6.1595v11.913h5.8991q4.8004 0 6.8821-1.5326 2.0821-1.5326 2.0821-4.8004zm2.429 17.755q0-2.4868-0.9831-3.9039-0.9543-1.4458-2.9785-2.1109t-6.5352-0.66508h-6.7956v13.793h5.4365q5.0895 0 7.3738-0.66504 2.2845-0.69403 3.3833-2.2266 1.0989-1.5615 1.0989-4.2217z"/>
    <path d="m1167.1 730.35v-4.5108q-2.3134 2.3134-5.0896 3.8748-2.776 1.5326-5.4365 1.5326-3.0362 0-4.9447-1.1278-1.8796-1.1566-2.7471-3.4411-0.8386-2.3134-0.8386-6.3904v-20.27h4.9738v17.899q0 4.3374 0.4338 5.7834 0.4627 1.4458 1.4458 2.1109 0.9832 0.63617 2.8628 0.63617t4.424-1.4458q2.5447-1.4747 4.9156-3.5278v-21.456h4.9739v30.334h-4.9739z"/>
    <path d="m1201 730.35v-3.0073q-1.7061 1.6482-4.1061 2.776t-5.1182 1.1277q-5.4653 0-8.4439-4.1061-2.9784-4.1352-2.9784-11.711 0-7.4316 3.2386-11.856 3.2387-4.4243 8.9644-4.4243 4.5974 0 8.4438 3.3544v-15.21h5.0026v43.056h-5.0026zm0-23.509q-3.9617-3.2676-7.8078-3.2676-3.3833 0-5.5517 2.8628-2.1399 2.8338-2.1399 8.8773 0 11.48 7.2292 11.48 2.3712 0 4.5108-1.1856 2.1688-1.1856 3.7593-2.7182v-16.049z"/>
    <path d="m1240 729.67q0 6.1016-3.0363 9.0795-3.0073 3.0074-10.005 3.0074-6.6799 0-11.017-2.8338l1.8507-4.0195q3.9038 2.7182 9.1665 2.7182 4.2504 0 6.1304-1.7928 1.9085-1.7639 1.9085-5.8412v-3.5567q-1.7061 1.6483-4.0774 2.776-2.3647 1.1261-5.1424 1.1261-5.5809 0-8.5017-3.9617-2.9206-3.9904-2.9206-11.509 0-7.4026 3.2676-11.566t8.9356-4.1639q4.5974 0 8.4438 3.3544v-2.4868h5.0026v29.669zm-5.0003-22.846q-3.9617-3.2676-7.8078-3.2676-3.7882 0-5.7547 2.9495-1.9375 2.9495-1.9375 8.2412 0 5.8412 1.8218 8.5016 1.8218 2.6314 5.4074 2.6314 4.1639 0 8.2704-3.9039v-15.152z"/>
    <path d="m1255.7 692.33q0 1.735-0.7808 2.3712-0.7808 0.60729-2.4869 0.60729-1.8218 0-2.5157-0.78077-0.6941-0.78077-0.6941-2.1977 0-1.5326 0.7519-2.2266 0.7518-0.72291 2.4579-0.72291 1.764 0 2.5158 0.69399 0.7518 0.66508 0.7518 2.2555zm-5.7555 38.026v-30.334h4.9739v30.334z"/>
    <path d="m1268.3 715.76q0 6.0147 2.0531 8.5886 2.0531 2.5447 6.5934 2.5447 2.0242 0 3.5568-0.83855 1.5326-0.86751 2.9495-2.776l4.1061 2.5447q-1.735 2.6025-4.2217 4.0195-2.4869 1.388-6.7374 1.388-6.7669 0-10.121-3.9326-3.3255-3.9326-3.3255-11.885 0-8.3282 3.2387-12.29 3.2676-3.9904 9.8317-3.9904 5.8991 0 8.8487 3.4122 2.9495 3.3832 2.9495 10.439v2.776h-19.721zm14.863-3.9038q-0.058-4.0773-1.735-6.3329-1.6483-2.2555-5.3783-2.2555-3.5568 0-5.3495 2.0531-1.764 2.0242-2.3423 6.5352h14.806z"/>
    <path d="m1310.9 678.38a13.346 13.346 0 0 0 -13.346 13.346 13.346 13.346 0 0 0 13.346 13.346 13.346 13.346 0 0 0 13.346 -13.346 13.346 13.346 0 0 0 -13.346 -13.346zm3.5909 2.0079c0.4462-0.0113 0.8132 0.0438 1.2511 0.11641 1.6099 0.26456 3.2405 1.4407 4.2331 3.1555 1.3346 2.3134 1.0343 5.102-0.488 6.6625-0.7674 0.78405-0.9967 0.82574-1.4972 1.1631 0.3421-0.53673 0.4463-0.7457 0.4463-1.1903 0-0.27931-0.092-0.50755-0.1418-0.63598-0.192-0.49421-0.538-0.70023-0.9384-0.93837-0.4962-0.29292-1.0634-0.38162-1.4263-0.38121-0.2751 4.2e-4 -0.4212 8.4e-4 -0.7882 0.0934-1.735 0.43914-3.6325-0.2434-4.546-1.8292v2e-3c-1.0969-1.8955-0.4088-4.3411 1.5389-5.4644 0.5714-0.33108 1.247-0.64901 1.8726-0.72007 0.1708-0.0189 0.3296-0.0302 0.4796-0.034zm-10.326 4.4734c0.417-0.0151 0.8299 0.0302 1.2261 0.1304 1.0635 0.27099 1.2137 0.44915 1.7559 0.71398-0.634-0.0264-0.8675-0.0151-1.2512 0.20939-0.2419 0.1406-0.3962 0.33071-0.4838 0.43831-0.3296 0.41499-0.3379 0.81618-0.3421 1.2837 0 0.57426 0.2004 1.1127 0.3837 1.4238 0.1376 0.24151 0.2087 0.36548 0.4755 0.6364 1.247 1.2841 1.6056 3.2668 0.6881 4.8521v-2e-3c-1.0927 1.8955-3.5575 2.5232-5.5011 1.3984-0.5756-0.33108-1.1886-0.75526-1.5598-1.2616-0.4129-0.55763-0.588-0.98509-0.7966-1.5423-0.5755-1.5239-0.3711-3.5266 0.6173-5.2414 1.0885-1.8796 2.9819-2.9815 4.7879-3.0391zm11.323 9.1615v2e-3c2.1896 0 3.9663 1.8184 3.9621 4.0664 0 0.66229-0.058 1.4034-0.3129 1.981-0.2752 0.63602-0.5589 0.99927-0.9384 1.4597-1.0301 1.2595-2.8652 2.0853-4.8461 2.0853-2.6692 0-4.938-1.6532-5.5261-3.7535-0.2963-1.0551-0.2169-1.2745-0.2585-1.8768 0.2963 0.56303 0.4212 0.75862 0.8091 0.97968 0.2419 0.13947 0.4838 0.17726 0.6173 0.19805 0.5254 0.0794 0.8758-0.11603 1.2845-0.34545 0.5005-0.28157 0.8633-0.73107 1.0426-1.0426 0.1376-0.24189 0.2087-0.36624 0.313-0.72983 0.4879-1.7233 2.0269-3.0236 3.8578-3.0236z"/>
  </g>
</svg>
