<?xml version="1.0" encoding="UTF-8"?>
<!-- Created with Inkscape (http://www.inkscape.org/) -->
<svg version="1.1" viewBox="0 0 1354 846" xmlns="http://www.w3.org/2000/svg" xmlns:cc="http://creativecommons.org/ns#" xmlns:dc="http://purl.org/dc/elements/1.1/" xmlns:rdf="http://www.w3.org/1999/02/22-rdf-syntax-ns#">
  <defs>
    <filter id="specialBlur" x="-.54" y="-.57" width="2.15" height="2.15" color-interpolation-filters="sRGB">
      <feGaussianBlur id="feGaussianBlur" stdDeviation="61"/>
    </filter>
    <clipPath id="clipPath83062">
      <rect width="1354" height="846" fill="#0e1642"/>
    </clipPath>
  </defs>
  <title>Xplo Tesselation</title>
  <metadata>
    <rdf:RDF>
      <cc:Work rdf:about="">
        <dc:format>image/svg+xml</dc:format>
        <dc:type rdf:resource="http://purl.org/dc/dcmitype/StillImage"/>
        <dc:title>Xplo Tesselation</dc:title>
        <cc:license rdf:resource="http://creativecommons.org/licenses/by-sa/4.0/"/>
        <dc:creator>
          <cc:Agent>
            <dc:title>Rania el-Amina</dc:title>
          </cc:Agent>
        </dc:creator>
        <dc:rights>
          <cc:Agent>
            <dc:title>Ubuntu Budgie</dc:title>
          </cc:Agent>
        </dc:rights>
        <dc:description>Xplo Tesselation wallpaper for Ubuntu Budgie</dc:description>
        <dc:contributor>
          <cc:Agent>
            <dc:title>HEXcube</dc:title>
          </cc:Agent>
        </dc:contributor>
      </cc:Work>
      <cc:License rdf:about="http://creativecommons.org/licenses/by-sa/4.0/">
        <cc:permits rdf:resource="http://creativecommons.org/ns#Reproduction"/>
        <cc:permits rdf:resource="http://creativecommons.org/ns#Distribution"/>
        <cc:requires rdf:resource="http://creativecommons.org/ns#Notice"/>
        <cc:requires rdf:resource="http://creativecommons.org/ns#Attribution"/>
        <cc:permits rdf:resource="http://creativecommons.org/ns#DerivativeWorks"/>
        <cc:requires rdf:resource="http://creativecommons.org/ns#ShareAlike"/>
      </cc:License>
    </rdf:RDF>
  </metadata>
  <rect id="background" width="1354" height="846" fill="#0e1642"/>
  <g id="simulate-mesh-gradient" clip-path="url(#clipPath83062)" filter="url(#specialBlur)">
    <path d="m-93.691 696.4c258.03-132.36 593 66.424 744.07 217.53 50.144 50.148-4.4986-161.5 160.26-326.28 73.225-73.231 700.77 119.45 726.91 171.72 76.515 153.04-509.06 74.413-560.92 74.413-162.55 0-242.79 222.13-366.31 263.31-292.99 97.674-723.53-127.35-704.01-400.69z" clip-path="url(#clipPath83062)" fill="#71a0f6" opacity=".4"/>
    <path d="m-119.31 374.93c161.67-98.13 337.98 116.13 507.9 123.44 266.68 11.465-13.169-462.76 540.28-384.48 52.91 7.4848 92.184-252.22 40.47-200.34-111.39 111.78-655.18 428.44-785.98 72.872-157.36-427.76-438.32-199.29-302.68 388.5z" fill="#832260"/>
    <path d="m262.41-31.807c51.81 56.762 215.68 340.78 339.96 216.52 45.474-45.474 87.816-95.508 143.67-123.44 48.754-24.376 174.65 121.76 265.08 99.154 83.242-20.81 163.81-200.64 137.6-279.24-26.52-79.56-665.52 303.38-696.62 318.92-35.464 17.732-176.24-266.86-189.69-231.9z" fill="#4b1b39"/>
    <path d="m1415.2 834.55c-108.68-26.158-222.9-17.17-334.82-17.17-137.52 0-531.42 107.61-606.68-42.926-9.6906-19.381 477.98-417.74 489.36-406.36 104.07 104.07-63.44 121.38 163.12 234.66 136.3 68.148 351.36 29.236 289.04 231.8z" fill="#072e88"/>
    <path d="m1415.2 834.55c-108.68-26.158-222.9-17.17-334.82-17.17-137.52 0-531.42 107.61-606.68-42.926-9.6906-19.381 477.98-417.74 489.36-406.36 104.07 104.07-63.44 121.38 163.12 234.66 136.3 68.148 351.36 29.236 289.04 231.8z" fill="#010610"/>
    <path d="m-75.97 714.45c96.034-448 768.14 310.52 437.84 357.72-95.512 13.644-155.92 24.832-240.38-31.478-58.078-38.718-80.954-107.26-114.47-163.12-34.9-58.166-71.946-128.24-97.298-171.7" fill="#041533"/>
    <path d="m98.193 443.61c161.67-98.13 609.68 259.72 507.9 123.44-557.52-746.56 997.88-346.22 540.28-384.48-125.32-10.476-101.25-209.52 40.47-200.34 138.95 9.0132-400.5 140.08-531.3 150.14-454.44 34.958-693.02-276.56-557.38 311.22z" fill="#832260"/>
    <path d="m457.91 36.873c51.81 56.762 215.68 340.78 339.96 216.52 45.474-45.474 87.816-95.508 143.67-123.44 48.754-24.376 336.14 159.49 265.08 99.154-202.88-172.29 87.11-241.24 137.6-279.24 66.998-50.44-774.26-60.068-805.36-44.518-35.464 17.732-67.498 96.576-80.942 131.53z" fill="#4b1b39"/>
    <path d="m-158.47 743.13c96.034-448 768.14 310.52 437.84 357.72-95.512 13.644-155.92 24.832-240.38-31.478-58.078-38.718-80.954-107.26-114.47-163.12-34.9-58.166-71.946-128.24-97.298-171.7" fill="#105ce0"/>
    <path d="m1390.7 913.23c-108.68-26.158-222.9-17.17-334.82-17.17-137.52 0-531.42 107.61-606.68-42.926-9.6906-19.381 477.98-417.74 489.36-406.36 104.07 104.07-63.44 121.38 163.12 234.66 136.3 68.148 351.36 29.236 289.04 231.8z" fill="#072e88"/>
    <path d="m-39.307 374.93c161.67-98.13 569.6 308.26 507.9 123.44-104.66-313.56-26.186-519.66 540.28-384.48 45.294 10.809 99.08-156.37 40.47-200.34-111.39-83.546-369.02-20.18-499.82-10.118-454.44 34.958-724.5-116.3-588.86 471.48z" fill="#c1328d" opacity=".5"/>
    <path d="m124.55 325.24c295.44-25.092 403.64 34.062 543.72-246.1 63.414-126.83 115.59 393.8 17.17 492.22-132.88 132.88-604.68-56.394-560.9-246.1z" fill="#af7ca2" opacity=".6"/>
    <path d="m201.85 53.273c525.76 674.08 1057.8-528.88 0 0z" fill="#290e1f" opacity=".2"/>
  </g>
  <g id="tesselations" clip-path="url(#clipPath83062)" opacity=".4">
    <path d="m50 100-50-50 50-50 50 50z" fill="#6f1f5a"/>
    <path d="m50 200-50-50 50-50 50 50z" fill="#72205b"/>
    <path d="m50 300-50-50 50-50 50 50z" fill="#6a2059"/>
    <path d="m50 400-50-50 50-50 50 50z" fill="#541f55"/>
    <path d="m50 500-50-50 50-50 50 50z" fill="#331f55"/>
    <path d="m50 600-50-50 50-50 50 50z" fill="#1d2e71"/>
    <path d="m50 700-50-50 50-50 50 50z" fill="#224da3"/>
    <path d="m50 800-50-50 50-50 50 50z" fill="#2f63c3"/>
    <path d="m50 900-50-50 50-50 50 50z" fill="#3369cc"/>
    <path d="m150 100-50-50 50-50 50 50z" fill="#711f5b"/>
    <path d="m150 200-50-50 50-50 50 50z" fill="#7c225f"/>
    <path d="m150 300-50-50 50-50 50 50z" fill="#7e2562"/>
    <path d="m150 400-50-50 50-50 50 50z" fill="#732963"/>
    <path d="m150 500-50-50 50-50 50 50z" fill="#542960"/>
    <path d="m150 600-50-50 50-50 50 50z" fill="#2c2e6d"/>
    <path d="m150 700-50-50 50-50 50 50z" fill="#20448d"/>
    <path d="m150 800-50-50 50-50 50 50z" fill="#2c5cb2"/>
    <path d="m150 900-50-50 50-50 50 50z" fill="#3165c1"/>
    <path d="m250 100-50-50 50-50 50 50z" fill="#621d56"/>
    <path d="m250 200-50-50 50-50 50 50z" fill="#7d2360"/>
    <path d="m250 300-50-50 50-50 50 50z" fill="#8c2d6c"/>
    <path d="m250 400-50-50 50-50 50 50z" fill="#8e3874"/>
    <path d="m250 500-50-50 50-50 50 50z" fill="#793a71"/>
    <path d="m250 600-50-50 50-50 50 50z" fill="#44346c"/>
    <path d="m250 700-50-50 50-50 50 50z" fill="#224083"/>
    <path d="m250 800-50-50 50-50 50 50z" fill="#2a5cb3"/>
    <path d="m250 900-50-50 50-50 50 50z" fill="#3066c6"/>
    <path d="m350 100-50-50 50-50 50 50z" fill="#4f1a4c"/>
    <path d="m350 200-50-50 50-50 50 50z" fill="#7b2360"/>
    <path d="m350 300-50-50 50-50 50 50z" fill="#983376"/>
    <path d="m350 400-50-50 50-50 50 50z" fill="#a04582"/>
    <path d="m350 500-50-50 50-50 50 50z" fill="#934a81"/>
    <path d="m350 600-50-50 50-50 50 50z" fill="#633e73"/>
    <path d="m350 700-50-50 50-50 50 50z" fill="#2c3c7a"/>
    <path d="m350 800-50-50 50-50 50 50z" fill="#2653a7"/>
    <path d="m350 900-50-50 50-50 50 50z" fill="#2d63c1"/>
    <path d="m450 100-50-50 50-50 50 50z" fill="#441944"/>
    <path d="m450 200-50-50 50-50 50 50z" fill="#74245d"/>
    <path d="m450 300-50-50 50-50 50 50z" fill="#9f397c"/>
    <path d="m450 400-50-50 50-50 50 50z" fill="#a94d8b"/>
    <path d="m450 500-50-50 50-50 50 50z" fill="#9f548a"/>
    <path d="m450 600-50-50 50-50 50 50z" fill="#78467a"/>
    <path d="m450 700-50-50 50-50 50 50z" fill="#39376f"/>
    <path d="m450 800-50-50 50-50 50 50z" fill="#204288"/>
    <path d="m450 900-50-50 50-50 50 50z" fill="#2553a6"/>
    <path d="m550 100-50-50 50-50 50 50z" fill="#431a3f"/>
    <path d="m550 200-50-50 50-50 50 50z" fill="#6d2759"/>
    <path d="m550 300-50-50 50-50 50 50z" fill="#9c3f7d"/>
    <path d="m550 400-50-50 50-50 50 50z" fill="#a8538d"/>
    <path d="m550 500-50-50 50-50 50 50z" fill="#9e588c"/>
    <path d="m550 600-50-50 50-50 50 50z" fill="#7c4b7e"/>
    <path d="m550 700-50-50 50-50 50 50z" fill="#42366c"/>
    <path d="m550 800-50-50 50-50 50 50z" fill="#1d336e"/>
    <path d="m550 900-50-50 50-50 50 50z" fill="#1a3d7f"/>
    <path d="m650 100-50-50 50-50 50 50z" fill="#491e40"/>
    <path d="m650 200-50-50 50-50 50 50z" fill="#6d2e5a"/>
    <path d="m650 300-50-50 50-50 50 50z" fill="#93447c"/>
    <path d="m650 400-50-50 50-50 50 50z" fill="#9a5389"/>
    <path d="m650 500-50-50 50-50 50 50z" fill="#8d5486"/>
    <path d="m650 600-50-50 50-50 50 50z" fill="#6c497d"/>
    <path d="m650 700-50-50 50-50 50 50z" fill="#3e3a74"/>
    <path d="m650 800-50-50 50-50 50 50z" fill="#223573"/>
    <path d="m650 900-50-50 50-50 50 50z" fill="#1d3773"/>
    <path d="m750 100-50-50 50-50 50 50z" fill="#4f2042"/>
    <path d="m750 200-50-50 50-50 50 50z" fill="#6f305c"/>
    <path d="m750 300-50-50 50-50 50 50z" fill="#864176"/>
    <path d="m750 400-50-50 50-50 50 50z" fill="#7e477a"/>
    <path d="m750 500-50-50 50-50 50 50z" fill="#664578"/>
    <path d="m750 600-50-50 50-50 50 50z" fill="#4b427c"/>
    <path d="m750 700-50-50 50-50 50 50z" fill="#334282"/>
    <path d="m750 800-50-50 50-50 50 50z" fill="#284385"/>
    <path d="m750 900-50-50 50-50 50 50z" fill="#26417f"/>
    <path d="m850 100-50-50 50-50 50 50z" fill="#511e42"/>
    <path d="m850 200-50-50 50-50 50 50z" fill="#6c2959"/>
    <path d="m850 300-50-50 50-50 50 50z" fill="#733169"/>
    <path d="m850 400-50-50 50-50 50 50z" fill="#553067"/>
    <path d="m850 500-50-50 50-50 50 50z" fill="#353169"/>
    <path d="m850 600-50-50 50-50 50 50z" fill="#2a3a79"/>
    <path d="m850 700-50-50 50-50 50 50z" fill="#2b478a"/>
    <path d="m850 800-50-50 50-50 50 50z" fill="#2a4a8d"/>
    <path d="m850 900-50-50 50-50 50 50z" fill="#254280"/>
    <path d="m950 100-50-50 50-50 50 50z" fill="#511d42"/>
    <path d="m950 200-50-50 50-50 50 50z" fill="#622152"/>
    <path d="m950 300-50-50 50-50 50 50z" fill="#5b235b"/>
    <path d="m950 400-50-50 50-50 50 50z" fill="#352159"/>
    <path d="m950 500-50-50 50-50 50 50z" fill="#18245e"/>
    <path d="m950 600-50-50 50-50 50 50z" fill="#183372"/>
    <path d="m950 700-50-50 50-50 50 50z" fill="#26478c"/>
    <path d="m950 800-50-50 50-50 50 50z" fill="#274991"/>
    <path d="m950 900-50-50 50-50 50 50z" fill="#1e3c7e"/>
    <path d="m1050 100-50-50 50-50 50 50z" fill="#4b1b40"/>
    <path d="m1050 200-50-50 50-50 50 50z" fill="#501c49"/>
    <path d="m1050 300-50-50 50-50 50 50z" fill="#421c4f"/>
    <path d="m1050 400-50-50 50-50 50 50z" fill="#211a4e"/>
    <path d="m1050 500-50-50 50-50 50 50z" fill="#0d1e54"/>
    <path d="m1050 600-50-50 50-50 50 50z" fill="#132f6e"/>
    <path d="m1050 700-50-50 50-50 50 50z" fill="#244691"/>
    <path d="m1050 800-50-50 50-50 50 50z" fill="#264a97"/>
    <path d="m1050 900-50-50 50-50 50 50z" fill="#1c3b7f"/>
    <path d="m1150 100-50-50 50-50 50 50z" fill="#3d193e"/>
    <path d="m1150 200-50-50 50-50 50 50z" fill="#391940"/>
    <path d="m1150 300-50-50 50-50 50 50z" fill="#281640"/>
    <path d="m1150 400-50-50 50-50 50 50z" fill="#131641"/>
    <path d="m1150 500-50-50 50-50 50 50z" fill="#081a4c"/>
    <path d="m1150 600-50-50 50-50 50 50z" fill="#0f2c6d"/>
    <path d="m1150 700-50-50 50-50 50 50z" fill="#204492"/>
    <path d="m1150 800-50-50 50-50 50 50z" fill="#264a99"/>
    <path d="m1150 900-50-50 50-50 50 50z" fill="#1c3c81"/>
    <path d="m1250 100-50-50 50-50 50 50z" fill="#29173d"/>
    <path d="m1250 200-50-50 50-50 50 50z" fill="#22153a"/>
    <path d="m1250 300-50-50 50-50 50 50z" fill="#151234"/>
    <path d="m1250 400-50-50 50-50 50 50z" fill="#0a1133"/>
    <path d="m1250 500-50-50 50-50 50 50z" fill="#051641"/>
    <path d="m1250 600-50-50 50-50 50 50z" fill="#0b2663"/>
    <path d="m1250 700-50-50 50-50 50 50z" fill="#1b3e8a"/>
    <path d="m1250 800-50-50 50-50 50 50z" fill="#244895"/>
    <path d="m1250 900-50-50 50-50 50 50z" fill="#1c3b7e"/>
    <path d="m1350 100-50-50 50-50 50 50z" fill="#1a143a"/>
    <path d="m1350 200-50-50 50-50 50 50z" fill="#141234"/>
    <path d="m1350 300-50-50 50-50 50 50z" fill="#0c0f2b"/>
    <path d="m1350 400-50-50 50-50 50 50z" fill="#060d27"/>
    <path d="m1350 500-50-50 50-50 50 50z" fill="#041132"/>
    <path d="m1350 600-50-50 50-50 50 50z" fill="#081f51"/>
    <path d="m1350 700-50-50 50-50 50 50z" fill="#17367a"/>
    <path d="m1350 800-50-50 50-50 50 50z" fill="#21438b"/>
    <path d="m1350 900-50-50 50-50 50 50z" fill="#1b3878"/>
    <path d="m0 50-50-50 50-50 50 50z" fill="#661d55"/>
    <path d="m0 150-50-50 50-50 50 50z" fill="#6c1e58"/>
    <path d="m0 250-50-50 50-50 50 50z" fill="#691e57"/>
    <path d="m0 350-50-50 50-50 50 50z" fill="#591d54"/>
    <path d="m0 450-50-50 50-50 50 50z" fill="#3c1b4f"/>
    <path d="m0 550-50-50 50-50 50 50z" fill="#20215a"/>
    <path d="m0 650-50-50 50-50 50 50z" fill="#1c3c8a"/>
    <path d="m0 750-50-50 50-50 50 50z" fill="#295ab7"/>
    <path d="m0 850-50-50 50-50 50 50z" fill="#3267c9"/>
    <path d="m0 950-50-50 50-50 50 50z" fill="#18305e"/>
    <path d="m100 50-50-50 50-50 50 50z" fill="#6d1e59"/>
    <path d="m100 150-50-50 50-50 50 50z" fill="#77205d"/>
    <path d="m100 250-50-50 50-50 50 50z" fill="#78215d"/>
    <path d="m100 350-50-50 50-50 50 50z" fill="#6f235d"/>
    <path d="m100 450-50-50 50-50 50 50z" fill="#552359"/>
    <path d="m100 550-50-50 50-50 50 50z" fill="#302660"/>
    <path d="m100 650-50-50 50-50 50 50z" fill="#1e3b85"/>
    <path d="m100 750-50-50 50-50 50 50z" fill="#2755a9"/>
    <path d="m100 850-50-50 50-50 50 50z" fill="#3165c3"/>
    <path d="m100 950-50-50 50-50 50 50z" fill="#24498e"/>
    <path d="m200 50-50-50 50-50 50 50z" fill="#621d55"/>
    <path d="m200 150-50-50 50-50 50 50z" fill="#75205c"/>
    <path d="m200 250-50-50 50-50 50 50z" fill="#822563"/>
    <path d="m200 350-50-50 50-50 50 50z" fill="#872f6b"/>
    <path d="m200 450-50-50 50-50 50 50z" fill="#79336b"/>
    <path d="m200 550-50-50 50-50 50 50z" fill="#4f3068"/>
    <path d="m200 650-50-50 50-50 50 50z" fill="#253775"/>
    <path d="m200 750-50-50 50-50 50 50z" fill="#254f9c"/>
    <path d="m200 850-50-50 50-50 50 50z" fill="#3063be"/>
    <path d="m200 950-50-50 50-50 50 50z" fill="#2a56a5"/>
    <path d="m300 50-50-50 50-50 50 50z" fill="#4d1a4c"/>
    <path d="m300 150-50-50 50-50 50 50z" fill="#6c1f59"/>
    <path d="m300 250-50-50 50-50 50 50z" fill="#8a2a6a"/>
    <path d="m300 350-50-50 50-50 50 50z" fill="#993a79"/>
    <path d="m300 450-50-50 50-50 50 50z" fill="#94447d"/>
    <path d="m300 550-50-50 50-50 50 50z" fill="#713e74"/>
    <path d="m300 650-50-50 50-50 50 50z" fill="#373972"/>
    <path d="m300 750-50-50 50-50 50 50z" fill="#234b97"/>
    <path d="m300 850-50-50 50-50 50 50z" fill="#2d62c1"/>
    <path d="m300 950-50-50 50-50 50 50z" fill="#2b5cb2"/>
    <path d="m400 50-50-50 50-50 50 50z" fill="#3c1842"/>
    <path d="m400 150-50-50 50-50 50 50z" fill="#611e53"/>
    <path d="m400 250-50-50 50-50 50 50z" fill="#902d6f"/>
    <path d="m400 350-50-50 50-50 50 50z" fill="#a54284"/>
    <path d="m400 450-50-50 50-50 50 50z" fill="#a35089"/>
    <path d="m400 550-50-50 50-50 50 50z" fill="#894a7f"/>
    <path d="m400 650-50-50 50-50 50 50z" fill="#4e3b71"/>
    <path d="m400 750-50-50 50-50 50 50z" fill="#244083"/>
    <path d="m400 850-50-50 50-50 50 50z" fill="#2757ad"/>
    <path d="m400 950-50-50 50-50 50 50z" fill="#2959b0"/>
    <path d="m500 50-50-50 50-50 50 50z" fill="#3a173c"/>
    <path d="m500 150-50-50 50-50 50 50z" fill="#591e4d"/>
    <path d="m500 250-50-50 50-50 50 50z" fill="#8c306e"/>
    <path d="m500 350-50-50 50-50 50 50z" fill="#a94888"/>
    <path d="m500 450-50-50 50-50 50 50z" fill="#a7568e"/>
    <path d="m500 550-50-50 50-50 50 50z" fill="#925286"/>
    <path d="m500 650-50-50 50-50 50 50z" fill="#5f3e73"/>
    <path d="m500 750-50-50 50-50 50 50z" fill="#27336d"/>
    <path d="m500 850-50-50 50-50 50 50z" fill="#1d4287"/>
    <path d="m500 950-50-50 50-50 50 50z" fill="#234e9c"/>
    <path d="m600 50-50-50 50-50 50 50z" fill="#40193b"/>
    <path d="m600 150-50-50 50-50 50 50z" fill="#59224c"/>
    <path d="m600 250-50-50 50-50 50 50z" fill="#85366d"/>
    <path d="m600 350-50-50 50-50 50 50z" fill="#a24d88"/>
    <path d="m600 450-50-50 50-50 50 50z" fill="#9f578d"/>
    <path d="m600 550-50-50 50-50 50 50z" fill="#8a5285"/>
    <path d="m600 650-50-50 50-50 50 50z" fill="#5d4176"/>
    <path d="m600 750-50-50 50-50 50 50z" fill="#2a316c"/>
    <path d="m600 850-50-50 50-50 50 50z" fill="#193470"/>
    <path d="m600 950-50-50 50-50 50 50z" fill="#1e4186"/>
    <path d="m700 50-50-50 50-50 50 50z" fill="#461c3c"/>
    <path d="m700 150-50-50 50-50 50 50z" fill="#5d274d"/>
    <path d="m700 250-50-50 50-50 50 50z" fill="#813b6d"/>
    <path d="m700 350-50-50 50-50 50 50z" fill="#924c81"/>
    <path d="m700 450-50-50 50-50 50 50z" fill="#875083"/>
    <path d="m700 550-50-50 50-50 50 50z" fill="#6e4a7e"/>
    <path d="m700 650-50-50 50-50 50 50z" fill="#4a427c"/>
    <path d="m700 750-50-50 50-50 50 50z" fill="#2b3c7c"/>
    <path d="m700 850-50-50 50-50 50 50z" fill="#223c7a"/>
    <path d="m700 950-50-50 50-50 50 50z" fill="#203f81"/>
    <path d="m800 50-50-50 50-50 50 50z" fill="#481c3c"/>
    <path d="m800 150-50-50 50-50 50 50z" fill="#5e254d"/>
    <path d="m800 250-50-50 50-50 50 50z" fill="#783567"/>
    <path d="m800 350-50-50 50-50 50 50z" fill="#763d71"/>
    <path d="m800 450-50-50 50-50 50 50z" fill="#5c3b6f"/>
    <path d="m800 550-50-50 50-50 50 50z" fill="#413b74"/>
    <path d="m800 650-50-50 50-50 50 50z" fill="#324282"/>
    <path d="m800 750-50-50 50-50 50 50z" fill="#2b478a"/>
    <path d="m800 850-50-50 50-50 50 50z" fill="#284586"/>
    <path d="m800 950-50-50 50-50 50 50z" fill="#244284"/>
    <path d="m900 50-50-50 50-50 50 50z" fill="#4a1b3c"/>
    <path d="m900 150-50-50 50-50 50 50z" fill="#5b204a"/>
    <path d="m900 250-50-50 50-50 50 50z" fill="#69275c"/>
    <path d="m900 350-50-50 50-50 50 50z" fill="#562960"/>
    <path d="m900 450-50-50 50-50 50 50z" fill="#312760"/>
    <path d="m900 550-50-50 50-50 50 50z" fill="#1d2e6b"/>
    <path d="m900 650-50-50 50-50 50 50z" fill="#233f81"/>
    <path d="m900 750-50-50 50-50 50 50z" fill="#2a4b91"/>
    <path d="m900 850-50-50 50-50 50 50z" fill="#244386"/>
    <path d="m900 950-50-50 50-50 50 50z" fill="#254285"/>
    <path d="m1e3 50-50-50 50-50 50 50z" fill="#4b1a3d"/>
    <path d="m1e3 150-50-50 50-50 50 50z" fill="#541d46"/>
    <path d="m1e3 250-50-50 50-50 50 50z" fill="#561f51"/>
    <path d="m1e3 350-50-50 50-50 50 50z" fill="#3c1d54"/>
    <path d="m1e3 450-50-50 50-50 50 50z" fill="#1b1d55"/>
    <path d="m1e3 550-50-50 50-50 50 50z" fill="#102661"/>
    <path d="m1e3 650-50-50 50-50 50 50z" fill="#1d3d80"/>
    <path d="m1e3 750-50-50 50-50 50 50z" fill="#284c96"/>
    <path d="m1e3 850-50-50 50-50 50 50z" fill="#214288"/>
    <path d="m1e3 950-50-50 50-50 50 50z" fill="#244287"/>
    <path d="m1100 50-50-50 50-50 50 50z" fill="#451a3c"/>
    <path d="m1100 150-50-50 50-50 50 50z" fill="#481a42"/>
    <path d="m1100 250-50-50 50-50 50 50z" fill="#401a47"/>
    <path d="m1100 350-50-50 50-50 50 50z" fill="#271847"/>
    <path d="m1100 450-50-50 50-50 50 50z" fill="#101849"/>
    <path d="m1100 550-50-50 50-50 50 50z" fill="#0b235c"/>
    <path d="m1100 650-50-50 50-50 50 50z" fill="#1a3a82"/>
    <path d="m1100 750-50-50 50-50 50 50z" fill="#274c9b"/>
    <path d="m1100 850-50-50 50-50 50 50z" fill="#20428c"/>
    <path d="m1100 950-50-50 50-50 50 50z" fill="#22428a"/>
    <path d="m1200 50-50-50 50-50 50 50z" fill="#37183d"/>
    <path d="m1200 150-50-50 50-50 50 50z" fill="#35183f"/>
    <path d="m1200 250-50-50 50-50 50 50z" fill="#29163d"/>
    <path d="m1200 350-50-50 50-50 50 50z" fill="#151339"/>
    <path d="m1200 450-50-50 50-50 50 50z" fill="#09153f"/>
    <path d="m1200 550-50-50 50-50 50 50z" fill="#082057"/>
    <path d="m1200 650-50-50 50-50 50 50z" fill="#15367f"/>
    <path d="m1200 750-50-50 50-50 50 50z" fill="#244999"/>
    <path d="m1200 850-50-50 50-50 50 50z" fill="#20428b"/>
    <path d="m1200 950-50-50 50-50 50 50z" fill="#21428b"/>
    <path d="m1300 50-50-50 50-50 50 50z" fill="#23163c"/>
    <path d="m1300 150-50-50 50-50 50 50z" fill="#20153b"/>
    <path d="m1300 250-50-50 50-50 50 50z" fill="#161234"/>
    <path d="m1300 350-50-50 50-50 50 50z" fill="#0c0f2d"/>
    <path d="m1300 450-50-50 50-50 50 50z" fill="#051031"/>
    <path d="m1300 550-50-50 50-50 50 50z" fill="#061a48"/>
    <path d="m1300 650-50-50 50-50 50 50z" fill="#102e6f"/>
    <path d="m1300 750-50-50 50-50 50 50z" fill="#20438f"/>
    <path d="m1300 850-50-50 50-50 50 50z" fill="#1f4087"/>
    <path d="m1300 950-50-50 50-50 50 50z" fill="#204189"/>
    <path d="m1400 50-50-50 50-50 50 50z" fill="#120f28"/>
    <path d="m1400 150-50-50 50-50 50 50z" fill="#100e27"/>
    <path d="m1400 250-50-50 50-50 50 50z" fill="#0c0c22"/>
    <path d="m1400 350-50-50 50-50 50 50z" fill="#060a1d"/>
    <path d="m1400 450-50-50 50-50 50 50z" fill="#030b20"/>
    <path d="m1400 550-50-50 50-50 50 50z" fill="#041130"/>
    <path d="m1400 650-50-50 50-50 50 50z" fill="#0b2152"/>
    <path d="m1400 750-50-50 50-50 50 50z" fill="#193571"/>
    <path d="m1400 850-50-50 50-50 50 50z" fill="#19346d"/>
    <path d="m1400 950-50-50 50-50 50 50z" fill="#1c3a7a"/>
  </g>
</svg>
